<svg viewBox="0 0 1040.65 399.35" xmlns="http://www.w3.org/2000/svg"><g fill="#f45d48"><path d="m920.06 61.34a115.69 115.69 0 1 0 115.68 115.66 115.81 115.81 0 0 0 -115.68-115.66zm0 176.5a60.82 60.82 0 1 1 60.82-60.84 60.89 60.89 0 0 1 -60.82 60.84zm-340.62-84.22-20.21-10.1q-13.14-6.47-16.46-10.2a12 12 0 0 1 -3.33-8.18c0-3.9 1.74-7.17 5.25-9.8s8.35-3.94 14.54-3.94q17 0 37.78 20.61l34.14-34.14a89.18 89.18 0 0 0 -72.32-36.36q-31.32 0-51.41 18.48t-20.1 44.54q0 40.41 53.33 67.28l18.58 9.29q24 12.12 24 24.85 0 6.87-6.66 12.12t-17.57 5.25q-10.11 0-23.13-7a85.18 85.18 0 0 1 -23-18l-33.63 36.68q28.67 37.57 76.76 37.57 36.16 0 57.68-19.59t21.51-48.89q0-22-11.92-38.38t-43.83-32.09zm-343.39-87.7h-54.87l.18 19.73c-17.77-18-39.66-24.31-62.18-24.31a115.69 115.69 0 0 0 0 231.38c26.63 0 49.42-11.8 61.16-26.81 0 .91-.08 11.82-.11 13-.22 7.46-1.3 19.41-8.33 31.62a60.6 60.6 0 0 1 -84.37 20.47l-27.29 47.5a114.77 114.77 0 0 0 59.46 16.64c30.36 0 68.22-12 95.07-49.21 22.33-30.92 21.28-60.13 21.28-88.41zm-116.87 171.92a60.82 60.82 0 1 1 60.82-60.84 60.88 60.88 0 0 1 -60.82 60.84zm335.62-171.92h-55.15v110c.11 15.58.09 42.57-11.4 54.14-5.51 5.54-11.51 10.5-24.24 10.5s-18.78-5-24.28-10.5c-11.49-11.57-11.46-38.56-11.35-54.14v-110h-55.11v109.61c-.15 22.57-.43 64.6 27.24 92.45 16.24 16.34 35.58 24.63 63.54 24.63s47.31-8.29 63.55-24.63c27.67-27.85 27.39-69.88 27.24-92.45z"/><path d="m740.05 237.18c-6.29-.85-12.48-5.34-16-13.54-2.41-5.62-3.28-13-3.28-22.09v-88.45h64.81v-47.35h-64.81v-61.5h-55v192.84c0 18.91 1.52 41.83 14 63 10.65 18 29.41 32.55 60.2 32.55 37.33 0 64.19-27 64.19-27l-33-40.58s-14.49 14.37-31.11 12.12z"/></g></svg>