<?xml version="1.0" encoding="utf-8"?>
<!-- Generator: Adobe Illustrator 19.2.1, SVG Export Plug-In . SVG Version: 6.00 Build 0)  -->
<svg version="1.1" id="Layer_1" xmlns="http://www.w3.org/2000/svg" xmlns:xlink="http://www.w3.org/1999/xlink" x="0px" y="0px"
	 viewBox="0 0 203 140.7" style="enable-background:new 0 0 203 140.7;" xml:space="preserve">
<style type="text/css">
	.st0{fill:#FFC949;}
	.st1{fill:#FCB54A;}
	.st2{fill:#F7934C;}
	.st3{fill:#6DABDD;}
	.st4{fill:#3171AE;}
</style>
<g>
	<g>
		<path class="st0" d="M69,51.1l-1.2-1.9c1.7-1.1,2.1-3.3,1.1-4.9c-1.1-1.7-3.3-2.1-4.9-1.1l-1.2-1.9c2.7-1.7,6.3-0.9,8.1,1.8
			C72.5,45.7,71.7,49.3,69,51.1z"/>
	</g>
	<g>
		<polygon class="st1" points="60.9,53 32.8,70.9 28.8,69.7 29.4,65.6 57.5,47.7 		"/>
	</g>
	<g>
		<polygon class="st2" points="31.5,67 56.8,50.9 57.8,52.3 32.4,68.4 31.3,68.1 		"/>
	</g>
	<g>
		
			<rect x="40.8" y="65.1" transform="matrix(0.8439 -0.5366 0.5366 0.8439 -29.1146 33.0569)" class="st1" width="2.9" height="2.9"/>
	</g>
	<g>
		
			<rect x="36.5" y="67.9" transform="matrix(0.8439 -0.5366 0.5366 0.8439 -31.2936 31.1901)" class="st1" width="2.9" height="2.9"/>
	</g>
	<g>
		<path class="st0" d="M67.1,45.3c-3.9-6.1-9.2-9.6-11.9-7.9s-1.7,8,2.1,14.1c3.9,6.1,9.2,9.6,11.9,7.9C71.9,57.7,71,51.4,67.1,45.3
			z M60,49.9c-1.8-2.8-2.2-5.7-1-6.5s3.7,0.9,5.5,3.7c1.8,2.8,2.2,5.7,1,6.5C64.2,54.3,61.8,52.7,60,49.9z"/>
	</g>
</g>
<g>
	<g>
		<g>
			<g>
				<g>
					<g>
						<rect x="147.9" y="0.8" class="st3" width="23.2" height="31.5"/>
					</g>
				</g>
			</g>
			<g>
				<g>
					<g>
						<rect x="156.6" y="24.1" class="st4" width="6" height="8.1"/>
					</g>
				</g>
			</g>
			<g>
				<g>
					<g>
						<g>
							<rect x="152" y="4.4" class="st4" width="14.9" height="2.4"/>
						</g>
					</g>
				</g>
				<g>
					<g>
						<g>
							<rect x="152" y="8.9" class="st4" width="14.9" height="2.4"/>
						</g>
					</g>
				</g>
				<g>
					<g>
						<g>
							<rect x="152" y="13.3" class="st4" width="14.9" height="2.4"/>
						</g>
					</g>
				</g>
				<g>
					<g>
						<g>
							<rect x="152" y="17.7" class="st4" width="14.9" height="2.4"/>
						</g>
					</g>
				</g>
			</g>
		</g>
		<g>
			<g>
				<g>
					<rect x="171" y="9" class="st4" width="15.3" height="23.1"/>
				</g>
			</g>
		</g>
		<g>
			<g>
				<g>
					<g>
						<g>
							<rect x="173" y="11.1" class="st3" width="4.7" height="4.7"/>
						</g>
					</g>
				</g>
				<g>
					<g>
						<g>
							<rect x="173" y="17.3" class="st3" width="4.7" height="4.7"/>
						</g>
					</g>
				</g>
				<g>
					<g>
						<g>
							<rect x="173" y="23.5" class="st3" width="4.7" height="4.7"/>
						</g>
					</g>
				</g>
			</g>
			<g>
				<g>
					<g>
						<g>
							<rect x="179.7" y="11.1" class="st3" width="4.7" height="4.7"/>
						</g>
					</g>
				</g>
				<g>
					<g>
						<g>
							<rect x="179.7" y="17.3" class="st3" width="4.7" height="4.7"/>
						</g>
					</g>
				</g>
				<g>
					<g>
						<g>
							<rect x="179.7" y="23.5" class="st3" width="4.7" height="4.7"/>
						</g>
					</g>
				</g>
			</g>
		</g>
	</g>
</g>
<g>
	<g>
		<g>
			<g>
				<g>
					<g>
						<rect x="148.1" y="71.3" class="st3" width="23.2" height="31.5"/>
					</g>
				</g>
			</g>
			<g>
				<g>
					<g>
						<rect x="156.9" y="94.6" class="st4" width="6" height="8.1"/>
					</g>
				</g>
			</g>
			<g>
				<g>
					<g>
						<g>
							<rect x="152.3" y="74.9" class="st4" width="14.9" height="2.4"/>
						</g>
					</g>
				</g>
				<g>
					<g>
						<g>
							<rect x="152.3" y="79.4" class="st4" width="14.9" height="2.4"/>
						</g>
					</g>
				</g>
				<g>
					<g>
						<g>
							<rect x="152.3" y="83.8" class="st4" width="14.9" height="2.4"/>
						</g>
					</g>
				</g>
				<g>
					<g>
						<g>
							<rect x="152.3" y="88.2" class="st4" width="14.9" height="2.4"/>
						</g>
					</g>
				</g>
			</g>
		</g>
		<g>
			<g>
				<g>
					<rect x="171.3" y="79.5" class="st4" width="15.3" height="23.1"/>
				</g>
			</g>
		</g>
		<g>
			<g>
				<g>
					<g>
						<g>
							<rect x="173.3" y="81.6" class="st3" width="4.7" height="4.7"/>
						</g>
					</g>
				</g>
				<g>
					<g>
						<g>
							<rect x="173.3" y="87.8" class="st3" width="4.7" height="4.7"/>
						</g>
					</g>
				</g>
				<g>
					<g>
						<g>
							<rect x="173.3" y="94" class="st3" width="4.7" height="4.7"/>
						</g>
					</g>
				</g>
			</g>
			<g>
				<g>
					<g>
						<g>
							<rect x="180" y="81.6" class="st3" width="4.7" height="4.7"/>
						</g>
					</g>
				</g>
				<g>
					<g>
						<g>
							<rect x="180" y="87.8" class="st3" width="4.7" height="4.7"/>
						</g>
					</g>
				</g>
				<g>
					<g>
						<g>
							<rect x="180" y="94" class="st3" width="4.7" height="4.7"/>
						</g>
					</g>
				</g>
			</g>
		</g>
	</g>
</g>
<path class="st0" d="M126.4,31.5l3.8-4.3c0-0.1,0.1-0.1,0.1-0.2c0.1-0.1,0.1-0.2,0.1-0.2c0-0.1,0.1-0.2,0.1-0.3s0-0.2,0-0.2
	c0-0.1,0-0.2,0-0.3s0-0.2-0.1-0.2c0-0.1-0.1-0.2-0.1-0.3s-0.1-0.1-0.1-0.2l-3.8-4.3c-0.5-0.6-1.4-0.6-2-0.1s-0.6,1.4-0.1,2l1.7,1.9
	h-14c-0.8,0-1.4,0.6-1.4,1.4s0.6,1.4,1.4,1.4h14l-1.7,1.9c-0.5,0.6-0.5,1.5,0.1,2C125,32.2,125.9,32.1,126.4,31.5z"/>
<path class="st0" d="M126.4,102l3.8-4.3c0-0.1,0.1-0.1,0.1-0.2c0.1-0.1,0.1-0.2,0.1-0.2c0-0.1,0.1-0.2,0.1-0.3c0-0.1,0-0.2,0-0.2
	c0-0.1,0-0.2,0-0.3c0-0.1,0-0.2-0.1-0.2c0-0.1-0.1-0.2-0.1-0.3c0-0.1-0.1-0.1-0.1-0.2l-3.8-4.3c-0.5-0.6-1.4-0.6-2-0.1
	s-0.6,1.4-0.1,2l1.7,1.9h-14c-0.8,0-1.4,0.6-1.4,1.4s0.6,1.4,1.4,1.4h14l-1.7,1.9c-0.5,0.6-0.5,1.5,0.1,2
	C125,102.7,125.9,102.6,126.4,102z"/>
<g>
	<path class="st4" d="M20.7,85l-0.5-1.2h-2.7L17.1,85h-0.8l2.2-5.3h0.8l2.1,5.3H20.7z M18.9,80.3l-1.1,2.9H20L18.9,80.3z"/>
	<path class="st4" d="M24.6,85v-0.5c-0.3,0.3-0.8,0.6-1.4,0.6c-0.8,0-1.2-0.4-1.2-1.2v-2.7h0.6v2.5c0,0.7,0.3,0.9,0.9,0.9
		c0.5,0,0.9-0.3,1.1-0.6v-2.8h0.6V85H24.6z"/>
	<path class="st4" d="M26.5,84.2v-2.5h-0.6v-0.5h0.6v-1.1h0.6v1.1h0.8v0.5h-0.8v2.4c0,0.3,0.1,0.5,0.4,0.5c0.2,0,0.3-0.1,0.4-0.2
		l0.2,0.5c-0.2,0.1-0.4,0.2-0.7,0.2C26.8,85.1,26.5,84.8,26.5,84.2z"/>
	<path class="st4" d="M31.4,85v-2.5c0-0.7-0.3-0.9-0.9-0.9c-0.5,0-0.9,0.3-1.1,0.6V85h-0.6v-5.3h0.6v2c0.3-0.3,0.8-0.7,1.4-0.7
		c0.8,0,1.2,0.4,1.2,1.2V85H31.4z"/>
	<path class="st4" d="M33,83.1c0-1.1,0.8-2,1.9-2c1.2,0,1.9,0.9,1.9,2.1v0.2h-3.1c0,0.7,0.6,1.3,1.4,1.3c0.4,0,0.9-0.2,1.2-0.5
		l0.3,0.4c-0.4,0.4-0.9,0.6-1.5,0.6C33.8,85.1,33,84.3,33,83.1z M34.9,81.5c-0.8,0-1.2,0.7-1.3,1.3h2.5
		C36.1,82.2,35.7,81.5,34.9,81.5z"/>
	<path class="st4" d="M40.3,85v-2.5c0-0.7-0.4-0.9-0.9-0.9c-0.5,0-0.9,0.3-1.1,0.6V85h-0.6v-3.9h0.6v0.6c0.3-0.3,0.8-0.7,1.4-0.7
		c0.8,0,1.2,0.4,1.2,1.2V85H40.3z"/>
	<path class="st4" d="M42.2,84.2v-2.5h-0.6v-0.5h0.6v-1.1h0.6v1.1h0.8v0.5h-0.8v2.4c0,0.3,0.1,0.5,0.4,0.5c0.2,0,0.3-0.1,0.4-0.2
		l0.2,0.5c-0.2,0.1-0.4,0.2-0.7,0.2C42.5,85.1,42.2,84.8,42.2,84.2z"/>
	<path class="st4" d="M44.4,80.2c0-0.2,0.2-0.4,0.4-0.4c0.2,0,0.4,0.2,0.4,0.4s-0.2,0.4-0.4,0.4C44.5,80.6,44.4,80.4,44.4,80.2z
		 M44.5,85v-3.9h0.6V85H44.5z"/>
	<path class="st4" d="M46,83.1c0-1.1,0.8-2,1.9-2c0.7,0,1.1,0.3,1.4,0.7L49,82.1c-0.3-0.4-0.6-0.5-1-0.5c-0.8,0-1.3,0.6-1.3,1.5
		s0.5,1.5,1.3,1.5c0.4,0,0.7-0.2,1-0.5l0.4,0.4c-0.3,0.4-0.7,0.7-1.4,0.7C46.8,85.1,46,84.2,46,83.1z"/>
	<path class="st4" d="M52.6,85v-0.4c-0.3,0.4-0.8,0.5-1.3,0.5c-0.6,0-1.3-0.4-1.3-1.3c0-0.9,0.7-1.3,1.3-1.3c0.5,0,1,0.2,1.3,0.5
		v-0.7c0-0.5-0.4-0.8-1-0.8c-0.5,0-0.8,0.2-1.2,0.5l-0.3-0.4c0.4-0.4,0.9-0.6,1.5-0.6c0.8,0,1.5,0.4,1.5,1.3V85H52.6z M52.6,84.2
		v-0.7C52.4,83.1,52,83,51.6,83c-0.6,0-1,0.4-1,0.8c0,0.5,0.4,0.8,1,0.8C52,84.7,52.4,84.5,52.6,84.2z"/>
	<path class="st4" d="M54.6,84.2v-2.5h-0.6v-0.5h0.6v-1.1h0.6v1.1H56v0.5h-0.8v2.4c0,0.3,0.1,0.5,0.4,0.5c0.2,0,0.3-0.1,0.4-0.2
		l0.2,0.5c-0.2,0.1-0.4,0.2-0.7,0.2C54.9,85.1,54.6,84.8,54.6,84.2z"/>
	<path class="st4" d="M56.6,83.1c0-1.1,0.8-2,1.9-2c1.2,0,1.9,0.9,1.9,2.1v0.2h-3.1c0,0.7,0.6,1.3,1.4,1.3c0.4,0,0.9-0.2,1.2-0.5
		l0.3,0.4c-0.4,0.4-0.9,0.6-1.5,0.6C57.4,85.1,56.6,84.3,56.6,83.1z M58.5,81.5c-0.8,0-1.2,0.7-1.3,1.3h2.5
		C59.7,82.2,59.4,81.5,58.5,81.5z"/>
	<path class="st4" d="M64.1,85v-0.6c-0.3,0.4-0.8,0.7-1.3,0.7c-1,0-1.7-0.8-1.7-2c0-1.2,0.7-2,1.7-2c0.5,0,1,0.3,1.3,0.7v-2.1h0.6
		V85H64.1z M64.1,83.9v-1.7c-0.2-0.3-0.7-0.6-1.2-0.6c-0.8,0-1.2,0.6-1.2,1.5s0.5,1.5,1.2,1.5C63.4,84.6,63.9,84.3,64.1,83.9z"/>
	<path class="st4" d="M68,82.9v-3.3h0.7v3.2c0,1,0.5,1.6,1.5,1.6s1.5-0.6,1.5-1.6v-3.2h0.7v3.3c0,1.3-0.7,2.2-2.2,2.2
		C68.7,85.1,68,84.2,68,82.9z"/>
	<path class="st4" d="M73.3,84.5l0.3-0.4c0.3,0.3,0.7,0.6,1.3,0.6c0.6,0,0.9-0.3,0.9-0.7c0-0.9-2.4-0.4-2.4-1.8
		c0-0.6,0.5-1.1,1.4-1.1c0.7,0,1.1,0.2,1.4,0.6L76,82c-0.2-0.3-0.6-0.5-1.2-0.5c-0.5,0-0.9,0.3-0.9,0.6c0,0.8,2.4,0.3,2.4,1.8
		c0,0.6-0.5,1.2-1.5,1.2C74.2,85.1,73.7,84.9,73.3,84.5z"/>
	<path class="st4" d="M77.1,83.1c0-1.1,0.8-2,1.9-2c1.2,0,1.9,0.9,1.9,2.1v0.2h-3.1c0,0.7,0.6,1.3,1.4,1.3c0.4,0,0.9-0.2,1.2-0.5
		l0.3,0.4c-0.4,0.4-0.9,0.6-1.5,0.6C77.9,85.1,77.1,84.3,77.1,83.1z M79,81.5c-0.8,0-1.2,0.7-1.3,1.3h2.5
		C80.2,82.2,79.9,81.5,79,81.5z"/>
	<path class="st4" d="M81.8,85v-3.9h0.6v0.6c0.3-0.4,0.8-0.7,1.3-0.7v0.6c-0.1,0-0.1,0-0.2,0c-0.4,0-0.9,0.3-1.1,0.6V85H81.8z"/>
</g>
<g>
	<path class="st4" d="M147.7,41.3c0-1.6,1.2-2.8,2.7-2.8c0.9,0,1.6,0.4,2,1.1l-0.6,0.3c-0.3-0.5-0.9-0.8-1.5-0.8
		c-1.2,0-2.1,0.9-2.1,2.2c0,1.3,0.9,2.2,2.1,2.2c0.6,0,1.2-0.3,1.5-0.8l0.6,0.3c-0.4,0.6-1.1,1.1-2,1.1
		C148.9,44.1,147.7,43,147.7,41.3z"/>
	<path class="st4" d="M153,42.1c0-1.1,0.7-2,1.9-2c1.2,0,1.9,0.9,1.9,2c0,1.1-0.7,2-1.9,2C153.8,44.1,153,43.2,153,42.1z
		 M156.2,42.1c0-0.8-0.5-1.5-1.3-1.5c-0.8,0-1.3,0.7-1.3,1.5c0,0.8,0.5,1.5,1.3,1.5C155.8,43.6,156.2,42.9,156.2,42.1z"/>
	<path class="st4" d="M162.5,44v-2.6c0-0.5-0.2-0.8-0.7-0.8c-0.4,0-0.8,0.3-1,0.6V44h-0.6v-2.6c0-0.5-0.2-0.8-0.7-0.8
		c-0.4,0-0.8,0.3-1,0.6V44h-0.6v-3.9h0.6v0.6c0.2-0.2,0.7-0.7,1.3-0.7c0.6,0,0.9,0.3,1,0.7c0.2-0.4,0.7-0.7,1.3-0.7
		c0.7,0,1.1,0.4,1.1,1.2V44H162.5z"/>
	<path class="st4" d="M164.9,43.4v2.1h-0.6v-5.3h0.6v0.6c0.3-0.4,0.8-0.7,1.3-0.7c1,0,1.7,0.8,1.7,2c0,1.2-0.7,2-1.7,2
		C165.7,44.1,165.2,43.8,164.9,43.4z M167.3,42.1c0-0.9-0.5-1.5-1.2-1.5c-0.5,0-0.9,0.3-1.2,0.6v1.7c0.2,0.3,0.7,0.6,1.2,0.6
		C166.8,43.6,167.3,42.9,167.3,42.1z"/>
	<path class="st4" d="M171.3,44v-0.4c-0.3,0.4-0.8,0.5-1.3,0.5c-0.6,0-1.3-0.4-1.3-1.3c0-0.9,0.7-1.3,1.3-1.3c0.5,0,1,0.2,1.3,0.5
		v-0.7c0-0.5-0.4-0.8-1-0.8c-0.5,0-0.8,0.2-1.2,0.5l-0.3-0.4c0.4-0.4,0.9-0.6,1.5-0.6c0.8,0,1.5,0.4,1.5,1.3V44H171.3z M171.3,43.2
		v-0.7c-0.2-0.3-0.6-0.5-1.1-0.5c-0.6,0-1,0.4-1,0.8c0,0.5,0.4,0.8,1,0.8C170.6,43.7,171.1,43.5,171.3,43.2z"/>
	<path class="st4" d="M175.7,44v-2.5c0-0.7-0.4-0.9-0.9-0.9c-0.5,0-0.9,0.3-1.1,0.6V44h-0.6v-3.9h0.6v0.6c0.3-0.3,0.8-0.7,1.4-0.7
		c0.8,0,1.2,0.4,1.2,1.2V44H175.7z"/>
	<path class="st4" d="M177.4,45c0.1,0,0.2,0.1,0.3,0.1c0.3,0,0.4-0.1,0.6-0.4l0.3-0.6l-1.6-3.9h0.7l1.3,3.2l1.3-3.2h0.6l-1.9,4.6
		c-0.2,0.6-0.6,0.8-1.1,0.8c-0.1,0-0.3,0-0.4-0.1L177.4,45z"/>
	<path class="st4" d="M187.3,44l-0.5-1.2h-2.7l-0.5,1.2H183l2.2-5.3h0.8l2.1,5.3H187.3z M185.5,39.3l-1.1,2.9h2.3L185.5,39.3z"/>
</g>
<g>
	<path class="st4" d="M147.7,112.3c0-1.6,1.2-2.8,2.7-2.8c0.9,0,1.6,0.4,2,1.1l-0.6,0.3c-0.3-0.5-0.9-0.8-1.5-0.8
		c-1.2,0-2.1,0.9-2.1,2.2c0,1.3,0.9,2.2,2.1,2.2c0.6,0,1.2-0.3,1.5-0.8l0.6,0.3c-0.4,0.6-1.1,1.1-2,1.1
		C148.9,115.1,147.7,114,147.7,112.3z"/>
	<path class="st4" d="M153,113.1c0-1.1,0.7-2,1.9-2c1.2,0,1.9,0.9,1.9,2c0,1.1-0.7,2-1.9,2C153.8,115.1,153,114.2,153,113.1z
		 M156.2,113.1c0-0.8-0.5-1.5-1.3-1.5c-0.8,0-1.3,0.7-1.3,1.5c0,0.8,0.5,1.5,1.3,1.5C155.8,114.6,156.2,113.9,156.2,113.1z"/>
	<path class="st4" d="M162.5,115v-2.6c0-0.5-0.2-0.8-0.7-0.8c-0.4,0-0.8,0.3-1,0.6v2.8h-0.6v-2.6c0-0.5-0.2-0.8-0.7-0.8
		c-0.4,0-0.8,0.3-1,0.6v2.8h-0.6v-3.9h0.6v0.6c0.2-0.2,0.7-0.7,1.3-0.7c0.6,0,0.9,0.3,1,0.7c0.2-0.4,0.7-0.7,1.3-0.7
		c0.7,0,1.1,0.4,1.1,1.2v2.8H162.5z"/>
	<path class="st4" d="M164.9,114.4v2.1h-0.6v-5.3h0.6v0.6c0.3-0.4,0.8-0.7,1.3-0.7c1,0,1.7,0.8,1.7,2c0,1.2-0.7,2-1.7,2
		C165.7,115.1,165.2,114.8,164.9,114.4z M167.3,113.1c0-0.9-0.5-1.5-1.2-1.5c-0.5,0-0.9,0.3-1.2,0.6v1.7c0.2,0.3,0.7,0.6,1.2,0.6
		C166.8,114.6,167.3,113.9,167.3,113.1z"/>
	<path class="st4" d="M171.3,115v-0.4c-0.3,0.4-0.8,0.5-1.3,0.5c-0.6,0-1.3-0.4-1.3-1.3c0-0.9,0.7-1.3,1.3-1.3c0.5,0,1,0.2,1.3,0.5
		v-0.7c0-0.5-0.4-0.8-1-0.8c-0.5,0-0.8,0.2-1.2,0.5l-0.3-0.4c0.4-0.4,0.9-0.6,1.5-0.6c0.8,0,1.5,0.4,1.5,1.3v2.7H171.3z
		 M171.3,114.2v-0.7c-0.2-0.3-0.6-0.5-1.1-0.5c-0.6,0-1,0.4-1,0.8c0,0.5,0.4,0.8,1,0.8C170.6,114.7,171.1,114.5,171.3,114.2z"/>
	<path class="st4" d="M175.7,115v-2.5c0-0.7-0.4-0.9-0.9-0.9c-0.5,0-0.9,0.3-1.1,0.6v2.8h-0.6v-3.9h0.6v0.6c0.3-0.3,0.8-0.7,1.4-0.7
		c0.8,0,1.2,0.4,1.2,1.2v2.7H175.7z"/>
	<path class="st4" d="M177.4,116c0.1,0,0.2,0.1,0.3,0.1c0.3,0,0.4-0.1,0.6-0.4l0.3-0.6l-1.6-3.9h0.7l1.3,3.2l1.3-3.2h0.6l-1.9,4.6
		c-0.2,0.6-0.6,0.8-1.1,0.8c-0.1,0-0.3,0-0.4-0.1L177.4,116z"/>
	<path class="st4" d="M183.5,115v-5.3h2.4c0.9,0,1.5,0.6,1.5,1.4c0,0.7-0.4,1.1-0.9,1.2c0.6,0.1,1,0.7,1,1.3c0,0.9-0.6,1.4-1.5,1.4
		H183.5z M186.7,111.1c0-0.5-0.3-0.9-0.9-0.9h-1.6v1.7h1.6C186.4,112,186.7,111.6,186.7,111.1z M186.8,113.5c0-0.5-0.3-0.9-1-0.9
		h-1.6v1.8h1.6C186.4,114.4,186.8,114.1,186.8,113.5z"/>
</g>
</svg>
