<?xml version="1.0" encoding="utf-8"?>
<!-- Generator: Adobe Illustrator 19.2.1, SVG Export Plug-In . SVG Version: 6.00 Build 0)  -->
<svg version="1.1" id="Layer_1" xmlns="http://www.w3.org/2000/svg" xmlns:xlink="http://www.w3.org/1999/xlink" x="0px" y="0px"
	 viewBox="0 0 600.3 312" style="enable-background:new 0 0 600.3 312;" xml:space="preserve">
<style type="text/css">
	.st0{fill:#FFC949;}
	.st1{fill:#FCB54A;}
	.st2{fill:#F7934C;}
	.st3{fill:#6DABDD;}
	.st4{fill:#3171AE;}
</style>
<g>
	<g>
		<path class="st0" d="M223.3,138.6l-3.2-5.1c4.6-3,5.7-8.9,3-13.2c-3-4.6-8.9-5.7-13.2-3l-3.2-5.1c7.3-4.6,17-2.4,21.8,4.9
			C232.7,124,230.6,133.7,223.3,138.6z"/>
	</g>
	<g>
		<polygon class="st1" points="201.5,143.7 125.7,191.9 115,188.7 116.6,177.7 192.3,129.4 		"/>
	</g>
	<g>
		<polygon class="st2" points="122.2,181.4 190.4,138 193.1,141.8 124.7,185.2 121.7,184.4 		"/>
	</g>
	<g>
		
			<rect x="147.3" y="176.3" transform="matrix(0.8439 -0.5366 0.5366 0.8439 -73.0955 109.2646)" class="st1" width="7.8" height="7.8"/>
	</g>
	<g>
		
			<rect x="135.7" y="183.9" transform="matrix(0.8439 -0.5366 0.5366 0.8439 -78.9684 104.233)" class="st1" width="7.8" height="7.8"/>
	</g>
	<g>
		<path class="st0" d="M218.2,122.9c-10.5-16.4-24.8-25.9-32.1-21.3s-4.6,21.6,5.7,38c10.5,16.4,24.8,25.9,32.1,21.3
			C231.1,156.4,228.7,139.4,218.2,122.9z M199.1,135.3c-4.9-7.5-5.9-15.4-2.7-17.5c3.2-2.2,10,2.4,14.8,10s5.9,15.4,2.7,17.5
			C210.4,147.2,203.9,142.9,199.1,135.3z"/>
	</g>
</g>
<g>
	<g>
		<g>
			<g>
				<g>
					<g>
						<rect x="436" y="3" class="st3" width="62.5" height="84.9"/>
					</g>
				</g>
			</g>
			<g>
				<g>
					<g>
						<rect x="459.4" y="65.8" class="st4" width="16.2" height="21.8"/>
					</g>
				</g>
			</g>
			<g>
				<g>
					<g>
						<g>
							<rect x="447" y="12.7" class="st4" width="40.2" height="6.5"/>
						</g>
					</g>
				</g>
				<g>
					<g>
						<g>
							<rect x="447" y="24.8" class="st4" width="40.2" height="6.5"/>
						</g>
					</g>
				</g>
				<g>
					<g>
						<g>
							<rect x="447" y="36.7" class="st4" width="40.2" height="6.5"/>
						</g>
					</g>
				</g>
				<g>
					<g>
						<g>
							<rect x="447" y="48.6" class="st4" width="40.2" height="6.5"/>
						</g>
					</g>
				</g>
			</g>
		</g>
		<g>
			<g>
				<g>
					<rect x="498.2" y="25.1" class="st4" width="41.2" height="62.3"/>
				</g>
			</g>
		</g>
		<g>
			<g>
				<g>
					<g>
						<g>
							<rect x="503.6" y="30.8" class="st3" width="12.7" height="12.7"/>
						</g>
					</g>
				</g>
				<g>
					<g>
						<g>
							<rect x="503.6" y="47.5" class="st3" width="12.7" height="12.7"/>
						</g>
					</g>
				</g>
				<g>
					<g>
						<g>
							<rect x="503.6" y="64.2" class="st3" width="12.7" height="12.7"/>
						</g>
					</g>
				</g>
			</g>
			<g>
				<g>
					<g>
						<g>
							<rect x="521.7" y="30.8" class="st3" width="12.7" height="12.7"/>
						</g>
					</g>
				</g>
				<g>
					<g>
						<g>
							<rect x="521.7" y="47.5" class="st3" width="12.7" height="12.7"/>
						</g>
					</g>
				</g>
				<g>
					<g>
						<g>
							<rect x="521.7" y="64.2" class="st3" width="12.7" height="12.7"/>
						</g>
					</g>
				</g>
			</g>
		</g>
	</g>
</g>
<g>
	<g>
		<g>
			<g>
				<g>
					<g>
						<rect x="436.5" y="193" class="st3" width="62.5" height="84.9"/>
					</g>
				</g>
			</g>
			<g>
				<g>
					<g>
						<rect x="460.2" y="255.8" class="st4" width="16.2" height="21.8"/>
					</g>
				</g>
			</g>
			<g>
				<g>
					<g>
						<g>
							<rect x="447.8" y="202.7" class="st4" width="40.2" height="6.5"/>
						</g>
					</g>
				</g>
				<g>
					<g>
						<g>
							<rect x="447.8" y="214.9" class="st4" width="40.2" height="6.5"/>
						</g>
					</g>
				</g>
				<g>
					<g>
						<g>
							<rect x="447.8" y="226.7" class="st4" width="40.2" height="6.5"/>
						</g>
					</g>
				</g>
				<g>
					<g>
						<g>
							<rect x="447.8" y="238.6" class="st4" width="40.2" height="6.5"/>
						</g>
					</g>
				</g>
			</g>
		</g>
		<g>
			<g>
				<g>
					<rect x="499" y="215.1" class="st4" width="41.2" height="62.3"/>
				</g>
			</g>
		</g>
		<g>
			<g>
				<g>
					<g>
						<g>
							<rect x="504.4" y="220.8" class="st3" width="12.7" height="12.7"/>
						</g>
					</g>
				</g>
				<g>
					<g>
						<g>
							<rect x="504.4" y="237.5" class="st3" width="12.7" height="12.7"/>
						</g>
					</g>
				</g>
				<g>
					<g>
						<g>
							<rect x="504.4" y="254.2" class="st3" width="12.7" height="12.7"/>
						</g>
					</g>
				</g>
			</g>
			<g>
				<g>
					<g>
						<g>
							<rect x="522.5" y="220.8" class="st3" width="12.7" height="12.7"/>
						</g>
					</g>
				</g>
				<g>
					<g>
						<g>
							<rect x="522.5" y="237.5" class="st3" width="12.7" height="12.7"/>
						</g>
					</g>
				</g>
				<g>
					<g>
						<g>
							<rect x="522.5" y="254.2" class="st3" width="12.7" height="12.7"/>
						</g>
					</g>
				</g>
			</g>
		</g>
	</g>
</g>
<path class="st0" d="M378,85.7l10.2-11.6c0-0.3,0.3-0.3,0.3-0.5c0.3-0.3,0.3-0.5,0.3-0.5c0-0.3,0.3-0.5,0.3-0.8c0-0.3,0-0.5,0-0.5
	c0-0.3,0-0.5,0-0.8s0-0.5-0.3-0.5c0-0.3-0.3-0.5-0.3-0.8c0-0.3-0.3-0.3-0.3-0.5L378,57.4c-1.3-1.6-3.8-1.6-5.4-0.3
	c-1.6,1.3-1.6,3.8-0.3,5.4l4.6,5.1h-37.7c-2.2,0-3.8,1.6-3.8,3.8c0,2.2,1.6,3.8,3.8,3.8h37.7l-4.6,5.1c-1.3,1.6-1.3,4,0.3,5.4
	C374.3,87.6,376.7,87.4,378,85.7z"/>
<path class="st0" d="M378,275.8l10.2-11.6c0-0.3,0.3-0.3,0.3-0.5c0.3-0.3,0.3-0.5,0.3-0.5c0-0.3,0.3-0.5,0.3-0.8s0-0.5,0-0.5
	c0-0.3,0-0.5,0-0.8c0-0.3,0-0.5-0.3-0.5c0-0.3-0.3-0.5-0.3-0.8c0-0.3-0.3-0.3-0.3-0.5L378,247.5c-1.3-1.6-3.8-1.6-5.4-0.3
	s-1.6,3.8-0.3,5.4l4.6,5.1h-37.7c-2.2,0-3.8,1.6-3.8,3.8c0,2.2,1.6,3.8,3.8,3.8h37.7l-4.6,5.1c-1.3,1.6-1.3,4,0.3,5.4
	C374.3,277.7,376.7,277.4,378,275.8z"/>
<g>
	<path class="st4" d="M107.1,225.6l-1.2-3h-6.6l-1.2,3h-1.9l5.4-13.3h2.1l5.4,13.3H107.1z M102.6,213.9l-2.8,7.2h5.7L102.6,213.9z"
		/>
	<path class="st4" d="M116.9,225.6v-1.4c-0.7,0.8-2,1.6-3.4,1.6c-2,0-3.1-1-3.1-3.1v-6.8h1.5v6.4c0,1.7,0.9,2.2,2.2,2.2
		c1.2,0,2.3-0.7,2.8-1.5v-7.1h1.5v9.7H116.9z"/>
	<path class="st4" d="M121.7,223.6v-6.3h-1.6v-1.3h1.6v-2.6h1.5v2.6h2v1.3h-2v6c0,0.7,0.3,1.2,1,1.2c0.4,0,0.8-0.2,1-0.4l0.4,1.1
		c-0.4,0.4-0.9,0.6-1.8,0.6C122.5,225.8,121.7,225,121.7,223.6z"/>
	<path class="st4" d="M133.9,225.6v-6.4c0-1.7-0.9-2.2-2.2-2.2c-1.2,0-2.3,0.7-2.8,1.5v7.1h-1.5v-13.3h1.5v5.1
		c0.7-0.8,2-1.6,3.4-1.6c2,0,3.1,1,3.1,3.1v6.8H133.9z"/>
	<path class="st4" d="M137.8,220.7c0-2.8,2-5.1,4.8-5.1c2.9,0,4.6,2.3,4.6,5.2v0.4h-7.8c0.1,1.8,1.4,3.3,3.5,3.3
		c1.1,0,2.2-0.4,3-1.2l0.7,1c-1,1-2.3,1.5-3.8,1.5C139.9,225.8,137.8,223.8,137.8,220.7z M142.5,216.9c-2.1,0-3.1,1.7-3.2,3.2h6.3
		C145.7,218.7,144.7,216.9,142.5,216.9z"/>
	<path class="st4" d="M156.2,225.6v-6.3c0-1.7-0.9-2.2-2.2-2.2c-1.2,0-2.3,0.7-2.9,1.5v7.1h-1.5v-9.7h1.5v1.4c0.7-0.8,2-1.6,3.5-1.6
		c2,0,3.1,1,3.1,3.1v6.8H156.2z"/>
	<path class="st4" d="M161,223.6v-6.3h-1.6v-1.3h1.6v-2.6h1.5v2.6h2v1.3h-2v6c0,0.7,0.3,1.2,1,1.2c0.4,0,0.8-0.2,1-0.4l0.4,1.1
		c-0.4,0.4-0.9,0.6-1.8,0.6C161.7,225.8,161,225,161,223.6z"/>
	<path class="st4" d="M166.3,213.5c0-0.6,0.5-1,1-1c0.6,0,1,0.5,1,1s-0.4,1-1,1C166.7,214.5,166.3,214.1,166.3,213.5z M166.5,225.6
		v-9.7h1.5v9.7H166.5z"/>
	<path class="st4" d="M170.5,220.7c0-2.9,1.9-5.1,4.8-5.1c1.8,0,2.8,0.7,3.5,1.7l-1,0.9c-0.6-0.9-1.5-1.2-2.5-1.2
		c-2,0-3.3,1.6-3.3,3.7c0,2.1,1.3,3.7,3.3,3.7c1,0,1.8-0.4,2.5-1.3l1,0.9c-0.7,1-1.8,1.7-3.5,1.7
		C172.4,225.8,170.5,223.6,170.5,220.7z"/>
	<path class="st4" d="M187,225.6v-1.1c-0.8,0.9-1.9,1.3-3.2,1.3c-1.6,0-3.4-1.1-3.4-3.2c0-2.2,1.7-3.2,3.4-3.2
		c1.3,0,2.4,0.4,3.2,1.3V219c0-1.3-1-2-2.4-2c-1.2,0-2.1,0.4-3,1.3l-0.7-1c1-1.1,2.3-1.6,3.9-1.6c2.1,0,3.7,0.9,3.7,3.3v6.6H187z
		 M187,223.5v-1.8c-0.6-0.8-1.6-1.2-2.6-1.2c-1.4,0-2.4,0.9-2.4,2.1c0,1.2,1,2.1,2.4,2.1C185.4,224.7,186.4,224.3,187,223.5z"/>
	<path class="st4" d="M191.8,223.6v-6.3h-1.6v-1.3h1.6v-2.6h1.5v2.6h2v1.3h-2v6c0,0.7,0.3,1.2,1,1.2c0.4,0,0.8-0.2,1-0.4l0.4,1.1
		c-0.4,0.4-0.9,0.6-1.8,0.6C192.5,225.8,191.8,225,191.8,223.6z"/>
	<path class="st4" d="M196.8,220.7c0-2.8,2-5.1,4.8-5.1c2.9,0,4.6,2.3,4.6,5.2v0.4h-7.8c0.1,1.8,1.4,3.3,3.5,3.3
		c1.1,0,2.2-0.4,3-1.2l0.7,1c-1,1-2.3,1.5-3.8,1.5C198.9,225.8,196.8,223.8,196.8,220.7z M201.6,216.9c-2.1,0-3.1,1.7-3.2,3.2h6.3
		C204.7,218.7,203.8,216.9,201.6,216.9z"/>
	<path class="st4" d="M215.7,225.6v-1.4c-0.7,1-1.9,1.7-3.3,1.7c-2.5,0-4.3-1.9-4.3-5.1c0-3.1,1.8-5.1,4.3-5.1
		c1.3,0,2.5,0.6,3.3,1.7v-5.1h1.5v13.3H215.7z M215.7,222.9v-4.4c-0.5-0.8-1.7-1.6-2.9-1.6c-2,0-3.1,1.6-3.1,3.7
		c0,2.1,1.2,3.7,3.1,3.7C214,224.5,215.1,223.8,215.7,222.9z"/>
	<path class="st4" d="M231.9,225.6v-1.4c-0.7,0.8-2,1.6-3.4,1.6c-2,0-3.1-1-3.1-3.1v-6.8h1.5v6.4c0,1.7,0.9,2.2,2.2,2.2
		c1.2,0,2.3-0.7,2.8-1.5v-7.1h1.5v9.7H231.9z"/>
	<path class="st4" d="M235.5,224.3l0.8-1.1c0.6,0.7,1.9,1.4,3.2,1.4c1.5,0,2.3-0.7,2.3-1.7c0-2.3-6-0.9-6-4.5c0-1.5,1.3-2.8,3.6-2.8
		c1.7,0,2.8,0.6,3.6,1.4l-0.7,1c-0.6-0.7-1.6-1.2-2.9-1.2c-1.3,0-2.1,0.7-2.1,1.5c0,2.1,6,0.7,6,4.5c0,1.6-1.3,2.9-3.8,2.9
		C237.8,225.8,236.5,225.3,235.5,224.3z"/>
	<path class="st4" d="M245.1,220.7c0-2.8,2-5.1,4.8-5.1c2.9,0,4.6,2.3,4.6,5.2v0.4h-7.8c0.1,1.8,1.4,3.3,3.5,3.3
		c1.1,0,2.2-0.4,3-1.2l0.7,1c-1,1-2.3,1.5-3.8,1.5C247.2,225.8,245.1,223.8,245.1,220.7z M249.8,216.9c-2.1,0-3.1,1.7-3.2,3.2h6.3
		C253,218.7,252,216.9,249.8,216.9z"/>
	<path class="st4" d="M256.9,225.6v-9.7h1.5v1.5c0.8-1,1.9-1.8,3.2-1.8v1.5c-0.2,0-0.4,0-0.6,0c-0.9,0-2.2,0.8-2.6,1.5v6.8H256.9z"
		/>
</g>
<g>
	<path class="st4" d="M438.2,107.6c0-4.1,3-6.9,6.9-6.9c2.4,0,4,1.1,5.1,2.6l-1.4,0.8c-0.8-1.1-2.2-1.9-3.7-1.9
		c-2.9,0-5.1,2.2-5.1,5.4c0,3.2,2.2,5.4,5.1,5.4c1.5,0,2.9-0.8,3.7-1.9l1.4,0.8c-1.1,1.5-2.7,2.7-5.1,2.7
		C441.2,114.5,438.2,111.7,438.2,107.6z"/>
	<path class="st4" d="M451.7,109.4c0-2.8,1.8-5.1,4.8-5.1s4.8,2.3,4.8,5.1c0,2.8-1.8,5.1-4.8,5.1S451.7,112.2,451.7,109.4z
		 M459.6,109.4c0-2-1.1-3.7-3.2-3.7s-3.2,1.8-3.2,3.7c0,2,1.1,3.7,3.2,3.7S459.6,111.4,459.6,109.4z"/>
	<path class="st4" d="M475.3,114.3v-6.6c0-1.2-0.5-2-1.8-2c-1,0-2.1,0.7-2.6,1.5v7.1h-1.5v-6.6c0-1.2-0.5-2-1.8-2
		c-1,0-2,0.7-2.5,1.5v7.1h-1.5v-9.7h1.5v1.4c0.4-0.6,1.7-1.6,3.1-1.6c1.5,0,2.3,0.8,2.6,1.8c0.5-0.9,1.8-1.8,3.2-1.8
		c1.8,0,2.7,1,2.7,2.9v7H475.3z"/>
	<path class="st4" d="M481.3,112.8v5.1h-1.5v-13.3h1.5v1.4c0.7-1,1.9-1.7,3.3-1.7c2.5,0,4.3,1.9,4.3,5.1c0,3.1-1.8,5.1-4.3,5.1
		C483.3,114.5,482.1,113.9,481.3,112.8z M487.3,109.4c0-2.1-1.2-3.7-3.1-3.7c-1.2,0-2.4,0.7-2.9,1.5v4.4c0.5,0.8,1.7,1.6,2.9,1.6
		C486.1,113.2,487.3,111.6,487.3,109.4z"/>
	<path class="st4" d="M497.3,114.3v-1.1c-0.8,0.9-1.9,1.3-3.2,1.3c-1.6,0-3.4-1.1-3.4-3.2c0-2.2,1.7-3.2,3.4-3.2
		c1.3,0,2.4,0.4,3.2,1.3v-1.7c0-1.3-1-2-2.4-2c-1.2,0-2.1,0.4-3,1.3l-0.7-1c1-1.1,2.3-1.6,3.9-1.6c2.1,0,3.7,0.9,3.7,3.3v6.6H497.3z
		 M497.3,112.2v-1.8c-0.6-0.8-1.6-1.2-2.6-1.2c-1.4,0-2.4,0.9-2.4,2.1c0,1.2,1,2.1,2.4,2.1C495.7,113.4,496.7,113,497.3,112.2z"/>
	<path class="st4" d="M508.4,114.3v-6.3c0-1.7-0.9-2.2-2.2-2.2c-1.2,0-2.3,0.7-2.9,1.5v7.1h-1.5v-9.7h1.5v1.4c0.7-0.8,2-1.6,3.5-1.6
		c2,0,3.1,1,3.1,3.1v6.8H508.4z"/>
	<path class="st4" d="M512.6,116.7c0.2,0.1,0.6,0.2,0.8,0.2c0.7,0,1.1-0.2,1.4-1l0.6-1.5l-4-9.8h1.6l3.2,7.9l3.2-7.9h1.6l-4.8,11.6
		c-0.6,1.4-1.6,1.9-2.8,2c-0.3,0-0.8-0.1-1.1-0.1L512.6,116.7z"/>
	<path class="st4" d="M537.4,114.3l-1.2-3h-6.6l-1.2,3h-1.9l5.4-13.3h2.1l5.4,13.3H537.4z M532.9,102.6l-2.8,7.2h5.7L532.9,102.6z"
		/>
</g>
<g>
	<path class="st4" d="M438.5,296.9c0-4.1,3-6.9,6.9-6.9c2.4,0,4,1.1,5.1,2.6l-1.4,0.8c-0.8-1.1-2.2-1.9-3.7-1.9
		c-2.9,0-5.1,2.2-5.1,5.4c0,3.2,2.2,5.4,5.1,5.4c1.5,0,2.9-0.8,3.7-1.9l1.4,0.8c-1.1,1.5-2.7,2.7-5.1,2.7
		C441.5,303.8,438.5,301,438.5,296.9z"/>
	<path class="st4" d="M451.9,298.7c0-2.8,1.8-5.1,4.8-5.1s4.8,2.3,4.8,5.1c0,2.8-1.8,5.1-4.8,5.1S451.9,301.5,451.9,298.7z
		 M459.9,298.7c0-2-1.1-3.7-3.2-3.7s-3.2,1.8-3.2,3.7c0,2,1.1,3.7,3.2,3.7S459.9,300.7,459.9,298.7z"/>
	<path class="st4" d="M475.6,303.6V297c0-1.2-0.5-2-1.8-2c-1,0-2.1,0.7-2.6,1.5v7.1h-1.5V297c0-1.2-0.5-2-1.8-2c-1,0-2,0.7-2.5,1.5
		v7.1h-1.5v-9.7h1.5v1.4c0.4-0.6,1.7-1.6,3.1-1.6c1.5,0,2.3,0.8,2.6,1.8c0.5-0.9,1.8-1.8,3.2-1.8c1.8,0,2.7,1,2.7,2.9v7H475.6z"/>
	<path class="st4" d="M481.6,302.1v5.1h-1.5v-13.3h1.5v1.4c0.7-1,1.9-1.7,3.3-1.7c2.5,0,4.3,1.9,4.3,5.1c0,3.1-1.8,5.1-4.3,5.1
		C483.5,303.8,482.4,303.2,481.6,302.1z M487.6,298.7c0-2.1-1.2-3.7-3.1-3.7c-1.2,0-2.4,0.7-2.9,1.5v4.4c0.5,0.8,1.7,1.6,2.9,1.6
		C486.4,302.5,487.6,300.9,487.6,298.7z"/>
	<path class="st4" d="M497.6,303.6v-1.1c-0.8,0.9-1.9,1.3-3.2,1.3c-1.6,0-3.4-1.1-3.4-3.2c0-2.2,1.7-3.2,3.4-3.2
		c1.3,0,2.4,0.4,3.2,1.3V297c0-1.3-1-2-2.4-2c-1.2,0-2.1,0.4-3,1.3l-0.7-1c1-1.1,2.3-1.6,3.9-1.6c2.1,0,3.7,0.9,3.7,3.3v6.6H497.6z
		 M497.6,301.5v-1.8c-0.6-0.8-1.6-1.2-2.6-1.2c-1.4,0-2.4,0.9-2.4,2.1c0,1.2,1,2.1,2.4,2.1C496,302.7,497,302.3,497.6,301.5z"/>
	<path class="st4" d="M508.6,303.6v-6.3c0-1.7-0.9-2.2-2.2-2.2c-1.2,0-2.3,0.7-2.9,1.5v7.1h-1.5v-9.7h1.5v1.4c0.7-0.8,2-1.6,3.5-1.6
		c2,0,3.1,1,3.1,3.1v6.8H508.6z"/>
	<path class="st4" d="M512.8,306c0.2,0.1,0.6,0.2,0.8,0.2c0.7,0,1.1-0.2,1.4-1l0.6-1.5l-4-9.8h1.6l3.2,7.9l3.2-7.9h1.6l-4.8,11.6
		c-0.6,1.4-1.6,1.9-2.8,2c-0.3,0-0.8-0.1-1.1-0.1L512.8,306z"/>
	<path class="st4" d="M528.2,303.6v-13.3h5.9c2.3,0,3.7,1.4,3.7,3.4c0,1.7-1.1,2.8-2.3,3.1c1.4,0.2,2.6,1.7,2.6,3.3
		c0,2.1-1.4,3.6-3.9,3.6H528.2z M536.1,293.9c0-1.2-0.8-2.2-2.3-2.2h-4v4.3h4C535.3,296,536.1,295.1,536.1,293.9z M536.4,299.8
		c0-1.2-0.8-2.3-2.5-2.3h-4.1v4.6h4.1C535.5,302.1,536.4,301.2,536.4,299.8z"/>
</g>
</svg>
