<?xml version="1.0" encoding="utf-8"?>
<!-- Generator: Adobe Illustrator 19.2.1, SVG Export Plug-In . SVG Version: 6.00 Build 0)  -->
<svg version="1.1" id="Layer_1" xmlns="http://www.w3.org/2000/svg" xmlns:xlink="http://www.w3.org/1999/xlink" x="0px" y="0px"
	 viewBox="0 0 203 140.7" style="enable-background:new 0 0 203 140.7;" xml:space="preserve">
<style type="text/css">
	.st0{fill:#FFC949;}
	.st1{fill:#FCB54A;}
	.st2{fill:#F7934C;}
	.st3{fill:#3171AE;}
	.st4{fill:#6DABDD;}
</style>
<g>
	<g>
		<path class="st0" d="M69,51.1l-1.2-1.9c1.7-1.1,2.1-3.3,1.1-4.9c-1.1-1.7-3.3-2.1-4.9-1.1l-1.2-1.9c2.7-1.7,6.3-0.9,8.1,1.8
			C72.5,45.7,71.7,49.3,69,51.1z"/>
	</g>
	<g>
		<polygon class="st1" points="60.9,53 32.8,70.9 28.8,69.7 29.4,65.6 57.5,47.7 		"/>
	</g>
	<g>
		<polygon class="st2" points="31.5,67 56.8,50.9 57.8,52.3 32.4,68.4 31.3,68.1 		"/>
	</g>
	<g>
		
			<rect x="40.8" y="65.1" transform="matrix(0.8439 -0.5366 0.5366 0.8439 -29.1251 33.0625)" class="st1" width="2.9" height="2.9"/>
	</g>
	<g>
		
			<rect x="36.5" y="67.9" transform="matrix(0.8439 -0.5366 0.5366 0.8439 -31.2958 31.2026)" class="st1" width="2.9" height="2.9"/>
	</g>
	<g>
		<path class="st0" d="M67.1,45.3c-3.9-6.1-9.2-9.6-11.9-7.9s-1.7,8,2.1,14.1c3.9,6.1,9.2,9.6,11.9,7.9C71.9,57.7,71,51.4,67.1,45.3
			z M60,49.9c-1.8-2.8-2.2-5.7-1-6.5s3.7,0.9,5.5,3.7c1.8,2.8,2.2,5.7,1,6.5C64.2,54.3,61.8,52.7,60,49.9z"/>
	</g>
</g>
<g>
	<path class="st3" d="M14,87.4l-0.4-1.1h-2.9l-0.4,1.1H8.7l2.6-6.7h1.8l2.6,6.7H14z M12.2,82.1l-1,2.9h2.1L12.2,82.1z"/>
	<path class="st3" d="M19.3,87.4v-0.6c-0.3,0.4-0.9,0.7-1.7,0.7c-1.1,0-1.6-0.6-1.6-1.5v-3.4h1.3v2.9c0,0.7,0.3,0.9,0.9,0.9
		c0.5,0,0.9-0.3,1.1-0.5v-3.3h1.3v4.8C20.6,87.4,19.3,87.4,19.3,87.4z"/>
	<path class="st3" d="M22.1,86.2v-2.5h-0.8v-1.1h0.8v-1.3h1.3v1.3h1v1.1h-1v2.2c0,0.3,0.2,0.5,0.4,0.5s0.4-0.1,0.4-0.1l0.3,1
		c-0.2,0.2-0.5,0.3-1.1,0.3C22.6,87.5,22.1,87,22.1,86.2z"/>
	<path class="st3" d="M28.5,87.4v-2.9c0-0.7-0.4-0.9-0.9-0.9s-0.9,0.3-1.1,0.6v3.3h-1.2v-6.7h1.3v2.5c0.3-0.4,0.9-0.7,1.7-0.7
		c1.1,0,1.6,0.6,1.6,1.5v3.4L28.5,87.4L28.5,87.4z"/>
	<path class="st3" d="M30.7,85c0-1.4,1-2.5,2.5-2.5c1.4,0,2.4,1.1,2.4,2.6v0.3H32c0.1,0.6,0.6,1.1,1.4,1.1c0.4,0,1-0.2,1.3-0.5
		l0.6,0.8c-0.5,0.4-1.2,0.7-2,0.7C31.9,87.5,30.7,86.5,30.7,85z M33.2,83.5c-0.8,0-1.1,0.5-1.2,1h2.4C34.4,84,34.1,83.5,33.2,83.5z"
		/>
	<path class="st3" d="M39.8,87.4v-2.9c0-0.7-0.3-0.9-0.9-0.9c-0.5,0-0.9,0.3-1.1,0.6v3.3h-1.3v-4.8h1.3v0.6c0.3-0.4,0.9-0.7,1.7-0.7
		c1.1,0,1.6,0.6,1.6,1.5v3.4L39.8,87.4L39.8,87.4z"/>
	<path class="st3" d="M42.6,86.2v-2.5h-0.8v-1.1h0.8v-1.3h1.3v1.3h1v1.1h-1v2.2c0,0.3,0.2,0.5,0.4,0.5s0.4-0.1,0.4-0.1l0.3,1
		c-0.2,0.2-0.5,0.3-1.1,0.3C43.1,87.5,42.6,87,42.6,86.2z"/>
	<path class="st3" d="M45.6,81.3c0-0.4,0.3-0.8,0.8-0.8c0.4,0,0.8,0.3,0.8,0.8S46.8,82,46.4,82S45.6,81.7,45.6,81.3z M45.8,87.4
		v-4.8h1.3v4.8H45.8z"/>
	<path class="st3" d="M48,85c0-1.5,1.1-2.5,2.6-2.5c1,0,1.6,0.4,1.9,0.9l-0.8,0.8c-0.2-0.3-0.6-0.5-1-0.5c-0.8,0-1.3,0.6-1.3,1.4
		s0.5,1.4,1.3,1.4c0.4,0,0.8-0.2,1-0.5l0.8,0.8c-0.3,0.4-0.9,0.9-1.9,0.9C49.1,87.5,48,86.4,48,85z"/>
	<path class="st3" d="M56.2,87.4v-0.5c-0.3,0.4-0.9,0.6-1.5,0.6c-0.8,0-1.7-0.5-1.7-1.6s0.9-1.6,1.7-1.6c0.6,0,1.2,0.2,1.5,0.6v-0.6
		c0-0.5-0.4-0.8-1.1-0.8c-0.5,0-1,0.2-1.4,0.6l-0.5-0.9c0.6-0.5,1.3-0.8,2.1-0.8c1.1,0,2.1,0.4,2.1,1.8v3.1L56.2,87.4L56.2,87.4z
		 M56.2,86.2v-0.6c-0.2-0.3-0.6-0.4-1-0.4c-0.5,0-0.9,0.3-0.9,0.7s0.4,0.7,0.9,0.7C55.6,86.6,56,86.5,56.2,86.2z"/>
	<path class="st3" d="M59,86.2v-2.5h-0.8v-1.1H59v-1.3h1.3v1.3h1v1.1h-1v2.2c0,0.3,0.2,0.5,0.4,0.5s0.4-0.1,0.4-0.1l0.3,1
		c-0.2,0.2-0.5,0.3-1.1,0.3C59.4,87.5,59,87,59,86.2z"/>
	<path class="st3" d="M61.8,85c0-1.4,1-2.5,2.5-2.5c1.4,0,2.4,1.1,2.4,2.6v0.3h-3.6c0.1,0.6,0.6,1.1,1.4,1.1c0.4,0,1-0.2,1.3-0.5
		l0.6,0.8c-0.5,0.4-1.2,0.7-2,0.7C62.9,87.5,61.8,86.5,61.8,85z M64.3,83.5c-0.8,0-1.1,0.5-1.2,1h2.4C65.4,84,65.1,83.5,64.3,83.5z"
		/>
	<path class="st3" d="M70.9,87.4v-0.6c-0.4,0.5-0.9,0.7-1.5,0.7c-1.2,0-2.1-0.9-2.1-2.5s0.9-2.5,2.1-2.5c0.6,0,1.1,0.2,1.5,0.7v-2.5
		h1.3v6.7C72.2,87.4,70.9,87.4,70.9,87.4z M70.9,85.8v-1.7c-0.2-0.3-0.7-0.5-1.1-0.5c-0.7,0-1.2,0.6-1.2,1.4s0.5,1.4,1.2,1.4
		C70.3,86.4,70.7,86.1,70.9,85.8z"/>
	<path class="st3" d="M79.3,87.4v-0.6c-0.3,0.4-0.9,0.7-1.7,0.7c-1.1,0-1.6-0.6-1.6-1.5v-3.4h1.3v2.9c0,0.7,0.3,0.9,0.9,0.9
		c0.5,0,0.9-0.3,1.1-0.5v-3.3h1.3v4.8C80.6,87.4,79.3,87.4,79.3,87.4z"/>
	<path class="st3" d="M81.4,86.7l0.5-0.9c0.4,0.3,1.1,0.7,1.7,0.7c0.5,0,0.8-0.2,0.8-0.5c0-0.8-2.9-0.1-2.9-2c0-0.8,0.7-1.5,2-1.5
		c0.8,0,1.5,0.3,1.9,0.7l-0.5,0.9c-0.3-0.3-0.8-0.6-1.4-0.6c-0.5,0-0.8,0.2-0.8,0.5c0,0.7,2.9,0.1,2.9,2.1c0,0.9-0.8,1.5-2.1,1.5
		C82.7,87.5,81.9,87.2,81.4,86.7z"/>
	<path class="st3" d="M86.3,85c0-1.4,1-2.5,2.5-2.5c1.4,0,2.4,1.1,2.4,2.6v0.3h-3.6c0.1,0.6,0.6,1.1,1.4,1.1c0.4,0,1-0.2,1.3-0.5
		l0.6,0.8c-0.5,0.4-1.2,0.7-2,0.7C87.4,87.5,86.3,86.5,86.3,85z M88.8,83.5c-0.8,0-1.1,0.5-1.2,1H90C90,84,89.6,83.5,88.8,83.5z"/>
	<path class="st3" d="M92.1,87.4v-4.8h1.3v0.6c0.3-0.4,0.9-0.8,1.5-0.8v1.2c-0.1,0-0.2,0-0.4,0c-0.4,0-1,0.2-1.2,0.5v3.2L92.1,87.4
		L92.1,87.4z"/>
</g>
<g>
	<g>
		<path class="st3" d="M140.6,46.3c0-2.1,1.5-3.4,3.6-3.4c1.5,0,2.3,0.8,2.8,1.6l-1.2,0.6c-0.3-0.5-0.9-1-1.6-1
			c-1.2,0-2.1,0.9-2.1,2.2s0.9,2.2,2.1,2.2c0.7,0,1.3-0.4,1.6-1l1.2,0.6c-0.5,0.8-1.3,1.6-2.8,1.6C142.1,49.7,140.6,48.3,140.6,46.3
			z"/>
		<path class="st3" d="M147.5,47.2c0-1.4,1-2.5,2.5-2.5c1.6,0,2.6,1.2,2.6,2.5s-1,2.5-2.6,2.5S147.5,48.6,147.5,47.2z M151.2,47.2
			c0-0.7-0.4-1.4-1.2-1.4s-1.2,0.7-1.2,1.4c0,0.8,0.4,1.4,1.2,1.4C150.8,48.6,151.2,47.9,151.2,47.2z"/>
		<path class="st3" d="M159.5,49.6v-3c0-0.5-0.2-0.8-0.7-0.8s-0.8,0.3-1,0.6v3.3h-1.3v-3c0-0.5-0.2-0.8-0.7-0.8
			c-0.4,0-0.8,0.3-1,0.6v3.3h-1.3V45h1.3v0.6c0.2-0.3,0.8-0.7,1.6-0.7c0.7,0,1.2,0.3,1.3,0.9c0.3-0.4,0.9-0.9,1.7-0.9
			c0.9,0,1.4,0.5,1.4,1.5v3.5h-1.3V49.6z"/>
		<path class="st3" d="M163.3,49v2.5H162v-6.7h1.3v0.6c0.4-0.5,0.9-0.7,1.5-0.7c1.2,0,2.1,0.9,2.1,2.5s-0.9,2.5-2.1,2.5
			C164.2,49.7,163.7,49.5,163.3,49z M165.6,47.2c0-0.8-0.5-1.4-1.2-1.4c-0.4,0-0.9,0.2-1.1,0.5V48c0.2,0.3,0.7,0.6,1.1,0.6
			C165.1,48.6,165.6,48,165.6,47.2z"/>
		<path class="st3" d="M170.8,49.6v-0.5c-0.3,0.4-0.9,0.6-1.5,0.6c-0.8,0-1.7-0.5-1.7-1.6s0.9-1.6,1.7-1.6c0.6,0,1.2,0.2,1.5,0.6
			v-0.6c0-0.5-0.4-0.8-1.1-0.8c-0.5,0-1,0.2-1.4,0.6l-0.5-0.9c0.6-0.5,1.3-0.8,2.1-0.8c1.1,0,2.1,0.4,2.1,1.8v3.1L170.8,49.6
			L170.8,49.6z M170.8,48.4v-0.6c-0.2-0.3-0.6-0.4-1-0.4c-0.5,0-0.9,0.3-0.9,0.7s0.4,0.7,0.9,0.7C170.2,48.9,170.6,48.7,170.8,48.4z
			"/>
		<path class="st3" d="M176.6,49.6v-2.9c0-0.7-0.4-0.9-0.9-0.9s-0.9,0.3-1.1,0.6v3.3h-1.3v-4.8h1.3v0.6c0.3-0.4,0.9-0.7,1.7-0.7
			c1.1,0,1.6,0.6,1.6,1.5v3.4L176.6,49.6L176.6,49.6z"/>
		<path class="st3" d="M179.1,50.4c0.1,0,0.3,0.1,0.4,0.1c0.3,0,0.5-0.1,0.7-0.3l0.2-0.4l-2-4.9h1.4l1.3,3.4l1.3-3.4h1.2l-2.3,5.6
			c-0.4,0.9-1,1.1-1.8,1.2c-0.1,0-0.5,0-0.6-0.1L179.1,50.4z"/>
		<path class="st3" d="M191.4,49.6l-0.4-1.1h-2.9l-0.4,1.1h-1.6l2.6-6.7h1.8l2.6,6.7H191.4z M189.6,44.4l-1,2.9h2L189.6,44.4z"/>
	</g>
	<g>
		<g>
			<g>
				<g>
					<g>
						<rect x="147.9" y="0.8" class="st4" width="23.2" height="31.5"/>
					</g>
				</g>
			</g>
			<g>
				<g>
					<g>
						<rect x="156.6" y="24.1" class="st3" width="6" height="8.1"/>
					</g>
				</g>
			</g>
			<g>
				<g>
					<g>
						<g>
							<rect x="152" y="4.4" class="st3" width="14.9" height="2.4"/>
						</g>
					</g>
				</g>
				<g>
					<g>
						<g>
							<rect x="152" y="8.9" class="st3" width="14.9" height="2.4"/>
						</g>
					</g>
				</g>
				<g>
					<g>
						<g>
							<rect x="152" y="13.3" class="st3" width="14.9" height="2.4"/>
						</g>
					</g>
				</g>
				<g>
					<g>
						<g>
							<rect x="152" y="17.7" class="st3" width="14.9" height="2.4"/>
						</g>
					</g>
				</g>
			</g>
		</g>
		<g>
			<g>
				<g>
					<rect x="171" y="9" class="st3" width="15.3" height="23.1"/>
				</g>
			</g>
		</g>
		<g>
			<g>
				<g>
					<g>
						<g>
							<rect x="173" y="11.1" class="st4" width="4.7" height="4.7"/>
						</g>
					</g>
				</g>
				<g>
					<g>
						<g>
							<rect x="173" y="17.3" class="st4" width="4.7" height="4.7"/>
						</g>
					</g>
				</g>
				<g>
					<g>
						<g>
							<rect x="173" y="23.5" class="st4" width="4.7" height="4.7"/>
						</g>
					</g>
				</g>
			</g>
			<g>
				<g>
					<g>
						<g>
							<rect x="179.7" y="11.1" class="st4" width="4.7" height="4.7"/>
						</g>
					</g>
				</g>
				<g>
					<g>
						<g>
							<rect x="179.7" y="17.3" class="st4" width="4.7" height="4.7"/>
						</g>
					</g>
				</g>
				<g>
					<g>
						<g>
							<rect x="179.7" y="23.5" class="st4" width="4.7" height="4.7"/>
						</g>
					</g>
				</g>
			</g>
		</g>
	</g>
</g>
<g>
	<g>
		<path class="st3" d="M140.9,116.8c0-2.1,1.5-3.4,3.6-3.4c1.5,0,2.3,0.8,2.8,1.6l-1.2,0.6c-0.3-0.5-0.9-1-1.6-1
			c-1.2,0-2.1,0.9-2.1,2.2s0.9,2.2,2.1,2.2c0.7,0,1.3-0.4,1.6-1l1.2,0.6c-0.5,0.8-1.3,1.6-2.8,1.6
			C142.4,120.2,140.9,118.8,140.9,116.8z"/>
		<path class="st3" d="M147.7,117.7c0-1.4,1-2.5,2.5-2.5c1.6,0,2.6,1.2,2.6,2.5s-1,2.5-2.6,2.5C148.7,120.2,147.7,119.1,147.7,117.7
			z M151.5,117.7c0-0.7-0.4-1.4-1.2-1.4s-1.2,0.7-1.2,1.4c0,0.8,0.4,1.4,1.2,1.4C151.1,119.1,151.5,118.4,151.5,117.7z"/>
		<path class="st3" d="M159.8,120.1v-3c0-0.5-0.2-0.8-0.7-0.8s-0.8,0.3-1,0.6v3.3h-1.3v-3c0-0.5-0.2-0.8-0.7-0.8
			c-0.4,0-0.8,0.3-1,0.6v3.3h-1.3v-4.8h1.3v0.6c0.2-0.3,0.8-0.7,1.6-0.7c0.7,0,1.2,0.3,1.3,0.9c0.3-0.4,0.9-0.9,1.7-0.9
			c0.9,0,1.4,0.5,1.4,1.5v3.5h-1.3V120.1z"/>
		<path class="st3" d="M163.6,119.5v2.5h-1.3v-6.7h1.3v0.6c0.4-0.5,0.9-0.7,1.5-0.7c1.2,0,2.1,0.9,2.1,2.5s-0.9,2.5-2.1,2.5
			C164.5,120.2,164,120,163.6,119.5z M165.9,117.7c0-0.8-0.5-1.4-1.2-1.4c-0.4,0-0.9,0.2-1.1,0.5v1.7c0.2,0.3,0.7,0.6,1.1,0.6
			C165.4,119.1,165.9,118.5,165.9,117.7z"/>
		<path class="st3" d="M171,120.1v-0.5c-0.3,0.4-0.9,0.6-1.5,0.6c-0.8,0-1.7-0.5-1.7-1.6s0.9-1.6,1.7-1.6c0.6,0,1.2,0.2,1.5,0.6V117
			c0-0.5-0.4-0.8-1.1-0.8c-0.5,0-1,0.2-1.4,0.6l-0.5-0.9c0.6-0.5,1.3-0.8,2.1-0.8c1.1,0,2.1,0.4,2.1,1.8v3.1L171,120.1L171,120.1z
			 M171,118.9v-0.6c-0.2-0.3-0.6-0.4-1-0.4c-0.5,0-0.9,0.3-0.9,0.7s0.4,0.7,0.9,0.7C170.4,119.4,170.8,119.2,171,118.9z"/>
		<path class="st3" d="M176.8,120.1v-2.9c0-0.7-0.4-0.9-0.9-0.9s-0.9,0.3-1.1,0.6v3.3h-1.3v-4.8h1.3v0.6c0.3-0.4,0.9-0.7,1.7-0.7
			c1.1,0,1.6,0.6,1.6,1.5v3.4L176.8,120.1L176.8,120.1z"/>
		<path class="st3" d="M179.4,120.9c0.1,0,0.3,0.1,0.4,0.1c0.3,0,0.5-0.1,0.7-0.3l0.2-0.4l-2-4.9h1.4l1.3,3.4l1.3-3.4h1.4l-2.3,5.6
			c-0.4,0.9-1,1.1-1.8,1.2c-0.1,0-0.5,0-0.6-0.1L179.4,120.9z"/>
		<path class="st3" d="M187.1,120.1v-6.7h3.5c1.3,0,1.9,0.8,1.9,1.7c0,0.8-0.5,1.4-1.1,1.5c0.7,0.1,1.3,0.8,1.3,1.6
			c0,1-0.7,1.8-1.9,1.8L187.1,120.1L187.1,120.1z M191.1,115.4c0-0.4-0.3-0.7-0.8-0.7h-1.8v1.4h1.8
			C190.8,116.1,191.1,115.8,191.1,115.4z M191.2,118.1c0-0.4-0.3-0.8-0.8-0.8h-1.8v1.5h1.8C190.9,118.9,191.2,118.6,191.2,118.1z"/>
	</g>
	<g>
		<g>
			<g>
				<g>
					<g>
						<rect x="148.1" y="71.3" class="st4" width="23.2" height="31.5"/>
					</g>
				</g>
			</g>
			<g>
				<g>
					<g>
						<rect x="156.9" y="94.6" class="st3" width="6" height="8.1"/>
					</g>
				</g>
			</g>
			<g>
				<g>
					<g>
						<g>
							<rect x="152.3" y="74.9" class="st3" width="14.9" height="2.4"/>
						</g>
					</g>
				</g>
				<g>
					<g>
						<g>
							<rect x="152.3" y="79.4" class="st3" width="14.9" height="2.4"/>
						</g>
					</g>
				</g>
				<g>
					<g>
						<g>
							<rect x="152.3" y="83.8" class="st3" width="14.9" height="2.4"/>
						</g>
					</g>
				</g>
				<g>
					<g>
						<g>
							<rect x="152.3" y="88.2" class="st3" width="14.9" height="2.4"/>
						</g>
					</g>
				</g>
			</g>
		</g>
		<g>
			<g>
				<g>
					<rect x="171.3" y="79.5" class="st3" width="15.3" height="23.1"/>
				</g>
			</g>
		</g>
		<g>
			<g>
				<g>
					<g>
						<g>
							<rect x="173.3" y="81.6" class="st4" width="4.7" height="4.7"/>
						</g>
					</g>
				</g>
				<g>
					<g>
						<g>
							<rect x="173.3" y="87.8" class="st4" width="4.7" height="4.7"/>
						</g>
					</g>
				</g>
				<g>
					<g>
						<g>
							<rect x="173.3" y="94" class="st4" width="4.7" height="4.7"/>
						</g>
					</g>
				</g>
			</g>
			<g>
				<g>
					<g>
						<g>
							<rect x="180" y="81.6" class="st4" width="4.7" height="4.7"/>
						</g>
					</g>
				</g>
				<g>
					<g>
						<g>
							<rect x="180" y="87.8" class="st4" width="4.7" height="4.7"/>
						</g>
					</g>
				</g>
				<g>
					<g>
						<g>
							<rect x="180" y="94" class="st4" width="4.7" height="4.7"/>
						</g>
					</g>
				</g>
			</g>
		</g>
	</g>
</g>
<path class="st0" d="M126.4,31.5l3.8-4.3c0-0.1,0.1-0.1,0.1-0.2c0.1-0.1,0.1-0.2,0.1-0.2c0-0.1,0.1-0.2,0.1-0.3s0-0.2,0-0.2
	c0-0.1,0-0.2,0-0.3s0-0.2-0.1-0.2c0-0.1-0.1-0.2-0.1-0.3s-0.1-0.1-0.1-0.2l-3.8-4.3c-0.5-0.6-1.4-0.6-2-0.1s-0.6,1.4-0.1,2l1.7,1.9
	h-14c-0.8,0-1.4,0.6-1.4,1.4s0.6,1.4,1.4,1.4h14l-1.7,1.9c-0.5,0.6-0.5,1.5,0.1,2C125,32.2,125.9,32.1,126.4,31.5z"/>
<path class="st0" d="M126.4,102l3.8-4.3c0-0.1,0.1-0.1,0.1-0.2c0.1-0.1,0.1-0.2,0.1-0.2c0-0.1,0.1-0.2,0.1-0.3c0-0.1,0-0.2,0-0.2
	c0-0.1,0-0.2,0-0.3c0-0.1,0-0.2-0.1-0.2c0-0.1-0.1-0.2-0.1-0.3c0-0.1-0.1-0.1-0.1-0.2l-3.8-4.3c-0.5-0.6-1.4-0.6-2-0.1
	s-0.6,1.4-0.1,2l1.7,1.9h-14c-0.8,0-1.4,0.6-1.4,1.4s0.6,1.4,1.4,1.4h14l-1.7,1.9c-0.5,0.6-0.5,1.5,0.1,2
	C125,102.7,125.9,102.6,126.4,102z"/>
</svg>
