<?xml version="1.0" encoding="utf-8"?>
<!-- Generator: Adobe Illustrator 19.2.1, SVG Export Plug-In . SVG Version: 6.00 Build 0)  -->
<svg version="1.1" id="Layer_1" xmlns="http://www.w3.org/2000/svg" xmlns:xlink="http://www.w3.org/1999/xlink" x="0px" y="0px"
	 viewBox="0 0 600.3 312" style="enable-background:new 0 0 600.3 312;" xml:space="preserve">
<style type="text/css">
	.st0{fill:#3171AE;}
	.st1{fill:#FFC848;}
	.st2{fill:#FF9448;}
	.st3{fill:none;stroke:#FF9448;stroke-width:1.25;stroke-miterlimit:10;}
	.st4{fill:#FFFFFF;}
	.st5{fill:none;stroke:#FFC949;stroke-width:2;stroke-linecap:round;stroke-miterlimit:10;}
</style>
<g>
	<path class="st0" d="M104.7,225.6l-1.2-3h-6.6l-1.2,3h-1.9l5.4-13.3h2.1l5.4,13.3H104.7z M100.2,213.9l-2.8,7.2h5.7L100.2,213.9z"
		/>
	<path class="st0" d="M114.5,225.6v-1.4c-0.7,0.8-2,1.6-3.4,1.6c-2,0-3.1-1-3.1-3.1v-6.8h1.5v6.4c0,1.7,0.9,2.2,2.2,2.2
		c1.2,0,2.3-0.7,2.8-1.5v-7.1h1.5v9.7L114.5,225.6L114.5,225.6z"/>
	<path class="st0" d="M119.3,223.6v-6.3h-1.6V216h1.6v-2.6h1.5v2.6h2v1.3h-2v6c0,0.7,0.3,1.2,1,1.2c0.4,0,0.8-0.2,1-0.4l0.4,1.1
		c-0.4,0.4-0.9,0.6-1.8,0.6C120.1,225.8,119.3,225,119.3,223.6z"/>
	<path class="st0" d="M131.5,225.6v-6.4c0-1.7-0.9-2.2-2.2-2.2c-1.2,0-2.3,0.7-2.8,1.5v7.1H125v-13.3h1.5v5.1c0.7-0.8,2-1.6,3.4-1.6
		c2,0,3.1,1,3.1,3.1v6.8h-1.5V225.6z"/>
	<path class="st0" d="M135.4,220.7c0-2.8,2-5.1,4.8-5.1c2.9,0,4.6,2.3,4.6,5.2v0.4H137c0.1,1.8,1.4,3.3,3.5,3.3c1.1,0,2.2-0.4,3-1.2
		l0.7,1c-1,1-2.3,1.5-3.8,1.5C137.5,225.8,135.4,223.8,135.4,220.7z M140.1,216.9c-2.1,0-3.1,1.7-3.2,3.2h6.3
		C143.3,218.7,142.3,216.9,140.1,216.9z"/>
	<path class="st0" d="M153.8,225.6v-6.3c0-1.7-0.9-2.2-2.2-2.2c-1.2,0-2.3,0.7-2.9,1.5v7.1h-1.5V216h1.5v1.4c0.7-0.8,2-1.6,3.5-1.6
		c2,0,3.1,1,3.1,3.1v6.8L153.8,225.6L153.8,225.6L153.8,225.6z"/>
	<path class="st0" d="M158.6,223.6v-6.3H157V216h1.6v-2.6h1.5v2.6h2v1.3h-2v6c0,0.7,0.3,1.2,1,1.2c0.4,0,0.8-0.2,1-0.4l0.4,1.1
		c-0.4,0.4-0.9,0.6-1.8,0.6C159.3,225.8,158.6,225,158.6,223.6z"/>
	<path class="st0" d="M163.9,213.5c0-0.6,0.5-1,1-1c0.6,0,1,0.5,1,1s-0.4,1-1,1S163.9,214.1,163.9,213.5z M164.1,225.6v-9.7h1.5v9.7
		H164.1z"/>
	<path class="st0" d="M168.1,220.7c0-2.9,1.9-5.1,4.8-5.1c1.8,0,2.8,0.7,3.5,1.7l-1,0.9c-0.6-0.9-1.5-1.2-2.5-1.2
		c-2,0-3.3,1.6-3.3,3.7c0,2.1,1.3,3.7,3.3,3.7c1,0,1.8-0.4,2.5-1.3l1,0.9c-0.7,1-1.8,1.7-3.5,1.7C170,225.8,168.1,223.6,168.1,220.7
		z"/>
	<path class="st0" d="M184.6,225.6v-1.1c-0.8,0.9-1.9,1.3-3.2,1.3c-1.6,0-3.4-1.1-3.4-3.2c0-2.2,1.7-3.2,3.4-3.2
		c1.3,0,2.4,0.4,3.2,1.3V219c0-1.3-1-2-2.4-2c-1.2,0-2.1,0.4-3,1.3l-0.7-1c1-1.1,2.3-1.6,3.9-1.6c2.1,0,3.7,0.9,3.7,3.3v6.6H184.6z
		 M184.6,223.5v-1.8c-0.6-0.8-1.6-1.2-2.6-1.2c-1.4,0-2.4,0.9-2.4,2.1c0,1.2,1,2.1,2.4,2.1C183,224.7,184,224.3,184.6,223.5z"/>
	<path class="st0" d="M189.4,223.6v-6.3h-1.6V216h1.6v-2.6h1.5v2.6h2v1.3h-2v6c0,0.7,0.3,1.2,1,1.2c0.4,0,0.8-0.2,1-0.4l0.4,1.1
		c-0.4,0.4-0.9,0.6-1.8,0.6C190.1,225.8,189.4,225,189.4,223.6z"/>
	<path class="st0" d="M194.4,220.7c0-2.8,2-5.1,4.8-5.1c2.9,0,4.6,2.3,4.6,5.2v0.4H196c0.1,1.8,1.4,3.3,3.5,3.3c1.1,0,2.2-0.4,3-1.2
		l0.7,1c-1,1-2.3,1.5-3.8,1.5C196.5,225.8,194.4,223.8,194.4,220.7z M199.2,216.9c-2.1,0-3.1,1.7-3.2,3.2h6.3
		C202.3,218.7,201.4,216.9,199.2,216.9z"/>
	<path class="st0" d="M213.3,225.6v-1.4c-0.7,1-1.9,1.7-3.3,1.7c-2.5,0-4.3-1.9-4.3-5.1c0-3.1,1.8-5.1,4.3-5.1
		c1.3,0,2.5,0.6,3.3,1.7v-5.1h1.5v13.3L213.3,225.6L213.3,225.6z M213.3,222.9v-4.4c-0.5-0.8-1.7-1.6-2.9-1.6c-2,0-3.1,1.6-3.1,3.7
		c0,2.1,1.2,3.7,3.1,3.7C211.6,224.5,212.7,223.8,213.3,222.9z"/>
	<path class="st0" d="M229.5,225.6v-1.4c-0.7,0.8-2,1.6-3.4,1.6c-2,0-3.1-1-3.1-3.1v-6.8h1.5v6.4c0,1.7,0.9,2.2,2.2,2.2
		c1.2,0,2.3-0.7,2.8-1.5v-7.1h1.5v9.7L229.5,225.6L229.5,225.6z"/>
	<path class="st0" d="M233.1,224.3l0.8-1.1c0.6,0.7,1.9,1.4,3.2,1.4c1.5,0,2.3-0.7,2.3-1.7c0-2.3-6-0.9-6-4.5c0-1.5,1.3-2.8,3.6-2.8
		c1.7,0,2.8,0.6,3.6,1.4l-0.7,1c-0.6-0.7-1.6-1.2-2.9-1.2c-1.3,0-2.1,0.7-2.1,1.5c0,2.1,6,0.7,6,4.5c0,1.6-1.3,2.9-3.8,2.9
		C235.4,225.8,234.1,225.3,233.1,224.3z"/>
	<path class="st0" d="M242.7,220.7c0-2.8,2-5.1,4.8-5.1c2.9,0,4.6,2.3,4.6,5.2v0.4h-7.8c0.1,1.8,1.4,3.3,3.5,3.3
		c1.1,0,2.2-0.4,3-1.2l0.7,1c-1,1-2.3,1.5-3.8,1.5C244.8,225.8,242.7,223.8,242.7,220.7z M247.4,216.9c-2.1,0-3.1,1.7-3.2,3.2h6.3
		C250.6,218.7,249.6,216.9,247.4,216.9z"/>
	<path class="st0" d="M254.5,225.6v-9.7h1.5v1.5c0.8-1,1.9-1.8,3.2-1.8v1.5c-0.2,0-0.4,0-0.6,0c-0.9,0-2.2,0.8-2.6,1.5v6.8h-1.5
		V225.6z"/>
</g>
<g>
	<path class="st0" d="M438.2,107.6c0-4.1,3-6.9,6.9-6.9c2.4,0,4,1.1,5.1,2.6l-1.4,0.8c-0.8-1.1-2.2-1.9-3.7-1.9
		c-2.9,0-5.1,2.2-5.1,5.4c0,3.2,2.2,5.4,5.1,5.4c1.5,0,2.9-0.8,3.7-1.9l1.4,0.8c-1.1,1.5-2.7,2.7-5.1,2.7
		C441.2,114.5,438.2,111.7,438.2,107.6z"/>
	<path class="st0" d="M451.7,109.4c0-2.8,1.8-5.1,4.8-5.1s4.8,2.3,4.8,5.1c0,2.8-1.8,5.1-4.8,5.1S451.7,112.2,451.7,109.4z
		 M459.6,109.4c0-2-1.1-3.7-3.2-3.7s-3.2,1.8-3.2,3.7c0,2,1.1,3.7,3.2,3.7S459.6,111.4,459.6,109.4z"/>
	<path class="st0" d="M475.3,114.3v-6.6c0-1.2-0.5-2-1.8-2c-1,0-2.1,0.7-2.6,1.5v7.1h-1.5v-6.6c0-1.2-0.5-2-1.8-2
		c-1,0-2,0.7-2.5,1.5v7.1h-1.5v-9.7h1.5v1.4c0.4-0.6,1.7-1.6,3.1-1.6c1.5,0,2.3,0.8,2.6,1.8c0.5-0.9,1.8-1.8,3.2-1.8
		c1.8,0,2.7,1,2.7,2.9v7C476.7,114.3,475.3,114.3,475.3,114.3z"/>
	<path class="st0" d="M481.3,112.8v5.1h-1.5v-13.3h1.5v1.4c0.7-1,1.9-1.7,3.3-1.7c2.5,0,4.3,1.9,4.3,5.1c0,3.1-1.8,5.1-4.3,5.1
		C483.3,114.5,482.1,113.9,481.3,112.8z M487.3,109.4c0-2.1-1.2-3.7-3.1-3.7c-1.2,0-2.4,0.7-2.9,1.5v4.4c0.5,0.8,1.7,1.6,2.9,1.6
		C486.1,113.2,487.3,111.6,487.3,109.4z"/>
	<path class="st0" d="M497.3,114.3v-1.1c-0.8,0.9-1.9,1.3-3.2,1.3c-1.6,0-3.4-1.1-3.4-3.2c0-2.2,1.7-3.2,3.4-3.2
		c1.3,0,2.4,0.4,3.2,1.3v-1.7c0-1.3-1-2-2.4-2c-1.2,0-2.1,0.4-3,1.3l-0.7-1c1-1.1,2.3-1.6,3.9-1.6c2.1,0,3.7,0.9,3.7,3.3v6.6
		L497.3,114.3L497.3,114.3z M497.3,112.2v-1.8c-0.6-0.8-1.6-1.2-2.6-1.2c-1.4,0-2.4,0.9-2.4,2.1s1,2.1,2.4,2.1
		C495.7,113.4,496.7,113,497.3,112.2z"/>
	<path class="st0" d="M508.4,114.3V108c0-1.7-0.9-2.2-2.2-2.2c-1.2,0-2.3,0.7-2.9,1.5v7.1h-1.5v-9.7h1.5v1.4c0.7-0.8,2-1.6,3.5-1.6
		c2,0,3.1,1,3.1,3.1v6.8h-1.5V114.3z"/>
	<path class="st0" d="M512.6,116.7c0.2,0.1,0.6,0.2,0.8,0.2c0.7,0,1.1-0.2,1.4-1l0.6-1.5l-4-9.8h1.6l3.2,7.9l3.2-7.9h1.6l-4.8,11.6
		c-0.6,1.4-1.6,1.9-2.8,2c-0.3,0-0.8-0.1-1.1-0.1L512.6,116.7z"/>
	<path class="st0" d="M537.4,114.3l-1.2-3h-6.6l-1.2,3h-1.9l5.4-13.3h2.1l5.4,13.3H537.4z M532.9,102.6l-2.8,7.2h5.7L532.9,102.6z"
		/>
</g>
<g>
	<path class="st0" d="M438.5,296.9c0-4.1,3-6.9,6.9-6.9c2.4,0,4,1.1,5.1,2.6l-1.4,0.8c-0.8-1.1-2.2-1.9-3.7-1.9
		c-2.9,0-5.1,2.2-5.1,5.4c0,3.2,2.2,5.4,5.1,5.4c1.5,0,2.9-0.8,3.7-1.9l1.4,0.8c-1.1,1.5-2.7,2.7-5.1,2.7
		C441.5,303.8,438.5,301,438.5,296.9z"/>
	<path class="st0" d="M451.9,298.7c0-2.8,1.8-5.1,4.8-5.1s4.8,2.3,4.8,5.1c0,2.8-1.8,5.1-4.8,5.1S451.9,301.5,451.9,298.7z
		 M459.9,298.7c0-2-1.1-3.7-3.2-3.7s-3.2,1.8-3.2,3.7c0,2,1.1,3.7,3.2,3.7S459.9,300.7,459.9,298.7z"/>
	<path class="st0" d="M475.6,303.6V297c0-1.2-0.5-2-1.8-2c-1,0-2.1,0.7-2.6,1.5v7.1h-1.5V297c0-1.2-0.5-2-1.8-2c-1,0-2,0.7-2.5,1.5
		v7.1h-1.5v-9.7h1.5v1.4c0.4-0.6,1.7-1.6,3.1-1.6c1.5,0,2.3,0.8,2.6,1.8c0.5-0.9,1.8-1.8,3.2-1.8c1.8,0,2.7,1,2.7,2.9v7L475.6,303.6
		L475.6,303.6z"/>
	<path class="st0" d="M481.6,302.1v5.1h-1.5v-13.3h1.5v1.4c0.7-1,1.9-1.7,3.3-1.7c2.5,0,4.3,1.9,4.3,5.1c0,3.1-1.8,5.1-4.3,5.1
		C483.5,303.8,482.4,303.2,481.6,302.1z M487.6,298.7c0-2.1-1.2-3.7-3.1-3.7c-1.2,0-2.4,0.7-2.9,1.5v4.4c0.5,0.8,1.7,1.6,2.9,1.6
		C486.4,302.5,487.6,300.9,487.6,298.7z"/>
	<path class="st0" d="M497.6,303.6v-1.1c-0.8,0.9-1.9,1.3-3.2,1.3c-1.6,0-3.4-1.1-3.4-3.2c0-2.2,1.7-3.2,3.4-3.2
		c1.3,0,2.4,0.4,3.2,1.3V297c0-1.3-1-2-2.4-2c-1.2,0-2.1,0.4-3,1.3l-0.7-1c1-1.1,2.3-1.6,3.9-1.6c2.1,0,3.7,0.9,3.7,3.3v6.6
		L497.6,303.6L497.6,303.6z M497.6,301.5v-1.8c-0.6-0.8-1.6-1.2-2.6-1.2c-1.4,0-2.4,0.9-2.4,2.1s1,2.1,2.4,2.1
		C496,302.7,497,302.3,497.6,301.5z"/>
	<path class="st0" d="M508.6,303.6v-6.3c0-1.7-0.9-2.2-2.2-2.2c-1.2,0-2.3,0.7-2.9,1.5v7.1H502V294h1.5v1.4c0.7-0.8,2-1.6,3.5-1.6
		c2,0,3.1,1,3.1,3.1v6.8L508.6,303.6L508.6,303.6z"/>
	<path class="st0" d="M512.8,306c0.2,0.1,0.6,0.2,0.8,0.2c0.7,0,1.1-0.2,1.4-1l0.6-1.5l-4-9.8h1.6l3.2,7.9l3.2-7.9h1.6l-4.8,11.6
		c-0.6,1.4-1.6,1.9-2.8,2c-0.3,0-0.8-0.1-1.1-0.1L512.8,306z"/>
	<path class="st0" d="M528.2,303.6v-13.3h5.9c2.3,0,3.7,1.4,3.7,3.4c0,1.7-1.1,2.8-2.3,3.1c1.4,0.2,2.6,1.7,2.6,3.3
		c0,2.1-1.4,3.6-3.9,3.6h-6V303.6z M536.1,293.9c0-1.2-0.8-2.2-2.3-2.2h-4v4.3h4C535.3,296,536.1,295.1,536.1,293.9z M536.4,299.8
		c0-1.2-0.8-2.3-2.5-2.3h-4.1v4.6h4.1C535.5,302.1,536.4,301.2,536.4,299.8z"/>
</g>
<g>
	<g>
		<rect x="481.5" y="40.5" class="st1" width="37.9" height="45.9"/>
		<rect x="438.8" y="34.6" class="st1" width="15.3" height="51.8"/>
		<rect x="454.1" y="18.5" class="st2" width="27.4" height="67.8"/>
		<rect x="487.7" y="28.8" class="st2" width="25.6" height="5.8"/>
		<g>
			<line class="st3" x1="493.7" y1="34.6" x2="493.7" y2="40.5"/>
			<line class="st3" x1="507.3" y1="34.6" x2="507.3" y2="40.5"/>
		</g>
		<g>
			<rect x="461.7" y="25.4" class="st1" width="3.1" height="6.3"/>
			<rect x="470.9" y="25.4" class="st1" width="3.1" height="6.3"/>
			<g>
				<rect x="487.7" y="47.8" class="st4" width="5.3" height="10.5"/>
				<g>
					<rect x="497.8" y="47.8" class="st4" width="5.3" height="10.5"/>
				</g>
				<g>
					<rect x="508" y="47.8" class="st4" width="5.3" height="10.5"/>
				</g>
				<rect x="487.7" y="63" class="st4" width="5.3" height="10.5"/>
				<g>
					<rect x="497.8" y="63" class="st4" width="5.3" height="10.5"/>
				</g>
				<g>
					<rect x="508" y="63" class="st4" width="5.3" height="10.5"/>
				</g>
			</g>
		</g>
		<g>
			<rect x="461.7" y="35.9" class="st1" width="3.1" height="6.3"/>
			<rect x="470.9" y="35.9" class="st1" width="3.1" height="6.3"/>
		</g>
		<g>
			<rect x="461.7" y="46.3" class="st1" width="3.1" height="6.3"/>
			<rect x="470.9" y="46.3" class="st1" width="3.1" height="6.3"/>
		</g>
		<g>
			<rect x="461.7" y="56.7" class="st1" width="3.1" height="6.3"/>
			<rect x="470.9" y="56.7" class="st1" width="3.1" height="6.3"/>
		</g>
		<g>
			<rect x="461.7" y="67.2" class="st1" width="3.1" height="6.3"/>
			<rect x="470.9" y="67.2" class="st1" width="3.1" height="6.3"/>
		</g>
		<rect x="495.1" y="76.8" class="st2" width="10.8" height="9.6"/>
	</g>
	<g>
		<rect x="442.6" y="41.2" class="st4" width="7.8" height="4.3"/>
	</g>
	<g>
		<rect x="442.6" y="54.3" class="st4" width="7.8" height="4.3"/>
	</g>
	<g>
		<rect x="442.6" y="67.3" class="st4" width="7.8" height="4.3"/>
	</g>
	<rect x="519.4" y="34.6" class="st2" width="15.3" height="51.8"/>
	<g>
		<rect x="523.2" y="41.2" class="st1" width="7.8" height="4.3"/>
	</g>
	<g>
		<rect x="523.2" y="54.3" class="st1" width="7.8" height="4.3"/>
	</g>
	<g>
		<rect x="523.2" y="67.3" class="st1" width="7.8" height="4.3"/>
	</g>
</g>
<g>
	<g>
		<rect x="481.5" y="229.5" class="st1" width="37.9" height="45.9"/>
		<rect x="438.8" y="223.6" class="st1" width="15.3" height="51.8"/>
		<rect x="454.1" y="207.5" class="st2" width="27.4" height="67.8"/>
		<rect x="487.7" y="217.8" class="st2" width="25.6" height="5.8"/>
		<g>
			<line class="st3" x1="493.7" y1="223.6" x2="493.7" y2="229.5"/>
			<line class="st3" x1="507.3" y1="223.6" x2="507.3" y2="229.5"/>
		</g>
		<g>
			<rect x="461.7" y="214.4" class="st1" width="3.1" height="6.3"/>
			<rect x="470.9" y="214.4" class="st1" width="3.1" height="6.3"/>
			<g>
				<rect x="487.7" y="236.8" class="st4" width="5.3" height="10.5"/>
				<g>
					<rect x="497.8" y="236.8" class="st4" width="5.3" height="10.5"/>
				</g>
				<g>
					<rect x="508" y="236.8" class="st4" width="5.3" height="10.5"/>
				</g>
				<rect x="487.7" y="252" class="st4" width="5.3" height="10.5"/>
				<g>
					<rect x="497.8" y="252" class="st4" width="5.3" height="10.5"/>
				</g>
				<g>
					<rect x="508" y="252" class="st4" width="5.3" height="10.5"/>
				</g>
			</g>
		</g>
		<g>
			<rect x="461.7" y="224.9" class="st1" width="3.1" height="6.3"/>
			<rect x="470.9" y="224.9" class="st1" width="3.1" height="6.3"/>
		</g>
		<g>
			<rect x="461.7" y="235.3" class="st1" width="3.1" height="6.3"/>
			<rect x="470.9" y="235.3" class="st1" width="3.1" height="6.3"/>
		</g>
		<g>
			<rect x="461.7" y="245.7" class="st1" width="3.1" height="6.3"/>
			<rect x="470.9" y="245.7" class="st1" width="3.1" height="6.3"/>
		</g>
		<g>
			<rect x="461.7" y="256.2" class="st1" width="3.1" height="6.3"/>
			<rect x="470.9" y="256.2" class="st1" width="3.1" height="6.3"/>
		</g>
		<rect x="495.1" y="265.8" class="st2" width="10.8" height="9.6"/>
	</g>
	<g>
		<rect x="442.6" y="230.2" class="st4" width="7.8" height="4.3"/>
	</g>
	<g>
		<rect x="442.6" y="243.3" class="st4" width="7.8" height="4.3"/>
	</g>
	<g>
		<rect x="442.6" y="256.3" class="st4" width="7.8" height="4.3"/>
	</g>
	<rect x="519.4" y="223.6" class="st2" width="15.3" height="51.8"/>
	<g>
		<rect x="523.2" y="230.2" class="st1" width="7.8" height="4.3"/>
	</g>
	<g>
		<rect x="523.2" y="243.3" class="st1" width="7.8" height="4.3"/>
	</g>
	<g>
		<rect x="523.2" y="256.3" class="st1" width="7.8" height="4.3"/>
	</g>
</g>
<g>
	<g>
		<g>
			<g>
				<g>
					<path class="st1" d="M224.7,195.2l-1-9.6l-44.6-44.8l5.4-5.3c4.2-4.2,4.2-11.1,0-15.3c-2.1-2.1-5.3-3.6-8.1-3.6s-6,0.7-8.1,2.7
						l-2.4,2.4l-2.7-2.7c-4.2-4.2-11.7-3.5-15.9,0.7s-4.9,11.7-0.7,15.9l3.6,3.6l-2.2,2.2c-4.2,4.2-4.2,11,0,15.2s11,4.2,15.2,0
						l3.6-3.6l28.3,28.2l5.9-0.1l-0.1,5.9l2.7,2.7l7.1-0.3l0.1,6.7l1.7,1.6l10.9-0.4l1.7-0.1L224.7,195.2z M158,130
						c-1.5,1.7-4.1,1.8-5.8,0.2c-1.6-1.5-1.8-4.1-0.2-5.7c1.5-1.7,4.1-1.8,5.7-0.2C159.4,125.8,159.5,128.4,158,130z"/>
				</g>
			</g>
			<line class="st3" x1="179.2" y1="165.2" x2="191.3" y2="153.1"/>
			<polygon class="st2" points="224.9,197.2 223.2,197.2 185.2,159.2 186.9,157.4 224.7,195.2 			"/>
		</g>
		<line class="st3" x1="142.2" y1="114.4" x2="152" y2="124.5"/>
		<path class="st3" d="M143.4,115.7c0,0-15.3-8.5-15.3,0S143.4,115.7,143.4,115.7z"/>
		<path class="st3" d="M143.4,115.7c0,0-8.5-15.3,0-15.3S143.4,115.7,143.4,115.7z"/>
	</g>
	<line class="st3" x1="143.4" y1="115.7" x2="139.3" y2="125.3"/>
	<line class="st3" x1="143.4" y1="115.7" x2="153.1" y2="111.5"/>
</g>
<line class="st5" x1="325.3" y1="81.1" x2="371.3" y2="81.1"/>
<g>
	<line class="st5" x1="363.1" y1="72.3" x2="371.3" y2="80.8"/>
	<line class="st5" x1="363.1" y1="90" x2="371.3" y2="81.4"/>
</g>
<line class="st5" x1="325.3" y1="230.1" x2="371.3" y2="230.1"/>
<g>
	<line class="st5" x1="363.1" y1="221.3" x2="371.3" y2="229.8"/>
	<line class="st5" x1="363.1" y1="239" x2="371.3" y2="230.4"/>
</g>
</svg>
