<?xml version="1.0" encoding="utf-8"?>
<!-- Generator: Adobe Illustrator 19.2.1, SVG Export Plug-In . SVG Version: 6.00 Build 0)  -->
<svg version="1.1" id="Layer_1" xmlns="http://www.w3.org/2000/svg" xmlns:xlink="http://www.w3.org/1999/xlink" x="0px" y="0px"
	 viewBox="0 0 600.3 312" style="enable-background:new 0 0 600.3 312;" xml:space="preserve">
<style type="text/css">
	.st0{enable-background:new    ;}
	.st1{fill:#3171AE;}
	.st2{fill:#FFC949;}
	.st3{fill:#6DABDD;}
	.st4{fill:#91E5D5;}
</style>
<g class="st0">
	<path class="st1" d="M95.9,188.4c0-4.1,3-6.9,6.9-6.9c2.4,0,4,1.1,5.1,2.6l-1.4,0.8c-0.8-1.1-2.2-1.9-3.7-1.9
		c-2.9,0-5.1,2.2-5.1,5.4c0,3.2,2.2,5.4,5.1,5.4c1.5,0,2.9-0.8,3.7-1.9l1.4,0.8c-1.1,1.5-2.7,2.7-5.1,2.7
		C98.9,195.3,95.9,192.5,95.9,188.4z"/>
	<path class="st1" d="M109.3,190.2c0-2.8,1.8-5.1,4.8-5.1s4.8,2.3,4.8,5.1s-1.8,5.1-4.8,5.1S109.3,193,109.3,190.2z M117.3,190.2
		c0-2-1.1-3.7-3.2-3.7s-3.2,1.8-3.2,3.7c0,2,1.1,3.7,3.2,3.7S117.3,192.2,117.3,190.2z"/>
	<path class="st1" d="M133,195.1v-6.6c0-1.2-0.5-2-1.8-2c-1,0-2.1,0.7-2.6,1.5v7.1h-1.5v-6.6c0-1.2-0.5-2-1.8-2c-1,0-2,0.7-2.5,1.5
		v7.1h-1.5v-9.7h1.5v1.4c0.4-0.6,1.7-1.6,3.1-1.6c1.5,0,2.3,0.8,2.6,1.8c0.5-0.9,1.8-1.8,3.2-1.8c1.8,0,2.7,1,2.7,2.9v7H133z"/>
	<path class="st1" d="M139,193.6v5.1h-1.5v-13.3h1.5v1.4c0.7-1,1.9-1.7,3.3-1.7c2.5,0,4.3,1.9,4.3,5.1c0,3.1-1.8,5.1-4.3,5.1
		C140.9,195.3,139.8,194.7,139,193.6z M145,190.2c0-2.1-1.2-3.7-3.1-3.7c-1.2,0-2.4,0.7-2.9,1.5v4.4c0.5,0.8,1.7,1.6,2.9,1.6
		C143.8,194,145,192.4,145,190.2z"/>
	<path class="st1" d="M155,195.1V194c-0.8,0.9-1.9,1.3-3.2,1.3c-1.6,0-3.4-1.1-3.4-3.2c0-2.2,1.7-3.2,3.4-3.2c1.3,0,2.4,0.4,3.2,1.3
		v-1.7c0-1.3-1-2-2.4-2c-1.2,0-2.1,0.4-3,1.3l-0.7-1c1-1.1,2.3-1.6,3.9-1.6c2.1,0,3.7,0.9,3.7,3.3v6.6H155z M155,193v-1.8
		c-0.6-0.8-1.6-1.2-2.6-1.2c-1.4,0-2.4,0.9-2.4,2.1c0,1.2,1,2.1,2.4,2.1C153.4,194.2,154.4,193.8,155,193z"/>
	<path class="st1" d="M166,195.1v-6.3c0-1.7-0.9-2.2-2.2-2.2c-1.2,0-2.3,0.7-2.9,1.5v7.1h-1.5v-9.7h1.5v1.4c0.7-0.8,2-1.6,3.5-1.6
		c2,0,3.1,1,3.1,3.1v6.8H166z"/>
	<path class="st1" d="M170.2,197.5c0.2,0.1,0.6,0.2,0.8,0.2c0.7,0,1.1-0.2,1.4-1l0.6-1.5l-4-9.8h1.6l3.2,7.9l3.2-7.9h1.6l-4.8,11.6
		c-0.6,1.4-1.6,1.9-2.8,2c-0.3,0-0.8-0.1-1.1-0.1L170.2,197.5z"/>
</g>
<path class="st2" d="M268.4,76.5l9.9-11.3c0-0.3,0.3-0.3,0.3-0.5c0.3-0.3,0.3-0.5,0.3-0.5c0-0.3,0.3-0.5,0.3-0.8s0-0.5,0-0.5
	c0-0.3,0-0.5,0-0.8s0-0.5-0.3-0.5c0-0.3-0.3-0.5-0.3-0.8s-0.3-0.3-0.3-0.5L268.4,49c-1.3-1.6-3.7-1.6-5.2-0.3
	c-1.6,1.3-1.6,3.7-0.3,5.2l4.4,5h-36.6c-2.1,0-3.7,1.6-3.7,3.7s1.6,3.7,3.7,3.7h36.6l-4.4,5c-1.3,1.6-1.3,3.9,0.3,5.2
	C264.8,78.3,267.1,78.1,268.4,76.5z"/>
<path class="st2" d="M268.4,261l9.9-11.3c0-0.3,0.3-0.3,0.3-0.5c0.3-0.3,0.3-0.5,0.3-0.5c0-0.3,0.3-0.5,0.3-0.8s0-0.5,0-0.5
	c0-0.3,0-0.5,0-0.8s0-0.5-0.3-0.5c0-0.3-0.3-0.5-0.3-0.8s-0.3-0.3-0.3-0.5l-9.9-11.3c-1.3-1.6-3.7-1.6-5.2-0.3
	c-1.6,1.3-1.6,3.7-0.3,5.2l4.4,5h-36.6c-2.1,0-3.7,1.6-3.7,3.7c0,2.1,1.6,3.7,3.7,3.7h36.6l-4.4,5c-1.3,1.6-1.3,3.9,0.3,5.2
	C264.8,262.8,267.1,262.6,268.4,261z"/>
<g>
	<g>
		<g>
			<g>
				<g>
					<g>
						<rect x="87.3" y="79.9" class="st3" width="60.7" height="82.4"/>
					</g>
				</g>
			</g>
			<g>
				<g>
					<g>
						<rect x="110.1" y="140.9" class="st1" width="15.7" height="21.2"/>
					</g>
				</g>
			</g>
			<g>
				<g>
					<g>
						<g>
							<rect x="98" y="89.3" class="st1" width="39" height="6.3"/>
						</g>
					</g>
				</g>
				<g>
					<g>
						<g>
							<rect x="98" y="101.1" class="st1" width="39" height="6.3"/>
						</g>
					</g>
				</g>
				<g>
					<g>
						<g>
							<rect x="98" y="112.6" class="st1" width="39" height="6.3"/>
						</g>
					</g>
				</g>
				<g>
					<g>
						<g>
							<rect x="98" y="124.1" class="st1" width="39" height="6.3"/>
						</g>
					</g>
				</g>
			</g>
		</g>
		<g>
			<g>
				<g>
					<rect x="147.8" y="101.4" class="st1" width="40" height="60.5"/>
				</g>
			</g>
		</g>
		<g>
			<g>
				<g>
					<g>
						<g>
							<rect x="153" y="106.9" class="st3" width="12.3" height="12.3"/>
						</g>
					</g>
				</g>
				<g>
					<g>
						<g>
							<rect x="153" y="123.1" class="st3" width="12.3" height="12.3"/>
						</g>
					</g>
				</g>
				<g>
					<g>
						<g>
							<rect x="153" y="139.3" class="st3" width="12.3" height="12.3"/>
						</g>
					</g>
				</g>
			</g>
			<g>
				<g>
					<g>
						<g>
							<rect x="170.5" y="106.9" class="st3" width="12.3" height="12.3"/>
						</g>
					</g>
				</g>
				<g>
					<g>
						<g>
							<rect x="170.5" y="123.1" class="st3" width="12.3" height="12.3"/>
						</g>
					</g>
				</g>
				<g>
					<g>
						<g>
							<rect x="170.5" y="139.3" class="st3" width="12.3" height="12.3"/>
						</g>
					</g>
				</g>
			</g>
		</g>
	</g>
</g>
<g>
	<path class="st1" d="M339.3,75.7c3.7-3.4,7.1-9.4,7.1-32.5c0-20.7,4.4-29,6.3-31.4c1.8-2.4,8.9-2.4,8.9-2.4V9c0,0,7.6-5,10.7-5
		c6.3,0,29-1,29,39.3c0,16,0.5,25.4,6.8,32.5"/>
	<path class="st4" d="M384.4,62.4v5c0,0,19.6,7.3,22.2,7.9c5.8,1.3,9.2,3.1,9.2,20.2h-83.2c0-17,3.1-18.8,9.2-20.2
		c2.6-0.5,22.2-7.9,22.2-7.9v-5"/>
	<path class="st2" d="M392.7,46.9c-1.6,7.9-8.1,18.3-8.1,18.3v5.2c0,0-4.4,9.2-11,9.2s-9.7-6.5-9.7-6.5v-7.6h0.3
		c-4.7-3.9-8.4-10.7-9.9-18.3l2.9-12.8c0,0,3.1-11,6.5-11.8c0,0,18.3,19.1,28.3,12.8C392.2,35.4,396.7,37.2,392.7,46.9z"/>
</g>
<g>
	<path class="st1" d="M339.3,258.9c3.7-3.4,7.1-9.4,7.1-32.5c0-20.7,4.4-29,6.3-31.4c1.8-2.4,8.9-2.4,8.9-2.4v-0.3c0,0,7.6-5,10.7-5
		c6.3,0,29-1,29,39.3c0,16,0.5,25.4,6.8,32.5"/>
	<path class="st4" d="M384.4,245.6v5c0,0,19.6,7.3,22.2,7.9c5.8,1.3,9.2,3.1,9.2,20.2h-83.2c0-17,3.1-18.8,9.2-20.2
		c2.6-0.5,22.2-7.9,22.2-7.9v-5"/>
	<path class="st2" d="M392.7,230.1c-1.6,7.9-8.1,18.3-8.1,18.3v5.2c0,0-4.4,9.2-11,9.2s-9.7-6.5-9.7-6.5v-7.6h0.3
		c-4.7-3.9-8.4-10.7-9.9-18.3l2.9-12.8c0,0,3.1-11,6.5-11.8c0,0,18.3,19.1,28.3,12.8C392.2,218.6,396.7,220.4,392.7,230.1z"/>
</g>
<g class="st0">
	<path class="st1" d="M324.4,120.1v-13.3h8.7v1.5h-7.1v4.3h6.9v1.5h-6.9v4.6h7.1v1.5H324.4z"/>
	<path class="st1" d="M347.4,120.1v-6.6c0-1.2-0.5-2-1.8-2c-1,0-2.1,0.7-2.6,1.5v7.1h-1.5v-6.6c0-1.2-0.5-2-1.8-2
		c-1,0-2,0.7-2.5,1.5v7.1h-1.5v-9.7h1.5v1.4c0.4-0.6,1.7-1.6,3.1-1.6c1.5,0,2.3,0.8,2.6,1.8c0.5-0.9,1.8-1.8,3.2-1.8
		c1.8,0,2.7,1,2.7,2.9v7H347.4z"/>
	<path class="st1" d="M353.4,118.6v5.1h-1.5v-13.3h1.5v1.4c0.7-1,1.9-1.7,3.3-1.7c2.5,0,4.3,1.9,4.3,5.1c0,3.1-1.8,5.1-4.3,5.1
		C355.3,120.3,354.2,119.7,353.4,118.6z M359.4,115.2c0-2.1-1.2-3.7-3.1-3.7c-1.2,0-2.4,0.7-2.9,1.5v4.4c0.5,0.8,1.7,1.6,2.9,1.6
		C358.2,119,359.4,117.4,359.4,115.2z"/>
	<path class="st1" d="M363.3,120.1v-13.3h1.5v13.3H363.3z"/>
	<path class="st1" d="M367.3,115.2c0-2.8,1.8-5.1,4.8-5.1s4.8,2.3,4.8,5.1s-1.8,5.1-4.8,5.1S367.3,118,367.3,115.2z M375.2,115.2
		c0-2-1.1-3.7-3.2-3.7s-3.2,1.8-3.2,3.7c0,2,1.1,3.7,3.2,3.7S375.2,117.2,375.2,115.2z"/>
	<path class="st1" d="M379,122.5c0.2,0.1,0.6,0.2,0.8,0.2c0.7,0,1.1-0.2,1.4-1l0.6-1.5l-4-9.8h1.6l3.2,7.9l3.2-7.9h1.6l-4.8,11.6
		c-0.6,1.4-1.6,1.9-2.8,2c-0.3,0-0.8-0.1-1.1-0.1L379,122.5z"/>
	<path class="st1" d="M388.5,115.2c0-2.8,2-5.1,4.8-5.1c2.9,0,4.6,2.3,4.6,5.2v0.4h-7.8c0.1,1.8,1.4,3.3,3.5,3.3
		c1.1,0,2.2-0.4,3-1.2l0.7,1c-1,1-2.3,1.5-3.8,1.5C390.6,120.3,388.5,118.3,388.5,115.2z M393.2,111.4c-2.1,0-3.1,1.7-3.2,3.2h6.3
		C396.4,113.2,395.4,111.4,393.2,111.4z"/>
	<path class="st1" d="M399.8,115.2c0-2.8,2-5.1,4.8-5.1c2.9,0,4.6,2.3,4.6,5.2v0.4h-7.8c0.1,1.8,1.4,3.3,3.5,3.3
		c1.1,0,2.2-0.4,3-1.2l0.7,1c-1,1-2.3,1.5-3.8,1.5C401.8,120.3,399.8,118.3,399.8,115.2z M404.5,111.4c-2.1,0-3.1,1.7-3.2,3.2h6.3
		C407.7,113.2,406.7,111.4,404.5,111.4z"/>
	<path class="st1" d="M426.3,120.1l-1.2-3h-6.6l-1.2,3h-1.9l5.4-13.3h2.1l5.4,13.3H426.3z M421.8,108.4l-2.8,7.2h5.7L421.8,108.4z"
		/>
</g>
<g class="st0">
	<path class="st1" d="M324.4,303.1v-13.3h8.7v1.5h-7.1v4.3h6.9v1.5h-6.9v4.6h7.1v1.5H324.4z"/>
	<path class="st1" d="M347.4,303.1v-6.6c0-1.2-0.5-2-1.8-2c-1,0-2.1,0.7-2.6,1.5v7.1h-1.5v-6.6c0-1.2-0.5-2-1.8-2
		c-1,0-2,0.7-2.5,1.5v7.1h-1.5v-9.7h1.5v1.4c0.4-0.6,1.7-1.6,3.1-1.6c1.5,0,2.3,0.8,2.6,1.8c0.5-0.9,1.8-1.8,3.2-1.8
		c1.8,0,2.7,1,2.7,2.9v7H347.4z"/>
	<path class="st1" d="M353.4,301.6v5.1h-1.5v-13.3h1.5v1.4c0.7-1,1.9-1.7,3.3-1.7c2.5,0,4.3,1.9,4.3,5.1c0,3.1-1.8,5.1-4.3,5.1
		C355.3,303.3,354.2,302.7,353.4,301.6z M359.4,298.2c0-2.1-1.2-3.7-3.1-3.7c-1.2,0-2.4,0.7-2.9,1.5v4.4c0.5,0.8,1.7,1.6,2.9,1.6
		C358.2,302,359.4,300.4,359.4,298.2z"/>
	<path class="st1" d="M363.3,303.1v-13.3h1.5v13.3H363.3z"/>
	<path class="st1" d="M367.3,298.2c0-2.8,1.8-5.1,4.8-5.1s4.8,2.3,4.8,5.1s-1.8,5.1-4.8,5.1S367.3,301,367.3,298.2z M375.2,298.2
		c0-2-1.1-3.7-3.2-3.7s-3.2,1.8-3.2,3.7c0,2,1.1,3.7,3.2,3.7S375.2,300.2,375.2,298.2z"/>
	<path class="st1" d="M379,305.5c0.2,0.1,0.6,0.2,0.8,0.2c0.7,0,1.1-0.2,1.4-1l0.6-1.5l-4-9.8h1.6l3.2,7.9l3.2-7.9h1.6l-4.8,11.6
		c-0.6,1.4-1.6,1.9-2.8,2c-0.3,0-0.8-0.1-1.1-0.1L379,305.5z"/>
	<path class="st1" d="M388.5,298.2c0-2.8,2-5.1,4.8-5.1c2.9,0,4.6,2.3,4.6,5.2v0.4h-7.8c0.1,1.8,1.4,3.3,3.5,3.3
		c1.1,0,2.2-0.4,3-1.2l0.7,1c-1,1-2.3,1.5-3.8,1.5C390.6,303.3,388.5,301.3,388.5,298.2z M393.2,294.4c-2.1,0-3.1,1.7-3.2,3.2h6.3
		C396.4,296.2,395.4,294.4,393.2,294.4z"/>
	<path class="st1" d="M399.8,298.2c0-2.8,2-5.1,4.8-5.1c2.9,0,4.6,2.3,4.6,5.2v0.4h-7.8c0.1,1.8,1.4,3.3,3.5,3.3
		c1.1,0,2.2-0.4,3-1.2l0.7,1c-1,1-2.3,1.5-3.8,1.5C401.8,303.3,399.8,301.3,399.8,298.2z M404.5,294.4c-2.1,0-3.1,1.7-3.2,3.2h6.3
		C407.7,296.2,406.7,294.4,404.5,294.4z"/>
	<path class="st1" d="M416.8,303.1v-13.3h5.9c2.3,0,3.7,1.4,3.7,3.4c0,1.7-1.1,2.8-2.3,3.1c1.4,0.2,2.6,1.7,2.6,3.3
		c0,2.1-1.4,3.6-3.9,3.6H416.8z M424.8,293.4c0-1.2-0.8-2.2-2.3-2.2h-4v4.3h4C424,295.5,424.8,294.6,424.8,293.4z M425,299.3
		c0-1.2-0.8-2.3-2.5-2.3h-4.1v4.6h4.1C424.1,301.6,425,300.7,425,299.3z"/>
</g>
</svg>
