<?xml version="1.0" encoding="utf-8"?>
<!-- Generator: Adobe Illustrator 19.2.1, SVG Export Plug-In . SVG Version: 6.00 Build 0)  -->
<svg version="1.1" id="Layer_1" xmlns="http://www.w3.org/2000/svg" xmlns:xlink="http://www.w3.org/1999/xlink" x="0px" y="0px"
	 viewBox="0 0 203 120.7" style="enable-background:new 0 0 203 120.7;" xml:space="preserve">
<style type="text/css">
	.st0{fill:#FFC949;}
	.st1{fill:#6DABDD;}
	.st2{fill:#3171AE;}
	.st3{fill:#91E5D5;}
</style>
<path class="st0" d="M81,28.7l3.8-4.3c0-0.1,0.1-0.1,0.1-0.2C85,24.1,85,24,85,24c0-0.1,0.1-0.2,0.1-0.3s0-0.2,0-0.2
	c0-0.1,0-0.2,0-0.3s0-0.2-0.1-0.2c0-0.1-0.1-0.2-0.1-0.3s-0.1-0.1-0.1-0.2L81,18.2c-0.5-0.6-1.4-0.6-2-0.1s-0.6,1.4-0.1,2l1.7,1.9
	h-14c-0.8,0-1.4,0.6-1.4,1.4s0.6,1.4,1.4,1.4h14l-1.7,1.9c-0.5,0.6-0.5,1.5,0.1,2C79.6,29.4,80.5,29.3,81,28.7z"/>
<path class="st0" d="M81,99.2l3.8-4.3c0-0.1,0.1-0.1,0.1-0.2c0.1-0.1,0.1-0.2,0.1-0.2c0-0.1,0.1-0.2,0.1-0.3c0-0.1,0-0.2,0-0.2
	c0-0.1,0-0.2,0-0.3c0-0.1,0-0.2-0.1-0.2c0-0.1-0.1-0.2-0.1-0.3c0-0.1-0.1-0.1-0.1-0.2L81,88.7c-0.5-0.6-1.4-0.6-2-0.1
	s-0.6,1.4-0.1,2l1.7,1.9h-14c-0.8,0-1.4,0.6-1.4,1.4s0.6,1.4,1.4,1.4h14l-1.7,1.9c-0.5,0.6-0.5,1.5,0.1,2
	C79.6,99.9,80.5,99.8,81,99.2z"/>
<g>
	<g>
		<g>
			<g>
				<g>
					<g>
						<rect x="11.8" y="30" class="st1" width="23.2" height="31.5"/>
					</g>
				</g>
			</g>
			<g>
				<g>
					<g>
						<rect x="20.5" y="53.3" class="st2" width="6" height="8.1"/>
					</g>
				</g>
			</g>
			<g>
				<g>
					<g>
						<g>
							<rect x="15.9" y="33.6" class="st2" width="14.9" height="2.4"/>
						</g>
					</g>
				</g>
				<g>
					<g>
						<g>
							<rect x="15.9" y="38.1" class="st2" width="14.9" height="2.4"/>
						</g>
					</g>
				</g>
				<g>
					<g>
						<g>
							<rect x="15.9" y="42.5" class="st2" width="14.9" height="2.4"/>
						</g>
					</g>
				</g>
				<g>
					<g>
						<g>
							<rect x="15.9" y="46.9" class="st2" width="14.9" height="2.4"/>
						</g>
					</g>
				</g>
			</g>
		</g>
		<g>
			<g>
				<g>
					<rect x="34.9" y="38.2" class="st2" width="15.3" height="23.1"/>
				</g>
			</g>
		</g>
		<g>
			<g>
				<g>
					<g>
						<g>
							<rect x="36.9" y="40.3" class="st1" width="4.7" height="4.7"/>
						</g>
					</g>
				</g>
				<g>
					<g>
						<g>
							<rect x="36.9" y="46.5" class="st1" width="4.7" height="4.7"/>
						</g>
					</g>
				</g>
				<g>
					<g>
						<g>
							<rect x="36.9" y="52.7" class="st1" width="4.7" height="4.7"/>
						</g>
					</g>
				</g>
			</g>
			<g>
				<g>
					<g>
						<g>
							<rect x="43.6" y="40.3" class="st1" width="4.7" height="4.7"/>
						</g>
					</g>
				</g>
				<g>
					<g>
						<g>
							<rect x="43.6" y="46.5" class="st1" width="4.7" height="4.7"/>
						</g>
					</g>
				</g>
				<g>
					<g>
						<g>
							<rect x="43.6" y="52.7" class="st1" width="4.7" height="4.7"/>
						</g>
					</g>
				</g>
			</g>
		</g>
	</g>
	<g>
		<path class="st2" d="M15.4,70.3c0-1.6,1.2-2.8,2.7-2.8c0.9,0,1.6,0.4,2,1.1l-0.6,0.3c-0.3-0.5-0.9-0.8-1.5-0.8
			c-1.2,0-2.1,0.9-2.1,2.2c0,1.3,0.9,2.2,2.1,2.2c0.6,0,1.2-0.3,1.5-0.8l0.6,0.3c-0.4,0.6-1.1,1.1-2,1.1
			C16.6,73.1,15.4,72,15.4,70.3z"/>
		<path class="st2" d="M20.8,71.1c0-1.1,0.7-2,1.9-2s1.9,0.9,1.9,2c0,1.1-0.7,2-1.9,2S20.8,72.2,20.8,71.1z M24,71.1
			c0-0.8-0.5-1.5-1.3-1.5c-0.8,0-1.3,0.7-1.3,1.5c0,0.8,0.5,1.5,1.3,1.5C23.5,72.6,24,71.9,24,71.1z"/>
		<path class="st2" d="M30.2,73v-2.6c0-0.5-0.2-0.8-0.7-0.8c-0.4,0-0.8,0.3-1,0.6V73h-0.6v-2.6c0-0.5-0.2-0.8-0.7-0.8
			c-0.4,0-0.8,0.3-1,0.6V73h-0.6v-3.9h0.6v0.6c0.2-0.2,0.7-0.7,1.3-0.7c0.6,0,0.9,0.3,1,0.7c0.2-0.4,0.7-0.7,1.3-0.7
			c0.7,0,1.1,0.4,1.1,1.2V73H30.2z"/>
		<path class="st2" d="M32.6,72.4v2.1H32v-5.3h0.6v0.6c0.3-0.4,0.8-0.7,1.3-0.7c1,0,1.7,0.8,1.7,2c0,1.2-0.7,2-1.7,2
			C33.4,73.1,33,72.8,32.6,72.4z M35,71.1c0-0.9-0.5-1.5-1.2-1.5c-0.5,0-0.9,0.3-1.2,0.6v1.7c0.2,0.3,0.7,0.6,1.2,0.6
			C34.6,72.6,35,71.9,35,71.1z"/>
		<path class="st2" d="M39,73v-0.4c-0.3,0.4-0.8,0.5-1.3,0.5c-0.6,0-1.3-0.4-1.3-1.3c0-0.9,0.7-1.3,1.3-1.3c0.5,0,1,0.2,1.3,0.5
			v-0.7c0-0.5-0.4-0.8-1-0.8c-0.5,0-0.8,0.2-1.2,0.5l-0.3-0.4c0.4-0.4,0.9-0.6,1.5-0.6c0.8,0,1.5,0.4,1.5,1.3V73H39z M39,72.2v-0.7
			C38.8,71.1,38.4,71,38,71c-0.6,0-1,0.4-1,0.8c0,0.5,0.4,0.8,1,0.8C38.4,72.7,38.8,72.5,39,72.2z"/>
		<path class="st2" d="M43.5,73v-2.5c0-0.7-0.4-0.9-0.9-0.9c-0.5,0-0.9,0.3-1.1,0.6V73h-0.6v-3.9h0.6v0.6c0.3-0.3,0.8-0.7,1.4-0.7
			c0.8,0,1.2,0.4,1.2,1.2V73H43.5z"/>
		<path class="st2" d="M45.1,74c0.1,0,0.2,0.1,0.3,0.1c0.3,0,0.4-0.1,0.6-0.4l0.3-0.6l-1.6-3.9h0.7l1.3,3.2l1.3-3.2h0.6l-1.9,4.6
			c-0.2,0.6-0.6,0.8-1.1,0.8c-0.1,0-0.3,0-0.4-0.1L45.1,74z"/>
	</g>
	<g>
		<path class="st2" d="M100.9,47v-5.3h3.5v0.6h-2.8V44h2.8v0.6h-2.8v1.8h2.8V47H100.9z"/>
		<path class="st2" d="M110.1,47v-2.6c0-0.5-0.2-0.8-0.7-0.8c-0.4,0-0.8,0.3-1,0.6V47h-0.6v-2.6c0-0.5-0.2-0.8-0.7-0.8
			c-0.4,0-0.8,0.3-1,0.6V47h-0.6v-3.9h0.6v0.6c0.2-0.2,0.7-0.7,1.3-0.7c0.6,0,0.9,0.3,1,0.7c0.2-0.4,0.7-0.7,1.3-0.7
			c0.7,0,1.1,0.4,1.1,1.2V47H110.1z"/>
		<path class="st2" d="M112.5,46.4v2.1h-0.6v-5.3h0.6v0.6c0.3-0.4,0.8-0.7,1.3-0.7c1,0,1.7,0.8,1.7,2c0,1.2-0.7,2-1.7,2
			C113.2,47.1,112.8,46.8,112.5,46.4z M114.9,45.1c0-0.9-0.5-1.5-1.2-1.5c-0.5,0-0.9,0.3-1.2,0.6v1.7c0.2,0.3,0.7,0.6,1.2,0.6
			C114.4,46.6,114.9,45.9,114.9,45.1z"/>
		<path class="st2" d="M116.4,47v-5.3h0.6V47H116.4z"/>
		<path class="st2" d="M118,45.1c0-1.1,0.7-2,1.9-2c1.2,0,1.9,0.9,1.9,2c0,1.1-0.7,2-1.9,2C118.8,47.1,118,46.2,118,45.1z
			 M121.2,45.1c0-0.8-0.5-1.5-1.3-1.5c-0.8,0-1.3,0.7-1.3,1.5c0,0.8,0.5,1.5,1.3,1.5C120.8,46.6,121.2,45.9,121.2,45.1z"/>
		<path class="st2" d="M122.7,48c0.1,0,0.2,0.1,0.3,0.1c0.3,0,0.4-0.1,0.6-0.4l0.3-0.6l-1.6-3.9h0.7l1.3,3.2l1.3-3.2h0.6l-1.9,4.6
			c-0.2,0.6-0.6,0.8-1.1,0.8c-0.1,0-0.3,0-0.4-0.1L122.7,48z"/>
		<path class="st2" d="M126.5,45.1c0-1.1,0.8-2,1.9-2c1.2,0,1.9,0.9,1.9,2.1v0.2h-3.1c0,0.7,0.6,1.3,1.4,1.3c0.4,0,0.9-0.2,1.2-0.5
			l0.3,0.4c-0.4,0.4-0.9,0.6-1.5,0.6C127.3,47.1,126.5,46.3,126.5,45.1z M128.4,43.5c-0.8,0-1.2,0.7-1.3,1.3h2.5
			C129.7,44.2,129.3,43.5,128.4,43.5z"/>
		<path class="st2" d="M131,45.1c0-1.1,0.8-2,1.9-2c1.2,0,1.9,0.9,1.9,2.1v0.2h-3.1c0,0.7,0.6,1.3,1.4,1.3c0.4,0,0.9-0.2,1.2-0.5
			l0.3,0.4c-0.4,0.4-0.9,0.6-1.5,0.6C131.8,47.1,131,46.3,131,45.1z M132.9,43.5c-0.8,0-1.2,0.7-1.3,1.3h2.5
			C134.2,44.2,133.8,43.5,132.9,43.5z"/>
		<path class="st2" d="M141.6,47l-0.5-1.2h-2.7L138,47h-0.8l2.2-5.3h0.8l2.1,5.3H141.6z M139.8,42.3l-1.1,2.9h2.3L139.8,42.3z"/>
	</g>
	<g>
		<path class="st2" d="M100.9,116v-5.3h3.5v0.6h-2.8v1.7h2.8v0.6h-2.8v1.8h2.8v0.6H100.9z"/>
		<path class="st2" d="M110.1,116v-2.6c0-0.5-0.2-0.8-0.7-0.8c-0.4,0-0.8,0.3-1,0.6v2.8h-0.6v-2.6c0-0.5-0.2-0.8-0.7-0.8
			c-0.4,0-0.8,0.3-1,0.6v2.8h-0.6v-3.9h0.6v0.6c0.2-0.2,0.7-0.7,1.3-0.7c0.6,0,0.9,0.3,1,0.7c0.2-0.4,0.7-0.7,1.3-0.7
			c0.7,0,1.1,0.4,1.1,1.2v2.8H110.1z"/>
		<path class="st2" d="M112.5,115.4v2.1h-0.6v-5.3h0.6v0.6c0.3-0.4,0.8-0.7,1.3-0.7c1,0,1.7,0.8,1.7,2c0,1.2-0.7,2-1.7,2
			C113.2,116.1,112.8,115.8,112.5,115.4z M114.9,114.1c0-0.9-0.5-1.5-1.2-1.5c-0.5,0-0.9,0.3-1.2,0.6v1.7c0.2,0.3,0.7,0.6,1.2,0.6
			C114.4,115.6,114.9,114.9,114.9,114.1z"/>
		<path class="st2" d="M116.4,116v-5.3h0.6v5.3H116.4z"/>
		<path class="st2" d="M118,114.1c0-1.1,0.7-2,1.9-2c1.2,0,1.9,0.9,1.9,2c0,1.1-0.7,2-1.9,2C118.8,116.1,118,115.2,118,114.1z
			 M121.2,114.1c0-0.8-0.5-1.5-1.3-1.5c-0.8,0-1.3,0.7-1.3,1.5c0,0.8,0.5,1.5,1.3,1.5C120.8,115.6,121.2,114.9,121.2,114.1z"/>
		<path class="st2" d="M122.7,117c0.1,0,0.2,0.1,0.3,0.1c0.3,0,0.4-0.1,0.6-0.4l0.3-0.6l-1.6-3.9h0.7l1.3,3.2l1.3-3.2h0.6l-1.9,4.6
			c-0.2,0.6-0.6,0.8-1.1,0.8c-0.1,0-0.3,0-0.4-0.1L122.7,117z"/>
		<path class="st2" d="M126.5,114.1c0-1.1,0.8-2,1.9-2c1.2,0,1.9,0.9,1.9,2.1v0.2h-3.1c0,0.7,0.6,1.3,1.4,1.3c0.4,0,0.9-0.2,1.2-0.5
			l0.3,0.4c-0.4,0.4-0.9,0.6-1.5,0.6C127.3,116.1,126.5,115.3,126.5,114.1z M128.4,112.5c-0.8,0-1.2,0.7-1.3,1.3h2.5
			C129.7,113.2,129.3,112.5,128.4,112.5z"/>
		<path class="st2" d="M131,114.1c0-1.1,0.8-2,1.9-2c1.2,0,1.9,0.9,1.9,2.1v0.2h-3.1c0,0.7,0.6,1.3,1.4,1.3c0.4,0,0.9-0.2,1.2-0.5
			l0.3,0.4c-0.4,0.4-0.9,0.6-1.5,0.6C131.8,116.1,131,115.3,131,114.1z M132.9,112.5c-0.8,0-1.2,0.7-1.3,1.3h2.5
			C134.2,113.2,133.8,112.5,132.9,112.5z"/>
		<path class="st2" d="M137.8,116v-5.3h2.4c0.9,0,1.5,0.6,1.5,1.4c0,0.7-0.4,1.1-0.9,1.2c0.6,0.1,1,0.7,1,1.3c0,0.9-0.6,1.4-1.5,1.4
			H137.8z M141,112.1c0-0.5-0.3-0.9-0.9-0.9h-1.6v1.7h1.6C140.7,113,141,112.6,141,112.1z M141.1,114.5c0-0.5-0.3-0.9-1-0.9h-1.6
			v1.8h1.6C140.8,115.4,141.1,115.1,141.1,114.5z"/>
	</g>
</g>
<g>
	<path class="st2" d="M108.1,28.4c1.4-1.3,2.7-3.6,2.7-12.4c0-7.9,1.7-11.1,2.4-12c0.7-0.9,3.4-0.9,3.4-0.9V2.9c0,0,2.9-1.9,4.1-1.9
		c2.4,0,11.1-0.4,11.1,15c0,6.1,0.2,9.7,2.6,12.4"/>
	<path class="st3" d="M125.3,23.3v1.9c0,0,7.5,2.8,8.5,3c2.2,0.5,3.5,1.2,3.5,7.7h-31.8c0-6.5,1.2-7.2,3.5-7.7c1-0.2,8.5-3,8.5-3
		v-1.9"/>
	<path class="st0" d="M128.5,17.4c-0.6,3-3.1,7-3.1,7v2c0,0-1.7,3.5-4.2,3.5s-3.7-2.5-3.7-2.5v-2.9h0.1c-1.8-1.5-3.2-4.1-3.8-7
		l1.1-4.9c0,0,1.2-4.2,2.5-4.5c0,0,7,7.3,10.8,4.9C128.3,13,130,13.7,128.5,17.4z"/>
</g>
<g>
	<path class="st2" d="M108.1,98.4c1.4-1.3,2.7-3.6,2.7-12.4c0-7.9,1.7-11.1,2.4-12c0.7-0.9,3.4-0.9,3.4-0.9V73c0,0,2.9-1.9,4.1-1.9
		c2.4,0,11.1-0.4,11.1,15c0,6.1,0.2,9.7,2.6,12.4"/>
	<path class="st3" d="M125.3,93.3v1.9c0,0,7.5,2.8,8.5,3c2.2,0.5,3.5,1.2,3.5,7.7h-31.8c0-6.5,1.2-7.2,3.5-7.7c1-0.2,8.5-3,8.5-3
		v-1.9"/>
	<path class="st0" d="M128.5,87.4c-0.6,3-3.1,7-3.1,7v2c0,0-1.7,3.5-4.2,3.5s-3.7-2.5-3.7-2.5v-2.9h0.1c-1.8-1.5-3.2-4.1-3.8-7
		l1.1-4.9c0,0,1.2-4.2,2.5-4.5c0,0,7,7.3,10.8,4.9C128.3,83,130,83.7,128.5,87.4z"/>
</g>
</svg>
