<?xml version="1.0" encoding="utf-8"?>
<!-- Generator: Adobe Illustrator 19.2.1, SVG Export Plug-In . SVG Version: 6.00 Build 0)  -->
<svg version="1.1" id="Layer_1" xmlns="http://www.w3.org/2000/svg" xmlns:xlink="http://www.w3.org/1999/xlink" x="0px" y="0px"
	 viewBox="0 0 600.3 312" style="enable-background:new 0 0 600.3 312;" xml:space="preserve">
<style type="text/css">
	.st0{fill:#3171AE;}
	.st1{font-family:'ProximaNova-Regular';}
	.st2{font-size:20px;}
	.st3{fill:#FFC949;}
	.st4{fill:#6DABDD;}
	.st5{fill:#2F70AD;}
	.st6{fill:#68ACE8;}
	.st7{fill:#FFFFFF;}
	.st8{fill:none;stroke:#2F70AD;stroke-width:1.25;stroke-miterlimit:10;}
</style>
<text transform="matrix(1 0 0 1 94.8636 195.0842)" class="st0 st1 st2">Company</text>
<path class="st3" d="M268.4,76.5l9.9-11.3c0-0.3,0.3-0.3,0.3-0.5c0.3-0.3,0.3-0.5,0.3-0.5c0-0.3,0.3-0.5,0.3-0.8s0-0.5,0-0.5
	c0-0.3,0-0.5,0-0.8s0-0.5-0.3-0.5c0-0.3-0.3-0.5-0.3-0.8s-0.3-0.3-0.3-0.5L268.4,49c-1.3-1.6-3.7-1.6-5.2-0.3
	c-1.6,1.3-1.6,3.7-0.3,5.2l4.4,5h-36.6c-2.1,0-3.7,1.6-3.7,3.7s1.6,3.7,3.7,3.7h36.6l-4.4,5c-1.3,1.6-1.3,3.9,0.3,5.2
	C264.8,78.3,267.1,78.1,268.4,76.5z"/>
<path class="st3" d="M268.4,261l9.9-11.3c0-0.3,0.3-0.3,0.3-0.5c0.3-0.3,0.3-0.5,0.3-0.5c0-0.3,0.3-0.5,0.3-0.8s0-0.5,0-0.5
	c0-0.3,0-0.5,0-0.8s0-0.5-0.3-0.5c0-0.3-0.3-0.5-0.3-0.8s-0.3-0.3-0.3-0.5l-9.9-11.3c-1.3-1.6-3.7-1.6-5.2-0.3
	c-1.6,1.3-1.6,3.7-0.3,5.2l4.4,5h-36.6c-2.1,0-3.7,1.6-3.7,3.7c0,2.1,1.6,3.7,3.7,3.7h36.6l-4.4,5c-1.3,1.6-1.3,3.9,0.3,5.2
	C264.8,262.8,267.1,262.6,268.4,261z"/>
<g>
	<g>
		<g>
			<g>
				<g>
					<g>
						<rect x="87.3" y="79.9" class="st4" width="60.7" height="82.4"/>
					</g>
				</g>
			</g>
			<g>
				<g>
					<g>
						<rect x="110.1" y="140.9" class="st0" width="15.7" height="21.2"/>
					</g>
				</g>
			</g>
			<g>
				<g>
					<g>
						<g>
							<rect x="98" y="89.3" class="st0" width="39" height="6.3"/>
						</g>
					</g>
				</g>
				<g>
					<g>
						<g>
							<rect x="98" y="101.1" class="st0" width="39" height="6.3"/>
						</g>
					</g>
				</g>
				<g>
					<g>
						<g>
							<rect x="98" y="112.6" class="st0" width="39" height="6.3"/>
						</g>
					</g>
				</g>
				<g>
					<g>
						<g>
							<rect x="98" y="124.1" class="st0" width="39" height="6.3"/>
						</g>
					</g>
				</g>
			</g>
		</g>
		<g>
			<g>
				<g>
					<rect x="147.8" y="101.4" class="st0" width="40" height="60.5"/>
				</g>
			</g>
		</g>
		<g>
			<g>
				<g>
					<g>
						<g>
							<rect x="153" y="106.9" class="st4" width="12.3" height="12.3"/>
						</g>
					</g>
				</g>
				<g>
					<g>
						<g>
							<rect x="153" y="123.1" class="st4" width="12.3" height="12.3"/>
						</g>
					</g>
				</g>
				<g>
					<g>
						<g>
							<rect x="153" y="139.3" class="st4" width="12.3" height="12.3"/>
						</g>
					</g>
				</g>
			</g>
			<g>
				<g>
					<g>
						<g>
							<rect x="170.5" y="106.9" class="st4" width="12.3" height="12.3"/>
						</g>
					</g>
				</g>
				<g>
					<g>
						<g>
							<rect x="170.5" y="123.1" class="st4" width="12.3" height="12.3"/>
						</g>
					</g>
				</g>
				<g>
					<g>
						<g>
							<rect x="170.5" y="139.3" class="st4" width="12.3" height="12.3"/>
						</g>
					</g>
				</g>
			</g>
		</g>
	</g>
</g>
<text transform="matrix(1 0 0 1 322.8441 120.0842)" class="st0 st1 st2">Employee A</text>
<text transform="matrix(1 0 0 1 322.8441 303.0843)" class="st0 st1 st2">Employee B</text>
<g>
	<g>
		<path class="st5" d="M394.8,49.5v39.2h-49.2V49.5c0-15.3,11-25.1,24.6-25.1C383.7,24.4,394.8,34.3,394.8,49.5z"/>
		<polygon class="st6" points="376.3,73.8 364.1,73.8 364.9,63.2 375.5,63.2 		"/>
		<ellipse class="st6" cx="370.1" cy="48.3" rx="18.1" ry="20.3"/>
		<path class="st6" d="M378.3,72.3l18.3,8.2c4.7,2.1,7.6,6.7,7.6,11.8v0h-68v0c0-5.1,3-9.7,7.6-11.8l18.3-8.2H378.3z"/>
		<circle class="st7" cx="370.2" cy="79.4" r="2"/>
		<path class="st8" d="M375.3,57c0,0-2.4,1.8-5.1,1.8c-2.7,0-5.1-1.8-5.1-1.8"/>
		<path class="st5" d="M393.8,50.4c-9.1-0.1-23.6-13.3-23.6-18c0,4.7-14.5,17.9-23.6,18c0.9-13.8,11.1-24.7,23.6-24.7
			S392.9,36.6,393.8,50.4z"/>
	</g>
	<g>
		<polygon class="st7" points="382.2,74.1 378.3,72.3 372.9,72.3 367.6,72.3 362.1,72.3 358.2,74.1 360.1,79.8 370.2,73.9 
			380.3,79.8 		"/>
	</g>
</g>
<g>
	<g>
		<path class="st5" d="M394.8,232.5v39.2h-49.2v-39.2c0-15.3,11-25.1,24.6-25.1C383.7,207.4,394.8,217.3,394.8,232.5z"/>
		<polygon class="st6" points="376.3,256.8 364.1,256.8 364.9,246.2 375.5,246.2 		"/>
		<ellipse class="st6" cx="370.1" cy="231.3" rx="18.1" ry="20.3"/>
		<path class="st6" d="M378.3,255.3l18.3,8.2c4.7,2.1,7.6,6.7,7.6,11.8v0h-68v0c0-5.1,3-9.7,7.6-11.8l18.3-8.2H378.3z"/>
		<circle class="st7" cx="370.2" cy="262.4" r="2"/>
		<path class="st8" d="M375.3,240c0,0-2.4,1.8-5.1,1.8c-2.7,0-5.1-1.8-5.1-1.8"/>
		<path class="st5" d="M393.8,233.4c-9.1-0.1-23.6-13.3-23.6-18c0,4.7-14.5,17.9-23.6,18c0.9-13.8,11.1-24.7,23.6-24.7
			S392.9,219.6,393.8,233.4z"/>
	</g>
	<g>
		<polygon class="st7" points="382.2,257.1 378.3,255.3 372.9,255.3 367.6,255.3 362.1,255.3 358.2,257.1 360.1,262.8 370.2,256.9 
			380.3,262.8 		"/>
	</g>
</g>
</svg>
