<?xml version="1.0" encoding="utf-8"?>
<!-- Generator: Adobe Illustrator 19.2.1, SVG Export Plug-In . SVG Version: 6.00 Build 0)  -->
<svg version="1.1" id="Layer_1" xmlns="http://www.w3.org/2000/svg" xmlns:xlink="http://www.w3.org/1999/xlink" x="0px" y="0px"
	 viewBox="0 0 600.3 312" style="enable-background:new 0 0 600.3 312;" xml:space="preserve">
<style type="text/css">
	.st0{fill:#3171AE;}
	.st1{font-family:'ProximaNova-Regular';}
	.st2{font-size:20px;}
	.st3{fill:#FFC949;}
	.st4{fill:#6DABDD;}
	.st5{fill:#91E5D5;}
</style>
<text transform="matrix(1 0 0 1 94.8636 195.0842)" class="st0 st1 st2">Company</text>
<path class="st3" d="M268.4,76.5l9.9-11.3c0-0.3,0.3-0.3,0.3-0.5c0.3-0.3,0.3-0.5,0.3-0.5c0-0.3,0.3-0.5,0.3-0.8s0-0.5,0-0.5
	c0-0.3,0-0.5,0-0.8s0-0.5-0.3-0.5c0-0.3-0.3-0.5-0.3-0.8s-0.3-0.3-0.3-0.5L268.4,49c-1.3-1.6-3.7-1.6-5.2-0.3
	c-1.6,1.3-1.6,3.7-0.3,5.2l4.4,5h-36.6c-2.1,0-3.7,1.6-3.7,3.7s1.6,3.7,3.7,3.7h36.6l-4.4,5c-1.3,1.6-1.3,3.9,0.3,5.2
	C264.8,78.3,267.1,78.1,268.4,76.5z"/>
<path class="st3" d="M268.4,261l9.9-11.3c0-0.3,0.3-0.3,0.3-0.5c0.3-0.3,0.3-0.5,0.3-0.5c0-0.3,0.3-0.5,0.3-0.8s0-0.5,0-0.5
	c0-0.3,0-0.5,0-0.8s0-0.5-0.3-0.5c0-0.3-0.3-0.5-0.3-0.8s-0.3-0.3-0.3-0.5l-9.9-11.3c-1.3-1.6-3.7-1.6-5.2-0.3
	c-1.6,1.3-1.6,3.7-0.3,5.2l4.4,5h-36.6c-2.1,0-3.7,1.6-3.7,3.7c0,2.1,1.6,3.7,3.7,3.7h36.6l-4.4,5c-1.3,1.6-1.3,3.9,0.3,5.2
	C264.8,262.8,267.1,262.6,268.4,261z"/>
<g>
	<g>
		<g>
			<g>
				<g>
					<g>
						<rect x="87.3" y="79.9" class="st4" width="60.7" height="82.4"/>
					</g>
				</g>
			</g>
			<g>
				<g>
					<g>
						<rect x="110.1" y="140.9" class="st0" width="15.7" height="21.2"/>
					</g>
				</g>
			</g>
			<g>
				<g>
					<g>
						<g>
							<rect x="98" y="89.3" class="st0" width="39" height="6.3"/>
						</g>
					</g>
				</g>
				<g>
					<g>
						<g>
							<rect x="98" y="101.1" class="st0" width="39" height="6.3"/>
						</g>
					</g>
				</g>
				<g>
					<g>
						<g>
							<rect x="98" y="112.6" class="st0" width="39" height="6.3"/>
						</g>
					</g>
				</g>
				<g>
					<g>
						<g>
							<rect x="98" y="124.1" class="st0" width="39" height="6.3"/>
						</g>
					</g>
				</g>
			</g>
		</g>
		<g>
			<g>
				<g>
					<rect x="147.8" y="101.4" class="st0" width="40" height="60.5"/>
				</g>
			</g>
		</g>
		<g>
			<g>
				<g>
					<g>
						<g>
							<rect x="153" y="106.9" class="st4" width="12.3" height="12.3"/>
						</g>
					</g>
				</g>
				<g>
					<g>
						<g>
							<rect x="153" y="123.1" class="st4" width="12.3" height="12.3"/>
						</g>
					</g>
				</g>
				<g>
					<g>
						<g>
							<rect x="153" y="139.3" class="st4" width="12.3" height="12.3"/>
						</g>
					</g>
				</g>
			</g>
			<g>
				<g>
					<g>
						<g>
							<rect x="170.5" y="106.9" class="st4" width="12.3" height="12.3"/>
						</g>
					</g>
				</g>
				<g>
					<g>
						<g>
							<rect x="170.5" y="123.1" class="st4" width="12.3" height="12.3"/>
						</g>
					</g>
				</g>
				<g>
					<g>
						<g>
							<rect x="170.5" y="139.3" class="st4" width="12.3" height="12.3"/>
						</g>
					</g>
				</g>
			</g>
		</g>
	</g>
</g>
<g>
	<path class="st0" d="M339.3,75.7c3.7-3.4,7.1-9.4,7.1-32.5c0-20.7,4.4-29,6.3-31.4c1.8-2.4,8.9-2.4,8.9-2.4V9c0,0,7.6-5,10.7-5
		c6.3,0,29-1,29,39.3c0,16,0.5,25.4,6.8,32.5"/>
	<path class="st5" d="M384.4,62.4v5c0,0,19.6,7.3,22.2,7.9c5.8,1.3,9.2,3.1,9.2,20.2h-83.2c0-17,3.1-18.8,9.2-20.2
		c2.6-0.5,22.2-7.9,22.2-7.9v-5"/>
	<path class="st3" d="M392.7,46.9c-1.6,7.9-8.1,18.3-8.1,18.3v5.2c0,0-4.4,9.2-11,9.2s-9.7-6.5-9.7-6.5v-7.6h0.3
		c-4.7-3.9-8.4-10.7-9.9-18.3l2.9-12.8c0,0,3.1-11,6.5-11.8c0,0,18.3,19.1,28.3,12.8C392.2,35.4,396.7,37.2,392.7,46.9z"/>
</g>
<g>
	<path class="st0" d="M339.3,258.9c3.7-3.4,7.1-9.4,7.1-32.5c0-20.7,4.4-29,6.3-31.4c1.8-2.4,8.9-2.4,8.9-2.4v-0.3c0,0,7.6-5,10.7-5
		c6.3,0,29-1,29,39.3c0,16,0.5,25.4,6.8,32.5"/>
	<path class="st5" d="M384.4,245.6v5c0,0,19.6,7.3,22.2,7.9c5.8,1.3,9.2,3.1,9.2,20.2h-83.2c0-17,3.1-18.8,9.2-20.2
		c2.6-0.5,22.2-7.9,22.2-7.9v-5"/>
	<path class="st3" d="M392.7,230.1c-1.6,7.9-8.1,18.3-8.1,18.3v5.2c0,0-4.4,9.2-11,9.2s-9.7-6.5-9.7-6.5v-7.6h0.3
		c-4.7-3.9-8.4-10.7-9.9-18.3l2.9-12.8c0,0,3.1-11,6.5-11.8c0,0,18.3,19.1,28.3,12.8C392.2,218.6,396.7,220.4,392.7,230.1z"/>
</g>
<text transform="matrix(1 0 0 1 322.8441 120.0842)" class="st0 st1 st2">Employee A</text>
<text transform="matrix(1 0 0 1 322.8441 303.0843)" class="st0 st1 st2">Employee B</text>
</svg>
