<?xml version="1.0" encoding="utf-8"?>
<!-- Generator: Adobe Illustrator 19.2.1, SVG Export Plug-In . SVG Version: 6.00 Build 0)  -->
<svg version="1.1" id="Layer_1" xmlns="http://www.w3.org/2000/svg" xmlns:xlink="http://www.w3.org/1999/xlink" x="0px" y="0px"
	 viewBox="0 0 203 120.7" style="enable-background:new 0 0 203 120.7;" xml:space="preserve">
<style type="text/css">
	.st0{fill:#FFC949;}
	.st1{fill:#3171AE;}
	.st2{fill:#6DABDD;}
	.st3{enable-background:new    ;}
	.st4{fill:#91E5D5;}
</style>
<path class="st0" d="M81,28.7l3.8-4.3c0-0.1,0.1-0.1,0.1-0.2C85,24.1,85,24,85,24c0-0.1,0.1-0.2,0.1-0.3s0-0.2,0-0.2
	c0-0.1,0-0.2,0-0.3s0-0.2-0.1-0.2c0-0.1-0.1-0.2-0.1-0.3s-0.1-0.1-0.1-0.2L81,18.2c-0.5-0.6-1.4-0.6-2-0.1s-0.6,1.4-0.1,2l1.7,1.9
	h-14c-0.8,0-1.4,0.6-1.4,1.4s0.6,1.4,1.4,1.4h14l-1.7,1.9c-0.5,0.6-0.5,1.5,0.1,2C79.6,29.4,80.5,29.3,81,28.7z"/>
<path class="st0" d="M81,99.2l3.8-4.3c0-0.1,0.1-0.1,0.1-0.2c0.1-0.1,0.1-0.2,0.1-0.2c0-0.1,0.1-0.2,0.1-0.3c0-0.1,0-0.2,0-0.2
	c0-0.1,0-0.2,0-0.3c0-0.1,0-0.2-0.1-0.2c0-0.1-0.1-0.2-0.1-0.3c0-0.1-0.1-0.1-0.1-0.2L81,88.7c-0.5-0.6-1.4-0.6-2-0.1
	s-0.6,1.4-0.1,2l1.7,1.9h-14c-0.8,0-1.4,0.6-1.4,1.4s0.6,1.4,1.4,1.4h14l-1.7,1.9c-0.5,0.6-0.5,1.5,0.1,2
	C79.6,99.9,80.5,99.8,81,99.2z"/>
<g>
	<g>
		<path class="st1" d="M9.5,75.5c0-2.1,1.5-3.4,3.6-3.4c1.5,0,2.3,0.8,2.8,1.6l-1.2,0.6c-0.3-0.5-0.9-1-1.6-1
			c-1.2,0-2.1,0.9-2.1,2.2s0.9,2.2,2.1,2.2c0.7,0,1.3-0.4,1.6-1l1.2,0.6c-0.5,0.8-1.3,1.6-2.8,1.6C11,78.9,9.5,77.5,9.5,75.5z"/>
		<path class="st1" d="M16.4,76.4c0-1.4,1-2.5,2.5-2.5c1.6,0,2.6,1.2,2.6,2.5s-1,2.5-2.6,2.5S16.4,77.8,16.4,76.4z M20.1,76.4
			c0-0.7-0.4-1.4-1.2-1.4c-0.8,0-1.2,0.7-1.2,1.4c0,0.8,0.4,1.4,1.2,1.4S20.1,77.1,20.1,76.4z"/>
		<path class="st1" d="M28.4,78.8v-3c0-0.5-0.2-0.8-0.7-0.8s-0.8,0.3-1,0.6v3.3h-1.3v-3c0-0.5-0.2-0.8-0.7-0.8c-0.4,0-0.8,0.3-1,0.6
			V79h-1.3v-4.8h1.3v0.6c0.2-0.3,0.8-0.7,1.6-0.7c0.7,0,1.2,0.3,1.3,0.9c0.3-0.4,0.9-0.9,1.7-0.9c0.9,0,1.4,0.5,1.4,1.5v3.5h-1.3
			V78.8z"/>
		<path class="st1" d="M32.2,78.2v2.5h-1.3V74h1.3v0.6c0.4-0.5,0.9-0.7,1.5-0.7c1.2,0,2.1,0.9,2.1,2.5s-0.9,2.5-2.1,2.5
			C33.1,78.9,32.6,78.7,32.2,78.2z M34.5,76.4c0-0.8-0.5-1.4-1.2-1.4c-0.4,0-0.9,0.2-1.1,0.5v1.7c0.2,0.3,0.7,0.6,1.1,0.6
			C34,77.8,34.5,77.2,34.5,76.4z"/>
		<path class="st1" d="M39.7,78.8v-0.5c-0.3,0.4-0.9,0.6-1.5,0.6c-0.8,0-1.7-0.5-1.7-1.6s0.9-1.6,1.7-1.6c0.6,0,1.2,0.2,1.5,0.6
			v-0.6c0-0.5-0.4-0.8-1.1-0.8c-0.5,0-1,0.2-1.4,0.6l-0.5-0.9c0.6-0.5,1.3-0.8,2.1-0.8c1.1,0,2.1,0.4,2.1,1.8v3.1L39.7,78.8
			L39.7,78.8z M39.7,77.6V77c-0.2-0.3-0.6-0.4-1-0.4c-0.5,0-0.9,0.3-0.9,0.7s0.4,0.7,0.9,0.7C39.1,78.1,39.5,77.9,39.7,77.6z"/>
		<path class="st1" d="M45.5,78.8v-2.9c0-0.7-0.4-0.9-0.9-0.9s-0.9,0.3-1.1,0.6v3.3h-1.3v-4.8h1.3v0.6c0.3-0.4,0.9-0.7,1.7-0.7
			c1.1,0,1.6,0.6,1.6,1.5v3.4L45.5,78.8L45.5,78.8z"/>
		<path class="st1" d="M48,79.6c0.1,0,0.3,0.1,0.4,0.1c0.3,0,0.5-0.1,0.7-0.3l0.2-0.4l-2-4.9h1.4l1.3,3.4l1.3-3.4h1.2l-2.3,5.6
			c-0.4,0.9-1,1.1-1.8,1.2c-0.1,0-0.5,0-0.6-0.1L48,79.6z"/>
	</g>
	<g>
		<g>
			<g>
				<g>
					<g>
						<rect x="11.8" y="30" class="st2" width="23.2" height="31.5"/>
					</g>
				</g>
			</g>
			<g>
				<g>
					<g>
						<rect x="20.5" y="53.3" class="st1" width="6" height="8.1"/>
					</g>
				</g>
			</g>
			<g>
				<g>
					<g>
						<g>
							<rect x="15.9" y="33.6" class="st1" width="14.9" height="2.4"/>
						</g>
					</g>
				</g>
				<g>
					<g>
						<g>
							<rect x="15.9" y="38.1" class="st1" width="14.9" height="2.4"/>
						</g>
					</g>
				</g>
				<g>
					<g>
						<g>
							<rect x="15.9" y="42.5" class="st1" width="14.9" height="2.4"/>
						</g>
					</g>
				</g>
				<g>
					<g>
						<g>
							<rect x="15.9" y="46.9" class="st1" width="14.9" height="2.4"/>
						</g>
					</g>
				</g>
			</g>
		</g>
		<g>
			<g>
				<g>
					<rect x="34.9" y="38.2" class="st1" width="15.3" height="23.1"/>
				</g>
			</g>
		</g>
		<g>
			<g>
				<g>
					<g>
						<g>
							<rect x="36.9" y="40.3" class="st2" width="4.7" height="4.7"/>
						</g>
					</g>
				</g>
				<g>
					<g>
						<g>
							<rect x="36.9" y="46.5" class="st2" width="4.7" height="4.7"/>
						</g>
					</g>
				</g>
				<g>
					<g>
						<g>
							<rect x="36.9" y="52.7" class="st2" width="4.7" height="4.7"/>
						</g>
					</g>
				</g>
			</g>
			<g>
				<g>
					<g>
						<g>
							<rect x="43.6" y="40.3" class="st2" width="4.7" height="4.7"/>
						</g>
					</g>
				</g>
				<g>
					<g>
						<g>
							<rect x="43.6" y="46.5" class="st2" width="4.7" height="4.7"/>
						</g>
					</g>
				</g>
				<g>
					<g>
						<g>
							<rect x="43.6" y="52.7" class="st2" width="4.7" height="4.7"/>
						</g>
					</g>
				</g>
			</g>
		</g>
	</g>
</g>
<g>
	<g class="st3">
		<path class="st1" d="M96.1,47.2v-6.7h4.7v1.2h-3.3v1.4h3.2v1.2h-3.2V46h3.3v1.2H96.1z"/>
		<path class="st1" d="M107.9,47.2v-3c0-0.5-0.2-0.8-0.7-0.8c-0.5,0-0.8,0.3-1,0.6v3.3h-1.3v-3c0-0.5-0.2-0.8-0.7-0.8
			c-0.4,0-0.8,0.3-1,0.6v3.3h-1.3v-4.8h1.3V43c0.2-0.3,0.8-0.7,1.6-0.7c0.7,0,1.2,0.3,1.3,0.9c0.3-0.4,0.9-0.9,1.7-0.9
			c0.9,0,1.4,0.5,1.4,1.5v3.5H107.9z"/>
		<path class="st1" d="M111.7,46.6v2.5h-1.3v-6.7h1.3V43c0.4-0.5,0.9-0.7,1.5-0.7c1.2,0,2.1,0.9,2.1,2.5c0,1.6-0.9,2.5-2.1,2.5
			C112.6,47.4,112.1,47.1,111.7,46.6z M114,44.8c0-0.8-0.5-1.4-1.2-1.4c-0.4,0-0.9,0.2-1.1,0.5v1.7c0.2,0.3,0.7,0.6,1.1,0.6
			C113.5,46.2,114,45.7,114,44.8z"/>
		<path class="st1" d="M116.2,47.2v-6.7h1.3v6.7H116.2z"/>
		<path class="st1" d="M118.4,44.8c0-1.4,1-2.5,2.5-2.5c1.6,0,2.6,1.2,2.6,2.5s-1,2.5-2.6,2.5C119.4,47.4,118.4,46.2,118.4,44.8z
			 M122.2,44.8c0-0.7-0.4-1.4-1.2-1.4c-0.8,0-1.2,0.7-1.2,1.4c0,0.8,0.4,1.4,1.2,1.4C121.8,46.2,122.2,45.6,122.2,44.8z"/>
		<path class="st1" d="M124.5,48c0.1,0,0.3,0.1,0.4,0.1c0.3,0,0.5-0.1,0.7-0.3l0.2-0.4l-2-4.9h1.4l1.3,3.4l1.3-3.4h1.4l-2.3,5.6
			c-0.4,0.9-1,1.1-1.8,1.2c-0.1,0-0.5,0-0.6-0.1L124.5,48z"/>
		<path class="st1" d="M129.3,44.8c0-1.4,1-2.5,2.5-2.5c1.4,0,2.4,1.1,2.4,2.6v0.3h-3.6c0.1,0.6,0.6,1.1,1.4,1.1
			c0.4,0,1-0.2,1.3-0.5l0.6,0.8c-0.5,0.4-1.2,0.7-2,0.7C130.4,47.4,129.3,46.4,129.3,44.8z M131.8,43.3c-0.8,0-1.1,0.5-1.2,1h2.4
			C133,43.9,132.7,43.3,131.8,43.3z"/>
		<path class="st1" d="M134.9,44.8c0-1.4,1-2.5,2.5-2.5c1.4,0,2.4,1.1,2.4,2.6v0.3h-3.6c0.1,0.6,0.6,1.1,1.4,1.1
			c0.4,0,1-0.2,1.3-0.5l0.6,0.8c-0.5,0.4-1.2,0.7-2,0.7C136,47.4,134.9,46.4,134.9,44.8z M137.4,43.3c-0.8,0-1.1,0.5-1.2,1h2.4
			C138.5,43.9,138.2,43.3,137.4,43.3z"/>
		<path class="st1" d="M147.9,47.2l-0.4-1.1h-2.9l-0.4,1.1h-1.6l2.6-6.7h1.8l2.6,6.7H147.9z M146.1,42l-1,2.9h2.1L146.1,42z"/>
	</g>
	<path class="st1" d="M108.1,28.4c1.4-1.3,2.7-3.6,2.7-12.4c0-7.9,1.7-11.1,2.4-12c0.7-0.9,3.4-0.9,3.4-0.9V2.9c0,0,2.9-1.9,4.1-1.9
		c2.4,0,11.1-0.4,11.1,15c0,6.1,0.2,9.7,2.6,12.4"/>
	<path class="st4" d="M125.3,23.3v1.9c0,0,7.5,2.8,8.5,3c2.2,0.5,3.5,1.2,3.5,7.7h-31.8c0-6.5,1.2-7.2,3.5-7.7c1-0.2,8.5-3,8.5-3
		v-1.9"/>
	<path class="st0" d="M128.5,17.4c-0.6,3-3.1,7-3.1,7v2c0,0-1.7,3.5-4.2,3.5s-3.7-2.5-3.7-2.5v-2.9h0.1c-1.8-1.5-3.2-4.1-3.8-7
		l1.1-4.9c0,0,1.2-4.2,2.5-4.5c0,0,7,7.3,10.8,4.9C128.3,13,130,13.7,128.5,17.4z"/>
</g>
<g>
	<g class="st3">
		<path class="st1" d="M96.1,117.2v-6.7h4.7v1.2h-3.3v1.4h3.2v1.2h-3.2v1.5h3.3v1.2H96.1z"/>
		<path class="st1" d="M107.9,117.2v-3c0-0.5-0.2-0.8-0.7-0.8c-0.5,0-0.8,0.3-1,0.6v3.3h-1.3v-3c0-0.5-0.2-0.8-0.7-0.8
			c-0.4,0-0.8,0.3-1,0.6v3.3h-1.3v-4.8h1.3v0.6c0.2-0.3,0.8-0.7,1.6-0.7c0.7,0,1.2,0.3,1.3,0.9c0.3-0.4,0.9-0.9,1.7-0.9
			c0.9,0,1.4,0.5,1.4,1.5v3.5H107.9z"/>
		<path class="st1" d="M111.7,116.6v2.5h-1.3v-6.7h1.3v0.6c0.4-0.5,0.9-0.7,1.5-0.7c1.2,0,2.1,0.9,2.1,2.5c0,1.6-0.9,2.5-2.1,2.5
			C112.6,117.4,112.1,117.1,111.7,116.6z M114,114.8c0-0.8-0.5-1.4-1.2-1.4c-0.4,0-0.9,0.2-1.1,0.5v1.7c0.2,0.3,0.7,0.6,1.1,0.6
			C113.5,116.2,114,115.7,114,114.8z"/>
		<path class="st1" d="M116.2,117.2v-6.7h1.3v6.7H116.2z"/>
		<path class="st1" d="M118.4,114.8c0-1.4,1-2.5,2.5-2.5c1.6,0,2.6,1.2,2.6,2.5s-1,2.5-2.6,2.5C119.4,117.4,118.4,116.2,118.4,114.8
			z M122.2,114.8c0-0.7-0.4-1.4-1.2-1.4c-0.8,0-1.2,0.7-1.2,1.4c0,0.8,0.4,1.4,1.2,1.4C121.8,116.2,122.2,115.6,122.2,114.8z"/>
		<path class="st1" d="M124.5,118c0.1,0,0.3,0.1,0.4,0.1c0.3,0,0.5-0.1,0.7-0.3l0.2-0.4l-2-4.9h1.4l1.3,3.4l1.3-3.4h1.4l-2.3,5.6
			c-0.4,0.9-1,1.1-1.8,1.2c-0.1,0-0.5,0-0.6-0.1L124.5,118z"/>
		<path class="st1" d="M129.3,114.8c0-1.4,1-2.5,2.5-2.5c1.4,0,2.4,1.1,2.4,2.6v0.3h-3.6c0.1,0.6,0.6,1.1,1.4,1.1
			c0.4,0,1-0.2,1.3-0.5l0.6,0.8c-0.5,0.4-1.2,0.7-2,0.7C130.4,117.4,129.3,116.4,129.3,114.8z M131.8,113.3c-0.8,0-1.1,0.5-1.2,1
			h2.4C133,113.9,132.7,113.3,131.8,113.3z"/>
		<path class="st1" d="M134.9,114.8c0-1.4,1-2.5,2.5-2.5c1.4,0,2.4,1.1,2.4,2.6v0.3h-3.6c0.1,0.6,0.6,1.1,1.4,1.1
			c0.4,0,1-0.2,1.3-0.5l0.6,0.8c-0.5,0.4-1.2,0.7-2,0.7C136,117.4,134.9,116.4,134.9,114.8z M137.4,113.3c-0.8,0-1.1,0.5-1.2,1h2.4
			C138.5,113.9,138.2,113.3,137.4,113.3z"/>
		<path class="st1" d="M143.3,117.2v-6.7h3.5c1.3,0,1.9,0.8,1.9,1.7c0,0.8-0.5,1.4-1.1,1.5c0.7,0.1,1.3,0.8,1.3,1.6
			c0,1-0.7,1.8-1.9,1.8H143.3z M147.3,112.5c0-0.4-0.3-0.7-0.8-0.7h-1.8v1.4h1.8C147,113.2,147.3,112.9,147.3,112.5z M147.4,115.2
			c0-0.4-0.3-0.8-0.8-0.8h-1.8v1.5h1.8C147.1,116,147.4,115.7,147.4,115.2z"/>
	</g>
	<path class="st1" d="M108.1,98.4c1.4-1.3,2.7-3.6,2.7-12.4c0-7.9,1.7-11.1,2.4-12c0.7-0.9,3.4-0.9,3.4-0.9V73c0,0,2.9-1.9,4.1-1.9
		c2.4,0,11.1-0.4,11.1,15c0,6.1,0.2,9.7,2.6,12.4"/>
	<path class="st4" d="M125.3,93.3v1.9c0,0,7.5,2.8,8.5,3c2.2,0.5,3.5,1.2,3.5,7.7h-31.8c0-6.5,1.2-7.2,3.5-7.7c1-0.2,8.5-3,8.5-3
		v-1.9"/>
	<path class="st0" d="M128.5,87.4c-0.6,3-3.1,7-3.1,7v2c0,0-1.7,3.5-4.2,3.5s-3.7-2.5-3.7-2.5v-2.9h0.1c-1.8-1.5-3.2-4.1-3.8-7
		l1.1-4.9c0,0,1.2-4.2,2.5-4.5c0,0,7,7.3,10.8,4.9C128.3,83,130,83.7,128.5,87.4z"/>
</g>
</svg>
