<?xml version="1.0" encoding="utf-8"?>
<!-- Generator: Adobe Illustrator 19.2.1, SVG Export Plug-In . SVG Version: 6.00 Build 0)  -->
<svg version="1.1" id="Layer_1" xmlns="http://www.w3.org/2000/svg" xmlns:xlink="http://www.w3.org/1999/xlink" x="0px" y="0px"
	 viewBox="0 0 1317 280.1" style="enable-background:new 0 0 1317 280.1;" xml:space="preserve">
<style type="text/css">
	.st0{fill:#FFC949;}
	.st1{fill:#6DABDD;}
	.st2{fill:#3171AE;}
	.st3{fill:#2F70AD;}
	.st4{fill:#68ACE8;}
	.st5{fill:#FFFFFF;}
	.st6{fill:none;stroke:#2F70AD;stroke-width:1.25;stroke-miterlimit:10;}
</style>
<g>
	<rect x="1109.8" y="83.5" class="st0" width="11.1" height="8.9"/>
	<rect x="1089.1" y="83.5" class="st0" width="11.1" height="8.9"/>
	<rect x="1068.4" y="83.5" class="st0" width="11.1" height="8.9"/>
	<rect x="1047.7" y="83.5" class="st0" width="11.1" height="8.9"/>
	<rect x="1027.3" y="83.5" class="st0" width="11.1" height="8.9"/>
	<rect x="117" y="83.5" class="st0" width="900.3" height="8.9"/>
	<rect x="1130.2" y="83.5" class="st0" width="11.1" height="8.9"/>
	<rect x="1192" y="83.5" class="st0" width="11.1" height="8.9"/>
	<rect x="1150.9" y="83.5" class="st0" width="11.1" height="8.9"/>
	<rect x="1171.6" y="83.5" class="st0" width="11.1" height="8.9"/>
</g>
<g>
	<rect x="1194.5" y="83" class="st0" width="7.5" height="6.1"/>
	<path class="st0" d="M1212.8,106.9c-1.4-1.8-3.9-1.8-5.4-0.4l-5,4.6V94.8h-7.9v16.4l-5-4.6c-1.8-1.4-3.9-1.4-5.4,0.4
		c-1.4,1.8-1.4,3.9,0.4,5.4l11.8,10.4c0.4,0,0.4,0.4,0.7,0.4c0.4,0,0.7,0.4,0.7,0.4c0,0.4,0.4,0.4,0.7,0.4c0.4,0,0.7,0,0.7,0
		s0.4,0,0.7,0c0.4,0,0.7-0.4,0.7-0.4s0.4,0,0.7-0.4c0.4,0,0.4-0.4,0.7-0.4l11.8-10.4C1214.2,110.9,1214.5,108.4,1212.8,106.9z"/>
</g>
<g>
	<g>
		<g>
			<g>
				<g>
					<g>
						<rect x="31.2" y="77.9" class="st1" width="146.4" height="198.8"/>
					</g>
				</g>
			</g>
			<g>
				<g>
					<g>
						<rect x="86" y="224.9" class="st2" width="37.8" height="51.1"/>
					</g>
				</g>
			</g>
			<g>
				<g>
					<g>
						<g>
							<rect x="57.1" y="100.7" class="st2" width="94.1" height="15.3"/>
						</g>
					</g>
				</g>
				<g>
					<g>
						<g>
							<rect x="57.1" y="129" class="st2" width="94.1" height="15.3"/>
						</g>
					</g>
				</g>
				<g>
					<g>
						<g>
							<rect x="57.1" y="156.7" class="st2" width="94.1" height="15.3"/>
						</g>
					</g>
				</g>
				<g>
					<g>
						<g>
							<rect x="57.1" y="184.8" class="st2" width="94.1" height="15.3"/>
						</g>
					</g>
				</g>
			</g>
		</g>
		<g>
			<g>
				<g>
					<rect x="177" y="130.9" class="st2" width="96.5" height="145.8"/>
				</g>
			</g>
		</g>
		<g>
			<g>
				<g>
					<g>
						<g>
							<rect x="189.5" y="143.1" class="st1" width="29.5" height="29.5"/>
						</g>
					</g>
				</g>
				<g>
					<g>
						<g>
							<rect x="189.5" y="182.1" class="st1" width="29.5" height="29.5"/>
						</g>
					</g>
				</g>
				<g>
					<g>
						<g>
							<rect x="189.5" y="221.3" class="st1" width="29.5" height="29.5"/>
						</g>
					</g>
				</g>
			</g>
			<g>
				<g>
					<g>
						<g>
							<rect x="231.7" y="143.1" class="st1" width="29.5" height="29.5"/>
						</g>
					</g>
				</g>
				<g>
					<g>
						<g>
							<rect x="231.7" y="182.1" class="st1" width="29.5" height="29.5"/>
						</g>
					</g>
				</g>
				<g>
					<g>
						<g>
							<rect x="231.7" y="221.3" class="st1" width="29.5" height="29.5"/>
						</g>
					</g>
				</g>
			</g>
		</g>
	</g>
</g>
<g>
	<path class="st2" d="M111,49.5c0-4.1,3-6.9,6.9-6.9c2.4,0,4,1.1,5.1,2.6l-1.4,0.8c-0.8-1.1-2.2-1.9-3.7-1.9c-2.9,0-5.1,2.2-5.1,5.4
		c0,3.2,2.2,5.4,5.1,5.4c1.5,0,2.9-0.8,3.7-1.9l1.4,0.8c-1.1,1.5-2.7,2.7-5.1,2.7C114,56.4,111,53.6,111,49.5z"/>
	<path class="st2" d="M124.4,51.3c0-2.8,1.8-5.1,4.8-5.1c3,0,4.8,2.3,4.8,5.1s-1.8,5.1-4.8,5.1C126.2,56.4,124.4,54.1,124.4,51.3z
		 M132.4,51.3c0-2-1.1-3.7-3.2-3.7c-2.1,0-3.2,1.8-3.2,3.7c0,2,1.1,3.7,3.2,3.7C131.3,55,132.4,53.3,132.4,51.3z"/>
	<path class="st2" d="M148.1,56.1v-6.6c0-1.2-0.5-2-1.8-2c-1,0-2.1,0.7-2.6,1.5v7.1h-1.5v-6.6c0-1.2-0.5-2-1.8-2c-1,0-2,0.7-2.5,1.5
		v7.1h-1.5v-9.7h1.5v1.4c0.4-0.6,1.7-1.6,3.1-1.6c1.5,0,2.3,0.8,2.6,1.8c0.5-0.9,1.8-1.8,3.2-1.8c1.8,0,2.7,1,2.7,2.9v7H148.1z"/>
	<path class="st2" d="M154.1,54.7v5.1h-1.5V46.5h1.5v1.4c0.7-1,1.9-1.7,3.3-1.7c2.5,0,4.3,1.9,4.3,5.1c0,3.1-1.8,5.1-4.3,5.1
		C156,56.4,154.9,55.7,154.1,54.7z M160.1,51.3c0-2.1-1.2-3.7-3.1-3.7c-1.2,0-2.4,0.7-2.9,1.5v4.4c0.5,0.8,1.7,1.6,2.9,1.6
		C158.9,55,160.1,53.4,160.1,51.3z"/>
	<path class="st2" d="M170.1,56.1V55c-0.8,0.9-1.9,1.3-3.2,1.3c-1.6,0-3.4-1.1-3.4-3.2c0-2.2,1.7-3.2,3.4-3.2c1.3,0,2.4,0.4,3.2,1.3
		v-1.7c0-1.3-1-2-2.4-2c-1.2,0-2.1,0.4-3,1.3l-0.7-1c1-1.1,2.3-1.6,3.9-1.6c2.1,0,3.7,0.9,3.7,3.3v6.6
		C171.6,56.1,170.1,56.1,170.1,56.1z M170.1,54.1v-1.8c-0.6-0.8-1.6-1.2-2.6-1.2c-1.4,0-2.4,0.9-2.4,2.1s1,2.1,2.4,2.1
		C168.5,55.3,169.5,54.9,170.1,54.1z"/>
	<path class="st2" d="M181.1,56.1v-6.3c0-1.7-0.9-2.2-2.2-2.2c-1.2,0-2.3,0.7-2.9,1.5v7.1h-1.5v-9.7h1.5v1.4c0.7-0.8,2-1.6,3.5-1.6
		c2,0,3.1,1,3.1,3.1v6.8L181.1,56.1L181.1,56.1z"/>
	<path class="st2" d="M185.3,58.5c0.2,0.1,0.6,0.2,0.8,0.2c0.7,0,1.1-0.2,1.4-1l0.6-1.5l-4-9.8h1.6l3.2,7.9l3.2-7.9h1.6L188.9,58
		c-0.6,1.4-1.6,1.9-2.8,2c-0.3,0-0.8-0.1-1.1-0.1L185.3,58.5z"/>
</g>
<g>
	<path class="st2" d="M480.9,152.1v-13.3h5.4c2.7,0,4.2,1.8,4.2,4s-1.5,4-4.2,4h-3.7v5.3H480.9z M488.7,142.8c0-1.5-1.1-2.5-2.7-2.5
		h-3.5v5.1h3.5C487.6,145.3,488.7,144.3,488.7,142.8z"/>
	<path class="st2" d="M498.2,152.1V151c-0.8,0.9-1.9,1.3-3.2,1.3c-1.6,0-3.4-1.1-3.4-3.2c0-2.2,1.7-3.2,3.4-3.2
		c1.3,0,2.4,0.4,3.2,1.3v-1.7c0-1.3-1-2-2.4-2c-1.2,0-2.1,0.4-3,1.3l-0.7-1c1-1.1,2.3-1.6,3.9-1.6c2.1,0,3.7,0.9,3.7,3.3v6.6
		L498.2,152.1L498.2,152.1z M498.2,150.1v-1.8c-0.6-0.8-1.6-1.2-2.6-1.2c-1.4,0-2.4,0.9-2.4,2.1c0,1.2,1,2.1,2.4,2.1
		C496.6,151.3,497.6,150.9,498.2,150.1z"/>
	<path class="st2" d="M502.4,154.5c0.2,0.1,0.6,0.2,0.8,0.2c0.7,0,1.1-0.2,1.4-1l0.6-1.5l-4-9.8h1.6l3.2,7.9l3.2-7.9h1.6L506,154
		c-0.6,1.4-1.6,1.9-2.8,2c-0.3,0-0.8-0.1-1.1-0.1L502.4,154.5z"/>
	<path class="st2" d="M512.5,152.1v-9.7h1.5v1.5c0.8-1,1.9-1.8,3.2-1.8v1.5c-0.2,0-0.4,0-0.6,0c-0.9,0-2.2,0.8-2.6,1.5v6.8h-1.5
		V152.1z"/>
	<path class="st2" d="M518.6,147.3c0-2.8,1.8-5.1,4.8-5.1s4.8,2.3,4.8,5.1s-1.8,5.1-4.8,5.1S518.6,150.1,518.6,147.3z M526.5,147.3
		c0-2-1.1-3.7-3.2-3.7s-3.2,1.8-3.2,3.7c0,2,1.1,3.7,3.2,3.7S526.5,149.3,526.5,147.3z"/>
	<path class="st2" d="M530.6,152.1v-13.3h1.5v13.3H530.6z"/>
	<path class="st2" d="M535.1,152.1v-13.3h1.5v13.3H535.1z"/>
	<path class="st2" d="M545.2,152.1v-8.3h-1.6v-1.3h1.6v-0.7c0-2,1.1-3.1,2.8-3.1c0.8,0,1.4,0.2,2,0.7l-0.6,1
		c-0.3-0.3-0.7-0.5-1.2-0.5c-1,0-1.5,0.7-1.5,1.9v0.7h2v1.3h-2v8.3L545.2,152.1L545.2,152.1z"/>
	<path class="st2" d="M549.9,147.3c0-2.8,1.8-5.1,4.8-5.1s4.8,2.3,4.8,5.1s-1.8,5.1-4.8,5.1S549.9,150.1,549.9,147.3z M557.8,147.3
		c0-2-1.1-3.7-3.2-3.7s-3.2,1.8-3.2,3.7c0,2,1.1,3.7,3.2,3.7S557.8,149.3,557.8,147.3z"/>
	<path class="st2" d="M561.9,152.1v-9.7h1.5v1.5c0.8-1,1.9-1.8,3.2-1.8v1.5c-0.2,0-0.4,0-0.6,0c-0.9,0-2.2,0.8-2.6,1.5v6.8h-1.5
		V152.1z"/>
	<path class="st2" d="M467.4,174.7v5.1h-1.5v-13.3h1.5v1.4c0.7-1,1.9-1.7,3.3-1.7c2.5,0,4.3,1.9,4.3,5.1c0,3.1-1.8,5.1-4.3,5.1
		C469.3,176.4,468.2,175.7,467.4,174.7z M473.4,171.3c0-2.1-1.2-3.7-3.1-3.7c-1.2,0-2.4,0.7-2.9,1.5v4.4c0.5,0.8,1.7,1.6,2.9,1.6
		C472.2,175,473.4,173.4,473.4,171.3z"/>
	<path class="st2" d="M483.4,176.1V175c-0.8,0.9-1.9,1.3-3.2,1.3c-1.6,0-3.4-1.1-3.4-3.2c0-2.2,1.7-3.2,3.4-3.2
		c1.3,0,2.4,0.4,3.2,1.3v-1.7c0-1.3-1-2-2.4-2c-1.2,0-2.1,0.4-3,1.3l-0.7-1c1-1.1,2.3-1.6,3.9-1.6c2.1,0,3.7,0.9,3.7,3.3v6.6
		L483.4,176.1L483.4,176.1z M483.4,174.1v-1.8c-0.6-0.8-1.6-1.2-2.6-1.2c-1.4,0-2.4,0.9-2.4,2.1c0,1.2,1,2.1,2.4,2.1
		C481.8,175.3,482.8,174.9,483.4,174.1z"/>
	<path class="st2" d="M487.6,178.5c0.2,0.1,0.6,0.2,0.8,0.2c0.7,0,1.1-0.2,1.4-1l0.6-1.5l-4-9.8h1.6l3.2,7.9l3.2-7.9h1.6l-4.8,11.6
		c-0.6,1.4-1.6,1.9-2.8,2c-0.3,0-0.8-0.1-1.1-0.1L487.6,178.5z"/>
	<path class="st2" d="M504.4,174.7v5.1h-1.5v-13.3h1.5v1.4c0.7-1,1.9-1.7,3.3-1.7c2.5,0,4.3,1.9,4.3,5.1c0,3.1-1.8,5.1-4.3,5.1
		C506.3,176.4,505.2,175.7,504.4,174.7z M510.3,171.3c0-2.1-1.2-3.7-3.1-3.7c-1.2,0-2.4,0.7-2.9,1.5v4.4c0.5,0.8,1.7,1.6,2.9,1.6
		C509.2,175,510.3,173.4,510.3,171.3z"/>
	<path class="st2" d="M513.7,171.3c0-2.8,2-5.1,4.8-5.1c2.9,0,4.6,2.3,4.6,5.2v0.4h-7.8c0.1,1.8,1.4,3.3,3.5,3.3
		c1.1,0,2.2-0.4,3-1.2l0.7,1c-1,1-2.3,1.5-3.8,1.5C515.8,176.4,513.7,174.3,513.7,171.3z M518.5,167.5c-2.1,0-3.1,1.7-3.2,3.2h6.3
		C521.6,169.2,520.7,167.5,518.5,167.5z"/>
	<path class="st2" d="M525.6,176.1v-9.7h1.5v1.5c0.8-1,1.9-1.8,3.2-1.8v1.5c-0.2,0-0.4,0-0.6,0c-0.9,0-2.2,0.8-2.6,1.5v6.8h-1.5
		V176.1z"/>
	<path class="st2" d="M531.9,164.1c0-0.6,0.5-1,1-1s1,0.5,1,1s-0.4,1-1,1S531.9,164.6,531.9,164.1z M532.2,176.1v-9.7h1.5v9.7H532.2
		z"/>
	<path class="st2" d="M536.1,171.3c0-2.8,1.8-5.1,4.8-5.1s4.8,2.3,4.8,5.1s-1.8,5.1-4.8,5.1S536.1,174.1,536.1,171.3z M544.1,171.3
		c0-2-1.1-3.7-3.2-3.7s-3.2,1.8-3.2,3.7c0,2,1.1,3.7,3.2,3.7S544.1,173.3,544.1,171.3z"/>
	<path class="st2" d="M555.1,176.1v-1.4c-0.7,1-1.9,1.7-3.3,1.7c-2.5,0-4.3-1.9-4.3-5.1c0-3.1,1.8-5.1,4.3-5.1
		c1.3,0,2.5,0.6,3.3,1.7v-5.1h1.5v13.3L555.1,176.1L555.1,176.1z M555.1,173.5v-4.4c-0.5-0.8-1.7-1.6-2.9-1.6c-2,0-3.1,1.6-3.1,3.7
		c0,2.1,1.2,3.7,3.1,3.7C553.4,175,554.6,174.3,555.1,173.5z"/>
	<path class="st2" d="M568.1,176.1l1.2-3.6h-2.2l-1.2,3.6h-1.2l1.2-3.6h-2.1l0.3-1.1h2.1l1.3-4h-2.2l0.3-1h2.2l1.2-3.6h1.2l-1.2,3.6
		h2.2l1.2-3.6h1.2l-1.2,3.6h2.1l-0.3,1H572l-1.3,4h2.2l-0.3,1.1h-2.3l-1.2,3.6H568.1z M571,167.5h-2.2l-1.3,4h2.2L571,167.5z"/>
	<path class="st2" d="M578.7,176.1V165l-2.1,2.3l-1-1l3.3-3.4h1.5v13.3h-1.7V176.1z"/>
</g>
<g>
	<path class="st2" d="M827.4,152.1v-13.3h5.4c2.7,0,4.2,1.8,4.2,4s-1.5,4-4.2,4H829v5.3H827.4z M835.2,142.8c0-1.5-1.1-2.5-2.7-2.5
		H829v5.1h3.5C834.1,145.3,835.2,144.3,835.2,142.8z"/>
	<path class="st2" d="M844.7,152.1V151c-0.8,0.9-1.9,1.3-3.2,1.3c-1.6,0-3.4-1.1-3.4-3.2c0-2.2,1.7-3.2,3.4-3.2
		c1.3,0,2.4,0.4,3.2,1.3v-1.7c0-1.3-1-2-2.4-2c-1.2,0-2.1,0.4-3,1.3l-0.7-1c1-1.1,2.3-1.6,3.9-1.6c2.1,0,3.7,0.9,3.7,3.3v6.6
		L844.7,152.1L844.7,152.1z M844.7,150.1v-1.8c-0.6-0.8-1.6-1.2-2.6-1.2c-1.4,0-2.4,0.9-2.4,2.1c0,1.2,1,2.1,2.4,2.1
		C843.1,151.3,844.1,150.9,844.7,150.1z"/>
	<path class="st2" d="M848.9,154.5c0.2,0.1,0.6,0.2,0.8,0.2c0.7,0,1.1-0.2,1.4-1l0.6-1.5l-4-9.8h1.6l3.2,7.9l3.2-7.9h1.6l-4.8,11.6
		c-0.6,1.4-1.6,1.9-2.8,2c-0.3,0-0.8-0.1-1.1-0.1L848.9,154.5z"/>
	<path class="st2" d="M859,152.1v-9.7h1.5v1.5c0.8-1,1.9-1.8,3.2-1.8v1.5c-0.2,0-0.4,0-0.6,0c-0.9,0-2.2,0.8-2.6,1.5v6.8H859V152.1z
		"/>
	<path class="st2" d="M865.1,147.3c0-2.8,1.8-5.1,4.8-5.1s4.8,2.3,4.8,5.1s-1.8,5.1-4.8,5.1S865.1,150.1,865.1,147.3z M873,147.3
		c0-2-1.1-3.7-3.2-3.7s-3.2,1.8-3.2,3.7c0,2,1.1,3.7,3.2,3.7S873,149.3,873,147.3z"/>
	<path class="st2" d="M877.1,152.1v-13.3h1.5v13.3H877.1z"/>
	<path class="st2" d="M881.6,152.1v-13.3h1.5v13.3H881.6z"/>
	<path class="st2" d="M891.7,152.1v-8.3h-1.6v-1.3h1.6v-0.7c0-2,1.1-3.1,2.8-3.1c0.8,0,1.4,0.2,2,0.7l-0.6,1
		c-0.3-0.3-0.7-0.5-1.2-0.5c-1,0-1.5,0.7-1.5,1.9v0.7h2v1.3h-2v8.3L891.7,152.1L891.7,152.1z"/>
	<path class="st2" d="M896.4,147.3c0-2.8,1.8-5.1,4.8-5.1s4.8,2.3,4.8,5.1s-1.8,5.1-4.8,5.1S896.4,150.1,896.4,147.3z M904.3,147.3
		c0-2-1.1-3.7-3.2-3.7s-3.2,1.8-3.2,3.7c0,2,1.1,3.7,3.2,3.7S904.3,149.3,904.3,147.3z"/>
	<path class="st2" d="M908.4,152.1v-9.7h1.5v1.5c0.8-1,1.9-1.8,3.2-1.8v1.5c-0.2,0-0.4,0-0.6,0c-0.9,0-2.2,0.8-2.6,1.5v6.8h-1.5
		V152.1z"/>
	<path class="st2" d="M811.4,174.7v5.1h-1.5v-13.3h1.5v1.4c0.7-1,1.9-1.7,3.3-1.7c2.5,0,4.3,1.9,4.3,5.1c0,3.1-1.8,5.1-4.3,5.1
		C813.3,176.4,812.2,175.7,811.4,174.7z M817.4,171.3c0-2.1-1.2-3.7-3.1-3.7c-1.2,0-2.4,0.7-2.9,1.5v4.4c0.5,0.8,1.7,1.6,2.9,1.6
		C816.2,175,817.4,173.4,817.4,171.3z"/>
	<path class="st2" d="M827.4,176.1V175c-0.8,0.9-1.9,1.3-3.2,1.3c-1.6,0-3.4-1.1-3.4-3.2c0-2.2,1.7-3.2,3.4-3.2
		c1.3,0,2.4,0.4,3.2,1.3v-1.7c0-1.3-1-2-2.4-2c-1.2,0-2.1,0.4-3,1.3l-0.7-1c1-1.1,2.3-1.6,3.9-1.6c2.1,0,3.7,0.9,3.7,3.3v6.6
		L827.4,176.1L827.4,176.1z M827.4,174.1v-1.8c-0.6-0.8-1.6-1.2-2.6-1.2c-1.4,0-2.4,0.9-2.4,2.1c0,1.2,1,2.1,2.4,2.1
		C825.8,175.3,826.8,174.9,827.4,174.1z"/>
	<path class="st2" d="M831.6,178.5c0.2,0.1,0.6,0.2,0.8,0.2c0.7,0,1.1-0.2,1.4-1l0.6-1.5l-4-9.8h1.6l3.2,7.9l3.2-7.9h1.6l-4.8,11.6
		c-0.6,1.4-1.6,1.9-2.8,2c-0.3,0-0.8-0.1-1.1-0.1L831.6,178.5z"/>
	<path class="st2" d="M848.4,174.7v5.1h-1.5v-13.3h1.5v1.4c0.7-1,1.9-1.7,3.3-1.7c2.5,0,4.3,1.9,4.3,5.1c0,3.1-1.8,5.1-4.3,5.1
		C850.3,176.4,849.2,175.7,848.4,174.7z M854.4,171.3c0-2.1-1.2-3.7-3.1-3.7c-1.2,0-2.4,0.7-2.9,1.5v4.4c0.5,0.8,1.7,1.6,2.9,1.6
		C853.2,175,854.4,173.4,854.4,171.3z"/>
	<path class="st2" d="M857.8,171.3c0-2.8,2-5.1,4.8-5.1c2.9,0,4.6,2.3,4.6,5.2v0.4h-7.8c0.1,1.8,1.4,3.3,3.5,3.3
		c1.1,0,2.2-0.4,3-1.2l0.7,1c-1,1-2.3,1.5-3.8,1.5C859.8,176.4,857.8,174.3,857.8,171.3z M862.5,167.5c-2.1,0-3.1,1.7-3.2,3.2h6.3
		C865.7,169.2,864.7,167.5,862.5,167.5z"/>
	<path class="st2" d="M869.6,176.1v-9.7h1.5v1.5c0.8-1,1.9-1.8,3.2-1.8v1.5c-0.2,0-0.4,0-0.6,0c-0.9,0-2.2,0.8-2.6,1.5v6.8h-1.5
		V176.1z"/>
	<path class="st2" d="M875.9,164.1c0-0.6,0.5-1,1-1s1,0.5,1,1s-0.4,1-1,1S875.9,164.6,875.9,164.1z M876.2,176.1v-9.7h1.5v9.7H876.2
		z"/>
	<path class="st2" d="M880.1,171.3c0-2.8,1.8-5.1,4.8-5.1s4.8,2.3,4.8,5.1s-1.8,5.1-4.8,5.1S880.1,174.1,880.1,171.3z M888.1,171.3
		c0-2-1.1-3.7-3.2-3.7s-3.2,1.8-3.2,3.7c0,2,1.1,3.7,3.2,3.7S888.1,173.3,888.1,171.3z"/>
	<path class="st2" d="M899.1,176.1v-1.4c-0.7,1-1.9,1.7-3.3,1.7c-2.5,0-4.3-1.9-4.3-5.1c0-3.1,1.8-5.1,4.3-5.1
		c1.3,0,2.5,0.6,3.3,1.7v-5.1h1.5v13.3L899.1,176.1L899.1,176.1z M899.1,173.5v-4.4c-0.5-0.8-1.7-1.6-2.9-1.6c-2,0-3.1,1.6-3.1,3.7
		c0,2.1,1.2,3.7,3.1,3.7C897.4,175,898.6,174.3,899.1,173.5z"/>
	<path class="st2" d="M912.1,176.1l1.2-3.6h-2.2l-1.2,3.6h-1.2l1.2-3.6h-2.1l0.3-1.1h2.1l1.3-4h-2.2l0.3-1h2.2l1.2-3.6h1.2l-1.2,3.6
		h2.2l1.2-3.6h1.2l-1.2,3.6h2.1l-0.3,1H916l-1.3,4h2.2l-0.3,1.1h-2.3l-1.2,3.6H912.1z M915,167.5h-2.2l-1.3,4h2.2L915,167.5z"/>
	<path class="st2" d="M920.2,176.1v-1.3c4.8-3.8,7.4-6,7.4-8.3c0-1.7-1.4-2.4-2.8-2.4c-1.6,0-2.8,0.7-3.6,1.7l-1-1.1
		c1-1.4,2.8-2.1,4.6-2.1c2.2,0,4.5,1.3,4.5,3.9c0,2.7-2.8,5.2-6.5,8.1h6.5v1.5L920.2,176.1L920.2,176.1z"/>
</g>
<g>
	<path class="st2" d="M1163.4,152.1v-13.3h5.4c2.7,0,4.2,1.8,4.2,4s-1.5,4-4.2,4h-3.7v5.3H1163.4z M1171.2,142.8
		c0-1.5-1.1-2.5-2.7-2.5h-3.5v5.1h3.5C1170.1,145.3,1171.2,144.3,1171.2,142.8z"/>
	<path class="st2" d="M1180.7,152.1V151c-0.8,0.9-1.9,1.3-3.2,1.3c-1.6,0-3.4-1.1-3.4-3.2c0-2.2,1.7-3.2,3.4-3.2
		c1.3,0,2.4,0.4,3.2,1.3v-1.7c0-1.3-1-2-2.4-2c-1.2,0-2.1,0.4-3,1.3l-0.7-1c1-1.1,2.3-1.6,3.9-1.6c2.1,0,3.7,0.9,3.7,3.3v6.6
		L1180.7,152.1L1180.7,152.1z M1180.7,150.1v-1.8c-0.6-0.8-1.6-1.2-2.6-1.2c-1.4,0-2.4,0.9-2.4,2.1c0,1.2,1,2.1,2.4,2.1
		C1179.1,151.3,1180.1,150.9,1180.7,150.1z"/>
	<path class="st2" d="M1184.9,154.5c0.2,0.1,0.6,0.2,0.8,0.2c0.7,0,1.1-0.2,1.4-1l0.6-1.5l-4-9.8h1.6l3.2,7.9l3.2-7.9h1.6l-4.8,11.6
		c-0.6,1.4-1.6,1.9-2.8,2c-0.3,0-0.8-0.1-1.1-0.1L1184.9,154.5z"/>
	<path class="st2" d="M1195,152.1v-9.7h1.5v1.5c0.8-1,1.9-1.8,3.2-1.8v1.5c-0.2,0-0.4,0-0.6,0c-0.9,0-2.2,0.8-2.6,1.5v6.8h-1.5
		V152.1z"/>
	<path class="st2" d="M1201.1,147.3c0-2.8,1.8-5.1,4.8-5.1s4.8,2.3,4.8,5.1s-1.8,5.1-4.8,5.1S1201.1,150.1,1201.1,147.3z
		 M1209,147.3c0-2-1.1-3.7-3.2-3.7s-3.2,1.8-3.2,3.7c0,2,1.1,3.7,3.2,3.7S1209,149.3,1209,147.3z"/>
	<path class="st2" d="M1213.1,152.1v-13.3h1.5v13.3H1213.1z"/>
	<path class="st2" d="M1217.6,152.1v-13.3h1.5v13.3H1217.6z"/>
	<path class="st2" d="M1227.7,152.1v-8.3h-1.6v-1.3h1.6v-0.7c0-2,1.1-3.1,2.8-3.1c0.8,0,1.4,0.2,2,0.7l-0.6,1
		c-0.3-0.3-0.7-0.5-1.2-0.5c-1,0-1.5,0.7-1.5,1.9v0.7h2v1.3h-2v8.3L1227.7,152.1L1227.7,152.1z"/>
	<path class="st2" d="M1232.4,147.3c0-2.8,1.8-5.1,4.8-5.1s4.8,2.3,4.8,5.1s-1.8,5.1-4.8,5.1S1232.4,150.1,1232.4,147.3z
		 M1240.3,147.3c0-2-1.1-3.7-3.2-3.7s-3.2,1.8-3.2,3.7c0,2,1.1,3.7,3.2,3.7S1240.3,149.3,1240.3,147.3z"/>
	<path class="st2" d="M1244.4,152.1v-9.7h1.5v1.5c0.8-1,1.9-1.8,3.2-1.8v1.5c-0.2,0-0.4,0-0.6,0c-0.9,0-2.2,0.8-2.6,1.5v6.8h-1.5
		V152.1z"/>
	<path class="st2" d="M1146.2,174.7v5.1h-1.5v-13.3h1.5v1.4c0.7-1,1.9-1.7,3.3-1.7c2.5,0,4.3,1.9,4.3,5.1c0,3.1-1.8,5.1-4.3,5.1
		C1148.1,176.4,1147,175.7,1146.2,174.7z M1152.2,171.3c0-2.1-1.2-3.7-3.1-3.7c-1.2,0-2.4,0.7-2.9,1.5v4.4c0.5,0.8,1.7,1.6,2.9,1.6
		C1151,175,1152.2,173.4,1152.2,171.3z"/>
	<path class="st2" d="M1162.2,176.1V175c-0.8,0.9-1.9,1.3-3.2,1.3c-1.6,0-3.4-1.1-3.4-3.2c0-2.2,1.7-3.2,3.4-3.2
		c1.3,0,2.4,0.4,3.2,1.3v-1.7c0-1.3-1-2-2.4-2c-1.2,0-2.1,0.4-3,1.3l-0.7-1c1-1.1,2.3-1.6,3.9-1.6c2.1,0,3.7,0.9,3.7,3.3v6.6
		L1162.2,176.1L1162.2,176.1z M1162.2,174.1v-1.8c-0.6-0.8-1.6-1.2-2.6-1.2c-1.4,0-2.4,0.9-2.4,2.1c0,1.2,1,2.1,2.4,2.1
		C1160.6,175.3,1161.6,174.9,1162.2,174.1z"/>
	<path class="st2" d="M1166.4,178.5c0.2,0.1,0.6,0.2,0.8,0.2c0.7,0,1.1-0.2,1.4-1l0.6-1.5l-4-9.8h1.6l3.2,7.9l3.2-7.9h1.6L1170,178
		c-0.6,1.4-1.6,1.9-2.8,2c-0.3,0-0.8-0.1-1.1-0.1L1166.4,178.5z"/>
	<path class="st2" d="M1183.2,174.7v5.1h-1.5v-13.3h1.5v1.4c0.7-1,1.9-1.7,3.3-1.7c2.5,0,4.3,1.9,4.3,5.1c0,3.1-1.8,5.1-4.3,5.1
		C1185.1,176.4,1184,175.7,1183.2,174.7z M1189.2,171.3c0-2.1-1.2-3.7-3.1-3.7c-1.2,0-2.4,0.7-2.9,1.5v4.4c0.5,0.8,1.7,1.6,2.9,1.6
		C1188,175,1189.2,173.4,1189.2,171.3z"/>
	<path class="st2" d="M1192.6,171.3c0-2.8,2-5.1,4.8-5.1c2.9,0,4.6,2.3,4.6,5.2v0.4h-7.8c0.1,1.8,1.4,3.3,3.5,3.3
		c1.1,0,2.2-0.4,3-1.2l0.7,1c-1,1-2.3,1.5-3.8,1.5C1194.6,176.4,1192.6,174.3,1192.6,171.3z M1197.3,167.5c-2.1,0-3.1,1.7-3.2,3.2
		h6.3C1200.5,169.2,1199.5,167.5,1197.3,167.5z"/>
	<path class="st2" d="M1204.4,176.1v-9.7h1.5v1.5c0.8-1,1.9-1.8,3.2-1.8v1.5c-0.2,0-0.4,0-0.6,0c-0.9,0-2.2,0.8-2.6,1.5v6.8h-1.5
		V176.1z"/>
	<path class="st2" d="M1210.7,164.1c0-0.6,0.5-1,1-1s1,0.5,1,1s-0.4,1-1,1S1210.7,164.6,1210.7,164.1z M1211,176.1v-9.7h1.5v9.7
		H1211z"/>
	<path class="st2" d="M1214.9,171.3c0-2.8,1.8-5.1,4.8-5.1s4.8,2.3,4.8,5.1s-1.8,5.1-4.8,5.1S1214.9,174.1,1214.9,171.3z
		 M1222.9,171.3c0-2-1.1-3.7-3.2-3.7s-3.2,1.8-3.2,3.7c0,2,1.1,3.7,3.2,3.7S1222.9,173.3,1222.9,171.3z"/>
	<path class="st2" d="M1233.9,176.1v-1.4c-0.7,1-1.9,1.7-3.3,1.7c-2.5,0-4.3-1.9-4.3-5.1c0-3.1,1.8-5.1,4.3-5.1
		c1.3,0,2.5,0.6,3.3,1.7v-5.1h1.5v13.3L1233.9,176.1L1233.9,176.1z M1233.9,173.5v-4.4c-0.5-0.8-1.7-1.6-2.9-1.6
		c-2,0-3.1,1.6-3.1,3.7c0,2.1,1.2,3.7,3.1,3.7C1232.2,175,1233.4,174.3,1233.9,173.5z"/>
	<path class="st2" d="M1246.9,176.1l1.2-3.6h-2.2l-1.2,3.6h-1.2l1.2-3.6h-2.1l0.3-1.1h2.1l1.3-4h-2.2l0.3-1h2.2l1.2-3.6h1.2
		l-1.2,3.6h2.2l1.2-3.6h1.2l-1.2,3.6h2.1l-0.3,1h-2.2l-1.3,4h2.2l-0.3,1.1h-2.3l-1.2,3.6H1246.9z M1249.8,167.5h-2.2l-1.3,4h2.2
		L1249.8,167.5z"/>
	<path class="st2" d="M1264.9,176.1l-7.8-10.6v10.6h-1.7v-13.3h1.7l7.7,10.4v-10.4h1.7v13.3H1264.9z"/>
</g>
<g>
	<g>
		<g>
			<path class="st3" d="M470.3,240.5v32.9H429v-32.9c0-12.8,9.2-21,20.6-21C461,219.4,470.3,227.7,470.3,240.5z"/>
			<polygon class="st4" points="454.8,260.8 444.6,260.8 445.3,251.9 454.2,251.9 			"/>
			<ellipse class="st4" cx="449.6" cy="239.4" rx="15.1" ry="17"/>
			<path class="st4" d="M456.5,259.6l15.3,6.9c3.9,1.8,6.4,5.6,6.4,9.9v0h-57v0c0-4.3,2.5-8.2,6.4-9.9l15.3-6.9H456.5z"/>
			<circle class="st5" cx="449.7" cy="265.5" r="1.7"/>
			<path class="st6" d="M453.9,246.7c0,0-2,1.5-4.3,1.5c-2.3,0-4.3-1.5-4.3-1.5"/>
			<path class="st3" d="M469.4,241.2c-7.6-0.1-19.8-11.1-19.8-15.1c0,3.9-12.1,15-19.8,15.1c0.7-11.6,9.3-20.7,19.8-20.7
				S468.7,229.6,469.4,241.2z"/>
		</g>
		<g>
			<polygon class="st5" points="459.8,261.1 456.5,259.6 451.9,259.6 447.5,259.6 442.9,259.6 439.7,261.1 441.2,265.8 449.7,260.9 
				458.2,265.8 			"/>
		</g>
	</g>
	<g>
		<g>
			<path class="st3" d="M540.3,240.5v32.9H499v-32.9c0-12.8,9.2-21,20.6-21C531,219.4,540.3,227.7,540.3,240.5z"/>
			<polygon class="st4" points="524.8,260.8 514.6,260.8 515.3,251.9 524.2,251.9 			"/>
			<ellipse class="st4" cx="519.6" cy="239.4" rx="15.1" ry="17"/>
			<path class="st4" d="M526.5,259.6l15.3,6.9c3.9,1.8,6.4,5.6,6.4,9.9v0h-57v0c0-4.3,2.5-8.2,6.4-9.9l15.3-6.9H526.5z"/>
			<circle class="st5" cx="519.7" cy="265.5" r="1.7"/>
			<path class="st6" d="M523.9,246.7c0,0-2,1.5-4.3,1.5c-2.3,0-4.3-1.5-4.3-1.5"/>
			<path class="st3" d="M539.4,241.2c-7.6-0.1-19.8-11.1-19.8-15.1c0,3.9-12.1,15-19.8,15.1c0.7-11.6,9.3-20.7,19.8-20.7
				C530.1,220.5,538.7,229.6,539.4,241.2z"/>
		</g>
		<g>
			<polygon class="st5" points="529.8,261.1 526.5,259.6 521.9,259.6 517.5,259.6 512.9,259.6 509.7,261.1 511.2,265.8 519.7,260.9 
				528.2,265.8 			"/>
		</g>
	</g>
	<g>
		<g>
			<path class="st3" d="M610.3,240.5v32.9H569v-32.9c0-12.8,9.2-21,20.6-21C601,219.4,610.3,227.7,610.3,240.5z"/>
			<polygon class="st4" points="594.8,260.8 584.6,260.8 585.3,251.9 594.2,251.9 			"/>
			<ellipse class="st4" cx="589.6" cy="239.4" rx="15.1" ry="17"/>
			<path class="st4" d="M596.5,259.6l15.3,6.9c3.9,1.8,6.4,5.6,6.4,9.9v0h-57v0c0-4.3,2.5-8.2,6.4-9.9l15.3-6.9H596.5z"/>
			<circle class="st5" cx="589.7" cy="265.5" r="1.7"/>
			<path class="st6" d="M593.9,246.7c0,0-2,1.5-4.3,1.5c-2.3,0-4.3-1.5-4.3-1.5"/>
			<path class="st3" d="M609.4,241.2c-7.6-0.1-19.8-11.1-19.8-15.1c0,3.9-12.1,15-19.8,15.1c0.7-11.6,9.3-20.7,19.8-20.7
				C600.1,220.5,608.7,229.6,609.4,241.2z"/>
		</g>
		<g>
			<polygon class="st5" points="599.8,261.1 596.5,259.6 591.9,259.6 587.5,259.6 582.9,259.6 579.7,261.1 581.2,265.8 589.7,260.9 
				598.2,265.8 			"/>
		</g>
	</g>
</g>
<g>
	<g>
		<g>
			<path class="st3" d="M819.3,240.5v32.9H778v-32.9c0-12.8,9.2-21,20.6-21C810,219.4,819.3,227.7,819.3,240.5z"/>
			<polygon class="st4" points="803.8,260.8 793.6,260.8 794.3,251.9 803.2,251.9 			"/>
			<ellipse class="st4" cx="798.6" cy="239.4" rx="15.1" ry="17"/>
			<path class="st4" d="M805.5,259.6l15.3,6.9c3.9,1.8,6.4,5.6,6.4,9.9v0h-57v0c0-4.3,2.5-8.2,6.4-9.9l15.3-6.9H805.5z"/>
			<circle class="st5" cx="798.7" cy="265.5" r="1.7"/>
			<path class="st6" d="M802.9,246.7c0,0-2,1.5-4.3,1.5c-2.3,0-4.3-1.5-4.3-1.5"/>
			<path class="st3" d="M818.4,241.2c-7.6-0.1-19.8-11.1-19.8-15.1c0,3.9-12.1,15-19.8,15.1c0.7-11.6,9.3-20.7,19.8-20.7
				C809.1,220.5,817.7,229.6,818.4,241.2z"/>
		</g>
		<g>
			<polygon class="st5" points="808.8,261.1 805.5,259.6 800.9,259.6 796.5,259.6 791.9,259.6 788.7,261.1 790.2,265.8 798.7,260.9 
				807.2,265.8 			"/>
		</g>
	</g>
	<g>
		<g>
			<path class="st3" d="M889.3,240.5v32.9H848v-32.9c0-12.8,9.2-21,20.6-21C880,219.4,889.3,227.7,889.3,240.5z"/>
			<polygon class="st4" points="873.8,260.8 863.6,260.8 864.3,251.9 873.2,251.9 			"/>
			<ellipse class="st4" cx="868.6" cy="239.4" rx="15.1" ry="17"/>
			<path class="st4" d="M875.5,259.6l15.3,6.9c3.9,1.8,6.4,5.6,6.4,9.9v0h-57v0c0-4.3,2.5-8.2,6.4-9.9l15.3-6.9H875.5z"/>
			<circle class="st5" cx="868.7" cy="265.5" r="1.7"/>
			<path class="st6" d="M872.9,246.7c0,0-2,1.5-4.3,1.5c-2.3,0-4.3-1.5-4.3-1.5"/>
			<path class="st3" d="M888.4,241.2c-7.6-0.1-19.8-11.1-19.8-15.1c0,3.9-12.1,15-19.8,15.1c0.7-11.6,9.3-20.7,19.8-20.7
				C879.1,220.5,887.7,229.6,888.4,241.2z"/>
		</g>
		<g>
			<polygon class="st5" points="878.8,261.1 875.5,259.6 870.9,259.6 866.5,259.6 861.9,259.6 858.7,261.1 860.2,265.8 868.7,260.9 
				877.2,265.8 			"/>
		</g>
	</g>
	<g>
		<g>
			<path class="st3" d="M959.3,240.5v32.9H918v-32.9c0-12.8,9.2-21,20.6-21C950,219.4,959.3,227.7,959.3,240.5z"/>
			<polygon class="st4" points="943.8,260.8 933.6,260.8 934.3,251.9 943.2,251.9 			"/>
			<ellipse class="st4" cx="938.6" cy="239.4" rx="15.1" ry="17"/>
			<path class="st4" d="M945.5,259.6l15.3,6.9c3.9,1.8,6.4,5.6,6.4,9.9v0h-57v0c0-4.3,2.5-8.2,6.4-9.9l15.3-6.9H945.5z"/>
			<circle class="st5" cx="938.7" cy="265.5" r="1.7"/>
			<path class="st6" d="M942.9,246.7c0,0-2,1.5-4.3,1.5c-2.3,0-4.3-1.5-4.3-1.5"/>
			<path class="st3" d="M958.4,241.2c-7.6-0.1-19.8-11.1-19.8-15.1c0,3.9-12.1,15-19.8,15.1c0.7-11.6,9.3-20.7,19.8-20.7
				C949.1,220.5,957.7,229.6,958.4,241.2z"/>
		</g>
		<g>
			<polygon class="st5" points="948.8,261.1 945.5,259.6 940.9,259.6 936.5,259.6 931.9,259.6 928.7,261.1 930.2,265.8 938.7,260.9 
				947.2,265.8 			"/>
		</g>
	</g>
</g>
<g>
	<g>
		<g>
			<path class="st3" d="M1153.3,240.5v32.9H1112v-32.9c0-12.8,9.2-21,20.6-21S1153.3,227.7,1153.3,240.5z"/>
			<polygon class="st4" points="1137.8,260.8 1127.6,260.8 1128.3,251.9 1137.2,251.9 			"/>
			<ellipse class="st4" cx="1132.6" cy="239.4" rx="15.1" ry="17"/>
			<path class="st4" d="M1139.5,259.6l15.3,6.9c3.9,1.8,6.4,5.6,6.4,9.9v0h-57v0c0-4.3,2.5-8.2,6.4-9.9l15.3-6.9H1139.5z"/>
			<circle class="st5" cx="1132.7" cy="265.5" r="1.7"/>
			<path class="st6" d="M1136.9,246.7c0,0-2,1.5-4.3,1.5s-4.3-1.5-4.3-1.5"/>
			<path class="st3" d="M1152.4,241.2c-7.6-0.1-19.8-11.1-19.8-15.1c0,3.9-12.1,15-19.8,15.1c0.7-11.6,9.3-20.7,19.8-20.7
				S1151.7,229.6,1152.4,241.2z"/>
		</g>
		<g>
			<polygon class="st5" points="1142.8,261.1 1139.5,259.6 1134.9,259.6 1130.5,259.6 1125.9,259.6 1122.7,261.1 1124.2,265.8 
				1132.7,260.9 1141.2,265.8 			"/>
		</g>
	</g>
	<g>
		<g>
			<path class="st3" d="M1223.3,240.5v32.9H1182v-32.9c0-12.8,9.2-21,20.6-21S1223.3,227.7,1223.3,240.5z"/>
			<polygon class="st4" points="1207.8,260.8 1197.6,260.8 1198.3,251.9 1207.2,251.9 			"/>
			<ellipse class="st4" cx="1202.6" cy="239.4" rx="15.1" ry="17"/>
			<path class="st4" d="M1209.5,259.6l15.3,6.9c3.9,1.8,6.4,5.6,6.4,9.9v0h-57v0c0-4.3,2.5-8.2,6.4-9.9l15.3-6.9H1209.5z"/>
			<circle class="st5" cx="1202.7" cy="265.5" r="1.7"/>
			<path class="st6" d="M1206.9,246.7c0,0-2,1.5-4.3,1.5s-4.3-1.5-4.3-1.5"/>
			<path class="st3" d="M1222.4,241.2c-7.6-0.1-19.8-11.1-19.8-15.1c0,3.9-12.1,15-19.8,15.1c0.7-11.6,9.3-20.7,19.8-20.7
				S1221.7,229.6,1222.4,241.2z"/>
		</g>
		<g>
			<polygon class="st5" points="1212.8,261.1 1209.5,259.6 1204.9,259.6 1200.5,259.6 1195.9,259.6 1192.7,261.1 1194.2,265.8 
				1202.7,260.9 1211.2,265.8 			"/>
		</g>
	</g>
	<g>
		<g>
			<path class="st3" d="M1293.3,240.5v32.9H1252v-32.9c0-12.8,9.2-21,20.6-21S1293.3,227.7,1293.3,240.5z"/>
			<polygon class="st4" points="1277.8,260.8 1267.6,260.8 1268.3,251.9 1277.2,251.9 			"/>
			<ellipse class="st4" cx="1272.6" cy="239.4" rx="15.1" ry="17"/>
			<path class="st4" d="M1279.5,259.6l15.3,6.9c3.9,1.8,6.4,5.6,6.4,9.9v0h-57v0c0-4.3,2.5-8.2,6.4-9.9l15.3-6.9H1279.5z"/>
			<circle class="st5" cx="1272.7" cy="265.5" r="1.7"/>
			<path class="st6" d="M1276.9,246.7c0,0-2,1.5-4.3,1.5s-4.3-1.5-4.3-1.5"/>
			<path class="st3" d="M1292.4,241.2c-7.6-0.1-19.8-11.1-19.8-15.1c0,3.9-12.1,15-19.8,15.1c0.7-11.6,9.3-20.7,19.8-20.7
				S1291.7,229.6,1292.4,241.2z"/>
		</g>
		<g>
			<polygon class="st5" points="1282.8,261.1 1279.5,259.6 1274.9,259.6 1270.5,259.6 1265.9,259.6 1262.7,261.1 1264.2,265.8 
				1272.7,260.9 1281.2,265.8 			"/>
		</g>
	</g>
</g>
<path class="st0" d="M535.9,109.3c-1.4-1.4-3.6-1.4-5.4-0.4l-5,4.6V85h-7.2v28.2l-5-4.6c-1.4-1.4-3.9-1.4-5.4,0.4
	c-1.4,1.4-1.4,3.9,0.4,5.4l11.4,10c0.4,0,0.4,0.4,0.4,0.4s0.4,0.4,0.7,0.4c0,0.4,0.4,0.4,0.4,0.4c0.4,0,0.4,0,0.7,0h0.4
	c0.4,0,0.4-0.4,0.7-0.4c0,0,0.4,0,0.4-0.4c0.4,0,0.4-0.4,0.4-0.4l11.4-10C537.4,113.2,537.7,110.7,535.9,109.3z"/>
<path class="st0" d="M881.3,109.3c-1.4-1.4-3.6-1.4-5.4-0.4l-5,4.6V86h-7.2v27.2l-5-4.6c-1.4-1.4-3.9-1.4-5.4,0.4
	c-1.4,1.4-1.4,3.9,0.4,5.4l11.4,10c0.4,0,0.4,0.4,0.4,0.4s0.4,0.4,0.7,0.4c0,0.4,0.4,0.4,0.4,0.4c0.4,0,0.4,0,0.7,0h0.4
	c0.4,0,0.4-0.4,0.7-0.4c0,0,0.4,0,0.4-0.4c0.4,0,0.4-0.4,0.4-0.4l11.4-10C883.1,113.2,883.1,110.7,881.3,109.3z"/>
</svg>
