<?xml version="1.0" encoding="utf-8"?>
<!-- Generator: Adobe Illustrator 19.2.1, SVG Export Plug-In . SVG Version: 6.00 Build 0)  -->
<svg version="1.1" id="Layer_1" xmlns="http://www.w3.org/2000/svg" xmlns:xlink="http://www.w3.org/1999/xlink" x="0px" y="0px"
	 viewBox="0 0 1317 280.1" style="enable-background:new 0 0 1317 280.1;" xml:space="preserve">
<style type="text/css">
	.st0{fill:#FFC949;}
	.st1{fill:#3171AE;}
	.st2{fill:#91E5D5;}
	.st3{fill:#6DABDD;}
</style>
<path class="st0" d="M535.9,107.3c-1.4-1.4-3.6-1.4-5.4-0.4l-5,4.6V74.4c0-2.1-1.4-3.6-3.6-3.6c-2.1,0-3.6,1.4-3.6,3.6v36.8l-5-4.6
	c-1.4-1.4-3.9-1.4-5.4,0.4c-1.4,1.4-1.4,3.9,0.4,5.4l11.4,10c0.4,0,0.4,0.4,0.4,0.4s0.4,0.4,0.7,0.4c0,0.4,0.4,0.4,0.4,0.4
	c0.4,0,0.4,0,0.7,0h0.4c0.4,0,0.4-0.4,0.7-0.4c0,0,0.4,0,0.4-0.4c0.4,0,0.4-0.4,0.4-0.4l11.4-10
	C537.4,111.2,537.7,108.7,535.9,107.3z"/>
<g>
	<g>
		<path class="st1" d="M428.8,266.6c2.5-2.1,4.3-5.7,4.3-20c0-12.9,2.9-18.2,3.9-19.6c1.1-1.4,5.4-1.4,5.4-1.4v-0.4
			c0,0,4.6-3.2,6.4-3.2c3.9,0,18.2-0.7,18.2,24.3c0,10,0.4,15.7,4.3,20"/>
		<path class="st2" d="M457,258.4v2.9c0,0,12.1,4.6,13.9,5c3.6,0.7,5.7,2.1,5.7,12.5h-51.4c0-10.4,2.1-11.8,5.7-12.5
			c1.8-0.4,13.9-5,13.9-5v-2.9"/>
		<path class="st0" d="M462,248.7c-1.1,5-5,11.4-5,11.4v3.2c0,0-2.9,5.7-6.8,5.7s-6.1-3.9-6.1-3.9v-4.6h0.4c-2.9-2.5-5-6.8-6.1-11.4
			l1.8-7.9c0,0,2.1-6.8,3.9-7.1c0,0,11.4,11.8,17.5,7.9C461.6,241.6,464.5,243,462,248.7z"/>
	</g>
	<g>
		<path class="st1" d="M505.2,266.6c2.5-2.1,4.3-5.7,4.3-20c0-12.9,2.9-18.2,3.9-19.6c1.1-1.4,5.4-1.4,5.4-1.4v-0.4
			c0,0,4.6-3.2,6.4-3.2c3.9,0,18.2-0.7,18.2,24.3c0,10,0.4,15.7,4.3,20"/>
		<path class="st2" d="M533.1,258.4v2.9c0,0,12.1,4.6,13.9,5c3.6,0.7,5.7,2.1,5.7,12.5h-51.4c0-10.4,2.1-11.8,5.7-12.5
			c1.8-0.4,13.9-5,13.9-5v-2.9"/>
		<path class="st0" d="M538.1,248.7c-1.1,5-5,11.4-5,11.4v3.2c0,0-2.9,5.7-6.8,5.7c-3.9,0-6.1-3.9-6.1-3.9v-4.6h0.4
			c-2.9-2.5-5-6.8-6.1-11.4l1.8-7.9c0,0,2.1-6.8,3.9-7.1c0,0,11.4,11.8,17.5,7.9C537.7,241.6,540.6,243,538.1,248.7z"/>
	</g>
	<g>
		<path class="st1" d="M581.3,266.6c2.5-2.1,4.3-5.7,4.3-20c0-12.9,2.9-18.2,3.9-19.6c1.1-1.4,5.4-1.4,5.4-1.4v-0.4
			c0,0,4.6-3.2,6.4-3.2c3.9,0,18.2-0.7,18.2,24.3c0,10,0.4,15.7,4.3,20"/>
		<path class="st2" d="M609.1,258.4v2.9c0,0,12.1,4.6,13.9,5c3.6,0.7,5.7,2.1,5.7,12.5h-51.4c0-10.4,2.1-11.8,5.7-12.5
			c1.8-0.4,13.9-5,13.9-5v-2.9"/>
		<path class="st0" d="M614.5,248.7c-1.1,5-5,11.4-5,11.4v3.2c0,0-2.9,5.7-6.8,5.7s-6.1-3.9-6.1-3.9v-4.6h0.4
			c-2.9-2.5-5-6.8-6.1-11.4l1.8-7.9c0,0,2.1-6.8,3.9-7.1c0,0,11.4,11.8,17.5,7.9C614.1,241.6,617,243,614.5,248.7z"/>
	</g>
</g>
<g>
	<g>
		<g>
			<path class="st1" d="M762.7,266.6c2.5-2.1,4.3-5.7,4.3-20c0-12.9,2.9-18.2,3.9-19.6c1.1-1.4,5.4-1.4,5.4-1.4v-0.4
				c0,0,4.6-3.2,6.4-3.2c3.9,0,18.2-0.7,18.2,24.3c0,10,0.4,15.7,4.3,20"/>
			<path class="st2" d="M790.6,258.4v2.9c0,0,12.1,4.6,13.9,5c3.6,0.7,5.7,2.1,5.7,12.5h-51.4c0-10.4,2.1-11.8,5.7-12.5
				c1.8-0.4,13.9-5,13.9-5v-2.9"/>
			<path class="st0" d="M795.9,248.7c-1.1,5-5,11.4-5,11.4v3.2c0,0-2.9,5.7-6.8,5.7s-6.1-3.9-6.1-3.9v-4.6h0.4
				c-2.9-2.5-5-6.8-6.1-11.4l1.8-7.9c0,0,2.1-6.8,3.9-7.1c0,0,11.4,11.8,17.5,7.9C795.6,241.6,798.4,243,795.9,248.7z"/>
		</g>
		<g>
			<path class="st1" d="M839.1,266.6c2.5-2.1,4.3-5.7,4.3-20c0-12.9,2.9-18.2,3.9-19.6c1.1-1.4,5.4-1.4,5.4-1.4v-0.4
				c0,0,4.6-3.2,6.4-3.2c3.9,0,18.2-0.7,18.2,24.3c0,10,0.4,15.7,4.3,20"/>
			<path class="st2" d="M867,258.4v2.9c0,0,12.1,4.6,13.9,5c3.6,0.7,5.7,2.1,5.7,12.5h-51.4c0-10.4,2.1-11.8,5.7-12.5
				c1.8-0.4,13.9-5,13.9-5v-2.9"/>
			<path class="st0" d="M872,248.7c-1.1,5-5,11.4-5,11.4v3.2c0,0-2.9,5.7-6.8,5.7s-6.1-3.9-6.1-3.9v-4.6h0.4
				c-2.9-2.5-5-6.8-6.1-11.4l1.8-7.9c0,0,2.1-6.8,3.9-7.1c0,0,11.4,11.8,17.5,7.9C871.6,241.6,874.5,243,872,248.7z"/>
		</g>
		<g>
			<path class="st1" d="M915.2,266.6c2.5-2.1,4.3-5.7,4.3-20c0-12.9,2.9-18.2,3.9-19.6c1.1-1.4,5.4-1.4,5.4-1.4v-0.4
				c0,0,4.6-3.2,6.4-3.2c3.9,0,18.2-0.7,18.2,24.3c0,10,0.4,15.7,4.3,20"/>
			<path class="st2" d="M943.1,258.4v2.9c0,0,12.1,4.6,13.9,5c3.6,0.7,5.7,2.1,5.7,12.5h-51.4c0-10.4,2.1-11.8,5.7-12.5
				c1.8-0.4,13.9-5,13.9-5v-2.9"/>
			<path class="st0" d="M948.4,248.7c-1.1,5-5,11.4-5,11.4v3.2c0,0-2.9,5.7-6.8,5.7c-3.9,0-6.1-3.9-6.1-3.9v-4.6h0.4
				c-2.9-2.5-5-6.8-6.1-11.4l1.8-7.9c0,0,2.1-6.8,3.9-7.1c0,0,11.4,11.8,17.5,7.9C948,241.6,950.5,243,948.4,248.7z"/>
		</g>
	</g>
</g>
<g>
	<g>
		<g>
			<path class="st1" d="M1117,266.6c2.5-2.1,4.3-5.7,4.3-20c0-12.9,2.9-18.2,3.9-19.6c1.1-1.4,5.4-1.4,5.4-1.4v-0.4
				c0,0,4.6-3.2,6.4-3.2c3.9,0,18.2-0.7,18.2,24.3c0,10,0.4,15.7,4.3,20"/>
			<path class="st2" d="M1144.8,258.4v2.9c0,0,12.1,4.6,13.9,5c3.6,0.7,5.7,2.1,5.7,12.5H1113c0-10.4,2.1-11.8,5.7-12.5
				c1.8-0.4,13.9-5,13.9-5v-2.9"/>
			<path class="st0" d="M1150.2,248.7c-1.1,5-5,11.4-5,11.4v3.2c0,0-2.9,5.7-6.8,5.7c-3.9,0-6.1-3.9-6.1-3.9v-4.6h0.4
				c-2.9-2.5-5-6.8-6.1-11.4l1.8-7.9c0,0,2.1-6.8,3.9-7.1c0,0,11.4,11.8,17.5,7.9C1149.8,241.6,1152.7,243,1150.2,248.7z"/>
		</g>
		<g>
			<path class="st1" d="M1193,266.6c2.5-2.1,4.3-5.7,4.3-20c0-12.9,2.9-18.2,3.9-19.6c1.1-1.4,5.4-1.4,5.4-1.4v-0.4
				c0,0,4.6-3.2,6.4-3.2c3.9,0,18.2-0.7,18.2,24.3c0,10,0.4,15.7,4.3,20"/>
			<path class="st2" d="M1221.3,258.4v2.9c0,0,12.1,4.6,13.9,5c3.6,0.7,5.7,2.1,5.7,12.5h-51.4c0-10.4,2.1-11.8,5.7-12.5
				c1.8-0.4,13.9-5,13.9-5v-2.9"/>
			<path class="st0" d="M1226.3,248.7c-1.1,5-5,11.4-5,11.4v3.2c0,0-2.9,5.7-6.8,5.7c-3.9,0-6.1-3.9-6.1-3.9v-4.6h0.4
				c-2.9-2.5-5-6.8-6.1-11.4l1.8-7.9c0,0,2.1-6.8,3.9-7.1c0,0,11.4,11.8,17.5,7.9C1225.9,241.6,1228.8,243,1226.3,248.7z"/>
		</g>
		<g>
			<path class="st1" d="M1269.5,266.6c2.5-2.1,4.3-5.7,4.3-20c0-12.9,2.9-18.2,3.9-19.6c1.1-1.4,5.4-1.4,5.4-1.4v-0.4
				c0,0,4.6-3.2,6.4-3.2c3.9,0,18.2-0.7,18.2,24.3c0,10,0.4,15.7,4.3,20"/>
			<path class="st2" d="M1297.3,258.4v2.9c0,0,12.1,4.6,13.9,5c3.6,0.7,5.7,2.1,5.7,12.5h-51.4c0-10.4,2.1-11.8,5.7-12.5
				c1.8-0.4,13.9-5,13.9-5v-2.9"/>
			<path class="st0" d="M1302.3,248.7c-1.1,5-5,11.4-5,11.4v3.2c0,0-2.9,5.7-6.8,5.7c-3.9,0-6.1-3.9-6.1-3.9v-4.6h0.4
				c-2.9-2.5-5-6.8-6.1-11.4l1.8-7.9c0,0,2.1-6.8,3.9-7.1c0,0,11.4,11.8,17.5,7.9C1302,241.6,1304.8,243,1302.3,248.7z"/>
		</g>
	</g>
</g>
<g>
	<rect x="1109.8" y="65.5" class="st0" width="11.1" height="8.9"/>
	<rect x="1089.1" y="65.5" class="st0" width="11.1" height="8.9"/>
	<rect x="1068.4" y="65.5" class="st0" width="11.1" height="8.9"/>
	<rect x="1047.7" y="65.5" class="st0" width="11.1" height="8.9"/>
	<rect x="1027.3" y="65.5" class="st0" width="11.1" height="8.9"/>
	<rect x="1212.7" y="65.5" class="st0" width="10.7" height="8.9"/>
	<rect x="117" y="65.5" class="st0" width="900.3" height="8.9"/>
	<rect x="1130.2" y="65.5" class="st0" width="11.1" height="8.9"/>
	<rect x="1192" y="65.5" class="st0" width="11.1" height="8.9"/>
	<rect x="1150.9" y="65.5" class="st0" width="11.1" height="8.9"/>
	<rect x="1171.6" y="65.5" class="st0" width="11.1" height="8.9"/>
</g>
<g>
	<rect x="1215.5" y="83" class="st0" width="7.5" height="6.1"/>
	<path class="st0" d="M1233.8,106.9c-1.4-1.8-3.9-1.8-5.4-0.4l-5,4.6V94.8h-7.9v16.4l-5-4.6c-1.8-1.4-3.9-1.4-5.4,0.4
		c-1.4,1.8-1.4,3.9,0.4,5.4l11.8,10.4c0.4,0,0.4,0.4,0.7,0.4c0.4,0,0.7,0.4,0.7,0.4c0,0.4,0.4,0.4,0.7,0.4c0.4,0,0.7,0,0.7,0
		s0.4,0,0.7,0c0.4,0,0.7-0.4,0.7-0.4s0.4,0,0.7-0.4c0.4,0,0.4-0.4,0.7-0.4l11.8-10.4C1235.2,110.9,1235.5,108.4,1233.8,106.9z"/>
</g>
<g>
	<g>
		<g>
			<g>
				<g>
					<g>
						<rect y="46.9" class="st3" width="171.8" height="233.2"/>
					</g>
				</g>
			</g>
			<g>
				<g>
					<g>
						<rect x="64.3" y="219.4" class="st1" width="44.3" height="60"/>
					</g>
				</g>
			</g>
			<g>
				<g>
					<g>
						<g>
							<rect x="30.4" y="73.7" class="st1" width="110.4" height="17.9"/>
						</g>
					</g>
				</g>
				<g>
					<g>
						<g>
							<rect x="30.4" y="106.9" class="st1" width="110.4" height="17.9"/>
						</g>
					</g>
				</g>
				<g>
					<g>
						<g>
							<rect x="30.4" y="139.4" class="st1" width="110.4" height="17.9"/>
						</g>
					</g>
				</g>
				<g>
					<g>
						<g>
							<rect x="30.4" y="172.3" class="st1" width="110.4" height="17.9"/>
						</g>
					</g>
				</g>
			</g>
		</g>
		<g>
			<g>
				<g>
					<rect x="171.1" y="109.1" class="st1" width="113.2" height="171.1"/>
				</g>
			</g>
		</g>
		<g>
			<g>
				<g>
					<g>
						<g>
							<rect x="185.7" y="123.4" class="st3" width="34.6" height="34.6"/>
						</g>
					</g>
				</g>
				<g>
					<g>
						<g>
							<rect x="185.7" y="169.1" class="st3" width="34.6" height="34.6"/>
						</g>
					</g>
				</g>
				<g>
					<g>
						<g>
							<rect x="185.7" y="215.1" class="st3" width="34.6" height="34.6"/>
						</g>
					</g>
				</g>
			</g>
			<g>
				<g>
					<g>
						<g>
							<rect x="235.3" y="123.4" class="st3" width="34.6" height="34.6"/>
						</g>
					</g>
				</g>
				<g>
					<g>
						<g>
							<rect x="235.3" y="169.1" class="st3" width="34.6" height="34.6"/>
						</g>
					</g>
				</g>
				<g>
					<g>
						<g>
							<rect x="235.3" y="215.1" class="st3" width="34.6" height="34.6"/>
						</g>
					</g>
				</g>
			</g>
		</g>
	</g>
</g>
<path class="st0" d="M881.3,107.3c-1.4-1.4-3.6-1.4-5.4-0.4l-5,4.6V74.4c0-2.1-1.4-3.6-3.6-3.6c-2.1,0-3.6,1.4-3.6,3.6v36.8l-5-4.6
	c-1.4-1.4-3.9-1.4-5.4,0.4c-1.4,1.4-1.4,3.9,0.4,5.4l11.4,10c0.4,0,0.4,0.4,0.4,0.4s0.4,0.4,0.7,0.4c0,0.4,0.4,0.4,0.4,0.4
	c0.4,0,0.4,0,0.7,0h0.4c0.4,0,0.4-0.4,0.7-0.4c0,0,0.4,0,0.4-0.4c0.4,0,0.4-0.4,0.4-0.4l11.4-10
	C883.1,111.2,883.1,108.7,881.3,107.3z"/>
<g>
	<path class="st1" d="M101.2,16.5c0-4.1,3-6.9,6.9-6.9c2.4,0,4,1.1,5.1,2.6l-1.4,0.8c-0.8-1.1-2.2-1.9-3.7-1.9
		c-2.9,0-5.1,2.2-5.1,5.4c0,3.2,2.2,5.4,5.1,5.4c1.5,0,2.9-0.8,3.7-1.9l1.4,0.8c-1.1,1.5-2.7,2.7-5.1,2.7
		C104.2,23.4,101.2,20.6,101.2,16.5z"/>
	<path class="st1" d="M114.6,18.3c0-2.8,1.8-5.1,4.8-5.1s4.8,2.3,4.8,5.1c0,2.8-1.8,5.1-4.8,5.1S114.6,21.1,114.6,18.3z M122.6,18.3
		c0-2-1.1-3.7-3.2-3.7s-3.2,1.8-3.2,3.7c0,2,1.1,3.7,3.2,3.7S122.6,20.3,122.6,18.3z"/>
	<path class="st1" d="M138.3,23.1v-6.6c0-1.2-0.5-2-1.8-2c-1,0-2.1,0.7-2.6,1.5v7.1h-1.5v-6.6c0-1.2-0.5-2-1.8-2c-1,0-2,0.7-2.5,1.5
		v7.1h-1.5v-9.7h1.5v1.4c0.4-0.6,1.7-1.6,3.1-1.6c1.5,0,2.3,0.8,2.6,1.8c0.5-0.9,1.8-1.8,3.2-1.8c1.8,0,2.7,1,2.7,2.9v7H138.3z"/>
	<path class="st1" d="M144.3,21.7v5.1h-1.5V13.5h1.5v1.4c0.7-1,1.9-1.7,3.3-1.7c2.5,0,4.3,1.9,4.3,5.1c0,3.1-1.8,5.1-4.3,5.1
		C146.2,23.4,145.1,22.7,144.3,21.7z M150.3,18.3c0-2.1-1.2-3.7-3.1-3.7c-1.2,0-2.4,0.7-2.9,1.5v4.4c0.5,0.8,1.7,1.6,2.9,1.6
		C149.1,22,150.3,20.4,150.3,18.3z"/>
	<path class="st1" d="M160.3,23.1V22c-0.8,0.9-1.9,1.3-3.2,1.3c-1.6,0-3.4-1.1-3.4-3.2c0-2.2,1.7-3.2,3.4-3.2c1.3,0,2.4,0.4,3.2,1.3
		v-1.7c0-1.3-1-2-2.4-2c-1.2,0-2.1,0.4-3,1.3l-0.7-1c1-1.1,2.3-1.6,3.9-1.6c2.1,0,3.7,0.9,3.7,3.3v6.6H160.3z M160.3,21.1v-1.8
		c-0.6-0.8-1.6-1.2-2.6-1.2c-1.4,0-2.4,0.9-2.4,2.1c0,1.2,1,2.1,2.4,2.1C158.7,22.3,159.7,21.9,160.3,21.1z"/>
	<path class="st1" d="M171.3,23.1v-6.3c0-1.7-0.9-2.2-2.2-2.2c-1.2,0-2.3,0.7-2.9,1.5v7.1h-1.5v-9.7h1.5v1.4c0.7-0.8,2-1.6,3.5-1.6
		c2,0,3.1,1,3.1,3.1v6.8H171.3z"/>
	<path class="st1" d="M175.5,25.5c0.2,0.1,0.6,0.2,0.8,0.2c0.7,0,1.1-0.2,1.4-1l0.6-1.5l-4-9.8h1.6l3.2,7.9l3.2-7.9h1.6l-4.8,11.6
		c-0.6,1.4-1.6,1.9-2.8,2c-0.3,0-0.8-0.1-1.1-0.1L175.5,25.5z"/>
</g>
<g>
	<path class="st1" d="M480.9,152.1v-13.3h5.4c2.7,0,4.2,1.8,4.2,4c0,2.2-1.5,4-4.2,4h-3.7v5.3H480.9z M488.7,142.8
		c0-1.5-1.1-2.5-2.7-2.5h-3.5v5.1h3.5C487.6,145.3,488.7,144.3,488.7,142.8z"/>
	<path class="st1" d="M498.2,152.1V151c-0.8,0.9-1.9,1.3-3.2,1.3c-1.6,0-3.4-1.1-3.4-3.2c0-2.2,1.7-3.2,3.4-3.2
		c1.3,0,2.4,0.4,3.2,1.3v-1.7c0-1.3-1-2-2.4-2c-1.2,0-2.1,0.4-3,1.3l-0.7-1c1-1.1,2.3-1.6,3.9-1.6c2.1,0,3.7,0.9,3.7,3.3v6.6H498.2z
		 M498.2,150.1v-1.8c-0.6-0.8-1.6-1.2-2.6-1.2c-1.4,0-2.4,0.9-2.4,2.1c0,1.2,1,2.1,2.4,2.1C496.6,151.3,497.6,150.9,498.2,150.1z"/>
	<path class="st1" d="M502.4,154.5c0.2,0.1,0.6,0.2,0.8,0.2c0.7,0,1.1-0.2,1.4-1l0.6-1.5l-4-9.8h1.6l3.2,7.9l3.2-7.9h1.6l-4.8,11.6
		c-0.6,1.4-1.6,1.9-2.8,2c-0.3,0-0.8-0.1-1.1-0.1L502.4,154.5z"/>
	<path class="st1" d="M512.5,152.1v-9.7h1.5v1.5c0.8-1,1.9-1.8,3.2-1.8v1.5c-0.2,0-0.4,0-0.6,0c-0.9,0-2.2,0.8-2.6,1.5v6.8H512.5z"
		/>
	<path class="st1" d="M518.6,147.3c0-2.8,1.8-5.1,4.8-5.1s4.8,2.3,4.8,5.1c0,2.8-1.8,5.1-4.8,5.1S518.6,150.1,518.6,147.3z
		 M526.5,147.3c0-2-1.1-3.7-3.2-3.7s-3.2,1.8-3.2,3.7c0,2,1.1,3.7,3.2,3.7S526.5,149.3,526.5,147.3z"/>
	<path class="st1" d="M530.6,152.1v-13.3h1.5v13.3H530.6z"/>
	<path class="st1" d="M535.1,152.1v-13.3h1.5v13.3H535.1z"/>
	<path class="st1" d="M545.2,152.1v-8.3h-1.6v-1.3h1.6v-0.7c0-2,1.1-3.1,2.8-3.1c0.8,0,1.4,0.2,2,0.7l-0.6,1
		c-0.3-0.3-0.7-0.5-1.2-0.5c-1,0-1.5,0.7-1.5,1.9v0.7h2v1.3h-2v8.3H545.2z"/>
	<path class="st1" d="M549.9,147.3c0-2.8,1.8-5.1,4.8-5.1s4.8,2.3,4.8,5.1c0,2.8-1.8,5.1-4.8,5.1S549.9,150.1,549.9,147.3z
		 M557.8,147.3c0-2-1.1-3.7-3.2-3.7s-3.2,1.8-3.2,3.7c0,2,1.1,3.7,3.2,3.7S557.8,149.3,557.8,147.3z"/>
	<path class="st1" d="M561.9,152.1v-9.7h1.5v1.5c0.8-1,1.9-1.8,3.2-1.8v1.5c-0.2,0-0.4,0-0.6,0c-0.9,0-2.2,0.8-2.6,1.5v6.8H561.9z"
		/>
	<path class="st1" d="M467.4,174.7v5.1h-1.5v-13.3h1.5v1.4c0.7-1,1.9-1.7,3.3-1.7c2.5,0,4.3,1.9,4.3,5.1c0,3.1-1.8,5.1-4.3,5.1
		C469.3,176.4,468.2,175.7,467.4,174.7z M473.4,171.3c0-2.1-1.2-3.7-3.1-3.7c-1.2,0-2.4,0.7-2.9,1.5v4.4c0.5,0.8,1.7,1.6,2.9,1.6
		C472.2,175,473.4,173.4,473.4,171.3z"/>
	<path class="st1" d="M483.4,176.1V175c-0.8,0.9-1.9,1.3-3.2,1.3c-1.6,0-3.4-1.1-3.4-3.2c0-2.2,1.7-3.2,3.4-3.2
		c1.3,0,2.4,0.4,3.2,1.3v-1.7c0-1.3-1-2-2.4-2c-1.2,0-2.1,0.4-3,1.3l-0.7-1c1-1.1,2.3-1.6,3.9-1.6c2.1,0,3.7,0.9,3.7,3.3v6.6H483.4z
		 M483.4,174.1v-1.8c-0.6-0.8-1.6-1.2-2.6-1.2c-1.4,0-2.4,0.9-2.4,2.1c0,1.2,1,2.1,2.4,2.1C481.8,175.3,482.8,174.9,483.4,174.1z"/>
	<path class="st1" d="M487.6,178.5c0.2,0.1,0.6,0.2,0.8,0.2c0.7,0,1.1-0.2,1.4-1l0.6-1.5l-4-9.8h1.6l3.2,7.9l3.2-7.9h1.6l-4.8,11.6
		c-0.6,1.4-1.6,1.9-2.8,2c-0.3,0-0.8-0.1-1.1-0.1L487.6,178.5z"/>
	<path class="st1" d="M504.4,174.7v5.1h-1.5v-13.3h1.5v1.4c0.7-1,1.9-1.7,3.3-1.7c2.5,0,4.3,1.9,4.3,5.1c0,3.1-1.8,5.1-4.3,5.1
		C506.3,176.4,505.2,175.7,504.4,174.7z M510.3,171.3c0-2.1-1.2-3.7-3.1-3.7c-1.2,0-2.4,0.7-2.9,1.5v4.4c0.5,0.8,1.7,1.6,2.9,1.6
		C509.2,175,510.3,173.4,510.3,171.3z"/>
	<path class="st1" d="M513.7,171.3c0-2.8,2-5.1,4.8-5.1c2.9,0,4.6,2.3,4.6,5.2v0.4h-7.8c0.1,1.8,1.4,3.3,3.5,3.3
		c1.1,0,2.2-0.4,3-1.2l0.7,1c-1,1-2.3,1.5-3.8,1.5C515.8,176.4,513.7,174.3,513.7,171.3z M518.5,167.5c-2.1,0-3.1,1.7-3.2,3.2h6.3
		C521.6,169.2,520.7,167.5,518.5,167.5z"/>
	<path class="st1" d="M525.6,176.1v-9.7h1.5v1.5c0.8-1,1.9-1.8,3.2-1.8v1.5c-0.2,0-0.4,0-0.6,0c-0.9,0-2.2,0.8-2.6,1.5v6.8H525.6z"
		/>
	<path class="st1" d="M531.9,164.1c0-0.6,0.5-1,1-1s1,0.5,1,1s-0.4,1-1,1S531.9,164.6,531.9,164.1z M532.2,176.1v-9.7h1.5v9.7H532.2
		z"/>
	<path class="st1" d="M536.1,171.3c0-2.8,1.8-5.1,4.8-5.1s4.8,2.3,4.8,5.1c0,2.8-1.8,5.1-4.8,5.1S536.1,174.1,536.1,171.3z
		 M544.1,171.3c0-2-1.1-3.7-3.2-3.7s-3.2,1.8-3.2,3.7c0,2,1.1,3.7,3.2,3.7S544.1,173.3,544.1,171.3z"/>
	<path class="st1" d="M555.1,176.1v-1.4c-0.7,1-1.9,1.7-3.3,1.7c-2.5,0-4.3-1.9-4.3-5.1c0-3.1,1.8-5.1,4.3-5.1
		c1.3,0,2.5,0.6,3.3,1.7v-5.1h1.5v13.3H555.1z M555.1,173.5v-4.4c-0.5-0.8-1.7-1.6-2.9-1.6c-2,0-3.1,1.6-3.1,3.7
		c0,2.1,1.2,3.7,3.1,3.7C553.4,175,554.6,174.3,555.1,173.5z"/>
	<path class="st1" d="M568.1,176.1l1.2-3.6h-2.2l-1.2,3.6h-1.2l1.2-3.6h-2.1l0.3-1.1h2.1l1.3-4h-2.2l0.3-1h2.2l1.2-3.6h1.2l-1.2,3.6
		h2.2l1.2-3.6h1.2l-1.2,3.6h2.1l-0.3,1h-2.2l-1.3,4h2.2l-0.3,1.1h-2.3l-1.2,3.6H568.1z M571,167.5h-2.2l-1.3,4h2.2L571,167.5z"/>
	<path class="st1" d="M578.7,176.1V165l-2.1,2.3l-1-1l3.3-3.4h1.5v13.3H578.7z"/>
</g>
<g>
	<path class="st1" d="M827.4,152.1v-13.3h5.4c2.7,0,4.2,1.8,4.2,4c0,2.2-1.5,4-4.2,4H829v5.3H827.4z M835.2,142.8
		c0-1.5-1.1-2.5-2.7-2.5H829v5.1h3.5C834.1,145.3,835.2,144.3,835.2,142.8z"/>
	<path class="st1" d="M844.7,152.1V151c-0.8,0.9-1.9,1.3-3.2,1.3c-1.6,0-3.4-1.1-3.4-3.2c0-2.2,1.7-3.2,3.4-3.2
		c1.3,0,2.4,0.4,3.2,1.3v-1.7c0-1.3-1-2-2.4-2c-1.2,0-2.1,0.4-3,1.3l-0.7-1c1-1.1,2.3-1.6,3.9-1.6c2.1,0,3.7,0.9,3.7,3.3v6.6H844.7z
		 M844.7,150.1v-1.8c-0.6-0.8-1.6-1.2-2.6-1.2c-1.4,0-2.4,0.9-2.4,2.1c0,1.2,1,2.1,2.4,2.1C843.1,151.3,844.1,150.9,844.7,150.1z"/>
	<path class="st1" d="M848.9,154.5c0.2,0.1,0.6,0.2,0.8,0.2c0.7,0,1.1-0.2,1.4-1l0.6-1.5l-4-9.8h1.6l3.2,7.9l3.2-7.9h1.6l-4.8,11.6
		c-0.6,1.4-1.6,1.9-2.8,2c-0.3,0-0.8-0.1-1.1-0.1L848.9,154.5z"/>
	<path class="st1" d="M859,152.1v-9.7h1.5v1.5c0.8-1,1.9-1.8,3.2-1.8v1.5c-0.2,0-0.4,0-0.6,0c-0.9,0-2.2,0.8-2.6,1.5v6.8H859z"/>
	<path class="st1" d="M865.1,147.3c0-2.8,1.8-5.1,4.8-5.1s4.8,2.3,4.8,5.1c0,2.8-1.8,5.1-4.8,5.1S865.1,150.1,865.1,147.3z
		 M873,147.3c0-2-1.1-3.7-3.2-3.7s-3.2,1.8-3.2,3.7c0,2,1.1,3.7,3.2,3.7S873,149.3,873,147.3z"/>
	<path class="st1" d="M877.1,152.1v-13.3h1.5v13.3H877.1z"/>
	<path class="st1" d="M881.6,152.1v-13.3h1.5v13.3H881.6z"/>
	<path class="st1" d="M891.7,152.1v-8.3h-1.6v-1.3h1.6v-0.7c0-2,1.1-3.1,2.8-3.1c0.8,0,1.4,0.2,2,0.7l-0.6,1
		c-0.3-0.3-0.7-0.5-1.2-0.5c-1,0-1.5,0.7-1.5,1.9v0.7h2v1.3h-2v8.3H891.7z"/>
	<path class="st1" d="M896.4,147.3c0-2.8,1.8-5.1,4.8-5.1s4.8,2.3,4.8,5.1c0,2.8-1.8,5.1-4.8,5.1S896.4,150.1,896.4,147.3z
		 M904.3,147.3c0-2-1.1-3.7-3.2-3.7s-3.2,1.8-3.2,3.7c0,2,1.1,3.7,3.2,3.7S904.3,149.3,904.3,147.3z"/>
	<path class="st1" d="M908.4,152.1v-9.7h1.5v1.5c0.8-1,1.9-1.8,3.2-1.8v1.5c-0.2,0-0.4,0-0.6,0c-0.9,0-2.2,0.8-2.6,1.5v6.8H908.4z"
		/>
	<path class="st1" d="M811.4,174.7v5.1h-1.5v-13.3h1.5v1.4c0.7-1,1.9-1.7,3.3-1.7c2.5,0,4.3,1.9,4.3,5.1c0,3.1-1.8,5.1-4.3,5.1
		C813.3,176.4,812.2,175.7,811.4,174.7z M817.4,171.3c0-2.1-1.2-3.7-3.1-3.7c-1.2,0-2.4,0.7-2.9,1.5v4.4c0.5,0.8,1.7,1.6,2.9,1.6
		C816.2,175,817.4,173.4,817.4,171.3z"/>
	<path class="st1" d="M827.4,176.1V175c-0.8,0.9-1.9,1.3-3.2,1.3c-1.6,0-3.4-1.1-3.4-3.2c0-2.2,1.7-3.2,3.4-3.2
		c1.3,0,2.4,0.4,3.2,1.3v-1.7c0-1.3-1-2-2.4-2c-1.2,0-2.1,0.4-3,1.3l-0.7-1c1-1.1,2.3-1.6,3.9-1.6c2.1,0,3.7,0.9,3.7,3.3v6.6H827.4z
		 M827.4,174.1v-1.8c-0.6-0.8-1.6-1.2-2.6-1.2c-1.4,0-2.4,0.9-2.4,2.1c0,1.2,1,2.1,2.4,2.1C825.8,175.3,826.8,174.9,827.4,174.1z"/>
	<path class="st1" d="M831.6,178.5c0.2,0.1,0.6,0.2,0.8,0.2c0.7,0,1.1-0.2,1.4-1l0.6-1.5l-4-9.8h1.6l3.2,7.9l3.2-7.9h1.6l-4.8,11.6
		c-0.6,1.4-1.6,1.9-2.8,2c-0.3,0-0.8-0.1-1.1-0.1L831.6,178.5z"/>
	<path class="st1" d="M848.4,174.7v5.1h-1.5v-13.3h1.5v1.4c0.7-1,1.9-1.7,3.3-1.7c2.5,0,4.3,1.9,4.3,5.1c0,3.1-1.8,5.1-4.3,5.1
		C850.3,176.4,849.2,175.7,848.4,174.7z M854.4,171.3c0-2.1-1.2-3.7-3.1-3.7c-1.2,0-2.4,0.7-2.9,1.5v4.4c0.5,0.8,1.7,1.6,2.9,1.6
		C853.2,175,854.4,173.4,854.4,171.3z"/>
	<path class="st1" d="M857.8,171.3c0-2.8,2-5.1,4.8-5.1c2.9,0,4.6,2.3,4.6,5.2v0.4h-7.8c0.1,1.8,1.4,3.3,3.5,3.3
		c1.1,0,2.2-0.4,3-1.2l0.7,1c-1,1-2.3,1.5-3.8,1.5C859.8,176.4,857.8,174.3,857.8,171.3z M862.5,167.5c-2.1,0-3.1,1.7-3.2,3.2h6.3
		C865.7,169.2,864.7,167.5,862.5,167.5z"/>
	<path class="st1" d="M869.6,176.1v-9.7h1.5v1.5c0.8-1,1.9-1.8,3.2-1.8v1.5c-0.2,0-0.4,0-0.6,0c-0.9,0-2.2,0.8-2.6,1.5v6.8H869.6z"
		/>
	<path class="st1" d="M875.9,164.1c0-0.6,0.5-1,1-1s1,0.5,1,1s-0.4,1-1,1S875.9,164.6,875.9,164.1z M876.2,176.1v-9.7h1.5v9.7H876.2
		z"/>
	<path class="st1" d="M880.1,171.3c0-2.8,1.8-5.1,4.8-5.1s4.8,2.3,4.8,5.1c0,2.8-1.8,5.1-4.8,5.1S880.1,174.1,880.1,171.3z
		 M888.1,171.3c0-2-1.1-3.7-3.2-3.7s-3.2,1.8-3.2,3.7c0,2,1.1,3.7,3.2,3.7S888.1,173.3,888.1,171.3z"/>
	<path class="st1" d="M899.1,176.1v-1.4c-0.7,1-1.9,1.7-3.3,1.7c-2.5,0-4.3-1.9-4.3-5.1c0-3.1,1.8-5.1,4.3-5.1
		c1.3,0,2.5,0.6,3.3,1.7v-5.1h1.5v13.3H899.1z M899.1,173.5v-4.4c-0.5-0.8-1.7-1.6-2.9-1.6c-2,0-3.1,1.6-3.1,3.7
		c0,2.1,1.2,3.7,3.1,3.7C897.4,175,898.6,174.3,899.1,173.5z"/>
	<path class="st1" d="M912.1,176.1l1.2-3.6h-2.2l-1.2,3.6h-1.2l1.2-3.6h-2.1l0.3-1.1h2.1l1.3-4h-2.2l0.3-1h2.2l1.2-3.6h1.2l-1.2,3.6
		h2.2l1.2-3.6h1.2l-1.2,3.6h2.1l-0.3,1h-2.2l-1.3,4h2.2l-0.3,1.1h-2.3l-1.2,3.6H912.1z M915,167.5h-2.2l-1.3,4h2.2L915,167.5z"/>
	<path class="st1" d="M920.2,176.1v-1.3c4.8-3.8,7.4-6,7.4-8.3c0-1.7-1.4-2.4-2.8-2.4c-1.6,0-2.8,0.7-3.6,1.7l-1-1.1
		c1-1.4,2.8-2.1,4.6-2.1c2.2,0,4.5,1.3,4.5,3.9c0,2.7-2.8,5.2-6.5,8.1h6.5v1.5H920.2z"/>
</g>
<g>
	<path class="st1" d="M1178.4,152.1v-13.3h5.4c2.7,0,4.2,1.8,4.2,4c0,2.2-1.5,4-4.2,4h-3.7v5.3H1178.4z M1186.2,142.8
		c0-1.5-1.1-2.5-2.7-2.5h-3.5v5.1h3.5C1185.1,145.3,1186.2,144.3,1186.2,142.8z"/>
	<path class="st1" d="M1195.7,152.1V151c-0.8,0.9-1.9,1.3-3.2,1.3c-1.6,0-3.4-1.1-3.4-3.2c0-2.2,1.7-3.2,3.4-3.2
		c1.3,0,2.4,0.4,3.2,1.3v-1.7c0-1.3-1-2-2.4-2c-1.2,0-2.1,0.4-3,1.3l-0.7-1c1-1.1,2.3-1.6,3.9-1.6c2.1,0,3.7,0.9,3.7,3.3v6.6H1195.7
		z M1195.7,150.1v-1.8c-0.6-0.8-1.6-1.2-2.6-1.2c-1.4,0-2.4,0.9-2.4,2.1c0,1.2,1,2.1,2.4,2.1
		C1194.1,151.3,1195.1,150.9,1195.7,150.1z"/>
	<path class="st1" d="M1199.9,154.5c0.2,0.1,0.6,0.2,0.8,0.2c0.7,0,1.1-0.2,1.4-1l0.6-1.5l-4-9.8h1.6l3.2,7.9l3.2-7.9h1.6l-4.8,11.6
		c-0.6,1.4-1.6,1.9-2.8,2c-0.3,0-0.8-0.1-1.1-0.1L1199.9,154.5z"/>
	<path class="st1" d="M1210,152.1v-9.7h1.5v1.5c0.8-1,1.9-1.8,3.2-1.8v1.5c-0.2,0-0.4,0-0.6,0c-0.9,0-2.2,0.8-2.6,1.5v6.8H1210z"/>
	<path class="st1" d="M1216.1,147.3c0-2.8,1.8-5.1,4.8-5.1s4.8,2.3,4.8,5.1c0,2.8-1.8,5.1-4.8,5.1S1216.1,150.1,1216.1,147.3z
		 M1224,147.3c0-2-1.1-3.7-3.2-3.7s-3.2,1.8-3.2,3.7c0,2,1.1,3.7,3.2,3.7S1224,149.3,1224,147.3z"/>
	<path class="st1" d="M1228.1,152.1v-13.3h1.5v13.3H1228.1z"/>
	<path class="st1" d="M1232.6,152.1v-13.3h1.5v13.3H1232.6z"/>
	<path class="st1" d="M1242.7,152.1v-8.3h-1.6v-1.3h1.6v-0.7c0-2,1.1-3.1,2.8-3.1c0.8,0,1.4,0.2,2,0.7l-0.6,1
		c-0.3-0.3-0.7-0.5-1.2-0.5c-1,0-1.5,0.7-1.5,1.9v0.7h2v1.3h-2v8.3H1242.7z"/>
	<path class="st1" d="M1247.4,147.3c0-2.8,1.8-5.1,4.8-5.1s4.8,2.3,4.8,5.1c0,2.8-1.8,5.1-4.8,5.1S1247.4,150.1,1247.4,147.3z
		 M1255.3,147.3c0-2-1.1-3.7-3.2-3.7s-3.2,1.8-3.2,3.7c0,2,1.1,3.7,3.2,3.7S1255.3,149.3,1255.3,147.3z"/>
	<path class="st1" d="M1259.4,152.1v-9.7h1.5v1.5c0.8-1,1.9-1.8,3.2-1.8v1.5c-0.2,0-0.4,0-0.6,0c-0.9,0-2.2,0.8-2.6,1.5v6.8H1259.4z
		"/>
	<path class="st1" d="M1161.2,174.7v5.1h-1.5v-13.3h1.5v1.4c0.7-1,1.9-1.7,3.3-1.7c2.5,0,4.3,1.9,4.3,5.1c0,3.1-1.8,5.1-4.3,5.1
		C1163.1,176.4,1162,175.7,1161.2,174.7z M1167.2,171.3c0-2.1-1.2-3.7-3.1-3.7c-1.2,0-2.4,0.7-2.9,1.5v4.4c0.5,0.8,1.7,1.6,2.9,1.6
		C1166,175,1167.2,173.4,1167.2,171.3z"/>
	<path class="st1" d="M1177.2,176.1V175c-0.8,0.9-1.9,1.3-3.2,1.3c-1.6,0-3.4-1.1-3.4-3.2c0-2.2,1.7-3.2,3.4-3.2
		c1.3,0,2.4,0.4,3.2,1.3v-1.7c0-1.3-1-2-2.4-2c-1.2,0-2.1,0.4-3,1.3l-0.7-1c1-1.1,2.3-1.6,3.9-1.6c2.1,0,3.7,0.9,3.7,3.3v6.6H1177.2
		z M1177.2,174.1v-1.8c-0.6-0.8-1.6-1.2-2.6-1.2c-1.4,0-2.4,0.9-2.4,2.1c0,1.2,1,2.1,2.4,2.1
		C1175.6,175.3,1176.6,174.9,1177.2,174.1z"/>
	<path class="st1" d="M1181.4,178.5c0.2,0.1,0.6,0.2,0.8,0.2c0.7,0,1.1-0.2,1.4-1l0.6-1.5l-4-9.8h1.6l3.2,7.9l3.2-7.9h1.6l-4.8,11.6
		c-0.6,1.4-1.6,1.9-2.8,2c-0.3,0-0.8-0.1-1.1-0.1L1181.4,178.5z"/>
	<path class="st1" d="M1198.2,174.7v5.1h-1.5v-13.3h1.5v1.4c0.7-1,1.9-1.7,3.3-1.7c2.5,0,4.3,1.9,4.3,5.1c0,3.1-1.8,5.1-4.3,5.1
		C1200.1,176.4,1199,175.7,1198.2,174.7z M1204.2,171.3c0-2.1-1.2-3.7-3.1-3.7c-1.2,0-2.4,0.7-2.9,1.5v4.4c0.5,0.8,1.7,1.6,2.9,1.6
		C1203,175,1204.2,173.4,1204.2,171.3z"/>
	<path class="st1" d="M1207.6,171.3c0-2.8,2-5.1,4.8-5.1c2.9,0,4.6,2.3,4.6,5.2v0.4h-7.8c0.1,1.8,1.4,3.3,3.5,3.3
		c1.1,0,2.2-0.4,3-1.2l0.7,1c-1,1-2.3,1.5-3.8,1.5C1209.6,176.4,1207.6,174.3,1207.6,171.3z M1212.3,167.5c-2.1,0-3.1,1.7-3.2,3.2
		h6.3C1215.5,169.2,1214.5,167.5,1212.3,167.5z"/>
	<path class="st1" d="M1219.4,176.1v-9.7h1.5v1.5c0.8-1,1.9-1.8,3.2-1.8v1.5c-0.2,0-0.4,0-0.6,0c-0.9,0-2.2,0.8-2.6,1.5v6.8H1219.4z
		"/>
	<path class="st1" d="M1225.7,164.1c0-0.6,0.5-1,1-1s1,0.5,1,1s-0.4,1-1,1S1225.7,164.6,1225.7,164.1z M1226,176.1v-9.7h1.5v9.7
		H1226z"/>
	<path class="st1" d="M1229.9,171.3c0-2.8,1.8-5.1,4.8-5.1s4.8,2.3,4.8,5.1c0,2.8-1.8,5.1-4.8,5.1S1229.9,174.1,1229.9,171.3z
		 M1237.9,171.3c0-2-1.1-3.7-3.2-3.7s-3.2,1.8-3.2,3.7c0,2,1.1,3.7,3.2,3.7S1237.9,173.3,1237.9,171.3z"/>
	<path class="st1" d="M1248.9,176.1v-1.4c-0.7,1-1.9,1.7-3.3,1.7c-2.5,0-4.3-1.9-4.3-5.1c0-3.1,1.8-5.1,4.3-5.1
		c1.3,0,2.5,0.6,3.3,1.7v-5.1h1.5v13.3H1248.9z M1248.9,173.5v-4.4c-0.5-0.8-1.7-1.6-2.9-1.6c-2,0-3.1,1.6-3.1,3.7
		c0,2.1,1.2,3.7,3.1,3.7C1247.2,175,1248.4,174.3,1248.9,173.5z"/>
	<path class="st1" d="M1261.9,176.1l1.2-3.6h-2.2l-1.2,3.6h-1.2l1.2-3.6h-2.1l0.3-1.1h2.1l1.3-4h-2.2l0.3-1h2.2l1.2-3.6h1.2
		l-1.2,3.6h2.2l1.2-3.6h1.2l-1.2,3.6h2.1l-0.3,1h-2.2l-1.3,4h2.2l-0.3,1.1h-2.3l-1.2,3.6H1261.9z M1264.8,167.5h-2.2l-1.3,4h2.2
		L1264.8,167.5z"/>
	<path class="st1" d="M1279.9,176.1l-7.8-10.6v10.6h-1.7v-13.3h1.7l7.7,10.4v-10.4h1.7v13.3H1279.9z"/>
</g>
</svg>
