<?xml version="1.0" encoding="utf-8"?>
<!-- Generator: Adobe Illustrator 19.2.1, SVG Export Plug-In . SVG Version: 6.00 Build 0)  -->
<svg version="1.1" id="Layer_1" xmlns="http://www.w3.org/2000/svg" xmlns:xlink="http://www.w3.org/1999/xlink" x="0px" y="0px"
	 viewBox="0 0 369.3 90" style="enable-background:new 0 0 369.3 90;" xml:space="preserve">
<style type="text/css">
	.st0{fill:#FFC949;}
	.st1{fill:#3171AE;}
	.st2{font-family:'ProximaNova-Bold';}
	.st3{font-size:6px;}
	.st4{fill:#91E5D5;}
	.st5{fill:#FFFFFF;}
	.st6{fill:#6DABDD;}
</style>
<path class="st0" d="M153.3,30.6c-0.5-0.6-1.4-0.6-2-0.1l-1.9,1.7v-14c0-0.8-0.6-1.4-1.4-1.4s-1.4,0.6-1.4,1.4v14l-1.9-1.7
	c-0.6-0.5-1.5-0.5-2,0.1s-0.5,1.5,0.1,2l4.3,3.8c0.1,0,0.1,0.1,0.2,0.1c0.1,0,0.2,0.1,0.3,0.1c0,0.1,0.1,0.1,0.2,0.1
	c0.1,0,0.2,0,0.3,0c0,0,0.1,0,0.2,0c0.1,0,0.2-0.1,0.3-0.1c0,0,0.1,0,0.2-0.1c0.1,0,0.1-0.1,0.2-0.1l4.3-3.8
	C153.9,32.1,154,31.2,153.3,30.6z"/>
<g>
	<text transform="matrix(1 0 0 1 133.4395 45.6608)"><tspan x="0" y="0" class="st1 st2 st3">Payroll for </tspan><tspan x="-3.6" y="7.2" class="st1 st2 st3">pay period #1</tspan></text>
	<g>
		<g>
			<path class="st1" d="M120.7,72.6c0.7-0.6,1.2-1.6,1.2-5.6c0-3.6,0.8-5.1,1.1-5.5c0.3-0.4,1.5-0.4,1.5-0.4V61c0,0,1.3-0.9,1.8-0.9
				c1.1,0,5.1-0.2,5.1,6.8c0,2.8,0.1,4.4,1.2,5.6"/>
			<path class="st4" d="M128.6,70.3v0.8c0,0,3.4,1.3,3.9,1.4c1,0.2,1.6,0.6,1.6,3.5h-14.4c0-2.9,0.6-3.3,1.6-3.5
				c0.5-0.1,3.9-1.4,3.9-1.4v-0.8"/>
			<path class="st0" d="M130,67.6c-0.3,1.4-1.4,3.2-1.4,3.2l0,0.9c0,0-0.8,1.6-1.9,1.6c-1.1,0-1.7-1.1-1.7-1.1v-1.3h0.1
				c-0.8-0.7-1.4-1.9-1.7-3.2l0.5-2.2c0,0,0.6-1.9,1.1-2c0,0,3.2,3.3,4.9,2.2C129.9,65.6,130.7,66,130,67.6z"/>
		</g>
		<g>
			<path class="st1" d="M142.1,72.6c0.7-0.6,1.2-1.6,1.2-5.6c0-3.6,0.8-5.1,1.1-5.5c0.3-0.4,1.5-0.4,1.5-0.4V61c0,0,1.3-0.9,1.8-0.9
				c1.1,0,5.1-0.2,5.1,6.8c0,2.8,0.1,4.4,1.2,5.6"/>
			<path class="st4" d="M149.9,70.3v0.8c0,0,3.4,1.3,3.9,1.4c1,0.2,1.6,0.6,1.6,3.5h-14.4c0-2.9,0.6-3.3,1.6-3.5
				c0.5-0.1,3.9-1.4,3.9-1.4v-0.8"/>
			<path class="st0" d="M151.3,67.6c-0.3,1.4-1.4,3.2-1.4,3.2l0,0.9c0,0-0.8,1.6-1.9,1.6c-1.1,0-1.7-1.1-1.7-1.1v-1.3h0.1
				c-0.8-0.7-1.4-1.9-1.7-3.2l0.5-2.2c0,0,0.6-1.9,1.1-2c0,0,3.2,3.3,4.9,2.2C151.2,65.6,152,66,151.3,67.6z"/>
		</g>
		<g>
			<path class="st1" d="M163.4,72.6c0.7-0.6,1.2-1.6,1.2-5.6c0-3.6,0.8-5.1,1.1-5.5c0.3-0.4,1.5-0.4,1.5-0.4V61c0,0,1.3-0.9,1.8-0.9
				c1.1,0,5.1-0.2,5.1,6.8c0,2.8,0.1,4.4,1.2,5.6"/>
			<path class="st4" d="M171.2,70.3v0.8c0,0,3.4,1.3,3.9,1.4c1,0.2,1.6,0.6,1.6,3.5h-14.4c0-2.9,0.6-3.3,1.6-3.5
				c0.5-0.1,3.9-1.4,3.9-1.4v-0.8"/>
			<path class="st0" d="M172.7,67.6c-0.3,1.4-1.4,3.2-1.4,3.2l0,0.9c0,0-0.8,1.6-1.9,1.6c-1.1,0-1.7-1.1-1.7-1.1v-1.3h0.1
				c-0.8-0.7-1.4-1.9-1.7-3.2l0.5-2.2c0,0,0.6-1.9,1.1-2c0,0,3.2,3.3,4.9,2.2C172.6,65.6,173.4,66,172.7,67.6z"/>
		</g>
	</g>
</g>
<g>
	<text transform="matrix(1 0 0 1 226.9262 45.6608)"><tspan x="0" y="0" class="st1 st2 st3">Payroll for </tspan><tspan x="-4.1" y="7.2" class="st1 st2 st3">pay period #2</tspan></text>
	<g>
		<g>
			<path class="st1" d="M214.2,72.6c0.7-0.6,1.2-1.6,1.2-5.6c0-3.6,0.8-5.1,1.1-5.5c0.3-0.4,1.5-0.4,1.5-0.4V61c0,0,1.3-0.9,1.8-0.9
				c1.1,0,5.1-0.2,5.1,6.8c0,2.8,0.1,4.4,1.2,5.6"/>
			<path class="st4" d="M222,70.3v0.8c0,0,3.4,1.3,3.9,1.4c1,0.2,1.6,0.6,1.6,3.5h-14.4c0-2.9,0.6-3.3,1.6-3.5
				c0.5-0.1,3.9-1.4,3.9-1.4v-0.8"/>
			<path class="st0" d="M223.5,67.6c-0.3,1.4-1.4,3.2-1.4,3.2l0,0.9c0,0-0.8,1.6-1.9,1.6c-1.1,0-1.7-1.1-1.7-1.1v-1.3h0.1
				c-0.8-0.7-1.4-1.9-1.7-3.2l0.5-2.2c0,0,0.6-1.9,1.1-2c0,0,3.2,3.3,4.9,2.2C223.4,65.6,224.2,66,223.5,67.6z"/>
		</g>
		<g>
			<path class="st1" d="M235.6,72.6c0.7-0.6,1.2-1.6,1.2-5.6c0-3.6,0.8-5.1,1.1-5.5c0.3-0.4,1.5-0.4,1.5-0.4V61c0,0,1.3-0.9,1.8-0.9
				c1.1,0,5.1-0.2,5.1,6.8c0,2.8,0.1,4.4,1.2,5.6"/>
			<path class="st4" d="M243.4,70.3v0.8c0,0,3.4,1.3,3.9,1.4c1,0.2,1.6,0.6,1.6,3.5h-14.4c0-2.9,0.6-3.3,1.6-3.5
				c0.5-0.1,3.9-1.4,3.9-1.4v-0.8"/>
			<path class="st0" d="M244.8,67.6c-0.3,1.4-1.4,3.2-1.4,3.2l0,0.9c0,0-0.8,1.6-1.9,1.6c-1.1,0-1.7-1.1-1.7-1.1v-1.3h0.1
				c-0.8-0.7-1.4-1.9-1.7-3.2l0.5-2.2c0,0,0.6-1.9,1.1-2c0,0,3.2,3.3,4.9,2.2C244.7,65.6,245.5,66,244.8,67.6z"/>
		</g>
		<g>
			<path class="st1" d="M256.9,72.6c0.7-0.6,1.2-1.6,1.2-5.6c0-3.6,0.8-5.1,1.1-5.5c0.3-0.4,1.5-0.4,1.5-0.4V61c0,0,1.3-0.9,1.8-0.9
				c1.1,0,5.1-0.2,5.1,6.8c0,2.8,0.1,4.4,1.2,5.6"/>
			<path class="st4" d="M264.7,70.3v0.8c0,0,3.4,1.3,3.9,1.4c1,0.2,1.6,0.6,1.6,3.5h-14.4c0-2.9,0.6-3.3,1.6-3.5
				c0.5-0.1,3.9-1.4,3.9-1.4v-0.8"/>
			<path class="st0" d="M266.2,67.6c-0.3,1.4-1.4,3.2-1.4,3.2l0,0.9c0,0-0.8,1.6-1.9,1.6c-1.1,0-1.7-1.1-1.7-1.1v-1.3h0.1
				c-0.8-0.7-1.4-1.9-1.7-3.2l0.5-2.2c0,0,0.6-1.9,1.1-2c0,0,3.2,3.3,4.9,2.2C266.1,65.6,266.8,66,266.2,67.6z"/>
		</g>
	</g>
</g>
<g>
	<text transform="matrix(1 0 0 1 326.1062 45.6608)"><tspan x="0" y="0" class="st1 st2 st3">Payroll for </tspan><tspan x="-4.5" y="7.2" class="st1 st2 st3">pay period #N</tspan></text>
	<g>
		<g>
			<path class="st1" d="M313.4,72.6c0.7-0.6,1.2-1.6,1.2-5.6c0-3.6,0.8-5.1,1.1-5.5c0.3-0.4,1.5-0.4,1.5-0.4V61c0,0,1.3-0.9,1.8-0.9
				c1.1,0,5.1-0.2,5.1,6.8c0,2.8,0.1,4.4,1.2,5.6"/>
			<path class="st4" d="M321.2,70.3v0.8c0,0,3.4,1.3,3.9,1.4c1,0.2,1.6,0.6,1.6,3.5h-14.4c0-2.9,0.6-3.3,1.6-3.5
				c0.5-0.1,3.9-1.4,3.9-1.4v-0.8"/>
			<path class="st0" d="M322.7,67.6c-0.3,1.4-1.4,3.2-1.4,3.2l0,0.9c0,0-0.8,1.6-1.9,1.6c-1.1,0-1.7-1.1-1.7-1.1v-1.3h0.1
				c-0.8-0.7-1.4-1.9-1.7-3.2l0.5-2.2c0,0,0.6-1.9,1.1-2c0,0,3.2,3.3,4.9,2.2C322.6,65.6,323.4,66,322.7,67.6z"/>
		</g>
		<g>
			<path class="st1" d="M334.7,72.6c0.7-0.6,1.2-1.6,1.2-5.6c0-3.6,0.8-5.1,1.1-5.5c0.3-0.4,1.5-0.4,1.5-0.4V61c0,0,1.3-0.9,1.8-0.9
				c1.1,0,5.1-0.2,5.1,6.8c0,2.8,0.1,4.4,1.2,5.6"/>
			<path class="st4" d="M342.6,70.3v0.8c0,0,3.4,1.3,3.9,1.4c1,0.2,1.6,0.6,1.6,3.5h-14.4c0-2.9,0.6-3.3,1.6-3.5
				c0.5-0.1,3.9-1.4,3.9-1.4v-0.8"/>
			<path class="st0" d="M344,67.6c-0.3,1.4-1.4,3.2-1.4,3.2l0,0.9c0,0-0.8,1.6-1.9,1.6c-1.1,0-1.7-1.1-1.7-1.1v-1.3h0.1
				c-0.8-0.7-1.4-1.9-1.7-3.2l0.5-2.2c0,0,0.6-1.9,1.1-2c0,0,3.2,3.3,4.9,2.2C343.9,65.6,344.7,66,344,67.6z"/>
		</g>
		<g>
			<path class="st1" d="M356.1,72.6c0.7-0.6,1.2-1.6,1.2-5.6c0-3.6,0.8-5.1,1.1-5.5c0.3-0.4,1.5-0.4,1.5-0.4V61c0,0,1.3-0.9,1.8-0.9
				c1.1,0,5.1-0.2,5.1,6.8c0,2.8,0.1,4.4,1.2,5.6"/>
			<path class="st4" d="M363.9,70.3v0.8c0,0,3.4,1.3,3.9,1.4c1,0.2,1.6,0.6,1.6,3.5h-14.4c0-2.9,0.6-3.3,1.6-3.5
				c0.5-0.1,3.9-1.4,3.9-1.4v-0.8"/>
			<path class="st0" d="M365.3,67.6c-0.3,1.4-1.4,3.2-1.4,3.2l0,0.9c0,0-0.8,1.6-1.9,1.6c-1.1,0-1.7-1.1-1.7-1.1v-1.3h0.1
				c-0.8-0.7-1.4-1.9-1.7-3.2l0.5-2.2c0,0,0.6-1.9,1.1-2c0,0,3.2,3.3,4.9,2.2C365.2,65.6,366,66,365.3,67.6z"/>
		</g>
	</g>
</g>
<path class="st0" d="M245.4,30.6c-0.5-0.6-1.4-0.6-2-0.1l-1.9,1.7v-14c0-0.8-0.6-1.4-1.4-1.4s-1.4,0.6-1.4,1.4v14l-1.9-1.7
	c-0.6-0.5-1.5-0.5-2,0.1s-0.5,1.5,0.1,2l4.3,3.8c0.1,0,0.1,0.1,0.2,0.1c0.1,0,0.2,0.1,0.3,0.1c0,0.1,0.1,0.1,0.2,0.1
	c0.1,0,0.2,0,0.3,0c0,0,0.1,0,0.2,0c0.1,0,0.2-0.1,0.3-0.1c0,0,0.1,0,0.2-0.1c0.1,0,0.1-0.1,0.2-0.1l4.3-3.8
	C246,32.1,246.1,31.2,245.4,30.6z"/>
<g>
	<rect x="311.4" y="16.4" class="st0" width="3.1" height="3.3"/>
	<rect x="305.6" y="16.4" class="st0" width="3.1" height="3.3"/>
	<rect x="299.8" y="16.4" class="st0" width="3.1" height="3.3"/>
	<rect x="294" y="16.4" class="st0" width="3.1" height="3.3"/>
	<rect x="288.3" y="16.4" class="st0" width="3.1" height="3.3"/>
	<rect x="340.2" y="16.4" class="st0" width="3" height="3.3"/>
	<rect x="33.4" y="16.4" class="st0" width="252.1" height="3.3"/>
	<rect x="317.1" y="16.4" class="st0" width="3.1" height="3.3"/>
	<rect x="334.4" y="16.4" class="st0" width="3.1" height="3.3"/>
	<rect x="322.9" y="16.4" class="st0" width="3.1" height="3.3"/>
	<rect x="328.7" y="16.4" class="st0" width="3.1" height="3.3"/>
</g>
<rect x="348.6" y="20.1" class="st5" width="4.5" height="2.2"/>
<g>
	<rect x="340.3" y="21.8" class="st0" width="2.8" height="2.2"/>
	<path class="st0" d="M347,30.6c-0.5-0.6-1.4-0.6-2-0.1l-1.9,1.7v-6h-2.8v6l-1.9-1.7c-0.6-0.5-1.5-0.5-2,0.1c-0.5,0.6-0.5,1.5,0.1,2
		l4.3,3.8c0.1,0,0.1,0.1,0.2,0.1c0.1,0,0.2,0.1,0.3,0.1c0,0.1,0.1,0.1,0.2,0.1c0.1,0,0.2,0,0.3,0c0,0,0.1,0,0.2,0
		c0.1,0,0.2-0.1,0.3-0.1c0,0,0.1,0,0.2-0.1c0.1,0,0.1-0.1,0.2-0.1l4.3-3.8C347.6,32.1,347.7,31.2,347,30.6z"/>
</g>
<g>
	<g>
		<g>
			<g>
				<g>
					<g>
						<rect y="11.1" class="st6" width="48.1" height="65.3"/>
					</g>
				</g>
			</g>
			<g>
				<g>
					<g>
						<rect x="18" y="59.4" class="st1" width="12.4" height="16.8"/>
					</g>
				</g>
			</g>
			<g>
				<g>
					<g>
						<g>
							<rect x="8.5" y="18.6" class="st1" width="30.9" height="5"/>
						</g>
					</g>
				</g>
				<g>
					<g>
						<g>
							<rect x="8.5" y="27.9" class="st1" width="30.9" height="5"/>
						</g>
					</g>
				</g>
				<g>
					<g>
						<g>
							<rect x="8.5" y="37" class="st1" width="30.9" height="5"/>
						</g>
					</g>
				</g>
				<g>
					<g>
						<g>
							<rect x="8.5" y="46.2" class="st1" width="30.9" height="5"/>
						</g>
					</g>
				</g>
			</g>
		</g>
		<g>
			<g>
				<g>
					<rect x="47.9" y="28.5" class="st1" width="31.7" height="47.9"/>
				</g>
			</g>
		</g>
		<g>
			<g>
				<g>
					<g>
						<g>
							<rect x="52" y="32.5" class="st6" width="9.7" height="9.7"/>
						</g>
					</g>
				</g>
				<g>
					<g>
						<g>
							<rect x="52" y="45.3" class="st6" width="9.7" height="9.7"/>
						</g>
					</g>
				</g>
				<g>
					<g>
						<g>
							<rect x="52" y="58.2" class="st6" width="9.7" height="9.7"/>
						</g>
					</g>
				</g>
			</g>
			<g>
				<g>
					<g>
						<g>
							<rect x="65.9" y="32.5" class="st6" width="9.7" height="9.7"/>
						</g>
					</g>
				</g>
				<g>
					<g>
						<g>
							<rect x="65.9" y="45.3" class="st6" width="9.7" height="9.7"/>
						</g>
					</g>
				</g>
				<g>
					<g>
						<g>
							<rect x="65.9" y="58.2" class="st6" width="9.7" height="9.7"/>
						</g>
					</g>
				</g>
			</g>
		</g>
	</g>
</g>
<text transform="matrix(1 0 0 1 26.7646 6.5933)" class="st1 st2 st3">Company</text>
</svg>
