<?xml version="1.0" encoding="utf-8"?>
<!-- Generator: Adobe Illustrator 19.2.1, SVG Export Plug-In . SVG Version: 6.00 Build 0)  -->
<svg version="1.1" id="Layer_1" xmlns="http://www.w3.org/2000/svg" xmlns:xlink="http://www.w3.org/1999/xlink" x="0px" y="0px"
	 viewBox="0 0 369.3 90" style="enable-background:new 0 0 369.3 90;" xml:space="preserve">
<style type="text/css">
	.st0{fill:#FFC949;}
	.st1{enable-background:new    ;}
	.st2{fill:#3171AE;}
	.st3{fill:#91E5D5;}
	.st4{fill:#FFFFFF;}
	.st5{fill:#6DABDD;}
</style>
<path class="st0" d="M150.7,28c-0.4-0.4-1-0.4-1.5-0.1l-1.4,1.3V18.8c0-0.6-0.4-1-1-1s-1,0.4-1,1v10.3l-1.4-1.3
	c-0.4-0.4-1.1-0.4-1.5,0.1c-0.4,0.4-0.4,1.1,0.1,1.5l3.2,2.8c0.1,0,0.1,0.1,0.1,0.1s0.1,0.1,0.2,0.1c0,0.1,0.1,0.1,0.1,0.1
	c0.1,0,0.1,0,0.2,0c0,0,0.1,0,0.1,0c0.1,0,0.1-0.1,0.2-0.1c0,0,0.1,0,0.1-0.1c0.1,0,0.1-0.1,0.1-0.1l3.2-2.8
	C151.1,29.1,151.2,28.4,150.7,28z"/>
<g class="st1">
	<path class="st2" d="M133.8,45.7v-4h1.9c0.9,0,1.3,0.6,1.3,1.3c0,0.7-0.5,1.3-1.3,1.3h-1v1.4H133.8z M136.2,42.9
		c0-0.3-0.3-0.5-0.6-0.5h-0.9v1.1h0.9C135.9,43.5,136.2,43.3,136.2,42.9z"/>
	<path class="st2" d="M139.2,45.7v-0.3c-0.2,0.2-0.5,0.4-0.9,0.4c-0.5,0-1-0.3-1-1c0-0.7,0.5-0.9,1-0.9c0.4,0,0.7,0.1,0.9,0.4v-0.4
		c0-0.3-0.3-0.5-0.6-0.5c-0.3,0-0.6,0.1-0.8,0.3l-0.3-0.5c0.4-0.3,0.8-0.5,1.3-0.5c0.7,0,1.3,0.3,1.3,1.1v1.9H139.2z M139.2,45v-0.4
		c-0.1-0.2-0.4-0.3-0.6-0.3c-0.3,0-0.5,0.2-0.5,0.4c0,0.3,0.2,0.4,0.5,0.4C138.8,45.2,139.1,45.1,139.2,45z"/>
	<path class="st2" d="M140.7,46.1c0.1,0,0.2,0,0.2,0c0.2,0,0.3-0.1,0.4-0.2l0.1-0.3l-1.2-2.9h0.8l0.8,2l0.8-2h0.8l-1.4,3.4
		c-0.2,0.5-0.6,0.7-1.1,0.7c-0.1,0-0.3,0-0.4,0L140.7,46.1z"/>
	<path class="st2" d="M143.8,45.7v-2.9h0.8v0.4c0.2-0.3,0.6-0.5,0.9-0.5v0.7c-0.1,0-0.1,0-0.2,0c-0.3,0-0.6,0.1-0.7,0.3v1.9H143.8z"
		/>
	<path class="st2" d="M145.8,44.2c0-0.8,0.6-1.5,1.5-1.5c1,0,1.5,0.7,1.5,1.5s-0.6,1.5-1.5,1.5C146.3,45.7,145.8,45,145.8,44.2z
		 M148,44.2c0-0.5-0.3-0.8-0.7-0.8c-0.5,0-0.7,0.4-0.7,0.8c0,0.5,0.3,0.8,0.7,0.8C147.8,45.1,148,44.7,148,44.2z"/>
	<path class="st2" d="M149.4,45.7v-4h0.8v4H149.4z"/>
	<path class="st2" d="M150.9,45.7v-4h0.8v4H150.9z"/>
	<path class="st2" d="M154.1,45.7v-2.2h-0.5v-0.7h0.5v-0.1c0-0.7,0.4-1,1-1c0.3,0,0.6,0.1,0.8,0.3l-0.3,0.5
		c-0.1-0.1-0.2-0.1-0.3-0.1c-0.2,0-0.4,0.1-0.4,0.4v0.1h0.6v0.7h-0.6v2.2H154.1z"/>
	<path class="st2" d="M155.7,44.2c0-0.8,0.6-1.5,1.5-1.5c1,0,1.5,0.7,1.5,1.5s-0.6,1.5-1.5,1.5C156.3,45.7,155.7,45,155.7,44.2z
		 M158,44.2c0-0.5-0.3-0.8-0.7-0.8c-0.5,0-0.7,0.4-0.7,0.8c0,0.5,0.3,0.8,0.7,0.8C157.8,45.1,158,44.7,158,44.2z"/>
	<path class="st2" d="M159.4,45.7v-2.9h0.8v0.4c0.2-0.3,0.6-0.5,0.9-0.5v0.7c-0.1,0-0.1,0-0.2,0c-0.3,0-0.6,0.1-0.7,0.3v1.9H159.4z"
		/>
</g>
<g class="st1">
	<path class="st2" d="M131,52.5V54h-0.8v-4h0.8v0.4c0.2-0.3,0.5-0.4,0.9-0.4c0.7,0,1.3,0.6,1.3,1.5s-0.5,1.5-1.3,1.5
		C131.5,52.9,131.2,52.8,131,52.5z M132.4,51.4c0-0.5-0.3-0.8-0.7-0.8c-0.2,0-0.5,0.1-0.7,0.3v1c0.1,0.2,0.4,0.3,0.7,0.3
		C132.1,52.3,132.4,51.9,132.4,51.4z"/>
	<path class="st2" d="M135.5,52.9v-0.3c-0.2,0.2-0.5,0.4-0.9,0.4c-0.5,0-1-0.3-1-1c0-0.7,0.5-0.9,1-0.9c0.4,0,0.7,0.1,0.9,0.4V51
		c0-0.3-0.3-0.5-0.6-0.5c-0.3,0-0.6,0.1-0.8,0.3l-0.3-0.5c0.4-0.3,0.8-0.5,1.3-0.5c0.7,0,1.3,0.3,1.3,1.1v1.9H135.5z M135.5,52.2
		v-0.4c-0.1-0.2-0.4-0.3-0.6-0.3c-0.3,0-0.5,0.2-0.5,0.4c0,0.3,0.2,0.4,0.5,0.4C135.1,52.4,135.3,52.3,135.5,52.2z"/>
	<path class="st2" d="M137,53.3c0.1,0,0.2,0,0.2,0c0.2,0,0.3-0.1,0.4-0.2l0.1-0.3l-1.2-2.9h0.8l0.8,2l0.8-2h0.8l-1.4,3.4
		c-0.2,0.5-0.6,0.7-1.1,0.7c-0.1,0-0.3,0-0.4,0L137,53.3z"/>
	<path class="st2" d="M142.4,52.5V54h-0.8v-4h0.8v0.4c0.2-0.3,0.5-0.4,0.9-0.4c0.7,0,1.3,0.6,1.3,1.5s-0.5,1.5-1.3,1.5
		C142.9,52.9,142.6,52.8,142.4,52.5z M143.7,51.4c0-0.5-0.3-0.8-0.7-0.8c-0.2,0-0.5,0.1-0.7,0.3v1c0.1,0.2,0.4,0.3,0.7,0.3
		C143.4,52.3,143.7,51.9,143.7,51.4z"/>
	<path class="st2" d="M144.9,51.4c0-0.8,0.6-1.5,1.5-1.5c0.9,0,1.5,0.6,1.5,1.6v0.2h-2.2c0.1,0.4,0.3,0.6,0.8,0.6
		c0.2,0,0.6-0.1,0.8-0.3l0.3,0.5c-0.3,0.3-0.7,0.4-1.2,0.4C145.6,52.9,144.9,52.3,144.9,51.4z M146.4,50.5c-0.5,0-0.7,0.3-0.7,0.6
		h1.4C147.1,50.9,146.9,50.5,146.4,50.5z"/>
	<path class="st2" d="M148.4,52.9V50h0.8v0.4c0.2-0.3,0.6-0.5,0.9-0.5v0.7c-0.1,0-0.1,0-0.2,0c-0.3,0-0.6,0.1-0.7,0.3v1.9H148.4z"/>
	<path class="st2" d="M150.5,49.2c0-0.3,0.2-0.4,0.4-0.4c0.3,0,0.5,0.2,0.5,0.4s-0.2,0.5-0.5,0.5C150.7,49.7,150.5,49.4,150.5,49.2z
		 M150.6,52.9V50h0.8v2.9H150.6z"/>
	<path class="st2" d="M151.9,51.4c0-0.8,0.6-1.5,1.5-1.5c1,0,1.5,0.7,1.5,1.5s-0.6,1.5-1.5,1.5C152.5,52.9,151.9,52.2,151.9,51.4z
		 M154.2,51.4c0-0.5-0.3-0.8-0.7-0.8c-0.5,0-0.7,0.4-0.7,0.8c0,0.5,0.3,0.8,0.7,0.8C153.9,52.3,154.2,51.9,154.2,51.4z"/>
	<path class="st2" d="M157.5,52.9v-0.4c-0.2,0.3-0.5,0.4-0.9,0.4c-0.7,0-1.3-0.6-1.3-1.5c0-0.9,0.5-1.5,1.3-1.5
		c0.3,0,0.7,0.1,0.9,0.4v-1.5h0.8v4H157.5z M157.5,51.9v-1c-0.1-0.2-0.4-0.3-0.7-0.3c-0.4,0-0.7,0.3-0.7,0.8c0,0.5,0.3,0.8,0.7,0.8
		C157.1,52.3,157.4,52.1,157.5,51.9z"/>
	<path class="st2" d="M161.7,52.9l0.3-1h-0.6l-0.3,1h-0.6l0.3-1h-0.6l0.2-0.5h0.6l0.3-1h-0.6l0.1-0.5h0.6l0.3-1h0.6l-0.3,1h0.6
		l0.3-1h0.6l-0.3,1h0.6l-0.1,0.5h-0.6l-0.3,1h0.6l-0.1,0.5h-0.6l-0.3,1H161.7z M162.5,50.4h-0.6l-0.3,1h0.6L162.5,50.4z"/>
	<path class="st2" d="M165.1,52.9V50l-0.7,0.7l-0.5-0.5l1.3-1.3h0.7v4H165.1z"/>
</g>
<g>
	<g>
		<path class="st2" d="M120.7,72.6c0.7-0.6,1.2-1.6,1.2-5.6c0-3.6,0.8-5.1,1.1-5.5c0.3-0.4,1.5-0.4,1.5-0.4V61c0,0,1.3-0.9,1.8-0.9
			c1.1,0,5.1-0.2,5.1,6.8c0,2.8,0.1,4.4,1.2,5.6"/>
		<path class="st3" d="M128.6,70.3v0.8c0,0,3.4,1.3,3.9,1.4c1,0.2,1.6,0.6,1.6,3.5h-14.4c0-2.9,0.6-3.3,1.6-3.5
			c0.5-0.1,3.9-1.4,3.9-1.4v-0.8"/>
		<path class="st0" d="M130,67.6c-0.3,1.4-1.4,3.2-1.4,3.2v0.9c0,0-0.8,1.6-1.9,1.6s-1.7-1.1-1.7-1.1v-1.3h0.1
			c-0.8-0.7-1.4-1.9-1.7-3.2l0.5-2.2c0,0,0.6-1.9,1.1-2c0,0,3.2,3.3,4.9,2.2C129.9,65.6,130.7,66,130,67.6z"/>
	</g>
	<g>
		<path class="st2" d="M142.1,72.6c0.7-0.6,1.2-1.6,1.2-5.6c0-3.6,0.8-5.1,1.1-5.5s1.5-0.4,1.5-0.4V61c0,0,1.3-0.9,1.8-0.9
			c1.1,0,5.1-0.2,5.1,6.8c0,2.8,0.1,4.4,1.2,5.6"/>
		<path class="st3" d="M149.9,70.3v0.8c0,0,3.4,1.3,3.9,1.4c1,0.2,1.6,0.6,1.6,3.5H141c0-2.9,0.6-3.3,1.6-3.5
			c0.5-0.1,3.9-1.4,3.9-1.4v-0.8"/>
		<path class="st0" d="M151.3,67.6c-0.3,1.4-1.4,3.2-1.4,3.2v0.9c0,0-0.8,1.6-1.9,1.6c-1.1,0-1.7-1.1-1.7-1.1v-1.3h0.1
			c-0.8-0.7-1.4-1.9-1.7-3.2l0.5-2.2c0,0,0.6-1.9,1.1-2c0,0,3.2,3.3,4.9,2.2C151.2,65.6,152,66,151.3,67.6z"/>
	</g>
	<g>
		<path class="st2" d="M163.4,72.6c0.7-0.6,1.2-1.6,1.2-5.6c0-3.6,0.8-5.1,1.1-5.5s1.5-0.4,1.5-0.4V61c0,0,1.3-0.9,1.8-0.9
			c1.1,0,5.1-0.2,5.1,6.8c0,2.8,0.1,4.4,1.2,5.6"/>
		<path class="st3" d="M171.2,70.3v0.8c0,0,3.4,1.3,3.9,1.4c1,0.2,1.6,0.6,1.6,3.5h-14.4c0-2.9,0.6-3.3,1.6-3.5
			c0.5-0.1,3.9-1.4,3.9-1.4v-0.8"/>
		<path class="st0" d="M172.7,67.6c-0.3,1.4-1.4,3.2-1.4,3.2v0.9c0,0-0.8,1.6-1.9,1.6c-1.1,0-1.7-1.1-1.7-1.1v-1.3h0.1
			c-0.8-0.7-1.4-1.9-1.7-3.2l0.5-2.2c0,0,0.6-1.9,1.1-2c0,0,3.2,3.3,4.9,2.2C172.6,65.6,173.4,66,172.7,67.6z"/>
	</g>
</g>
<g>
	<g class="st1">
		<path class="st2" d="M227.3,45.7v-4h1.9c0.9,0,1.3,0.6,1.3,1.3c0,0.7-0.5,1.3-1.3,1.3h-1v1.4H227.3z M229.7,42.9
			c0-0.3-0.3-0.5-0.6-0.5h-0.9v1.1h0.9C229.4,43.5,229.7,43.3,229.7,42.9z"/>
		<path class="st2" d="M232.7,45.7v-0.3c-0.2,0.2-0.5,0.4-0.9,0.4c-0.5,0-1-0.3-1-1c0-0.7,0.5-0.9,1-0.9c0.4,0,0.7,0.1,0.9,0.4v-0.4
			c0-0.3-0.3-0.5-0.6-0.5c-0.3,0-0.6,0.1-0.8,0.3l-0.3-0.5c0.4-0.3,0.8-0.5,1.3-0.5c0.7,0,1.3,0.3,1.3,1.1v1.9H232.7z M232.7,45
			v-0.4c-0.1-0.2-0.4-0.3-0.6-0.3c-0.3,0-0.5,0.2-0.5,0.4c0,0.3,0.2,0.4,0.5,0.4C232.3,45.2,232.5,45.1,232.7,45z"/>
		<path class="st2" d="M234.2,46.1c0.1,0,0.2,0,0.2,0c0.2,0,0.3-0.1,0.4-0.2l0.1-0.3l-1.2-2.9h0.8l0.8,2l0.8-2h0.8l-1.4,3.4
			c-0.2,0.5-0.6,0.7-1.1,0.7c-0.1,0-0.3,0-0.4,0L234.2,46.1z"/>
		<path class="st2" d="M237.3,45.7v-2.9h0.8v0.4c0.2-0.3,0.6-0.5,0.9-0.5v0.7c-0.1,0-0.1,0-0.2,0c-0.3,0-0.6,0.1-0.7,0.3v1.9H237.3z
			"/>
		<path class="st2" d="M239.2,44.2c0-0.8,0.6-1.5,1.5-1.5c1,0,1.5,0.7,1.5,1.5s-0.6,1.5-1.5,1.5C239.8,45.7,239.2,45,239.2,44.2z
			 M241.5,44.2c0-0.5-0.3-0.8-0.7-0.8c-0.5,0-0.7,0.4-0.7,0.8c0,0.5,0.3,0.8,0.7,0.8C241.3,45.1,241.5,44.7,241.5,44.2z"/>
		<path class="st2" d="M242.9,45.7v-4h0.8v4H242.9z"/>
		<path class="st2" d="M244.4,45.7v-4h0.8v4H244.4z"/>
		<path class="st2" d="M247.6,45.7v-2.2h-0.5v-0.7h0.5v-0.1c0-0.7,0.4-1,1-1c0.3,0,0.6,0.1,0.8,0.3l-0.3,0.5
			c-0.1-0.1-0.2-0.1-0.3-0.1c-0.2,0-0.4,0.1-0.4,0.4v0.1h0.6v0.7h-0.6v2.2H247.6z"/>
		<path class="st2" d="M249.2,44.2c0-0.8,0.6-1.5,1.5-1.5c1,0,1.5,0.7,1.5,1.5s-0.6,1.5-1.5,1.5C249.8,45.7,249.2,45,249.2,44.2z
			 M251.5,44.2c0-0.5-0.3-0.8-0.7-0.8c-0.5,0-0.7,0.4-0.7,0.8c0,0.5,0.3,0.8,0.7,0.8C251.2,45.1,251.5,44.7,251.5,44.2z"/>
		<path class="st2" d="M252.9,45.7v-2.9h0.8v0.4c0.2-0.3,0.6-0.5,0.9-0.5v0.7c-0.1,0-0.1,0-0.2,0c-0.3,0-0.6,0.1-0.7,0.3v1.9H252.9z
			"/>
	</g>
	<g class="st1">
		<path class="st2" d="M224,52.5V54h-0.8v-4h0.8v0.4c0.2-0.3,0.5-0.4,0.9-0.4c0.7,0,1.3,0.6,1.3,1.5s-0.5,1.5-1.3,1.5
			C224.5,52.9,224.2,52.8,224,52.5z M225.4,51.4c0-0.5-0.3-0.8-0.7-0.8c-0.2,0-0.5,0.1-0.7,0.3v1c0.1,0.2,0.4,0.3,0.7,0.3
			C225.1,52.3,225.4,51.9,225.4,51.4z"/>
		<path class="st2" d="M228.4,52.9v-0.3c-0.2,0.2-0.5,0.4-0.9,0.4c-0.5,0-1-0.3-1-1c0-0.7,0.5-0.9,1-0.9c0.4,0,0.7,0.1,0.9,0.4V51
			c0-0.3-0.3-0.5-0.6-0.5c-0.3,0-0.6,0.1-0.8,0.3l-0.3-0.5c0.4-0.3,0.8-0.5,1.3-0.5c0.7,0,1.3,0.3,1.3,1.1v1.9H228.4z M228.4,52.2
			v-0.4c-0.1-0.2-0.4-0.3-0.6-0.3c-0.3,0-0.5,0.2-0.5,0.4c0,0.3,0.2,0.4,0.5,0.4C228.1,52.4,228.3,52.3,228.4,52.2z"/>
		<path class="st2" d="M230,53.3c0.1,0,0.2,0,0.2,0c0.2,0,0.3-0.1,0.4-0.2l0.1-0.3l-1.2-2.9h0.8l0.8,2l0.8-2h0.8l-1.4,3.4
			c-0.2,0.5-0.6,0.7-1.1,0.7c-0.1,0-0.3,0-0.4,0L230,53.3z"/>
		<path class="st2" d="M235.3,52.5V54h-0.8v-4h0.8v0.4c0.2-0.3,0.5-0.4,0.9-0.4c0.7,0,1.3,0.6,1.3,1.5s-0.5,1.5-1.3,1.5
			C235.9,52.9,235.6,52.8,235.3,52.5z M236.7,51.4c0-0.5-0.3-0.8-0.7-0.8c-0.2,0-0.5,0.1-0.7,0.3v1c0.1,0.2,0.4,0.3,0.7,0.3
			C236.4,52.3,236.7,51.9,236.7,51.4z"/>
		<path class="st2" d="M237.9,51.4c0-0.8,0.6-1.5,1.5-1.5c0.9,0,1.5,0.6,1.5,1.6v0.2h-2.2c0.1,0.4,0.3,0.6,0.8,0.6
			c0.2,0,0.6-0.1,0.8-0.3l0.3,0.5c-0.3,0.3-0.7,0.4-1.2,0.4C238.6,52.9,237.9,52.3,237.9,51.4z M239.4,50.5c-0.5,0-0.7,0.3-0.7,0.6
			h1.4C240.1,50.9,239.9,50.5,239.4,50.5z"/>
		<path class="st2" d="M241.4,52.9V50h0.8v0.4c0.2-0.3,0.6-0.5,0.9-0.5v0.7c-0.1,0-0.1,0-0.2,0c-0.3,0-0.6,0.1-0.7,0.3v1.9H241.4z"
			/>
		<path class="st2" d="M243.5,49.2c0-0.3,0.2-0.4,0.5-0.4c0.3,0,0.5,0.2,0.5,0.4s-0.2,0.5-0.5,0.5C243.7,49.7,243.5,49.4,243.5,49.2
			z M243.6,52.9V50h0.8v2.9H243.6z"/>
		<path class="st2" d="M244.9,51.4c0-0.8,0.6-1.5,1.5-1.5c1,0,1.5,0.7,1.5,1.5s-0.6,1.5-1.5,1.5C245.5,52.9,244.9,52.2,244.9,51.4z
			 M247.2,51.4c0-0.5-0.3-0.8-0.7-0.8c-0.5,0-0.7,0.4-0.7,0.8c0,0.5,0.3,0.8,0.7,0.8C246.9,52.3,247.2,51.9,247.2,51.4z"/>
		<path class="st2" d="M250.5,52.9v-0.4c-0.2,0.3-0.5,0.4-0.9,0.4c-0.7,0-1.3-0.6-1.3-1.5c0-0.9,0.5-1.5,1.3-1.5
			c0.3,0,0.7,0.1,0.9,0.4v-1.5h0.8v4H250.5z M250.5,51.9v-1c-0.1-0.2-0.4-0.3-0.7-0.3c-0.4,0-0.7,0.3-0.7,0.8c0,0.5,0.3,0.8,0.7,0.8
			C250.1,52.3,250.4,52.1,250.5,51.9z"/>
		<path class="st2" d="M254.7,52.9l0.3-1h-0.6l-0.3,1h-0.6l0.3-1h-0.6l0.2-0.5h0.6l0.3-1h-0.6l0.2-0.5h0.6l0.3-1h0.6l-0.3,1h0.6
			l0.3-1h0.6l-0.3,1h0.6l-0.1,0.5h-0.6l-0.3,1h0.6l-0.2,0.5h-0.6l-0.3,1H254.7z M255.5,50.4h-0.6l-0.3,1h0.6L255.5,50.4z"/>
		<path class="st2" d="M257.2,52.9v-0.7c1.6-1.2,2.1-1.6,2.1-2.1c0-0.4-0.3-0.5-0.6-0.5c-0.5,0-0.8,0.2-1.1,0.5l-0.5-0.6
			c0.4-0.4,1-0.7,1.5-0.7c0.9,0,1.5,0.5,1.5,1.3c0,0.7-0.6,1.3-1.6,2h1.6v0.8H257.2z"/>
	</g>
	<g>
		<g>
			<path class="st2" d="M214.2,72.6c0.7-0.6,1.2-1.6,1.2-5.6c0-3.6,0.8-5.1,1.1-5.5s1.5-0.4,1.5-0.4V61c0,0,1.3-0.9,1.8-0.9
				c1.1,0,5.1-0.2,5.1,6.8c0,2.8,0.1,4.4,1.2,5.6"/>
			<path class="st3" d="M222,70.3v0.8c0,0,3.4,1.3,3.9,1.4c1,0.2,1.6,0.6,1.6,3.5h-14.4c0-2.9,0.6-3.3,1.6-3.5
				c0.5-0.1,3.9-1.4,3.9-1.4v-0.8"/>
			<path class="st0" d="M223.5,67.6c-0.3,1.4-1.4,3.2-1.4,3.2v0.9c0,0-0.8,1.6-1.9,1.6c-1.1,0-1.7-1.1-1.7-1.1v-1.3h0.1
				c-0.8-0.7-1.4-1.9-1.7-3.2l0.5-2.2c0,0,0.6-1.9,1.1-2c0,0,3.2,3.3,4.9,2.2C223.4,65.6,224.2,66,223.5,67.6z"/>
		</g>
		<g>
			<path class="st2" d="M235.6,72.6c0.7-0.6,1.2-1.6,1.2-5.6c0-3.6,0.8-5.1,1.1-5.5s1.5-0.4,1.5-0.4V61c0,0,1.3-0.9,1.8-0.9
				c1.1,0,5.1-0.2,5.1,6.8c0,2.8,0.1,4.4,1.2,5.6"/>
			<path class="st3" d="M243.4,70.3v0.8c0,0,3.4,1.3,3.9,1.4c1,0.2,1.6,0.6,1.6,3.5h-14.4c0-2.9,0.6-3.3,1.6-3.5
				c0.5-0.1,3.9-1.4,3.9-1.4v-0.8"/>
			<path class="st0" d="M244.8,67.6c-0.3,1.4-1.4,3.2-1.4,3.2v0.9c0,0-0.8,1.6-1.9,1.6c-1.1,0-1.7-1.1-1.7-1.1v-1.3h0.1
				c-0.8-0.7-1.4-1.9-1.7-3.2l0.5-2.2c0,0,0.6-1.9,1.1-2c0,0,3.2,3.3,4.9,2.2C244.7,65.6,245.5,66,244.8,67.6z"/>
		</g>
		<g>
			<path class="st2" d="M256.9,72.6c0.7-0.6,1.2-1.6,1.2-5.6c0-3.6,0.8-5.1,1.1-5.5c0.3-0.4,1.5-0.4,1.5-0.4V61c0,0,1.3-0.9,1.8-0.9
				c1.1,0,5.1-0.2,5.1,6.8c0,2.8,0.1,4.4,1.2,5.6"/>
			<path class="st3" d="M264.7,70.3v0.8c0,0,3.4,1.3,3.9,1.4c1,0.2,1.6,0.6,1.6,3.5h-14.4c0-2.9,0.6-3.3,1.6-3.5
				c0.5-0.1,3.9-1.4,3.9-1.4v-0.8"/>
			<path class="st0" d="M266.2,67.6c-0.3,1.4-1.4,3.2-1.4,3.2v0.9c0,0-0.8,1.6-1.9,1.6s-1.7-1.1-1.7-1.1v-1.3h0.1
				c-0.8-0.7-1.4-1.9-1.7-3.2l0.5-2.2c0,0,0.6-1.9,1.1-2c0,0,3.2,3.3,4.9,2.2C266.1,65.6,266.8,66,266.2,67.6z"/>
		</g>
	</g>
</g>
<g>
	<g class="st1">
		<path class="st2" d="M326.5,45.7v-4h1.9c0.9,0,1.3,0.6,1.3,1.3c0,0.7-0.5,1.3-1.3,1.3h-1v1.4H326.5z M328.8,42.9
			c0-0.3-0.3-0.5-0.6-0.5h-0.9v1.1h0.9C328.6,43.5,328.8,43.3,328.8,42.9z"/>
		<path class="st2" d="M331.9,45.7v-0.3c-0.2,0.2-0.5,0.4-0.9,0.4c-0.5,0-1-0.3-1-1c0-0.7,0.5-0.9,1-0.9c0.4,0,0.7,0.1,0.9,0.4v-0.4
			c0-0.3-0.3-0.5-0.6-0.5c-0.3,0-0.6,0.1-0.8,0.3l-0.3-0.5c0.4-0.3,0.8-0.5,1.3-0.5c0.7,0,1.3,0.3,1.3,1.1v1.9H331.9z M331.9,45
			v-0.4c-0.1-0.2-0.4-0.3-0.6-0.3c-0.3,0-0.5,0.2-0.5,0.4c0,0.3,0.2,0.4,0.5,0.4C331.5,45.2,331.7,45.1,331.9,45z"/>
		<path class="st2" d="M333.4,46.1c0.1,0,0.2,0,0.2,0c0.2,0,0.3-0.1,0.4-0.2l0.1-0.3l-1.2-2.9h0.8l0.8,2l0.8-2h0.8l-1.4,3.4
			c-0.2,0.5-0.6,0.7-1.1,0.7c-0.1,0-0.3,0-0.4,0L333.4,46.1z"/>
		<path class="st2" d="M336.5,45.7v-2.9h0.8v0.4c0.2-0.3,0.6-0.5,0.9-0.5v0.7c-0.1,0-0.1,0-0.2,0c-0.3,0-0.6,0.1-0.7,0.3v1.9H336.5z
			"/>
		<path class="st2" d="M338.4,44.2c0-0.8,0.6-1.5,1.5-1.5c1,0,1.5,0.7,1.5,1.5s-0.6,1.5-1.5,1.5C339,45.7,338.4,45,338.4,44.2z
			 M340.7,44.2c0-0.5-0.3-0.8-0.7-0.8c-0.5,0-0.7,0.4-0.7,0.8c0,0.5,0.3,0.8,0.7,0.8C340.4,45.1,340.7,44.7,340.7,44.2z"/>
		<path class="st2" d="M342.1,45.7v-4h0.8v4H342.1z"/>
		<path class="st2" d="M343.6,45.7v-4h0.8v4H343.6z"/>
		<path class="st2" d="M346.8,45.7v-2.2h-0.5v-0.7h0.5v-0.1c0-0.7,0.4-1,1-1c0.3,0,0.6,0.1,0.8,0.3l-0.3,0.5
			c-0.1-0.1-0.2-0.1-0.3-0.1c-0.2,0-0.4,0.1-0.4,0.4v0.1h0.6v0.7h-0.6v2.2H346.8z"/>
		<path class="st2" d="M348.4,44.2c0-0.8,0.6-1.5,1.5-1.5c1,0,1.5,0.7,1.5,1.5s-0.6,1.5-1.5,1.5C349,45.7,348.4,45,348.4,44.2z
			 M350.7,44.2c0-0.5-0.3-0.8-0.7-0.8c-0.5,0-0.7,0.4-0.7,0.8c0,0.5,0.3,0.8,0.7,0.8C350.4,45.1,350.7,44.7,350.7,44.2z"/>
		<path class="st2" d="M352,45.7v-2.9h0.8v0.4c0.2-0.3,0.6-0.5,0.9-0.5v0.7c-0.1,0-0.1,0-0.2,0c-0.3,0-0.6,0.1-0.7,0.3v1.9H352z"/>
	</g>
	<g class="st1">
		<path class="st2" d="M322.7,52.5V54H322v-4h0.8v0.4c0.2-0.3,0.5-0.4,0.9-0.4c0.7,0,1.3,0.6,1.3,1.5s-0.5,1.5-1.3,1.5
			C323.3,52.9,323,52.8,322.7,52.5z M324.1,51.4c0-0.5-0.3-0.8-0.7-0.8c-0.2,0-0.5,0.1-0.7,0.3v1c0.1,0.2,0.4,0.3,0.7,0.3
			C323.8,52.3,324.1,51.9,324.1,51.4z"/>
		<path class="st2" d="M327.2,52.9v-0.3c-0.2,0.2-0.5,0.4-0.9,0.4c-0.5,0-1-0.3-1-1c0-0.7,0.5-0.9,1-0.9c0.4,0,0.7,0.1,0.9,0.4V51
			c0-0.3-0.3-0.5-0.6-0.5c-0.3,0-0.6,0.1-0.8,0.3l-0.3-0.5c0.4-0.3,0.8-0.5,1.3-0.5c0.7,0,1.3,0.3,1.3,1.1v1.9H327.2z M327.2,52.2
			v-0.4c-0.1-0.2-0.4-0.3-0.6-0.3c-0.3,0-0.5,0.2-0.5,0.4c0,0.3,0.2,0.4,0.5,0.4C326.9,52.4,327.1,52.3,327.2,52.2z"/>
		<path class="st2" d="M328.8,53.3c0.1,0,0.2,0,0.2,0c0.2,0,0.3-0.1,0.4-0.2l0.1-0.3l-1.2-2.9h0.8l0.8,2l0.8-2h0.8l-1.4,3.4
			c-0.2,0.5-0.6,0.7-1.1,0.7c-0.1,0-0.3,0-0.4,0L328.8,53.3z"/>
		<path class="st2" d="M334.1,52.5V54h-0.8v-4h0.8v0.4c0.2-0.3,0.5-0.4,0.9-0.4c0.7,0,1.3,0.6,1.3,1.5s-0.5,1.5-1.3,1.5
			C334.7,52.9,334.4,52.8,334.1,52.5z M335.5,51.4c0-0.5-0.3-0.8-0.7-0.8c-0.2,0-0.5,0.1-0.7,0.3v1c0.1,0.2,0.4,0.3,0.7,0.3
			C335.2,52.3,335.5,51.9,335.5,51.4z"/>
		<path class="st2" d="M336.7,51.4c0-0.8,0.6-1.5,1.5-1.5c0.9,0,1.5,0.6,1.5,1.6v0.2h-2.2c0.1,0.4,0.3,0.6,0.8,0.6
			c0.2,0,0.6-0.1,0.8-0.3l0.3,0.5c-0.3,0.3-0.7,0.4-1.2,0.4C337.3,52.9,336.7,52.3,336.7,51.4z M338.2,50.5c-0.5,0-0.7,0.3-0.7,0.6
			h1.4C338.9,50.9,338.7,50.5,338.2,50.5z"/>
		<path class="st2" d="M340.2,52.9V50h0.8v0.4c0.2-0.3,0.6-0.5,0.9-0.5v0.7c-0.1,0-0.1,0-0.2,0c-0.3,0-0.6,0.1-0.7,0.3v1.9H340.2z"
			/>
		<path class="st2" d="M342.3,49.2c0-0.3,0.2-0.4,0.4-0.4c0.3,0,0.5,0.2,0.5,0.4s-0.2,0.5-0.5,0.5C342.5,49.7,342.3,49.4,342.3,49.2
			z M342.3,52.9V50h0.8v2.9H342.3z"/>
		<path class="st2" d="M343.7,51.4c0-0.8,0.6-1.5,1.5-1.5c1,0,1.5,0.7,1.5,1.5s-0.6,1.5-1.5,1.5C344.2,52.9,343.7,52.2,343.7,51.4z
			 M345.9,51.4c0-0.5-0.3-0.8-0.7-0.8c-0.5,0-0.7,0.4-0.7,0.8c0,0.5,0.3,0.8,0.7,0.8C345.7,52.3,345.9,51.9,345.9,51.4z"/>
		<path class="st2" d="M349.3,52.9v-0.4c-0.2,0.3-0.5,0.4-0.9,0.4c-0.7,0-1.3-0.6-1.3-1.5c0-0.9,0.5-1.5,1.3-1.5
			c0.3,0,0.7,0.1,0.9,0.4v-1.5h0.8v4H349.3z M349.3,51.9v-1c-0.1-0.2-0.4-0.3-0.7-0.3c-0.4,0-0.7,0.3-0.7,0.8c0,0.5,0.3,0.8,0.7,0.8
			C348.9,52.3,349.2,52.1,349.3,51.9z"/>
		<path class="st2" d="M353.4,52.9l0.3-1h-0.6l-0.3,1h-0.6l0.3-1h-0.6l0.2-0.5h0.6l0.3-1h-0.6l0.2-0.5h0.6l0.3-1h0.6l-0.3,1h0.6
			l0.3-1h0.6l-0.3,1h0.6l-0.1,0.5h-0.6l-0.3,1h0.6l-0.2,0.5h-0.6l-0.3,1H353.4z M354.3,50.4h-0.6l-0.3,1h0.6L354.3,50.4z"/>
		<path class="st2" d="M358.8,52.9l-1.9-2.6v2.6h-0.9v-4h0.9l1.9,2.5v-2.5h0.9v4H358.8z"/>
	</g>
	<g>
		<g>
			<path class="st2" d="M313.4,72.6c0.7-0.6,1.2-1.6,1.2-5.6c0-3.6,0.8-5.1,1.1-5.5c0.3-0.4,1.5-0.4,1.5-0.4V61c0,0,1.3-0.9,1.8-0.9
				c1.1,0,5.1-0.2,5.1,6.8c0,2.8,0.1,4.4,1.2,5.6"/>
			<path class="st3" d="M321.2,70.3v0.8c0,0,3.4,1.3,3.9,1.4c1,0.2,1.6,0.6,1.6,3.5h-14.4c0-2.9,0.6-3.3,1.6-3.5
				c0.5-0.1,3.9-1.4,3.9-1.4v-0.8"/>
			<path class="st0" d="M322.7,67.6c-0.3,1.4-1.4,3.2-1.4,3.2v0.9c0,0-0.8,1.6-1.9,1.6s-1.7-1.1-1.7-1.1v-1.3h0.1
				c-0.8-0.7-1.4-1.9-1.7-3.2l0.5-2.2c0,0,0.6-1.9,1.1-2c0,0,3.2,3.3,4.9,2.2C322.6,65.6,323.4,66,322.7,67.6z"/>
		</g>
		<g>
			<path class="st2" d="M334.7,72.6c0.7-0.6,1.2-1.6,1.2-5.6c0-3.6,0.8-5.1,1.1-5.5c0.3-0.4,1.5-0.4,1.5-0.4V61c0,0,1.3-0.9,1.8-0.9
				c1.1,0,5.1-0.2,5.1,6.8c0,2.8,0.1,4.4,1.2,5.6"/>
			<path class="st3" d="M342.6,70.3v0.8c0,0,3.4,1.3,3.9,1.4c1,0.2,1.6,0.6,1.6,3.5h-14.4c0-2.9,0.6-3.3,1.6-3.5
				c0.5-0.1,3.9-1.4,3.9-1.4v-0.8"/>
			<path class="st0" d="M344,67.6c-0.3,1.4-1.4,3.2-1.4,3.2v0.9c0,0-0.8,1.6-1.9,1.6s-1.7-1.1-1.7-1.1v-1.3h0.1
				c-0.8-0.7-1.4-1.9-1.7-3.2l0.5-2.2c0,0,0.6-1.9,1.1-2c0,0,3.2,3.3,4.9,2.2C343.9,65.6,344.7,66,344,67.6z"/>
		</g>
		<g>
			<path class="st2" d="M356.1,72.6c0.7-0.6,1.2-1.6,1.2-5.6c0-3.6,0.8-5.1,1.1-5.5c0.3-0.4,1.5-0.4,1.5-0.4V61c0,0,1.3-0.9,1.8-0.9
				c1.1,0,5.1-0.2,5.1,6.8c0,2.8,0.1,4.4,1.2,5.6"/>
			<path class="st3" d="M363.9,70.3v0.8c0,0,3.4,1.3,3.9,1.4c1,0.2,1.6,0.6,1.6,3.5H355c0-2.9,0.6-3.3,1.6-3.5
				c0.5-0.1,3.9-1.4,3.9-1.4v-0.8"/>
			<path class="st0" d="M365.3,67.6c-0.3,1.4-1.4,3.2-1.4,3.2v0.9c0,0-0.8,1.6-1.9,1.6s-1.7-1.1-1.7-1.1v-1.3h0.1
				c-0.8-0.7-1.4-1.9-1.7-3.2l0.5-2.2c0,0,0.6-1.9,1.1-2c0,0,3.2,3.3,4.9,2.2C365.2,65.6,366,66,365.3,67.6z"/>
		</g>
	</g>
</g>
<g>
	<rect x="311.4" y="16.3" class="st0" width="3.1" height="2.5"/>
	<rect x="305.6" y="16.3" class="st0" width="3.1" height="2.5"/>
	<rect x="299.8" y="16.3" class="st0" width="3.1" height="2.5"/>
	<rect x="294" y="16.3" class="st0" width="3.1" height="2.5"/>
	<rect x="288.3" y="16.3" class="st0" width="3.1" height="2.5"/>
	<rect x="340.2" y="16.3" class="st0" width="3" height="2.5"/>
	<rect x="33.4" y="16.3" class="st0" width="252.1" height="2.5"/>
	<rect x="317.1" y="16.3" class="st0" width="3.1" height="2.5"/>
	<rect x="334.4" y="16.3" class="st0" width="3.1" height="2.5"/>
	<rect x="322.9" y="16.3" class="st0" width="3.1" height="2.5"/>
	<rect x="328.7" y="16.3" class="st0" width="3.1" height="2.5"/>
</g>
<rect x="348.6" y="20.1" class="st4" width="4.5" height="2.2"/>
<g>
	<rect x="341" y="21.2" class="st0" width="2.1" height="1.7"/>
	<path class="st0" d="M346.1,27.9c-0.4-0.5-1.1-0.5-1.5-0.1l-1.4,1.3v-4.6H341v4.6l-1.4-1.3c-0.5-0.4-1.1-0.4-1.5,0.1
		c-0.4,0.5-0.4,1.1,0.1,1.5l3.3,2.9c0.1,0,0.1,0.1,0.2,0.1s0.2,0.1,0.2,0.1c0,0.1,0.1,0.1,0.2,0.1s0.2,0,0.2,0c0,0,0.1,0,0.2,0
		s0.2-0.1,0.2-0.1c0,0,0.1,0,0.2-0.1c0.1,0,0.1-0.1,0.2-0.1l3.3-2.9C346.5,29,346.6,28.3,346.1,27.9z"/>
</g>
<g>
	<g>
		<g>
			<g>
				<g>
					<g>
						<rect y="11.1" class="st5" width="48.1" height="65.3"/>
					</g>
				</g>
			</g>
			<g>
				<g>
					<g>
						<rect x="18" y="59.4" class="st2" width="12.4" height="16.8"/>
					</g>
				</g>
			</g>
			<g>
				<g>
					<g>
						<g>
							<rect x="8.5" y="18.6" class="st2" width="30.9" height="5"/>
						</g>
					</g>
				</g>
				<g>
					<g>
						<g>
							<rect x="8.5" y="27.9" class="st2" width="30.9" height="5"/>
						</g>
					</g>
				</g>
				<g>
					<g>
						<g>
							<rect x="8.5" y="37" class="st2" width="30.9" height="5"/>
						</g>
					</g>
				</g>
				<g>
					<g>
						<g>
							<rect x="8.5" y="46.2" class="st2" width="30.9" height="5"/>
						</g>
					</g>
				</g>
			</g>
		</g>
		<g>
			<g>
				<g>
					<rect x="47.9" y="28.5" class="st2" width="31.7" height="47.9"/>
				</g>
			</g>
		</g>
		<g>
			<g>
				<g>
					<g>
						<g>
							<rect x="52" y="32.5" class="st5" width="9.7" height="9.7"/>
						</g>
					</g>
				</g>
				<g>
					<g>
						<g>
							<rect x="52" y="45.3" class="st5" width="9.7" height="9.7"/>
						</g>
					</g>
				</g>
				<g>
					<g>
						<g>
							<rect x="52" y="58.2" class="st5" width="9.7" height="9.7"/>
						</g>
					</g>
				</g>
			</g>
			<g>
				<g>
					<g>
						<g>
							<rect x="65.9" y="32.5" class="st5" width="9.7" height="9.7"/>
						</g>
					</g>
				</g>
				<g>
					<g>
						<g>
							<rect x="65.9" y="45.3" class="st5" width="9.7" height="9.7"/>
						</g>
					</g>
				</g>
				<g>
					<g>
						<g>
							<rect x="65.9" y="58.2" class="st5" width="9.7" height="9.7"/>
						</g>
					</g>
				</g>
			</g>
		</g>
	</g>
</g>
<g class="st1">
	<path class="st2" d="M27,4.6c0-1.2,0.9-2.1,2.1-2.1c0.9,0,1.4,0.5,1.7,1L30,3.9c-0.2-0.3-0.5-0.6-0.9-0.6c-0.7,0-1.3,0.6-1.3,1.3
		s0.5,1.3,1.3,1.3c0.4,0,0.8-0.3,0.9-0.6l0.7,0.4c-0.3,0.5-0.8,1-1.7,1C27.9,6.7,27,5.8,27,4.6z"/>
	<path class="st2" d="M31.1,5.1c0-0.8,0.6-1.5,1.5-1.5c1,0,1.5,0.7,1.5,1.5s-0.6,1.5-1.5,1.5C31.7,6.7,31.1,6,31.1,5.1z M33.4,5.1
		c0-0.5-0.3-0.8-0.7-0.8c-0.5,0-0.7,0.4-0.7,0.8c0,0.5,0.3,0.8,0.7,0.8C33.1,6,33.4,5.6,33.4,5.1z"/>
	<path class="st2" d="M38.3,6.6V4.8c0-0.3-0.1-0.5-0.4-0.5c-0.3,0-0.5,0.2-0.6,0.3v2h-0.8V4.8c0-0.3-0.1-0.5-0.4-0.5
		c-0.3,0-0.5,0.2-0.6,0.3v2h-0.8V3.7h0.8v0.4c0.1-0.2,0.5-0.4,0.9-0.4c0.4,0,0.7,0.2,0.8,0.5c0.2-0.3,0.6-0.5,1-0.5
		c0.5,0,0.9,0.3,0.9,0.9v2.1H38.3z"/>
	<path class="st2" d="M40.6,6.2v1.5h-0.8v-4h0.8v0.4c0.2-0.3,0.5-0.4,0.9-0.4c0.7,0,1.3,0.6,1.3,1.5s-0.5,1.5-1.3,1.5
		C41.1,6.7,40.8,6.5,40.6,6.2z M42,5.1c0-0.5-0.3-0.8-0.7-0.8c-0.2,0-0.5,0.1-0.7,0.3v1C40.7,5.8,41,6,41.2,6C41.7,6,42,5.6,42,5.1z
		"/>
	<path class="st2" d="M45.1,6.6V6.3c-0.2,0.2-0.5,0.4-0.9,0.4c-0.5,0-1-0.3-1-1c0-0.7,0.5-0.9,1-0.9c0.4,0,0.7,0.1,0.9,0.4V4.8
		c0-0.3-0.3-0.5-0.6-0.5c-0.3,0-0.6,0.1-0.8,0.3l-0.3-0.5c0.4-0.3,0.8-0.5,1.3-0.5c0.7,0,1.3,0.3,1.3,1.1v1.9H45.1z M45.1,5.9V5.5
		c-0.1-0.2-0.4-0.3-0.6-0.3c-0.3,0-0.5,0.2-0.5,0.4c0,0.3,0.2,0.4,0.5,0.4C44.7,6.1,44.9,6.1,45.1,5.9z"/>
	<path class="st2" d="M48.5,6.6V4.8c0-0.4-0.2-0.5-0.5-0.5c-0.3,0-0.5,0.2-0.7,0.3v2h-0.8V3.7h0.8v0.4c0.2-0.2,0.5-0.4,1-0.4
		c0.6,0,0.9,0.4,0.9,0.9v2H48.5z"/>
	<path class="st2" d="M50.1,7c0.1,0,0.2,0,0.2,0c0.2,0,0.3-0.1,0.4-0.2l0.1-0.3l-1.2-2.9h0.8l0.8,2l0.8-2h0.8l-1.4,3.4
		c-0.2,0.5-0.6,0.7-1.1,0.7c-0.1,0-0.3,0-0.4,0L50.1,7z"/>
</g>
<path class="st0" d="M247.4,28c-0.4-0.4-1-0.4-1.5-0.1l-1.4,1.3V18.8c0-0.6-0.4-1-1-1s-1,0.4-1,1v10.3l-1.4-1.3
	c-0.4-0.4-1.1-0.4-1.5,0.1c-0.4,0.4-0.4,1.1,0.1,1.5l3.2,2.8c0.1,0,0.1,0.1,0.1,0.1s0.1,0.1,0.2,0.1c0,0.1,0.1,0.1,0.1,0.1
	c0.1,0,0.1,0,0.2,0c0,0,0.1,0,0.1,0c0.1,0,0.1-0.1,0.2-0.1c0,0,0.1,0,0.1-0.1c0.1,0,0.1-0.1,0.1-0.1l3.2-2.8
	C247.9,29.1,247.9,28.4,247.4,28z"/>
</svg>
