<?xml version="1.0" encoding="utf-8"?>
<!-- Generator: Adobe Illustrator 19.2.1, SVG Export Plug-In . SVG Version: 6.00 Build 0)  -->
<svg version="1.1" id="Layer_1" xmlns="http://www.w3.org/2000/svg" xmlns:xlink="http://www.w3.org/1999/xlink" x="0px" y="0px"
	 viewBox="0 0 369.3 90" style="enable-background:new 0 0 369.3 90;" xml:space="preserve">
<style type="text/css">
	.st0{fill:#FFC949;}
	.st1{fill:#3171AE;}
	.st2{fill:#91E5D5;}
	.st3{fill:#FFFFFF;}
	.st4{fill:#6DABDD;}
</style>
<path class="st0" d="M150.7,28c-0.4-0.4-1-0.4-1.5-0.1l-1.4,1.3V18.8c0-0.6-0.4-1-1-1s-1,0.4-1,1v10.3l-1.4-1.3
	c-0.4-0.4-1.1-0.4-1.5,0.1c-0.4,0.4-0.4,1.1,0.1,1.5l3.2,2.8c0.1,0,0.1,0.1,0.1,0.1s0.1,0.1,0.2,0.1c0,0.1,0.1,0.1,0.1,0.1
	c0.1,0,0.1,0,0.2,0h0.1c0.1,0,0.1-0.1,0.2-0.1c0,0,0.1,0,0.1-0.1c0.1,0,0.1-0.1,0.1-0.1l3.2-2.8C151.1,29.1,151.2,28.4,150.7,28z"/>
<g>
	<g>
		<path class="st1" d="M120.7,72.6c0.7-0.6,1.2-1.6,1.2-5.6c0-3.6,0.8-5.1,1.1-5.5c0.3-0.4,1.5-0.4,1.5-0.4V61c0,0,1.3-0.9,1.8-0.9
			c1.1,0,5.1-0.2,5.1,6.8c0,2.8,0.1,4.4,1.2,5.6"/>
		<path class="st2" d="M128.6,70.3v0.8c0,0,3.4,1.3,3.9,1.4c1,0.2,1.6,0.6,1.6,3.5h-14.4c0-2.9,0.6-3.3,1.6-3.5
			c0.5-0.1,3.9-1.4,3.9-1.4v-0.8"/>
		<path class="st0" d="M130,67.6c-0.3,1.4-1.4,3.2-1.4,3.2v0.9c0,0-0.8,1.6-1.9,1.6s-1.7-1.1-1.7-1.1v-1.3h0.1
			c-0.8-0.7-1.4-1.9-1.7-3.2l0.5-2.2c0,0,0.6-1.9,1.1-2c0,0,3.2,3.3,4.9,2.2C129.9,65.6,130.7,66,130,67.6z"/>
	</g>
	<g>
		<path class="st1" d="M142.1,72.6c0.7-0.6,1.2-1.6,1.2-5.6c0-3.6,0.8-5.1,1.1-5.5s1.5-0.4,1.5-0.4V61c0,0,1.3-0.9,1.8-0.9
			c1.1,0,5.1-0.2,5.1,6.8c0,2.8,0.1,4.4,1.2,5.6"/>
		<path class="st2" d="M149.9,70.3v0.8c0,0,3.4,1.3,3.9,1.4c1,0.2,1.6,0.6,1.6,3.5H141c0-2.9,0.6-3.3,1.6-3.5
			c0.5-0.1,3.9-1.4,3.9-1.4v-0.8"/>
		<path class="st0" d="M151.3,67.6c-0.3,1.4-1.4,3.2-1.4,3.2v0.9c0,0-0.8,1.6-1.9,1.6c-1.1,0-1.7-1.1-1.7-1.1v-1.3h0.1
			c-0.8-0.7-1.4-1.9-1.7-3.2l0.5-2.2c0,0,0.6-1.9,1.1-2c0,0,3.2,3.3,4.9,2.2C151.2,65.6,152,66,151.3,67.6z"/>
	</g>
	<g>
		<path class="st1" d="M163.4,72.6c0.7-0.6,1.2-1.6,1.2-5.6c0-3.6,0.8-5.1,1.1-5.5s1.5-0.4,1.5-0.4V61c0,0,1.3-0.9,1.8-0.9
			c1.1,0,5.1-0.2,5.1,6.8c0,2.8,0.1,4.4,1.2,5.6"/>
		<path class="st2" d="M171.2,70.3v0.8c0,0,3.4,1.3,3.9,1.4c1,0.2,1.6,0.6,1.6,3.5h-14.4c0-2.9,0.6-3.3,1.6-3.5
			c0.5-0.1,3.9-1.4,3.9-1.4v-0.8"/>
		<path class="st0" d="M172.7,67.6c-0.3,1.4-1.4,3.2-1.4,3.2v0.9c0,0-0.8,1.6-1.9,1.6c-1.1,0-1.7-1.1-1.7-1.1v-1.3h0.1
			c-0.8-0.7-1.4-1.9-1.7-3.2l0.5-2.2c0,0,0.6-1.9,1.1-2c0,0,3.2,3.3,4.9,2.2C172.6,65.6,173.4,66,172.7,67.6z"/>
	</g>
</g>
<g>
	<g>
		<g>
			<path class="st1" d="M214.2,72.6c0.7-0.6,1.2-1.6,1.2-5.6c0-3.6,0.8-5.1,1.1-5.5s1.5-0.4,1.5-0.4V61c0,0,1.3-0.9,1.8-0.9
				c1.1,0,5.1-0.2,5.1,6.8c0,2.8,0.1,4.4,1.2,5.6"/>
			<path class="st2" d="M222,70.3v0.8c0,0,3.4,1.3,3.9,1.4c1,0.2,1.6,0.6,1.6,3.5h-14.4c0-2.9,0.6-3.3,1.6-3.5
				c0.5-0.1,3.9-1.4,3.9-1.4v-0.8"/>
			<path class="st0" d="M223.5,67.6c-0.3,1.4-1.4,3.2-1.4,3.2v0.9c0,0-0.8,1.6-1.9,1.6c-1.1,0-1.7-1.1-1.7-1.1v-1.3h0.1
				c-0.8-0.7-1.4-1.9-1.7-3.2l0.5-2.2c0,0,0.6-1.9,1.1-2c0,0,3.2,3.3,4.9,2.2C223.4,65.6,224.2,66,223.5,67.6z"/>
		</g>
		<g>
			<path class="st1" d="M235.6,72.6c0.7-0.6,1.2-1.6,1.2-5.6c0-3.6,0.8-5.1,1.1-5.5s1.5-0.4,1.5-0.4V61c0,0,1.3-0.9,1.8-0.9
				c1.1,0,5.1-0.2,5.1,6.8c0,2.8,0.1,4.4,1.2,5.6"/>
			<path class="st2" d="M243.4,70.3v0.8c0,0,3.4,1.3,3.9,1.4c1,0.2,1.6,0.6,1.6,3.5h-14.4c0-2.9,0.6-3.3,1.6-3.5
				c0.5-0.1,3.9-1.4,3.9-1.4v-0.8"/>
			<path class="st0" d="M244.8,67.6c-0.3,1.4-1.4,3.2-1.4,3.2v0.9c0,0-0.8,1.6-1.9,1.6c-1.1,0-1.7-1.1-1.7-1.1v-1.3h0.1
				c-0.8-0.7-1.4-1.9-1.7-3.2l0.5-2.2c0,0,0.6-1.9,1.1-2c0,0,3.2,3.3,4.9,2.2C244.7,65.6,245.5,66,244.8,67.6z"/>
		</g>
		<g>
			<path class="st1" d="M256.9,72.6c0.7-0.6,1.2-1.6,1.2-5.6c0-3.6,0.8-5.1,1.1-5.5c0.3-0.4,1.5-0.4,1.5-0.4V61c0,0,1.3-0.9,1.8-0.9
				c1.1,0,5.1-0.2,5.1,6.8c0,2.8,0.1,4.4,1.2,5.6"/>
			<path class="st2" d="M264.7,70.3v0.8c0,0,3.4,1.3,3.9,1.4c1,0.2,1.6,0.6,1.6,3.5h-14.4c0-2.9,0.6-3.3,1.6-3.5
				c0.5-0.1,3.9-1.4,3.9-1.4v-0.8"/>
			<path class="st0" d="M266.2,67.6c-0.3,1.4-1.4,3.2-1.4,3.2v0.9c0,0-0.8,1.6-1.9,1.6s-1.7-1.1-1.7-1.1v-1.3h0.1
				c-0.8-0.7-1.4-1.9-1.7-3.2l0.5-2.2c0,0,0.6-1.9,1.1-2c0,0,3.2,3.3,4.9,2.2C266.1,65.6,266.8,66,266.2,67.6z"/>
		</g>
	</g>
</g>
<g>
	<g>
		<g>
			<path class="st1" d="M313.4,72.6c0.7-0.6,1.2-1.6,1.2-5.6c0-3.6,0.8-5.1,1.1-5.5c0.3-0.4,1.5-0.4,1.5-0.4V61c0,0,1.3-0.9,1.8-0.9
				c1.1,0,5.1-0.2,5.1,6.8c0,2.8,0.1,4.4,1.2,5.6"/>
			<path class="st2" d="M321.2,70.3v0.8c0,0,3.4,1.3,3.9,1.4c1,0.2,1.6,0.6,1.6,3.5h-14.4c0-2.9,0.6-3.3,1.6-3.5
				c0.5-0.1,3.9-1.4,3.9-1.4v-0.8"/>
			<path class="st0" d="M322.7,67.6c-0.3,1.4-1.4,3.2-1.4,3.2v0.9c0,0-0.8,1.6-1.9,1.6s-1.7-1.1-1.7-1.1v-1.3h0.1
				c-0.8-0.7-1.4-1.9-1.7-3.2l0.5-2.2c0,0,0.6-1.9,1.1-2c0,0,3.2,3.3,4.9,2.2C322.6,65.6,323.4,66,322.7,67.6z"/>
		</g>
		<g>
			<path class="st1" d="M334.7,72.6c0.7-0.6,1.2-1.6,1.2-5.6c0-3.6,0.8-5.1,1.1-5.5c0.3-0.4,1.5-0.4,1.5-0.4V61c0,0,1.3-0.9,1.8-0.9
				c1.1,0,5.1-0.2,5.1,6.8c0,2.8,0.1,4.4,1.2,5.6"/>
			<path class="st2" d="M342.6,70.3v0.8c0,0,3.4,1.3,3.9,1.4c1,0.2,1.6,0.6,1.6,3.5h-14.4c0-2.9,0.6-3.3,1.6-3.5
				c0.5-0.1,3.9-1.4,3.9-1.4v-0.8"/>
			<path class="st0" d="M344,67.6c-0.3,1.4-1.4,3.2-1.4,3.2v0.9c0,0-0.8,1.6-1.9,1.6s-1.7-1.1-1.7-1.1v-1.3h0.1
				c-0.8-0.7-1.4-1.9-1.7-3.2l0.5-2.2c0,0,0.6-1.9,1.1-2c0,0,3.2,3.3,4.9,2.2C343.9,65.6,344.7,66,344,67.6z"/>
		</g>
		<g>
			<path class="st1" d="M356.1,72.6c0.7-0.6,1.2-1.6,1.2-5.6c0-3.6,0.8-5.1,1.1-5.5c0.3-0.4,1.5-0.4,1.5-0.4V61c0,0,1.3-0.9,1.8-0.9
				c1.1,0,5.1-0.2,5.1,6.8c0,2.8,0.1,4.4,1.2,5.6"/>
			<path class="st2" d="M363.9,70.3v0.8c0,0,3.4,1.3,3.9,1.4c1,0.2,1.6,0.6,1.6,3.5H355c0-2.9,0.6-3.3,1.6-3.5
				c0.5-0.1,3.9-1.4,3.9-1.4v-0.8"/>
			<path class="st0" d="M365.3,67.6c-0.3,1.4-1.4,3.2-1.4,3.2v0.9c0,0-0.8,1.6-1.9,1.6s-1.7-1.1-1.7-1.1v-1.3h0.1
				c-0.8-0.7-1.4-1.9-1.7-3.2l0.5-2.2c0,0,0.6-1.9,1.1-2c0,0,3.2,3.3,4.9,2.2C365.2,65.6,366,66,365.3,67.6z"/>
		</g>
	</g>
</g>
<g>
	<rect x="311.4" y="16.3" class="st0" width="3.1" height="2.5"/>
	<rect x="305.6" y="16.3" class="st0" width="3.1" height="2.5"/>
	<rect x="299.8" y="16.3" class="st0" width="3.1" height="2.5"/>
	<rect x="294" y="16.3" class="st0" width="3.1" height="2.5"/>
	<rect x="288.3" y="16.3" class="st0" width="3.1" height="2.5"/>
	<rect x="340.2" y="16.3" class="st0" width="3" height="2.5"/>
	<rect x="33.4" y="16.3" class="st0" width="252.1" height="2.5"/>
	<rect x="317.1" y="16.3" class="st0" width="3.1" height="2.5"/>
	<rect x="334.4" y="16.3" class="st0" width="3.1" height="2.5"/>
	<rect x="322.9" y="16.3" class="st0" width="3.1" height="2.5"/>
	<rect x="328.7" y="16.3" class="st0" width="3.1" height="2.5"/>
</g>
<rect x="348.6" y="20.1" class="st3" width="4.5" height="2.2"/>
<g>
	<rect x="341" y="21.2" class="st0" width="2.1" height="1.7"/>
	<path class="st0" d="M346.1,27.9c-0.4-0.5-1.1-0.5-1.5-0.1l-1.4,1.3v-4.6H341v4.6l-1.4-1.3c-0.5-0.4-1.1-0.4-1.5,0.1
		s-0.4,1.1,0.1,1.5l3.3,2.9c0.1,0,0.1,0.1,0.2,0.1s0.2,0.1,0.2,0.1c0,0.1,0.1,0.1,0.2,0.1s0.2,0,0.2,0s0.1,0,0.2,0s0.2-0.1,0.2-0.1
		s0.1,0,0.2-0.1c0.1,0,0.1-0.1,0.2-0.1l3.3-2.9C346.5,29,346.6,28.3,346.1,27.9z"/>
</g>
<g>
	<g>
		<g>
			<g>
				<g>
					<g>
						<rect y="11.1" class="st4" width="48.1" height="65.3"/>
					</g>
				</g>
			</g>
			<g>
				<g>
					<g>
						<rect x="18" y="59.4" class="st1" width="12.4" height="16.8"/>
					</g>
				</g>
			</g>
			<g>
				<g>
					<g>
						<g>
							<rect x="8.5" y="18.6" class="st1" width="30.9" height="5"/>
						</g>
					</g>
				</g>
				<g>
					<g>
						<g>
							<rect x="8.5" y="27.9" class="st1" width="30.9" height="5"/>
						</g>
					</g>
				</g>
				<g>
					<g>
						<g>
							<rect x="8.5" y="37" class="st1" width="30.9" height="5"/>
						</g>
					</g>
				</g>
				<g>
					<g>
						<g>
							<rect x="8.5" y="46.2" class="st1" width="30.9" height="5"/>
						</g>
					</g>
				</g>
			</g>
		</g>
		<g>
			<g>
				<g>
					<rect x="47.9" y="28.5" class="st1" width="31.7" height="47.9"/>
				</g>
			</g>
		</g>
		<g>
			<g>
				<g>
					<g>
						<g>
							<rect x="52" y="32.5" class="st4" width="9.7" height="9.7"/>
						</g>
					</g>
				</g>
				<g>
					<g>
						<g>
							<rect x="52" y="45.3" class="st4" width="9.7" height="9.7"/>
						</g>
					</g>
				</g>
				<g>
					<g>
						<g>
							<rect x="52" y="58.2" class="st4" width="9.7" height="9.7"/>
						</g>
					</g>
				</g>
			</g>
			<g>
				<g>
					<g>
						<g>
							<rect x="65.9" y="32.5" class="st4" width="9.7" height="9.7"/>
						</g>
					</g>
				</g>
				<g>
					<g>
						<g>
							<rect x="65.9" y="45.3" class="st4" width="9.7" height="9.7"/>
						</g>
					</g>
				</g>
				<g>
					<g>
						<g>
							<rect x="65.9" y="58.2" class="st4" width="9.7" height="9.7"/>
						</g>
					</g>
				</g>
			</g>
		</g>
	</g>
</g>
<path class="st0" d="M247.4,28c-0.4-0.4-1-0.4-1.5-0.1l-1.4,1.3V18.8c0-0.6-0.4-1-1-1s-1,0.4-1,1v10.3l-1.4-1.3
	c-0.4-0.4-1.1-0.4-1.5,0.1c-0.4,0.4-0.4,1.1,0.1,1.5l3.2,2.8c0.1,0,0.1,0.1,0.1,0.1s0.1,0.1,0.2,0.1c0,0.1,0.1,0.1,0.1,0.1
	c0.1,0,0.1,0,0.2,0h0.1c0.1,0,0.1-0.1,0.2-0.1c0,0,0.1,0,0.1-0.1c0.1,0,0.1-0.1,0.1-0.1l3.2-2.8C247.9,29.1,247.9,28.4,247.4,28z"/>
<g>
	<path class="st1" d="M31.6,4c0-1.2,0.9-2.1,2.1-2.1c0.7,0,1.2,0.3,1.5,0.8L34.7,3c-0.2-0.3-0.6-0.6-1.1-0.6c-0.9,0-1.5,0.7-1.5,1.6
		c0,0.9,0.7,1.6,1.5,1.6c0.5,0,0.9-0.2,1.1-0.6l0.4,0.2c-0.3,0.5-0.8,0.8-1.5,0.8C32.5,6.1,31.6,5.2,31.6,4z"/>
	<path class="st1" d="M35.6,4.5C35.6,3.7,36.1,3,37,3c0.9,0,1.4,0.7,1.4,1.5S37.9,6.1,37,6.1C36.1,6.1,35.6,5.4,35.6,4.5z M38,4.5
		c0-0.6-0.3-1.1-1-1.1s-1,0.5-1,1.1c0,0.6,0.3,1.1,1,1.1S38,5.1,38,4.5z"/>
	<path class="st1" d="M42.7,6V4c0-0.4-0.2-0.6-0.5-0.6c-0.3,0-0.6,0.2-0.8,0.4V6h-0.4V4c0-0.4-0.1-0.6-0.5-0.6
		c-0.3,0-0.6,0.2-0.8,0.4V6h-0.4V3.1h0.4v0.4C39.8,3.3,40.1,3,40.6,3c0.4,0,0.7,0.2,0.8,0.5c0.2-0.3,0.6-0.5,1-0.5
		c0.5,0,0.8,0.3,0.8,0.9V6H42.7z"/>
	<path class="st1" d="M44.5,5.6v1.5H44v-4h0.4v0.4c0.2-0.3,0.6-0.5,1-0.5c0.8,0,1.3,0.6,1.3,1.5c0,0.9-0.5,1.5-1.3,1.5
		C45.1,6.1,44.7,5.9,44.5,5.6z M46.3,4.5c0-0.6-0.3-1.1-0.9-1.1c-0.4,0-0.7,0.2-0.9,0.5v1.3c0.2,0.3,0.5,0.5,0.9,0.5
		C45.9,5.7,46.3,5.2,46.3,4.5z"/>
	<path class="st1" d="M49.3,6V5.7c-0.2,0.3-0.6,0.4-1,0.4c-0.5,0-1-0.3-1-1c0-0.7,0.5-1,1-1c0.4,0,0.7,0.1,1,0.4V4
		c0-0.4-0.3-0.6-0.7-0.6c-0.3,0-0.6,0.1-0.9,0.4l-0.2-0.3C47.8,3.2,48.1,3,48.6,3c0.6,0,1.1,0.3,1.1,1v2H49.3z M49.3,5.4V4.8
		c-0.2-0.2-0.5-0.4-0.8-0.4c-0.4,0-0.7,0.3-0.7,0.6c0,0.4,0.3,0.6,0.7,0.6C48.8,5.7,49.1,5.6,49.3,5.4z"/>
	<path class="st1" d="M52.6,6V4.1c0-0.5-0.3-0.7-0.7-0.7c-0.4,0-0.7,0.2-0.9,0.4V6h-0.4V3.1h0.4v0.4c0.2-0.2,0.6-0.5,1-0.5
		C52.7,3,53,3.3,53,4v2H52.6z"/>
	<path class="st1" d="M53.9,6.7c0.1,0,0.2,0,0.2,0c0.2,0,0.3-0.1,0.4-0.3L54.7,6l-1.2-2.9H54l1,2.4l1-2.4h0.5L55,6.6
		c-0.2,0.4-0.5,0.6-0.9,0.6c-0.1,0-0.2,0-0.3,0L53.9,6.7z"/>
</g>
<g>
	<path class="st1" d="M133.9,41.3v-4h1.6c0.8,0,1.3,0.6,1.3,1.2c0,0.7-0.5,1.2-1.3,1.2h-1.1v1.6H133.9z M136.3,38.5
		c0-0.4-0.3-0.8-0.8-0.8h-1v1.5h1C135.9,39.3,136.3,39,136.3,38.5z"/>
	<path class="st1" d="M139.1,41.3V41c-0.2,0.3-0.6,0.4-1,0.4c-0.5,0-1-0.3-1-1c0-0.7,0.5-1,1-1c0.4,0,0.7,0.1,1,0.4v-0.5
		c0-0.4-0.3-0.6-0.7-0.6c-0.3,0-0.6,0.1-0.9,0.4l-0.2-0.3c0.3-0.3,0.7-0.5,1.2-0.5c0.6,0,1.1,0.3,1.1,1v2H139.1z M139.1,40.7v-0.6
		c-0.2-0.2-0.5-0.4-0.8-0.4c-0.4,0-0.7,0.3-0.7,0.6c0,0.4,0.3,0.6,0.7,0.6C138.6,41.1,138.9,41,139.1,40.7z"/>
	<path class="st1" d="M140.4,42.1c0.1,0,0.2,0,0.2,0c0.2,0,0.3-0.1,0.4-0.3l0.2-0.4l-1.2-2.9h0.5l1,2.4l1-2.4h0.5l-1.5,3.5
		c-0.2,0.4-0.5,0.6-0.9,0.6c-0.1,0-0.2,0-0.3,0L140.4,42.1z"/>
	<path class="st1" d="M143.4,41.3v-2.9h0.4v0.5c0.2-0.3,0.6-0.5,1-0.5v0.5c-0.1,0-0.1,0-0.2,0c-0.3,0-0.7,0.2-0.8,0.5v2.1H143.4z"/>
	<path class="st1" d="M145.2,39.9c0-0.8,0.6-1.5,1.4-1.5c0.9,0,1.4,0.7,1.4,1.5s-0.6,1.5-1.4,1.5C145.8,41.4,145.2,40.7,145.2,39.9z
		 M147.6,39.9c0-0.6-0.3-1.1-1-1.1s-1,0.5-1,1.1c0,0.6,0.3,1.1,1,1.1S147.6,40.5,147.6,39.9z"/>
	<path class="st1" d="M148.8,41.3v-4h0.4v4H148.8z"/>
	<path class="st1" d="M150.2,41.3v-4h0.4v4H150.2z"/>
	<path class="st1" d="M153.2,41.3v-2.5h-0.5v-0.4h0.5v-0.2c0-0.6,0.3-0.9,0.8-0.9c0.2,0,0.4,0.1,0.6,0.2l-0.2,0.3
		c-0.1-0.1-0.2-0.1-0.4-0.1c-0.3,0-0.5,0.2-0.5,0.6v0.2h0.6v0.4h-0.6v2.5H153.2z"/>
	<path class="st1" d="M154.6,39.9c0-0.8,0.6-1.5,1.4-1.5c0.9,0,1.4,0.7,1.4,1.5s-0.6,1.5-1.4,1.5C155.2,41.4,154.6,40.7,154.6,39.9z
		 M157,39.9c0-0.6-0.3-1.1-1-1.1s-1,0.5-1,1.1c0,0.6,0.3,1.1,1,1.1S157,40.5,157,39.9z"/>
	<path class="st1" d="M158.2,41.3v-2.9h0.4v0.5c0.2-0.3,0.6-0.5,1-0.5v0.5c-0.1,0-0.1,0-0.2,0c-0.3,0-0.7,0.2-0.8,0.5v2.1H158.2z"/>
	<path class="st1" d="M129.9,48.1v1.5h-0.4v-4h0.4v0.4c0.2-0.3,0.6-0.5,1-0.5c0.8,0,1.3,0.6,1.3,1.5c0,0.9-0.5,1.5-1.3,1.5
		C130.4,48.6,130.1,48.4,129.9,48.1z M131.7,47.1c0-0.6-0.3-1.1-0.9-1.1c-0.4,0-0.7,0.2-0.9,0.5v1.3c0.2,0.3,0.5,0.5,0.9,0.5
		C131.3,48.2,131.7,47.7,131.7,47.1z"/>
	<path class="st1" d="M134.7,48.5v-0.3c-0.2,0.3-0.6,0.4-1,0.4c-0.5,0-1-0.3-1-1c0-0.7,0.5-1,1-1c0.4,0,0.7,0.1,1,0.4v-0.5
		c0-0.4-0.3-0.6-0.7-0.6c-0.3,0-0.6,0.1-0.9,0.4l-0.2-0.3c0.3-0.3,0.7-0.5,1.2-0.5c0.6,0,1.1,0.3,1.1,1v2H134.7z M134.7,47.9v-0.6
		c-0.2-0.2-0.5-0.4-0.8-0.4c-0.4,0-0.7,0.3-0.7,0.6c0,0.4,0.3,0.6,0.7,0.6C134.2,48.3,134.5,48.2,134.7,47.9z"/>
	<path class="st1" d="M135.9,49.3c0.1,0,0.2,0,0.2,0c0.2,0,0.3-0.1,0.4-0.3l0.2-0.4l-1.2-2.9h0.5l1,2.4l1-2.4h0.5l-1.5,3.5
		c-0.2,0.4-0.5,0.6-0.9,0.6c-0.1,0-0.2,0-0.3,0L135.9,49.3z"/>
	<path class="st1" d="M141,48.1v1.5h-0.4v-4h0.4v0.4c0.2-0.3,0.6-0.5,1-0.5c0.8,0,1.3,0.6,1.3,1.5c0,0.9-0.5,1.5-1.3,1.5
		C141.5,48.6,141.2,48.4,141,48.1z M142.7,47.1c0-0.6-0.3-1.1-0.9-1.1c-0.4,0-0.7,0.2-0.9,0.5v1.3c0.2,0.3,0.5,0.5,0.9,0.5
		C142.4,48.2,142.7,47.7,142.7,47.1z"/>
	<path class="st1" d="M143.8,47.1c0-0.8,0.6-1.5,1.4-1.5c0.9,0,1.4,0.7,1.4,1.6v0.1h-2.3c0,0.5,0.4,1,1,1c0.3,0,0.7-0.1,0.9-0.4
		l0.2,0.3c-0.3,0.3-0.7,0.5-1.2,0.5C144.4,48.6,143.8,48,143.8,47.1z M145.2,45.9c-0.6,0-0.9,0.5-0.9,1h1.9
		C146.1,46.5,145.8,45.9,145.2,45.9z"/>
	<path class="st1" d="M147.3,48.5v-2.9h0.4v0.5c0.2-0.3,0.6-0.5,1-0.5V46c-0.1,0-0.1,0-0.2,0c-0.3,0-0.7,0.2-0.8,0.5v2.1H147.3z"/>
	<path class="st1" d="M149.2,44.9c0-0.2,0.1-0.3,0.3-0.3s0.3,0.1,0.3,0.3c0,0.2-0.1,0.3-0.3,0.3S149.2,45.1,149.2,44.9z M149.3,48.5
		v-2.9h0.4v2.9H149.3z"/>
	<path class="st1" d="M150.5,47.1c0-0.8,0.6-1.5,1.4-1.5c0.9,0,1.4,0.7,1.4,1.5s-0.6,1.5-1.4,1.5C151,48.6,150.5,47.9,150.5,47.1z
		 M152.9,47.1c0-0.6-0.3-1.1-1-1.1s-1,0.5-1,1.1c0,0.6,0.3,1.1,1,1.1S152.9,47.7,152.9,47.1z"/>
	<path class="st1" d="M156.2,48.5v-0.4c-0.2,0.3-0.6,0.5-1,0.5c-0.8,0-1.3-0.6-1.3-1.5c0-0.9,0.5-1.5,1.3-1.5c0.4,0,0.7,0.2,1,0.5
		v-1.5h0.4v4H156.2z M156.2,47.7v-1.3c-0.2-0.3-0.5-0.5-0.9-0.5c-0.6,0-0.9,0.5-0.9,1.1s0.3,1.1,0.9,1.1
		C155.7,48.2,156,48,156.2,47.7z"/>
	<path class="st1" d="M160.1,48.5l0.4-1.1h-0.7l-0.4,1.1H159l0.4-1.1h-0.6l0.1-0.3h0.6l0.4-1.2h-0.6l0.1-0.3h0.7l0.4-1.1h0.4
		l-0.4,1.1h0.7l0.4-1.1h0.4l-0.4,1.1h0.6l-0.1,0.3h-0.7l-0.4,1.2h0.7l-0.1,0.3h-0.7l-0.4,1.1H160.1z M160.9,45.9h-0.7l-0.4,1.2h0.7
		L160.9,45.9z"/>
	<path class="st1" d="M163.2,48.5v-3.3l-0.6,0.7l-0.3-0.3l1-1h0.4v4H163.2z"/>
</g>
<g>
	<path class="st1" d="M230.6,41.3v-4h1.6c0.8,0,1.3,0.6,1.3,1.2c0,0.7-0.5,1.2-1.3,1.2h-1.1v1.6H230.6z M232.9,38.5
		c0-0.4-0.3-0.8-0.8-0.8h-1v1.5h1C232.6,39.3,232.9,39,232.9,38.5z"/>
	<path class="st1" d="M235.8,41.3V41c-0.2,0.3-0.6,0.4-1,0.4c-0.5,0-1-0.3-1-1c0-0.7,0.5-1,1-1c0.4,0,0.7,0.1,1,0.4v-0.5
		c0-0.4-0.3-0.6-0.7-0.6c-0.3,0-0.6,0.1-0.9,0.4l-0.2-0.3c0.3-0.3,0.7-0.5,1.2-0.5c0.6,0,1.1,0.3,1.1,1v2H235.8z M235.8,40.7v-0.6
		c-0.2-0.2-0.5-0.4-0.8-0.4c-0.4,0-0.7,0.3-0.7,0.6c0,0.4,0.3,0.6,0.7,0.6C235.3,41.1,235.6,41,235.8,40.7z"/>
	<path class="st1" d="M237,42.1c0.1,0,0.2,0,0.2,0c0.2,0,0.3-0.1,0.4-0.3l0.2-0.4l-1.2-2.9h0.5l1,2.4l1-2.4h0.5l-1.5,3.5
		c-0.2,0.4-0.5,0.6-0.9,0.6c-0.1,0-0.2,0-0.3,0L237,42.1z"/>
	<path class="st1" d="M240.1,41.3v-2.9h0.4v0.5c0.2-0.3,0.6-0.5,1-0.5v0.5c-0.1,0-0.1,0-0.2,0c-0.3,0-0.7,0.2-0.8,0.5v2.1H240.1z"/>
	<path class="st1" d="M241.9,39.9c0-0.8,0.6-1.5,1.4-1.5c0.9,0,1.4,0.7,1.4,1.5s-0.6,1.5-1.4,1.5C242.4,41.4,241.9,40.7,241.9,39.9z
		 M244.3,39.9c0-0.6-0.3-1.1-1-1.1c-0.6,0-1,0.5-1,1.1c0,0.6,0.3,1.1,1,1.1C243.9,41,244.3,40.5,244.3,39.9z"/>
	<path class="st1" d="M245.5,41.3v-4h0.4v4H245.5z"/>
	<path class="st1" d="M246.8,41.3v-4h0.4v4H246.8z"/>
	<path class="st1" d="M249.9,41.3v-2.5h-0.5v-0.4h0.5v-0.2c0-0.6,0.3-0.9,0.8-0.9c0.2,0,0.4,0.1,0.6,0.2l-0.2,0.3
		c-0.1-0.1-0.2-0.1-0.4-0.1c-0.3,0-0.5,0.2-0.5,0.6v0.2h0.6v0.4h-0.6v2.5H249.9z"/>
	<path class="st1" d="M251.3,39.9c0-0.8,0.6-1.5,1.4-1.5c0.9,0,1.4,0.7,1.4,1.5s-0.6,1.5-1.4,1.5C251.8,41.4,251.3,40.7,251.3,39.9z
		 M253.7,39.9c0-0.6-0.3-1.1-1-1.1c-0.6,0-1,0.5-1,1.1c0,0.6,0.3,1.1,1,1.1C253.3,41,253.7,40.5,253.7,39.9z"/>
	<path class="st1" d="M254.9,41.3v-2.9h0.5v0.5c0.2-0.3,0.6-0.5,1-0.5v0.5c-0.1,0-0.1,0-0.2,0c-0.3,0-0.7,0.2-0.8,0.5v2.1H254.9z"/>
	<path class="st1" d="M225.8,48.1v1.5h-0.4v-4h0.4v0.4c0.2-0.3,0.6-0.5,1-0.5c0.8,0,1.3,0.6,1.3,1.5c0,0.9-0.5,1.5-1.3,1.5
		C226.4,48.6,226,48.4,225.8,48.1z M227.6,47.1c0-0.6-0.3-1.1-0.9-1.1c-0.4,0-0.7,0.2-0.9,0.5v1.3c0.2,0.3,0.5,0.5,0.9,0.5
		C227.2,48.2,227.6,47.7,227.6,47.1z"/>
	<path class="st1" d="M230.6,48.5v-0.3c-0.2,0.3-0.6,0.4-1,0.4c-0.5,0-1-0.3-1-1c0-0.7,0.5-1,1-1c0.4,0,0.7,0.1,1,0.4v-0.5
		c0-0.4-0.3-0.6-0.7-0.6c-0.3,0-0.6,0.1-0.9,0.4l-0.2-0.3c0.3-0.3,0.7-0.5,1.2-0.5c0.6,0,1.1,0.3,1.1,1v2H230.6z M230.6,47.9v-0.6
		c-0.2-0.2-0.5-0.4-0.8-0.4c-0.4,0-0.7,0.3-0.7,0.6c0,0.4,0.3,0.6,0.7,0.6C230.1,48.3,230.4,48.2,230.6,47.9z"/>
	<path class="st1" d="M231.8,49.3c0.1,0,0.2,0,0.2,0c0.2,0,0.3-0.1,0.4-0.3l0.2-0.4l-1.2-2.9h0.5l1,2.4l1-2.4h0.5l-1.5,3.5
		c-0.2,0.4-0.5,0.6-0.9,0.6c-0.1,0-0.2,0-0.3,0L231.8,49.3z"/>
	<path class="st1" d="M236.9,48.1v1.5h-0.4v-4h0.4v0.4c0.2-0.3,0.6-0.5,1-0.5c0.8,0,1.3,0.6,1.3,1.5c0,0.9-0.5,1.5-1.3,1.5
		C237.5,48.6,237.1,48.4,236.9,48.1z M238.7,47.1c0-0.6-0.3-1.1-0.9-1.1c-0.4,0-0.7,0.2-0.9,0.5v1.3c0.2,0.3,0.5,0.5,0.9,0.5
		C238.3,48.2,238.7,47.7,238.7,47.1z"/>
	<path class="st1" d="M239.7,47.1c0-0.8,0.6-1.5,1.4-1.5c0.9,0,1.4,0.7,1.4,1.6v0.1h-2.3c0,0.5,0.4,1,1,1c0.3,0,0.7-0.1,0.9-0.4
		l0.2,0.3c-0.3,0.3-0.7,0.5-1.2,0.5C240.3,48.6,239.7,48,239.7,47.1z M241.1,45.9c-0.6,0-0.9,0.5-0.9,1h1.9
		C242.1,46.5,241.8,45.9,241.1,45.9z"/>
	<path class="st1" d="M243.2,48.5v-2.9h0.4v0.5c0.2-0.3,0.6-0.5,1-0.5V46c-0.1,0-0.1,0-0.2,0c-0.3,0-0.7,0.2-0.8,0.5v2.1H243.2z"/>
	<path class="st1" d="M245.1,44.9c0-0.2,0.1-0.3,0.3-0.3s0.3,0.1,0.3,0.3c0,0.2-0.1,0.3-0.3,0.3S245.1,45.1,245.1,44.9z M245.2,48.5
		v-2.9h0.5v2.9H245.2z"/>
	<path class="st1" d="M246.4,47.1c0-0.8,0.6-1.5,1.4-1.5c0.9,0,1.4,0.7,1.4,1.5s-0.6,1.5-1.4,1.5C246.9,48.6,246.4,47.9,246.4,47.1z
		 M248.8,47.1c0-0.6-0.3-1.1-1-1.1c-0.6,0-1,0.5-1,1.1c0,0.6,0.3,1.1,1,1.1C248.4,48.2,248.8,47.7,248.8,47.1z"/>
	<path class="st1" d="M252.1,48.5v-0.4c-0.2,0.3-0.6,0.5-1,0.5c-0.8,0-1.3-0.6-1.3-1.5c0-0.9,0.5-1.5,1.3-1.5c0.4,0,0.7,0.2,1,0.5
		v-1.5h0.5v4H252.1z M252.1,47.7v-1.3c-0.2-0.3-0.5-0.5-0.9-0.5c-0.6,0-0.9,0.5-0.9,1.1s0.3,1.1,0.9,1.1
		C251.6,48.2,251.9,48,252.1,47.7z"/>
	<path class="st1" d="M256,48.5l0.4-1.1h-0.7l-0.4,1.1h-0.4l0.4-1.1h-0.6l0.1-0.3h0.6l0.4-1.2h-0.6l0.1-0.3h0.7l0.4-1.1h0.4
		l-0.4,1.1h0.7l0.4-1.1h0.4l-0.4,1.1h0.6l-0.1,0.3h-0.7l-0.4,1.2h0.7l-0.1,0.3h-0.7l-0.4,1.1H256z M256.9,45.9h-0.7l-0.4,1.2h0.7
		L256.9,45.9z"/>
	<path class="st1" d="M258.4,48.5v-0.4c1.4-1.1,2.2-1.8,2.2-2.5c0-0.5-0.4-0.7-0.8-0.7c-0.5,0-0.9,0.2-1.1,0.5l-0.3-0.3
		c0.3-0.4,0.8-0.6,1.4-0.6c0.7,0,1.3,0.4,1.3,1.2c0,0.8-0.8,1.6-1.9,2.4h2v0.4H258.4z"/>
</g>
<g>
	<path class="st1" d="M328.6,41.3v-4h1.6c0.8,0,1.3,0.6,1.3,1.2c0,0.7-0.5,1.2-1.3,1.2h-1.1v1.6H328.6z M330.9,38.5
		c0-0.4-0.3-0.8-0.8-0.8h-1v1.5h1C330.6,39.3,330.9,39,330.9,38.5z"/>
	<path class="st1" d="M333.8,41.3V41c-0.2,0.3-0.6,0.4-1,0.4c-0.5,0-1-0.3-1-1c0-0.7,0.5-1,1-1c0.4,0,0.7,0.1,1,0.4v-0.5
		c0-0.4-0.3-0.6-0.7-0.6c-0.3,0-0.6,0.1-0.9,0.4l-0.2-0.3c0.3-0.3,0.7-0.5,1.2-0.5c0.6,0,1.1,0.3,1.1,1v2H333.8z M333.8,40.7v-0.6
		c-0.2-0.2-0.5-0.4-0.8-0.4c-0.4,0-0.7,0.3-0.7,0.6c0,0.4,0.3,0.6,0.7,0.6C333.3,41.1,333.6,41,333.8,40.7z"/>
	<path class="st1" d="M335,42.1c0.1,0,0.2,0,0.2,0c0.2,0,0.3-0.1,0.4-0.3l0.2-0.4l-1.2-2.9h0.5l1,2.4l1-2.4h0.5l-1.5,3.5
		c-0.2,0.4-0.5,0.6-0.9,0.6c-0.1,0-0.2,0-0.3,0L335,42.1z"/>
	<path class="st1" d="M338.1,41.3v-2.9h0.4v0.5c0.2-0.3,0.6-0.5,1-0.5v0.5c-0.1,0-0.1,0-0.2,0c-0.3,0-0.7,0.2-0.8,0.5v2.1H338.1z"/>
	<path class="st1" d="M339.9,39.9c0-0.8,0.6-1.5,1.4-1.5c0.9,0,1.4,0.7,1.4,1.5s-0.6,1.5-1.4,1.5C340.4,41.4,339.9,40.7,339.9,39.9z
		 M342.3,39.9c0-0.6-0.3-1.1-1-1.1c-0.6,0-1,0.5-1,1.1c0,0.6,0.3,1.1,1,1.1C341.9,41,342.3,40.5,342.3,39.9z"/>
	<path class="st1" d="M343.5,41.3v-4h0.4v4H343.5z"/>
	<path class="st1" d="M344.8,41.3v-4h0.4v4H344.8z"/>
	<path class="st1" d="M347.9,41.3v-2.5h-0.5v-0.4h0.5v-0.2c0-0.6,0.3-0.9,0.8-0.9c0.2,0,0.4,0.1,0.6,0.2l-0.2,0.3
		c-0.1-0.1-0.2-0.1-0.4-0.1c-0.3,0-0.5,0.2-0.5,0.6v0.2h0.6v0.4h-0.6v2.5H347.9z"/>
	<path class="st1" d="M349.3,39.9c0-0.8,0.6-1.5,1.4-1.5c0.9,0,1.4,0.7,1.4,1.5s-0.6,1.5-1.4,1.5C349.8,41.4,349.3,40.7,349.3,39.9z
		 M351.7,39.9c0-0.6-0.3-1.1-1-1.1c-0.6,0-1,0.5-1,1.1c0,0.6,0.3,1.1,1,1.1C351.3,41,351.7,40.5,351.7,39.9z"/>
	<path class="st1" d="M352.9,41.3v-2.9h0.5v0.5c0.2-0.3,0.6-0.5,1-0.5v0.5c-0.1,0-0.1,0-0.2,0c-0.3,0-0.7,0.2-0.8,0.5v2.1H352.9z"/>
	<path class="st1" d="M323.4,48.1v1.5H323v-4h0.4v0.4c0.2-0.3,0.6-0.5,1-0.5c0.8,0,1.3,0.6,1.3,1.5c0,0.9-0.5,1.5-1.3,1.5
		C324,48.6,323.7,48.4,323.4,48.1z M325.2,47.1c0-0.6-0.3-1.1-0.9-1.1c-0.4,0-0.7,0.2-0.9,0.5v1.3c0.2,0.3,0.5,0.5,0.9,0.5
		C324.9,48.2,325.2,47.7,325.2,47.1z"/>
	<path class="st1" d="M328.2,48.5v-0.3c-0.2,0.3-0.6,0.4-1,0.4c-0.5,0-1-0.3-1-1c0-0.7,0.5-1,1-1c0.4,0,0.7,0.1,1,0.4v-0.5
		c0-0.4-0.3-0.6-0.7-0.6c-0.3,0-0.6,0.1-0.9,0.4l-0.2-0.3c0.3-0.3,0.7-0.5,1.2-0.5c0.6,0,1.1,0.3,1.1,1v2H328.2z M328.2,47.9v-0.6
		c-0.2-0.2-0.5-0.4-0.8-0.4c-0.4,0-0.7,0.3-0.7,0.6c0,0.4,0.3,0.6,0.7,0.6C327.7,48.3,328,48.2,328.2,47.9z"/>
	<path class="st1" d="M329.5,49.3c0.1,0,0.2,0,0.2,0c0.2,0,0.3-0.1,0.4-0.3l0.2-0.4l-1.2-2.9h0.5l1,2.4l1-2.4h0.5l-1.5,3.5
		c-0.2,0.4-0.5,0.6-0.9,0.6c-0.1,0-0.2,0-0.3,0L329.5,49.3z"/>
	<path class="st1" d="M334.5,48.1v1.5h-0.4v-4h0.4v0.4c0.2-0.3,0.6-0.5,1-0.5c0.8,0,1.3,0.6,1.3,1.5c0,0.9-0.5,1.5-1.3,1.5
		C335.1,48.6,334.8,48.4,334.5,48.1z M336.3,47.1c0-0.6-0.3-1.1-0.9-1.1c-0.4,0-0.7,0.2-0.9,0.5v1.3c0.2,0.3,0.5,0.5,0.9,0.5
		C336,48.2,336.3,47.7,336.3,47.1z"/>
	<path class="st1" d="M337.3,47.1c0-0.8,0.6-1.5,1.4-1.5c0.9,0,1.4,0.7,1.4,1.6v0.1h-2.3c0,0.5,0.4,1,1,1c0.3,0,0.7-0.1,0.9-0.4
		l0.2,0.3c-0.3,0.3-0.7,0.5-1.2,0.5C337.9,48.6,337.3,48,337.3,47.1z M338.7,45.9c-0.6,0-0.9,0.5-0.9,1h1.9
		C339.7,46.5,339.4,45.9,338.7,45.9z"/>
	<path class="st1" d="M340.9,48.5v-2.9h0.5v0.5c0.2-0.3,0.6-0.5,1-0.5V46c-0.1,0-0.1,0-0.2,0c-0.3,0-0.7,0.2-0.8,0.5v2.1H340.9z"/>
	<path class="st1" d="M342.8,44.9c0-0.2,0.1-0.3,0.3-0.3s0.3,0.1,0.3,0.3c0,0.2-0.1,0.3-0.3,0.3S342.8,45.1,342.8,44.9z M342.9,48.5
		v-2.9h0.5v2.9H342.9z"/>
	<path class="st1" d="M344,47.1c0-0.8,0.6-1.5,1.4-1.5c0.9,0,1.4,0.7,1.4,1.5s-0.6,1.5-1.4,1.5C344.6,48.6,344,47.9,344,47.1z
		 M346.4,47.1c0-0.6-0.3-1.1-1-1.1s-1,0.5-1,1.1c0,0.6,0.3,1.1,1,1.1S346.4,47.7,346.4,47.1z"/>
	<path class="st1" d="M349.7,48.5v-0.4c-0.2,0.3-0.6,0.5-1,0.5c-0.8,0-1.3-0.6-1.3-1.5c0-0.9,0.5-1.5,1.3-1.5c0.4,0,0.7,0.2,1,0.5
		v-1.5h0.5v4H349.7z M349.7,47.7v-1.3c-0.2-0.3-0.5-0.5-0.9-0.5c-0.6,0-0.9,0.5-0.9,1.1s0.3,1.1,0.9,1.1
		C349.2,48.2,349.6,48,349.7,47.7z"/>
	<path class="st1" d="M353.6,48.5l0.4-1.1h-0.7l-0.4,1.1h-0.4l0.4-1.1h-0.6l0.1-0.3h0.6l0.4-1.2h-0.6l0.1-0.3h0.7l0.4-1.1h0.4
		l-0.4,1.1h0.7l0.4-1.1h0.4l-0.4,1.1h0.6l-0.1,0.3h-0.7l-0.4,1.2h0.7l-0.1,0.3h-0.7l-0.4,1.1H353.6z M354.5,45.9h-0.7l-0.4,1.2h0.7
		L354.5,45.9z"/>
	<path class="st1" d="M359,48.5l-2.3-3.2v3.2h-0.5v-4h0.5l2.3,3.1v-3.1h0.5v4H359z"/>
</g>
</svg>
