<?xml version="1.0" encoding="utf-8"?>
<!-- Generator: Adobe Illustrator 19.2.1, SVG Export Plug-In . SVG Version: 6.00 Build 0)  -->
<svg version="1.1" id="Layer_1" xmlns="http://www.w3.org/2000/svg" xmlns:xlink="http://www.w3.org/1999/xlink" x="0px" y="0px"
	 viewBox="0 0 1317 280.1" style="enable-background:new 0 0 1317 280.1;" xml:space="preserve">
<style type="text/css">
	.st0{fill:#3171AE;}
	.st1{fill:#2F70AD;}
	.st2{fill:#68ACE8;}
	.st3{fill:#FFFFFF;}
	.st4{fill:none;stroke:#2F70AD;stroke-width:1.25;stroke-miterlimit:10;}
	.st5{fill:#FFC848;}
	.st6{fill:none;stroke:#FFC949;stroke-width:2;stroke-linecap:round;stroke-miterlimit:10;}
	.st7{fill:none;stroke:#FFC949;stroke-width:2;stroke-linecap:round;stroke-miterlimit:10;stroke-dasharray:4.2309,4.2309;}
	.st8{fill:none;stroke:#FFC949;stroke-width:2;stroke-linecap:round;stroke-miterlimit:10;stroke-dasharray:4.0144,4.0144;}
	.st9{fill:#FF9448;}
	.st10{fill:none;stroke:#FF9448;stroke-width:1.25;stroke-miterlimit:10;}
	.st11{fill:none;stroke:#FFC949;stroke-width:2;stroke-linecap:round;stroke-miterlimit:10;stroke-dasharray:3.9566,3.9566;}
</style>
<g>
	<path class="st0" d="M102.4,52.5c0-4.1,3-6.9,6.9-6.9c2.4,0,4,1.1,5.1,2.6L113,49c-0.8-1.1-2.2-1.9-3.7-1.9c-2.9,0-5.1,2.2-5.1,5.4
		s2.2,5.4,5.1,5.4c1.5,0,2.9-0.8,3.7-1.9l1.4,0.8c-1.1,1.5-2.7,2.7-5.1,2.7C105.4,59.4,102.4,56.6,102.4,52.5z"/>
	<path class="st0" d="M115.8,54.3c0-2.8,1.8-5.1,4.8-5.1c3,0,4.8,2.3,4.8,5.1s-1.8,5.1-4.8,5.1C117.6,59.4,115.8,57.1,115.8,54.3z
		 M123.8,54.3c0-2-1.1-3.7-3.2-3.7c-2.1,0-3.2,1.8-3.2,3.7c0,2,1.1,3.7,3.2,3.7C122.7,58,123.8,56.3,123.8,54.3z"/>
	<path class="st0" d="M139.5,59.1v-6.6c0-1.2-0.5-2-1.8-2c-1,0-2.1,0.7-2.6,1.5v7.1h-1.5v-6.6c0-1.2-0.5-2-1.8-2c-1,0-2,0.7-2.5,1.5
		v7.1h-1.5v-9.7h1.5v1.4c0.4-0.6,1.7-1.6,3.1-1.6c1.5,0,2.3,0.8,2.6,1.8c0.5-0.9,1.8-1.8,3.2-1.8c1.8,0,2.7,1,2.7,2.9v7
		C140.9,59.1,139.5,59.1,139.5,59.1z"/>
	<path class="st0" d="M145.5,57.7v5.1H144V49.5h1.5v1.4c0.7-1,1.9-1.7,3.3-1.7c2.5,0,4.3,1.9,4.3,5.1c0,3.1-1.8,5.1-4.3,5.1
		C147.4,59.4,146.3,58.7,145.5,57.7z M151.5,54.3c0-2.1-1.2-3.7-3.1-3.7c-1.2,0-2.4,0.7-2.9,1.5v4.4c0.5,0.8,1.7,1.6,2.9,1.6
		C150.3,58,151.5,56.4,151.5,54.3z"/>
	<path class="st0" d="M161.5,59.1V58c-0.8,0.9-1.9,1.3-3.2,1.3c-1.6,0-3.4-1.1-3.4-3.2c0-2.2,1.7-3.2,3.4-3.2c1.3,0,2.4,0.4,3.2,1.3
		v-1.7c0-1.3-1-2-2.4-2c-1.2,0-2.1,0.4-3,1.3l-0.7-1c1-1.1,2.3-1.6,3.9-1.6c2.1,0,3.7,0.9,3.7,3.3v6.6
		C163,59.1,161.5,59.1,161.5,59.1z M161.5,57.1v-1.8c-0.6-0.8-1.6-1.2-2.6-1.2c-1.4,0-2.4,0.9-2.4,2.1s1,2.1,2.4,2.1
		C159.9,58.3,160.9,57.9,161.5,57.1z"/>
	<path class="st0" d="M172.5,59.1v-6.3c0-1.7-0.9-2.2-2.2-2.2c-1.2,0-2.3,0.7-2.9,1.5v7.1h-1.5v-9.7h1.5v1.4c0.7-0.8,2-1.6,3.5-1.6
		c2,0,3.1,1,3.1,3.1v6.8L172.5,59.1L172.5,59.1z"/>
	<path class="st0" d="M176.7,61.5c0.2,0.1,0.6,0.2,0.8,0.2c0.7,0,1.1-0.2,1.4-1l0.6-1.5l-4-9.8h1.6l3.2,7.9l3.2-7.9h1.6L180.3,61
		c-0.6,1.4-1.6,1.9-2.8,2c-0.3,0-0.8-0.1-1.1-0.1L176.7,61.5z"/>
</g>
<g>
	<path class="st0" d="M481.7,152.1v-13.3h5.4c2.7,0,4.2,1.8,4.2,4s-1.5,4-4.2,4h-3.7v5.3H481.7z M489.5,142.8c0-1.5-1.1-2.5-2.7-2.5
		h-3.5v5.1h3.5C488.4,145.3,489.5,144.3,489.5,142.8z"/>
	<path class="st0" d="M499,152.1V151c-0.8,0.9-1.9,1.3-3.2,1.3c-1.6,0-3.4-1.1-3.4-3.2c0-2.2,1.7-3.2,3.4-3.2c1.3,0,2.4,0.4,3.2,1.3
		v-1.7c0-1.3-1-2-2.4-2c-1.2,0-2.1,0.4-3,1.3l-0.7-1c1-1.1,2.3-1.6,3.9-1.6c2.1,0,3.7,0.9,3.7,3.3v6.6L499,152.1L499,152.1z
		 M499,150.1v-1.8c-0.6-0.8-1.6-1.2-2.6-1.2c-1.4,0-2.4,0.9-2.4,2.1c0,1.2,1,2.1,2.4,2.1C497.4,151.3,498.4,150.9,499,150.1z"/>
	<path class="st0" d="M503.2,154.5c0.2,0.1,0.6,0.2,0.8,0.2c0.7,0,1.1-0.2,1.4-1l0.6-1.5l-4-9.8h1.6l3.2,7.9l3.2-7.9h1.6l-4.8,11.6
		c-0.6,1.4-1.6,1.9-2.8,2c-0.3,0-0.8-0.1-1.1-0.1L503.2,154.5z"/>
	<path class="st0" d="M513.3,152.1v-9.7h1.5v1.5c0.8-1,1.9-1.8,3.2-1.8v1.5c-0.2,0-0.4,0-0.6,0c-0.9,0-2.2,0.8-2.6,1.5v6.8h-1.5
		L513.3,152.1L513.3,152.1z"/>
	<path class="st0" d="M519.4,147.3c0-2.8,1.8-5.1,4.8-5.1s4.8,2.3,4.8,5.1s-1.8,5.1-4.8,5.1S519.4,150.1,519.4,147.3z M527.3,147.3
		c0-2-1.1-3.7-3.2-3.7s-3.2,1.8-3.2,3.7c0,2,1.1,3.7,3.2,3.7S527.3,149.3,527.3,147.3z"/>
	<path class="st0" d="M531.4,152.1v-13.3h1.5v13.3H531.4z"/>
	<path class="st0" d="M535.9,152.1v-13.3h1.5v13.3H535.9z"/>
	<path class="st0" d="M546,152.1v-8.3h-1.6v-1.3h1.6v-0.7c0-2,1.1-3.1,2.8-3.1c0.8,0,1.4,0.2,2,0.7l-0.6,1c-0.3-0.3-0.7-0.5-1.2-0.5
		c-1,0-1.5,0.7-1.5,1.9v0.7h2v1.3h-2v8.3L546,152.1L546,152.1z"/>
	<path class="st0" d="M550.7,147.3c0-2.8,1.8-5.1,4.8-5.1s4.8,2.3,4.8,5.1s-1.8,5.1-4.8,5.1S550.7,150.1,550.7,147.3z M558.6,147.3
		c0-2-1.1-3.7-3.2-3.7s-3.2,1.8-3.2,3.7c0,2,1.1,3.7,3.2,3.7S558.6,149.3,558.6,147.3z"/>
	<path class="st0" d="M562.7,152.1v-9.7h1.5v1.5c0.8-1,1.9-1.8,3.2-1.8v1.5c-0.2,0-0.4,0-0.6,0c-0.9,0-2.2,0.8-2.6,1.5v6.8h-1.5
		L562.7,152.1L562.7,152.1z"/>
	<path class="st0" d="M468.2,174.7v5.1h-1.5v-13.3h1.5v1.4c0.7-1,1.9-1.7,3.3-1.7c2.5,0,4.3,1.9,4.3,5.1c0,3.1-1.8,5.1-4.3,5.1
		C470.1,176.4,469,175.7,468.2,174.7z M474.2,171.3c0-2.1-1.2-3.7-3.1-3.7c-1.2,0-2.4,0.7-2.9,1.5v4.4c0.5,0.8,1.7,1.6,2.9,1.6
		C473,175,474.2,173.4,474.2,171.3z"/>
	<path class="st0" d="M484.2,176.1V175c-0.8,0.9-1.9,1.3-3.2,1.3c-1.6,0-3.4-1.1-3.4-3.2c0-2.2,1.7-3.2,3.4-3.2
		c1.3,0,2.4,0.4,3.2,1.3v-1.7c0-1.3-1-2-2.4-2c-1.2,0-2.1,0.4-3,1.3l-0.7-1c1-1.1,2.3-1.6,3.9-1.6c2.1,0,3.7,0.9,3.7,3.3v6.6
		L484.2,176.1L484.2,176.1z M484.2,174.1v-1.8c-0.6-0.8-1.6-1.2-2.6-1.2c-1.4,0-2.4,0.9-2.4,2.1c0,1.2,1,2.1,2.4,2.1
		C482.6,175.3,483.6,174.9,484.2,174.1z"/>
	<path class="st0" d="M488.4,178.5c0.2,0.1,0.6,0.2,0.8,0.2c0.7,0,1.1-0.2,1.4-1l0.6-1.5l-4-9.8h1.6l3.2,7.9l3.2-7.9h1.6L492,178
		c-0.6,1.4-1.6,1.9-2.8,2c-0.3,0-0.8-0.1-1.1-0.1L488.4,178.5z"/>
	<path class="st0" d="M505.2,174.7v5.1h-1.5v-13.3h1.5v1.4c0.7-1,1.9-1.7,3.3-1.7c2.5,0,4.3,1.9,4.3,5.1c0,3.1-1.8,5.1-4.3,5.1
		C507.1,176.4,506,175.7,505.2,174.7z M511.1,171.3c0-2.1-1.2-3.7-3.1-3.7c-1.2,0-2.4,0.7-2.9,1.5v4.4c0.5,0.8,1.7,1.6,2.9,1.6
		C510,175,511.1,173.4,511.1,171.3z"/>
	<path class="st0" d="M514.5,171.3c0-2.8,2-5.1,4.8-5.1c2.9,0,4.6,2.3,4.6,5.2v0.4h-7.8c0.1,1.8,1.4,3.3,3.5,3.3
		c1.1,0,2.2-0.4,3-1.2l0.7,1c-1,1-2.3,1.5-3.8,1.5C516.6,176.4,514.5,174.3,514.5,171.3z M519.3,167.5c-2.1,0-3.1,1.7-3.2,3.2h6.3
		C522.4,169.2,521.5,167.5,519.3,167.5z"/>
	<path class="st0" d="M526.4,176.1v-9.7h1.5v1.5c0.8-1,1.9-1.8,3.2-1.8v1.5c-0.2,0-0.4,0-0.6,0c-0.9,0-2.2,0.8-2.6,1.5v6.8h-1.5
		L526.4,176.1L526.4,176.1z"/>
	<path class="st0" d="M532.7,164.1c0-0.6,0.5-1,1-1s1,0.5,1,1s-0.4,1-1,1S532.7,164.6,532.7,164.1z M533,176.1v-9.7h1.5v9.7H533z"/>
	<path class="st0" d="M536.9,171.3c0-2.8,1.8-5.1,4.8-5.1s4.8,2.3,4.8,5.1s-1.8,5.1-4.8,5.1S536.9,174.1,536.9,171.3z M544.9,171.3
		c0-2-1.1-3.7-3.2-3.7s-3.2,1.8-3.2,3.7c0,2,1.1,3.7,3.2,3.7S544.9,173.3,544.9,171.3z"/>
	<path class="st0" d="M555.9,176.1v-1.4c-0.7,1-1.9,1.7-3.3,1.7c-2.5,0-4.3-1.9-4.3-5.1c0-3.1,1.8-5.1,4.3-5.1
		c1.3,0,2.5,0.6,3.3,1.7v-5.1h1.5v13.3L555.9,176.1L555.9,176.1z M555.9,173.5v-4.4c-0.5-0.8-1.7-1.6-2.9-1.6c-2,0-3.1,1.6-3.1,3.7
		c0,2.1,1.2,3.7,3.1,3.7C554.2,175,555.4,174.3,555.9,173.5z"/>
	<path class="st0" d="M568.9,176.1l1.2-3.6h-2.2l-1.2,3.6h-1.2l1.2-3.6h-2.1l0.3-1.1h2.1l1.3-4h-2.2l0.3-1h2.2l1.2-3.6h1.2l-1.2,3.6
		h2.2l1.2-3.6h1.2l-1.2,3.6h2.1l-0.3,1h-2.2l-1.3,4h2.2l-0.3,1.1h-2.3l-1.2,3.6H568.9z M571.8,167.5h-2.2l-1.3,4h2.2L571.8,167.5z"
		/>
	<path class="st0" d="M579.5,176.1V165l-2.1,2.3l-1-1l3.3-3.4h1.5v13.3h-1.7V176.1z"/>
</g>
<g>
	<path class="st0" d="M824.9,152.1v-13.3h5.4c2.7,0,4.2,1.8,4.2,4s-1.5,4-4.2,4h-3.8v5.3H824.9z M832.7,142.8c0-1.5-1.1-2.5-2.7-2.5
		h-3.5v5.1h3.5C831.6,145.3,832.7,144.3,832.7,142.8z"/>
	<path class="st0" d="M842.2,152.1V151c-0.8,0.9-1.9,1.3-3.2,1.3c-1.6,0-3.4-1.1-3.4-3.2c0-2.2,1.7-3.2,3.4-3.2
		c1.3,0,2.4,0.4,3.2,1.3v-1.7c0-1.3-1-2-2.4-2c-1.2,0-2.1,0.4-3,1.3l-0.7-1c1-1.1,2.3-1.6,3.9-1.6c2.1,0,3.7,0.9,3.7,3.3v6.6
		L842.2,152.1L842.2,152.1z M842.2,150.1v-1.8c-0.6-0.8-1.6-1.2-2.6-1.2c-1.4,0-2.4,0.9-2.4,2.1c0,1.2,1,2.1,2.4,2.1
		C840.6,151.3,841.6,150.9,842.2,150.1z"/>
	<path class="st0" d="M846.4,154.5c0.2,0.1,0.6,0.2,0.8,0.2c0.7,0,1.1-0.2,1.4-1l0.6-1.5l-4-9.8h1.6l3.2,7.9l3.2-7.9h1.6L850,154
		c-0.6,1.4-1.6,1.9-2.8,2c-0.3,0-0.8-0.1-1.1-0.1L846.4,154.5z"/>
	<path class="st0" d="M856.5,152.1v-9.7h1.5v1.5c0.8-1,1.9-1.8,3.2-1.8v1.5c-0.2,0-0.4,0-0.6,0c-0.9,0-2.2,0.8-2.6,1.5v6.8h-1.5
		V152.1z"/>
	<path class="st0" d="M862.6,147.3c0-2.8,1.8-5.1,4.8-5.1s4.8,2.3,4.8,5.1s-1.8,5.1-4.8,5.1S862.6,150.1,862.6,147.3z M870.5,147.3
		c0-2-1.1-3.7-3.2-3.7s-3.2,1.8-3.2,3.7c0,2,1.1,3.7,3.2,3.7S870.5,149.3,870.5,147.3z"/>
	<path class="st0" d="M874.6,152.1v-13.3h1.5v13.3H874.6z"/>
	<path class="st0" d="M879.1,152.1v-13.3h1.5v13.3H879.1z"/>
	<path class="st0" d="M889.2,152.1v-8.3h-1.6v-1.3h1.6v-0.7c0-2,1.1-3.1,2.8-3.1c0.8,0,1.4,0.2,2,0.7l-0.6,1
		c-0.3-0.3-0.7-0.5-1.2-0.5c-1,0-1.5,0.7-1.5,1.9v0.7h2v1.3h-2v8.3L889.2,152.1L889.2,152.1z"/>
	<path class="st0" d="M893.9,147.3c0-2.8,1.8-5.1,4.8-5.1s4.8,2.3,4.8,5.1s-1.8,5.1-4.8,5.1S893.9,150.1,893.9,147.3z M901.8,147.3
		c0-2-1.1-3.7-3.2-3.7s-3.2,1.8-3.2,3.7c0,2,1.1,3.7,3.2,3.7S901.8,149.3,901.8,147.3z"/>
	<path class="st0" d="M905.9,152.1v-9.7h1.5v1.5c0.8-1,1.9-1.8,3.2-1.8v1.5c-0.2,0-0.4,0-0.6,0c-0.9,0-2.2,0.8-2.6,1.5v6.8h-1.5
		L905.9,152.1L905.9,152.1z"/>
	<path class="st0" d="M808.9,174.7v5.1h-1.5v-13.3h1.5v1.4c0.7-1,1.9-1.7,3.3-1.7c2.5,0,4.3,1.9,4.3,5.1c0,3.1-1.8,5.1-4.3,5.1
		C810.8,176.4,809.7,175.7,808.9,174.7z M814.9,171.3c0-2.1-1.2-3.7-3.1-3.7c-1.2,0-2.4,0.7-2.9,1.5v4.4c0.5,0.8,1.7,1.6,2.9,1.6
		C813.7,175,814.9,173.4,814.9,171.3z"/>
	<path class="st0" d="M824.9,176.1V175c-0.8,0.9-1.9,1.3-3.2,1.3c-1.6,0-3.4-1.1-3.4-3.2c0-2.2,1.7-3.2,3.4-3.2
		c1.3,0,2.4,0.4,3.2,1.3v-1.7c0-1.3-1-2-2.4-2c-1.2,0-2.1,0.4-3,1.3l-0.7-1c1-1.1,2.3-1.6,3.9-1.6c2.1,0,3.7,0.9,3.7,3.3v6.6
		L824.9,176.1L824.9,176.1z M824.9,174.1v-1.8c-0.6-0.8-1.6-1.2-2.6-1.2c-1.4,0-2.4,0.9-2.4,2.1c0,1.2,1,2.1,2.4,2.1
		C823.3,175.3,824.3,174.9,824.9,174.1z"/>
	<path class="st0" d="M829.1,178.5c0.2,0.1,0.6,0.2,0.8,0.2c0.7,0,1.1-0.2,1.4-1l0.6-1.5l-4-9.8h1.6l3.2,7.9l3.2-7.9h1.6l-4.8,11.6
		c-0.6,1.4-1.6,1.9-2.8,2c-0.3,0-0.8-0.1-1.1-0.1L829.1,178.5z"/>
	<path class="st0" d="M845.9,174.7v5.1h-1.5v-13.3h1.5v1.4c0.7-1,1.9-1.7,3.3-1.7c2.5,0,4.3,1.9,4.3,5.1c0,3.1-1.8,5.1-4.3,5.1
		C847.8,176.4,846.7,175.7,845.9,174.7z M851.9,171.3c0-2.1-1.2-3.7-3.1-3.7c-1.2,0-2.4,0.7-2.9,1.5v4.4c0.5,0.8,1.7,1.6,2.9,1.6
		C850.7,175,851.9,173.4,851.9,171.3z"/>
	<path class="st0" d="M855.3,171.3c0-2.8,2-5.1,4.8-5.1c2.9,0,4.6,2.3,4.6,5.2v0.4h-7.8c0.1,1.8,1.4,3.3,3.5,3.3
		c1.1,0,2.2-0.4,3-1.2l0.7,1c-1,1-2.3,1.5-3.8,1.5C857.3,176.4,855.3,174.3,855.3,171.3z M860,167.5c-2.1,0-3.1,1.7-3.2,3.2h6.3
		C863.2,169.2,862.2,167.5,860,167.5z"/>
	<path class="st0" d="M867.1,176.1v-9.7h1.5v1.5c0.8-1,1.9-1.8,3.2-1.8v1.5c-0.2,0-0.4,0-0.6,0c-0.9,0-2.2,0.8-2.6,1.5v6.8h-1.5
		L867.1,176.1L867.1,176.1z"/>
	<path class="st0" d="M873.4,164.1c0-0.6,0.5-1,1-1s1,0.5,1,1s-0.4,1-1,1S873.4,164.6,873.4,164.1z M873.7,176.1v-9.7h1.5v9.7H873.7
		z"/>
	<path class="st0" d="M877.6,171.3c0-2.8,1.8-5.1,4.8-5.1s4.8,2.3,4.8,5.1s-1.8,5.1-4.8,5.1S877.6,174.1,877.6,171.3z M885.6,171.3
		c0-2-1.1-3.7-3.2-3.7s-3.2,1.8-3.2,3.7c0,2,1.1,3.7,3.2,3.7S885.6,173.3,885.6,171.3z"/>
	<path class="st0" d="M896.6,176.1v-1.4c-0.7,1-1.9,1.7-3.3,1.7c-2.5,0-4.3-1.9-4.3-5.1c0-3.1,1.8-5.1,4.3-5.1
		c1.3,0,2.5,0.6,3.3,1.7v-5.1h1.5v13.3L896.6,176.1L896.6,176.1z M896.6,173.5v-4.4c-0.5-0.8-1.7-1.6-2.9-1.6c-2,0-3.1,1.6-3.1,3.7
		c0,2.1,1.2,3.7,3.1,3.7C894.9,175,896.1,174.3,896.6,173.5z"/>
	<path class="st0" d="M909.6,176.1l1.2-3.6h-2.2l-1.2,3.6h-1.2l1.2-3.6h-2.1l0.3-1.1h2.1l1.3-4h-2.2l0.3-1h2.2l1.2-3.6h1.2l-1.2,3.6
		h2.2l1.2-3.6h1.2l-1.2,3.6h2.1l-0.3,1h-2.2l-1.3,4h2.2l-0.3,1.1h-2.3l-1.2,3.6H909.6z M912.5,167.5h-2.2l-1.3,4h2.2L912.5,167.5z"
		/>
	<path class="st0" d="M917.7,176.1v-1.3c4.8-3.8,7.4-6,7.4-8.3c0-1.7-1.4-2.4-2.8-2.4c-1.6,0-2.8,0.7-3.6,1.7l-1-1.1
		c1-1.4,2.8-2.1,4.6-2.1c2.2,0,4.5,1.3,4.5,3.9c0,2.7-2.8,5.2-6.5,8.1h6.5v1.5L917.7,176.1L917.7,176.1z"/>
</g>
<g>
	<path class="st0" d="M1164.4,152.1v-13.3h5.4c2.7,0,4.2,1.8,4.2,4s-1.5,4-4.2,4h-3.7v5.3H1164.4z M1172.2,142.8
		c0-1.5-1.1-2.5-2.7-2.5h-3.5v5.1h3.5C1171.1,145.3,1172.2,144.3,1172.2,142.8z"/>
	<path class="st0" d="M1181.7,152.1V151c-0.8,0.9-1.9,1.3-3.2,1.3c-1.6,0-3.4-1.1-3.4-3.2c0-2.2,1.7-3.2,3.4-3.2
		c1.3,0,2.4,0.4,3.2,1.3v-1.7c0-1.3-1-2-2.4-2c-1.2,0-2.1,0.4-3,1.3l-0.7-1c1-1.1,2.3-1.6,3.9-1.6c2.1,0,3.7,0.9,3.7,3.3v6.6
		L1181.7,152.1L1181.7,152.1z M1181.7,150.1v-1.8c-0.6-0.8-1.6-1.2-2.6-1.2c-1.4,0-2.4,0.9-2.4,2.1c0,1.2,1,2.1,2.4,2.1
		C1180.1,151.3,1181.1,150.9,1181.7,150.1z"/>
	<path class="st0" d="M1185.9,154.5c0.2,0.1,0.6,0.2,0.8,0.2c0.7,0,1.1-0.2,1.4-1l0.6-1.5l-4-9.8h1.6l3.2,7.9l3.2-7.9h1.6l-4.8,11.6
		c-0.6,1.4-1.6,1.9-2.8,2c-0.3,0-0.8-0.1-1.1-0.1L1185.9,154.5z"/>
	<path class="st0" d="M1196,152.1v-9.7h1.5v1.5c0.8-1,1.9-1.8,3.2-1.8v1.5c-0.2,0-0.4,0-0.6,0c-0.9,0-2.2,0.8-2.6,1.5v6.8h-1.5
		V152.1z"/>
	<path class="st0" d="M1202.1,147.3c0-2.8,1.8-5.1,4.8-5.1s4.8,2.3,4.8,5.1s-1.8,5.1-4.8,5.1S1202.1,150.1,1202.1,147.3z
		 M1210,147.3c0-2-1.1-3.7-3.2-3.7s-3.2,1.8-3.2,3.7c0,2,1.1,3.7,3.2,3.7S1210,149.3,1210,147.3z"/>
	<path class="st0" d="M1214.1,152.1v-13.3h1.5v13.3H1214.1z"/>
	<path class="st0" d="M1218.6,152.1v-13.3h1.5v13.3H1218.6z"/>
	<path class="st0" d="M1228.7,152.1v-8.3h-1.6v-1.3h1.6v-0.7c0-2,1.1-3.1,2.8-3.1c0.8,0,1.4,0.2,2,0.7l-0.6,1
		c-0.3-0.3-0.7-0.5-1.2-0.5c-1,0-1.5,0.7-1.5,1.9v0.7h2v1.3h-2v8.3L1228.7,152.1L1228.7,152.1z"/>
	<path class="st0" d="M1233.4,147.3c0-2.8,1.8-5.1,4.8-5.1s4.8,2.3,4.8,5.1s-1.8,5.1-4.8,5.1S1233.4,150.1,1233.4,147.3z
		 M1241.3,147.3c0-2-1.1-3.7-3.2-3.7s-3.2,1.8-3.2,3.7c0,2,1.1,3.7,3.2,3.7S1241.3,149.3,1241.3,147.3z"/>
	<path class="st0" d="M1245.4,152.1v-9.7h1.5v1.5c0.8-1,1.9-1.8,3.2-1.8v1.5c-0.2,0-0.4,0-0.6,0c-0.9,0-2.2,0.8-2.6,1.5v6.8h-1.5
		V152.1z"/>
	<path class="st0" d="M1147.2,174.7v5.1h-1.5v-13.3h1.5v1.4c0.7-1,1.9-1.7,3.3-1.7c2.5,0,4.3,1.9,4.3,5.1c0,3.1-1.8,5.1-4.3,5.1
		C1149.1,176.4,1148,175.7,1147.2,174.7z M1153.2,171.3c0-2.1-1.2-3.7-3.1-3.7c-1.2,0-2.4,0.7-2.9,1.5v4.4c0.5,0.8,1.7,1.6,2.9,1.6
		C1152,175,1153.2,173.4,1153.2,171.3z"/>
	<path class="st0" d="M1163.2,176.1V175c-0.8,0.9-1.9,1.3-3.2,1.3c-1.6,0-3.4-1.1-3.4-3.2c0-2.2,1.7-3.2,3.4-3.2
		c1.3,0,2.4,0.4,3.2,1.3v-1.7c0-1.3-1-2-2.4-2c-1.2,0-2.1,0.4-3,1.3l-0.7-1c1-1.1,2.3-1.6,3.9-1.6c2.1,0,3.7,0.9,3.7,3.3v6.6
		L1163.2,176.1L1163.2,176.1z M1163.2,174.1v-1.8c-0.6-0.8-1.6-1.2-2.6-1.2c-1.4,0-2.4,0.9-2.4,2.1c0,1.2,1,2.1,2.4,2.1
		C1161.6,175.3,1162.6,174.9,1163.2,174.1z"/>
	<path class="st0" d="M1167.4,178.5c0.2,0.1,0.6,0.2,0.8,0.2c0.7,0,1.1-0.2,1.4-1l0.6-1.5l-4-9.8h1.6l3.2,7.9l3.2-7.9h1.6L1171,178
		c-0.6,1.4-1.6,1.9-2.8,2c-0.3,0-0.8-0.1-1.1-0.1L1167.4,178.5z"/>
	<path class="st0" d="M1184.2,174.7v5.1h-1.5v-13.3h1.5v1.4c0.7-1,1.9-1.7,3.3-1.7c2.5,0,4.3,1.9,4.3,5.1c0,3.1-1.8,5.1-4.3,5.1
		C1186.1,176.4,1185,175.7,1184.2,174.7z M1190.2,171.3c0-2.1-1.2-3.7-3.1-3.7c-1.2,0-2.4,0.7-2.9,1.5v4.4c0.5,0.8,1.7,1.6,2.9,1.6
		C1189,175,1190.2,173.4,1190.2,171.3z"/>
	<path class="st0" d="M1193.6,171.3c0-2.8,2-5.1,4.8-5.1c2.9,0,4.6,2.3,4.6,5.2v0.4h-7.8c0.1,1.8,1.4,3.3,3.5,3.3
		c1.1,0,2.2-0.4,3-1.2l0.7,1c-1,1-2.3,1.5-3.8,1.5C1195.6,176.4,1193.6,174.3,1193.6,171.3z M1198.3,167.5c-2.1,0-3.1,1.7-3.2,3.2
		h6.3C1201.5,169.2,1200.5,167.5,1198.3,167.5z"/>
	<path class="st0" d="M1205.4,176.1v-9.7h1.5v1.5c0.8-1,1.9-1.8,3.2-1.8v1.5c-0.2,0-0.4,0-0.6,0c-0.9,0-2.2,0.8-2.6,1.5v6.8h-1.5
		V176.1z"/>
	<path class="st0" d="M1211.7,164.1c0-0.6,0.5-1,1-1s1,0.5,1,1s-0.4,1-1,1S1211.7,164.6,1211.7,164.1z M1212,176.1v-9.7h1.5v9.7
		H1212z"/>
	<path class="st0" d="M1215.9,171.3c0-2.8,1.8-5.1,4.8-5.1s4.8,2.3,4.8,5.1s-1.8,5.1-4.8,5.1S1215.9,174.1,1215.9,171.3z
		 M1223.9,171.3c0-2-1.1-3.7-3.2-3.7s-3.2,1.8-3.2,3.7c0,2,1.1,3.7,3.2,3.7S1223.9,173.3,1223.9,171.3z"/>
	<path class="st0" d="M1234.9,176.1v-1.4c-0.7,1-1.9,1.7-3.3,1.7c-2.5,0-4.3-1.9-4.3-5.1c0-3.1,1.8-5.1,4.3-5.1
		c1.3,0,2.5,0.6,3.3,1.7v-5.1h1.5v13.3L1234.9,176.1L1234.9,176.1z M1234.9,173.5v-4.4c-0.5-0.8-1.7-1.6-2.9-1.6
		c-2,0-3.1,1.6-3.1,3.7c0,2.1,1.2,3.7,3.1,3.7C1233.2,175,1234.4,174.3,1234.9,173.5z"/>
	<path class="st0" d="M1247.9,176.1l1.2-3.6h-2.2l-1.2,3.6h-1.2l1.2-3.6h-2.1l0.3-1.1h2.1l1.3-4h-2.2l0.3-1h2.2l1.2-3.6h1.2
		l-1.2,3.6h2.2l1.2-3.6h1.2l-1.2,3.6h2.1l-0.3,1h-2.2l-1.3,4h2.2l-0.3,1.1h-2.3l-1.2,3.6H1247.9z M1250.8,167.5h-2.2l-1.3,4h2.2
		L1250.8,167.5z"/>
	<path class="st0" d="M1265.9,176.1l-7.8-10.6v10.6h-1.7v-13.3h1.7l7.7,10.4v-10.4h1.7v13.3H1265.9z"/>
</g>
<g>
	<g>
		<g>
			<path class="st1" d="M470.3,240.5v32.9H429v-32.9c0-12.8,9.2-21,20.6-21C461,219.4,470.3,227.7,470.3,240.5z"/>
			<polygon class="st2" points="454.8,260.8 444.6,260.8 445.3,251.9 454.2,251.9 			"/>
			<ellipse class="st2" cx="449.6" cy="239.4" rx="15.1" ry="17"/>
			<path class="st2" d="M456.5,259.6l15.3,6.9c3.9,1.8,6.4,5.6,6.4,9.9l0,0h-57l0,0c0-4.3,2.5-8.2,6.4-9.9l15.3-6.9H456.5z"/>
			<circle class="st3" cx="449.7" cy="265.5" r="1.7"/>
			<path class="st4" d="M453.9,246.7c0,0-2,1.5-4.3,1.5s-4.3-1.5-4.3-1.5"/>
			<path class="st1" d="M469.4,241.2c-7.6-0.1-19.8-11.1-19.8-15.1c0,3.9-12.1,15-19.8,15.1c0.7-11.6,9.3-20.7,19.8-20.7
				S468.7,229.6,469.4,241.2z"/>
		</g>
		<g>
			<polygon class="st3" points="459.8,261.1 456.5,259.6 451.9,259.6 447.5,259.6 442.9,259.6 439.7,261.1 441.2,265.8 449.7,260.9 
				458.2,265.8 			"/>
		</g>
	</g>
	<g>
		<g>
			<path class="st1" d="M540.3,240.5v32.9H499v-32.9c0-12.8,9.2-21,20.6-21C531,219.4,540.3,227.7,540.3,240.5z"/>
			<polygon class="st2" points="524.8,260.8 514.6,260.8 515.3,251.9 524.2,251.9 			"/>
			<ellipse class="st2" cx="519.6" cy="239.4" rx="15.1" ry="17"/>
			<path class="st2" d="M526.5,259.6l15.3,6.9c3.9,1.8,6.4,5.6,6.4,9.9l0,0h-57l0,0c0-4.3,2.5-8.2,6.4-9.9l15.3-6.9H526.5z"/>
			<circle class="st3" cx="519.7" cy="265.5" r="1.7"/>
			<path class="st4" d="M523.9,246.7c0,0-2,1.5-4.3,1.5s-4.3-1.5-4.3-1.5"/>
			<path class="st1" d="M539.4,241.2c-7.6-0.1-19.8-11.1-19.8-15.1c0,3.9-12.1,15-19.8,15.1c0.7-11.6,9.3-20.7,19.8-20.7
				C530.1,220.5,538.7,229.6,539.4,241.2z"/>
		</g>
		<g>
			<polygon class="st3" points="529.8,261.1 526.5,259.6 521.9,259.6 517.5,259.6 512.9,259.6 509.7,261.1 511.2,265.8 519.7,260.9 
				528.2,265.8 			"/>
		</g>
	</g>
	<g>
		<g>
			<path class="st1" d="M610.3,240.5v32.9H569v-32.9c0-12.8,9.2-21,20.6-21C601,219.4,610.3,227.7,610.3,240.5z"/>
			<polygon class="st2" points="594.8,260.8 584.6,260.8 585.3,251.9 594.2,251.9 			"/>
			<ellipse class="st2" cx="589.6" cy="239.4" rx="15.1" ry="17"/>
			<path class="st2" d="M596.5,259.6l15.3,6.9c3.9,1.8,6.4,5.6,6.4,9.9l0,0h-57l0,0c0-4.3,2.5-8.2,6.4-9.9l15.3-6.9H596.5z"/>
			<circle class="st3" cx="589.7" cy="265.5" r="1.7"/>
			<path class="st4" d="M593.9,246.7c0,0-2,1.5-4.3,1.5s-4.3-1.5-4.3-1.5"/>
			<path class="st1" d="M609.4,241.2c-7.6-0.1-19.8-11.1-19.8-15.1c0,3.9-12.1,15-19.8,15.1c0.7-11.6,9.3-20.7,19.8-20.7
				C600.1,220.5,608.7,229.6,609.4,241.2z"/>
		</g>
		<g>
			<polygon class="st3" points="599.8,261.1 596.5,259.6 591.9,259.6 587.5,259.6 582.9,259.6 579.7,261.1 581.2,265.8 589.7,260.9 
				598.2,265.8 			"/>
		</g>
	</g>
</g>
<g>
	<g>
		<g>
			<path class="st1" d="M819.3,240.5v32.9H778v-32.9c0-12.8,9.2-21,20.6-21C810,219.4,819.3,227.7,819.3,240.5z"/>
			<polygon class="st2" points="803.8,260.8 793.6,260.8 794.3,251.9 803.2,251.9 			"/>
			<ellipse class="st2" cx="798.6" cy="239.4" rx="15.1" ry="17"/>
			<path class="st2" d="M805.5,259.6l15.3,6.9c3.9,1.8,6.4,5.6,6.4,9.9l0,0h-57l0,0c0-4.3,2.5-8.2,6.4-9.9l15.3-6.9H805.5z"/>
			<circle class="st3" cx="798.7" cy="265.5" r="1.7"/>
			<path class="st4" d="M802.9,246.7c0,0-2,1.5-4.3,1.5s-4.3-1.5-4.3-1.5"/>
			<path class="st1" d="M818.4,241.2c-7.6-0.1-19.8-11.1-19.8-15.1c0,3.9-12.1,15-19.8,15.1c0.7-11.6,9.3-20.7,19.8-20.7
				C809.1,220.5,817.7,229.6,818.4,241.2z"/>
		</g>
		<g>
			<polygon class="st3" points="808.8,261.1 805.5,259.6 800.9,259.6 796.5,259.6 791.9,259.6 788.7,261.1 790.2,265.8 798.7,260.9 
				807.2,265.8 			"/>
		</g>
	</g>
	<g>
		<g>
			<path class="st1" d="M889.3,240.5v32.9H848v-32.9c0-12.8,9.2-21,20.6-21C880,219.4,889.3,227.7,889.3,240.5z"/>
			<polygon class="st2" points="873.8,260.8 863.6,260.8 864.3,251.9 873.2,251.9 			"/>
			<ellipse class="st2" cx="868.6" cy="239.4" rx="15.1" ry="17"/>
			<path class="st2" d="M875.5,259.6l15.3,6.9c3.9,1.8,6.4,5.6,6.4,9.9l0,0h-57l0,0c0-4.3,2.5-8.2,6.4-9.9l15.3-6.9H875.5z"/>
			<circle class="st3" cx="868.7" cy="265.5" r="1.7"/>
			<path class="st4" d="M872.9,246.7c0,0-2,1.5-4.3,1.5s-4.3-1.5-4.3-1.5"/>
			<path class="st1" d="M888.4,241.2c-7.6-0.1-19.8-11.1-19.8-15.1c0,3.9-12.1,15-19.8,15.1c0.7-11.6,9.3-20.7,19.8-20.7
				C879.1,220.5,887.7,229.6,888.4,241.2z"/>
		</g>
		<g>
			<polygon class="st3" points="878.8,261.1 875.5,259.6 870.9,259.6 866.5,259.6 861.9,259.6 858.7,261.1 860.2,265.8 868.7,260.9 
				877.2,265.8 			"/>
		</g>
	</g>
	<g>
		<g>
			<path class="st1" d="M959.3,240.5v32.9H918v-32.9c0-12.8,9.2-21,20.6-21C950,219.4,959.3,227.7,959.3,240.5z"/>
			<polygon class="st2" points="943.8,260.8 933.6,260.8 934.3,251.9 943.2,251.9 			"/>
			<ellipse class="st2" cx="938.6" cy="239.4" rx="15.1" ry="17"/>
			<path class="st2" d="M945.5,259.6l15.3,6.9c3.9,1.8,6.4,5.6,6.4,9.9l0,0h-57l0,0c0-4.3,2.5-8.2,6.4-9.9l15.3-6.9H945.5z"/>
			<circle class="st3" cx="938.7" cy="265.5" r="1.7"/>
			<path class="st4" d="M942.9,246.7c0,0-2,1.5-4.3,1.5s-4.3-1.5-4.3-1.5"/>
			<path class="st1" d="M958.4,241.2c-7.6-0.1-19.8-11.1-19.8-15.1c0,3.9-12.1,15-19.8,15.1c0.7-11.6,9.3-20.7,19.8-20.7
				C949.1,220.5,957.7,229.6,958.4,241.2z"/>
		</g>
		<g>
			<polygon class="st3" points="948.8,261.1 945.5,259.6 940.9,259.6 936.5,259.6 931.9,259.6 928.7,261.1 930.2,265.8 938.7,260.9 
				947.2,265.8 			"/>
		</g>
	</g>
</g>
<g>
	<g>
		<g>
			<path class="st1" d="M1153.3,240.5v32.9H1112v-32.9c0-12.8,9.2-21,20.6-21S1153.3,227.7,1153.3,240.5z"/>
			<polygon class="st2" points="1137.8,260.8 1127.6,260.8 1128.3,251.9 1137.2,251.9 			"/>
			<ellipse class="st2" cx="1132.6" cy="239.4" rx="15.1" ry="17"/>
			<path class="st2" d="M1139.5,259.6l15.3,6.9c3.9,1.8,6.4,5.6,6.4,9.9l0,0h-57l0,0c0-4.3,2.5-8.2,6.4-9.9l15.3-6.9H1139.5z"/>
			<circle class="st3" cx="1132.7" cy="265.5" r="1.7"/>
			<path class="st4" d="M1136.9,246.7c0,0-2,1.5-4.3,1.5s-4.3-1.5-4.3-1.5"/>
			<path class="st1" d="M1152.4,241.2c-7.6-0.1-19.8-11.1-19.8-15.1c0,3.9-12.1,15-19.8,15.1c0.7-11.6,9.3-20.7,19.8-20.7
				S1151.7,229.6,1152.4,241.2z"/>
		</g>
		<g>
			<polygon class="st3" points="1142.8,261.1 1139.5,259.6 1134.9,259.6 1130.5,259.6 1125.9,259.6 1122.7,261.1 1124.2,265.8 
				1132.7,260.9 1141.2,265.8 			"/>
		</g>
	</g>
	<g>
		<g>
			<path class="st1" d="M1223.3,240.5v32.9H1182v-32.9c0-12.8,9.2-21,20.6-21S1223.3,227.7,1223.3,240.5z"/>
			<polygon class="st2" points="1207.8,260.8 1197.6,260.8 1198.3,251.9 1207.2,251.9 			"/>
			<ellipse class="st2" cx="1202.6" cy="239.4" rx="15.1" ry="17"/>
			<path class="st2" d="M1209.5,259.6l15.3,6.9c3.9,1.8,6.4,5.6,6.4,9.9l0,0h-57l0,0c0-4.3,2.5-8.2,6.4-9.9l15.3-6.9H1209.5z"/>
			<circle class="st3" cx="1202.7" cy="265.5" r="1.7"/>
			<path class="st4" d="M1206.9,246.7c0,0-2,1.5-4.3,1.5s-4.3-1.5-4.3-1.5"/>
			<path class="st1" d="M1222.4,241.2c-7.6-0.1-19.8-11.1-19.8-15.1c0,3.9-12.1,15-19.8,15.1c0.7-11.6,9.3-20.7,19.8-20.7
				S1221.7,229.6,1222.4,241.2z"/>
		</g>
		<g>
			<polygon class="st3" points="1212.8,261.1 1209.5,259.6 1204.9,259.6 1200.5,259.6 1195.9,259.6 1192.7,261.1 1194.2,265.8 
				1202.7,260.9 1211.2,265.8 			"/>
		</g>
	</g>
	<g>
		<g>
			<path class="st1" d="M1293.3,240.5v32.9H1252v-32.9c0-12.8,9.2-21,20.6-21S1293.3,227.7,1293.3,240.5z"/>
			<polygon class="st2" points="1277.8,260.8 1267.6,260.8 1268.3,251.9 1277.2,251.9 			"/>
			<ellipse class="st2" cx="1272.6" cy="239.4" rx="15.1" ry="17"/>
			<path class="st2" d="M1279.5,259.6l15.3,6.9c3.9,1.8,6.4,5.6,6.4,9.9l0,0h-57l0,0c0-4.3,2.5-8.2,6.4-9.9l15.3-6.9H1279.5z"/>
			<circle class="st3" cx="1272.7" cy="265.5" r="1.7"/>
			<path class="st4" d="M1276.9,246.7c0,0-2,1.5-4.3,1.5s-4.3-1.5-4.3-1.5"/>
			<path class="st1" d="M1292.4,241.2c-7.6-0.1-19.8-11.1-19.8-15.1c0,3.9-12.1,15-19.8,15.1c0.7-11.6,9.3-20.7,19.8-20.7
				S1291.7,229.6,1292.4,241.2z"/>
		</g>
		<g>
			<polygon class="st3" points="1282.8,261.1 1279.5,259.6 1274.9,259.6 1270.5,259.6 1265.9,259.6 1262.7,261.1 1264.2,265.8 
				1272.7,260.9 1281.2,265.8 			"/>
		</g>
	</g>
</g>
<g>
	<rect x="50" y="188.3" class="st3" width="15" height="8.3"/>
</g>
<g>
	<rect x="50" y="213.4" class="st3" width="15" height="8.3"/>
</g>
<g>
	<rect x="50" y="238.5" class="st3" width="15" height="8.3"/>
</g>
<g>
	<rect x="205.4" y="188.3" class="st5" width="15" height="8.3"/>
</g>
<g>
	<rect x="205.4" y="213.4" class="st5" width="15" height="8.3"/>
</g>
<g>
	<rect x="205.4" y="238.5" class="st5" width="15" height="8.3"/>
</g>
<line class="st6" x1="523.9" y1="83" x2="523.9" y2="123.1"/>
<g>
	<g>
		<line class="st6" x1="143.8" y1="83.4" x2="143.9" y2="85.4"/>
		<line class="st7" x1="143.9" y1="89.7" x2="144.3" y2="138.3"/>
		<line class="st6" x1="144.3" y1="140.4" x2="144.3" y2="142.4"/>
	</g>
</g>
<line class="st6" x1="144.1" y1="83.1" x2="1144.1" y2="82.7"/>
<g>
	<line class="st6" x1="515" y1="114.9" x2="523.6" y2="123.1"/>
	<line class="st6" x1="532.8" y1="114.9" x2="524.2" y2="123.1"/>
</g>
<line class="st6" x1="867.1" y1="83" x2="867.1" y2="123.1"/>
<g>
	<line class="st6" x1="858.3" y1="114.9" x2="866.8" y2="123.1"/>
	<line class="st6" x1="876" y1="114.9" x2="867.4" y2="123.1"/>
</g>
<g>
	<g>
		<line class="st6" x1="1206.6" y1="83" x2="1206.6" y2="85"/>
		<line class="st8" x1="1206.6" y1="89" x2="1206.6" y2="119.1"/>
		<line class="st6" x1="1206.6" y1="121.1" x2="1206.6" y2="123.1"/>
	</g>
</g>
<g>
	<line class="st6" x1="1197.8" y1="114.9" x2="1206.3" y2="123.1"/>
	<line class="st6" x1="1215.5" y1="114.9" x2="1206.9" y2="123.1"/>
</g>
<g>
	<g>
		<rect x="133.7" y="186.9" class="st5" width="73.1" height="88.4"/>
		<rect x="51.3" y="175.5" class="st5" width="29.6" height="99.8"/>
		<rect x="80.9" y="144.5" class="st9" width="52.8" height="130.7"/>
		<rect x="145.6" y="164.3" class="st9" width="49.3" height="11.2"/>
		<g>
			<line class="st10" x1="157.2" y1="175.5" x2="157.2" y2="186.9"/>
			<line class="st10" x1="183.3" y1="175.5" x2="183.3" y2="186.9"/>
		</g>
		<g>
			<rect x="95.4" y="157.8" class="st5" width="5.9" height="12.1"/>
			<rect x="113.2" y="157.8" class="st5" width="5.9" height="12.1"/>
			<g>
				<rect x="145.6" y="200.8" class="st3" width="10.2" height="20.3"/>
				<g>
					<rect x="165.1" y="200.8" class="st3" width="10.2" height="20.3"/>
				</g>
				<g>
					<rect x="184.7" y="200.8" class="st3" width="10.2" height="20.3"/>
				</g>
				<rect x="145.6" y="230.2" class="st3" width="10.2" height="20.3"/>
				<g>
					<rect x="165.1" y="230.2" class="st3" width="10.2" height="20.3"/>
				</g>
				<g>
					<rect x="184.7" y="230.2" class="st3" width="10.2" height="20.3"/>
				</g>
			</g>
		</g>
		<g>
			<rect x="95.4" y="177.9" class="st5" width="5.9" height="12.1"/>
			<rect x="113.2" y="177.9" class="st5" width="5.9" height="12.1"/>
		</g>
		<g>
			<rect x="95.4" y="198.1" class="st5" width="5.9" height="12.1"/>
			<rect x="113.2" y="198.1" class="st5" width="5.9" height="12.1"/>
		</g>
		<g>
			<rect x="95.4" y="218.2" class="st5" width="5.9" height="12.1"/>
			<rect x="113.2" y="218.2" class="st5" width="5.9" height="12.1"/>
		</g>
		<g>
			<rect x="95.4" y="238.3" class="st5" width="5.9" height="12.1"/>
			<rect x="113.2" y="238.3" class="st5" width="5.9" height="12.1"/>
		</g>
		<rect x="159.8" y="256.8" class="st9" width="20.8" height="18.5"/>
	</g>
	<rect x="206.8" y="175.5" class="st9" width="29.6" height="99.8"/>
</g>
<g>
	<g>
		<line class="st6" x1="1112.1" y1="82.8" x2="1114.1" y2="82.8"/>
		<line class="st11" x1="1118" y1="82.7" x2="1203.1" y2="82.3"/>
		<line class="st6" x1="1205.1" y1="82.3" x2="1207.1" y2="82.3"/>
	</g>
</g>
</svg>
