<?xml version="1.0" encoding="utf-8"?>
<!-- Generator: Adobe Illustrator 19.2.1, SVG Export Plug-In . SVG Version: 6.00 Build 0)  -->
<svg version="1.1" id="Layer_1" xmlns="http://www.w3.org/2000/svg" xmlns:xlink="http://www.w3.org/1999/xlink" x="0px" y="0px"
	 viewBox="0 0 40.6 44.4" style="enable-background:new 0 0 40.6 44.4;" xml:space="preserve">
<style type="text/css">
	.st0{fill:#25D6C9;}
	.st1{fill:#7CF7E8;}
	.st2{fill:#11B0A5;}
	.st3{fill:none;stroke:#11B0A5;stroke-width:0.3;stroke-miterlimit:10;}
</style>
<g>
	<g>
		<g>
			<g>
				<g>
					<path class="st0" d="M15.4,34.1c0,0,4.2-0.4,9.6-1c0.3,0,0.5,0.4,0.3,0.6L14,44.3c-0.2,0.2-0.6,0-0.6-0.3
						c0.2-1.8,0.5-5.7-0.5-8.5L15.4,34.1z"/>
				</g>
				<g>
					<path class="st0" d="M10.4,28.9c0,0,0.6-4.2,1.5-9.5c0.1-0.3-0.3-0.5-0.6-0.3L0.1,29.7c-0.2,0.2-0.1,0.6,0.3,0.6
						c1.8-0.1,5.7-0.2,8.5,0.9L10.4,28.9z"/>
				</g>
			</g>
			<g>
				<path class="st1" d="M14.5,34.9c-4.4,2.7-7.2,3.7-7.2,3.7l-1.8-1.9c0,0,1.2-2.7,4.1-7L14.5,34.9z"/>
			</g>
			<g>
				<path class="st0" d="M25.9,26.9c-6.2,5.9-7.2,5.5-11.4,8l-4.9-5.2c2.7-4,2.3-5.1,8.5-11c4.1-3.9,7.2-5.7,11.6-8.5l5.3,5.6
					C31.9,20,30,23,25.9,26.9z"/>
			</g>
			<g>
				<ellipse transform="matrix(0.7246 -0.6891 0.6891 0.7246 -3.5085 24.254)" class="st1" cx="28.6" cy="16.5" rx="2" ry="2"/>
			</g>
			<g>
				<path class="st1" d="M34.9,15.8l-5.3-5.6c6.3-4,9.5-4.5,10.8-5.1c0.1,0,0.2,0.1,0.1,0.1C39.9,6.5,39.3,9.7,34.9,15.8z"/>
			</g>
		</g>
	</g>
</g>
<g>
	<path class="st2" d="M18.2,4.9C19,5.7,18.9,7,18.1,7.8C18.9,7,20.2,7,21,7.8c-0.8-0.8-0.7-2.1,0.1-2.9C20.3,5.7,19,5.7,18.2,4.9z"
		/>
	<path class="st3" d="M18.2,4.9C19,5.7,18.9,7,18.1,7.8C18.9,7,20.2,7,21,7.8c-0.8-0.8-0.7-2.1,0.1-2.9C20.3,5.7,19,5.7,18.2,4.9z"
		/>
</g>
<g>
	<path class="st2" d="M20.2,0.1c0.5,0.5,0.5,1.3,0,1.8c0.5-0.5,1.3-0.5,1.8,0c-0.5-0.5-0.5-1.3,0-1.8C21.5,0.6,20.7,0.6,20.2,0.1z"
		/>
	<path class="st3" d="M20.2,0.1c0.5,0.5,0.5,1.3,0,1.8c0.5-0.5,1.3-0.5,1.8,0c-0.5-0.5-0.5-1.3,0-1.8C21.5,0.6,20.7,0.6,20.2,0.1z"
		/>
</g>
<g>
	<path class="st2" d="M23.9,2.8C25.1,4,25,5.9,23.8,7.1C25,5.9,26.9,6,28.1,7.2C26.9,6,27,4.1,28.2,2.9C27,4.1,25.1,4,23.9,2.8z"/>
	<path class="st3" d="M23.9,2.8C25.1,4,25,5.9,23.8,7.1C25,5.9,26.9,6,28.1,7.2C26.9,6,27,4.1,28.2,2.9C27,4.1,25.1,4,23.9,2.8z"/>
</g>
</svg>
